<svg width="44" height="44" viewBox="0 0 44 44" fill="none" xmlns="http://www.w3.org/2000/svg">
<path d="M9.6725 9.68879C9.01824 10.3441 8.07255 10.4164 7.34543 9.907C7.27258 9.83402 7.19974 9.76104 7.12688 9.68879C6.39976 8.96048 6.39976 7.79503 7.12688 7.13825C7.854 6.41066 9.01824 6.41066 9.6725 7.13825C10.3275 7.79503 10.3996 8.96048 9.6725 9.68879Z" fill="white"/>
<path d="M4.57968 21.9998C4.57968 22.9463 3.85327 23.6746 2.98044 23.8206C2.90759 23.8206 2.83475 23.8206 2.76189 23.8206C1.74407 23.8206 0.943359 23.0193 0.943359 21.9998C0.943359 20.9796 1.74407 20.1783 2.76189 20.1783C2.83475 20.1783 2.90759 20.1783 2.98044 20.1783C3.85327 20.3235 4.57968 21.0525 4.57968 21.9998Z" fill="white"/>
<path d="M9.6725 34.8942C10.2546 35.4765 10.3275 36.3508 10.0361 37.0069C9.96321 37.1521 9.81821 37.2988 9.6725 37.444C8.94538 38.1723 7.78186 38.1723 7.12688 37.444C6.39976 36.7157 6.39976 35.5502 7.12688 34.8942C7.27259 34.7482 7.41757 34.676 7.56328 34.603C8.21827 34.2381 9.09109 34.3118 9.6725 34.8942Z" fill="white"/>
<path d="M21.9638 39.4095C22.9095 39.4095 23.7094 40.2108 23.7823 41.1573V41.231C23.7823 42.2505 22.9823 43.0518 21.9638 43.0518C20.9452 43.0518 20.146 42.2505 20.146 41.231V41.1573C20.2189 40.2108 21.0181 39.4095 21.9638 39.4095Z" fill="white"/>
<path d="M34.2551 34.8942C34.8372 34.3118 35.7093 34.2381 36.4372 34.603C36.5822 34.676 36.7279 34.8212 36.8729 34.8942C37.6007 35.6225 37.6007 36.7887 36.8729 37.444C36.1458 38.1723 34.9822 38.1723 34.328 37.444C34.1823 37.2988 34.1094 37.1521 33.9644 37.0069C33.6001 36.3508 33.673 35.4765 34.2551 34.8942Z" fill="white"/>
<path d="M40.9464 23.8206C40.0743 23.7483 39.3472 22.9463 39.3472 21.9998C39.3472 21.0525 40.0014 20.3235 40.9464 20.1783C41.02 20.1783 41.0921 20.1783 41.165 20.1783C42.1828 20.1783 42.9835 20.9796 42.9835 21.9998C42.9835 23.0193 42.1828 23.8206 41.165 23.8206C41.0921 23.8206 41.02 23.8206 40.9464 23.8206Z" fill="white"/>
<path d="M36.5821 9.83492C35.855 10.345 34.9093 10.272 34.2551 9.61671C33.6001 8.96138 33.5279 8.01341 34.0365 7.28583C34.1093 7.21285 34.1822 7.13915 34.2551 7.0669C34.9822 6.33858 36.1457 6.33858 36.8007 7.0669C37.5278 7.79593 37.5278 8.96138 36.8007 9.61671C36.8007 9.76194 36.655 9.83492 36.5821 9.83492Z" fill="white"/>
<path d="M21.9638 4.5896C21.091 4.5896 20.3638 3.93427 20.146 3.13226C20.146 2.98703 20.146 2.91405 20.146 2.76882C20.146 1.74861 20.9452 0.947323 21.9638 0.947323C22.9823 0.947323 23.7823 1.74861 23.7823 2.76882C23.7823 2.91405 23.7823 2.98703 23.7823 3.13226C23.5637 3.93427 22.8366 4.5896 21.9638 4.5896Z" fill="white"/>
<path d="M28.2172 29.1393C26.9808 33.5829 24.7259 36.6421 22.0353 36.6421H21.9624C21.9624 35.6226 21.9624 29.3575 21.9624 28.4832C24.1445 28.5562 26.2537 28.7752 28.2172 29.1393Z" fill="white" fill-opacity="0.2"/>
<path d="M15.7102 29.1393C16.9459 33.5829 19.2008 36.6421 21.8914 36.6421C19.2737 36.6421 16.5102 35.8415 14.1095 34.3119C13.6731 34.02 12.946 33.5099 12.4374 33.0728C12.146 32.8546 11.8553 32.5634 11.7096 32.4174C11.2003 31.908 10.8368 31.4702 10.4732 31.0338C10.4004 30.9608 10.3282 30.8149 10.2554 30.7419C11.9275 30.0865 13.746 29.5764 15.7102 29.1393Z" fill="white" fill-opacity="0.2"/>
<path d="M21.9619 22.1458V28.5561C19.7805 28.5561 17.6713 28.775 15.7078 29.2122C15.1257 27.0995 14.835 24.6956 14.835 22.1458H21.9619Z" fill="white" fill-opacity="0.2"/>
<path d="M29.1636 22.1455H36.5098C36.5098 25.4236 35.4184 28.4106 33.6728 30.8145C32.0007 30.0861 30.1822 29.576 28.2915 29.1389C28.8001 27.0992 29.1636 24.6953 29.1636 22.1455Z" fill="white" fill-opacity="0.2"/>
<path d="M33.6711 13.4043C31.999 14.1333 30.1805 14.6427 28.2899 15.0806C27.0535 10.6363 24.7985 7.64934 22.1079 7.57709C22.18 7.57709 22.9807 7.57709 23.3443 7.64934C25.8171 7.86827 28.2898 8.74252 30.3983 10.2721C31.5626 11.0741 32.7261 12.1659 33.6711 13.4043Z" fill="white" fill-opacity="0.2"/>
<path d="M29.1622 22.1462H21.9624V15.7359C24.1445 15.7359 26.2537 15.517 28.2172 15.0806C28.7986 17.1926 29.1622 19.5971 29.1622 22.1462Z" fill="white" fill-opacity="0.2"/>
<path d="M7.41699 22.0005C7.41699 18.7947 8.5084 15.8077 10.2541 13.4768C11.9261 14.2059 13.7447 14.716 15.636 15.1524C15.0539 17.2651 14.7632 19.6689 14.7632 22.218H7.41699C7.41699 22.0728 7.41699 22.0728 7.41699 22.0005Z" fill="white" fill-opacity="0.2"/>
<path d="M15.709 15.0793C16.9447 10.635 19.1996 7.5758 21.8902 7.5758H21.9631V15.7346C19.7817 15.7346 17.6725 15.5157 15.709 15.0793Z" fill="white" fill-opacity="0.2"/>
<path d="M22.0366 36.7141C24.7272 36.6404 27.055 33.6542 28.2186 29.2106C30.1092 29.5748 31.9277 30.1579 33.5998 30.8862C33.5998 30.8862 33.4548 31.0321 33.382 31.1774C30.4728 34.7467 26.2551 36.7141 22.0366 36.7141Z" fill="white" fill-opacity="0.2"/>
<path d="M21.8902 36.7141C19.1996 36.6404 16.8718 33.6542 15.709 29.2106C17.6725 28.7735 19.7817 28.5546 21.9631 28.5546C21.9631 29.4288 21.9631 35.6939 21.9631 36.7141H21.8902Z" fill="white" fill-opacity="0.2"/>
<path d="M21.9624 22.1458H29.1622C29.1622 24.6956 28.8715 27.0995 28.2901 29.2122C26.3258 28.775 24.2173 28.5561 22.0353 28.5561L21.9624 22.1458Z" fill="white" fill-opacity="0.2"/>
<path d="M14.7632 22.1446C14.7632 24.6944 15.0539 27.0982 15.636 29.2109C13.7447 29.5751 11.9261 30.1582 10.2541 30.8865C8.43554 28.4819 7.41699 25.4227 7.41699 22.2168H14.7632V22.1446Z" fill="white" fill-opacity="0.2"/>
<path d="M36.5098 22.1462H29.1636C29.1636 19.5971 28.8729 17.1926 28.2915 15.0806C30.1822 14.7164 32.0007 14.1334 33.6728 13.4043C35.4913 15.9549 36.5098 18.9411 36.5098 22.1462Z" fill="white" fill-opacity="0.2"/>
<path d="M21.9634 15.7359V22.1462H14.7637C14.7637 19.5971 15.0544 17.1926 15.6365 15.0806C17.6729 15.517 19.7821 15.7359 21.9634 15.7359Z" fill="white" fill-opacity="0.2"/>
<path d="M22.0353 7.5758C24.7259 7.64805 26.9808 10.708 28.2172 15.0793C26.2537 15.5157 24.1445 15.7346 21.9624 15.7346V7.5758H22.0353Z" fill="white" fill-opacity="0.2"/>
<path d="M13.5281 10.2719C16.0002 8.52334 18.9822 7.57684 21.8186 7.57684C19.1279 7.6491 16.8009 10.636 15.6373 15.0803C13.746 14.7162 11.9275 14.1331 10.2554 13.4041C11.2003 12.2386 12.2917 11.1461 13.5281 10.2719Z" fill="white" fill-opacity="0.2"/>
<path d="M21.9628 40.3572C21.4535 40.3572 21.0171 39.9193 21.0171 39.4099V36.6412C21.0171 36.1318 21.4535 35.6947 21.9628 35.6947C22.4721 35.6947 22.9085 36.1318 22.9085 36.6412V39.4099C22.9085 39.9193 22.4721 40.3572 21.9628 40.3572Z" fill="white"/>
<path d="M36.4345 35.4758C36.2159 35.4758 35.9981 35.4036 35.8523 35.2576C35.4888 34.8927 35.4159 34.3834 35.7795 33.9462C38.2523 31.033 39.7801 27.4629 40.1436 23.6747C40.2158 23.1653 40.6522 22.8005 41.1614 22.8742C41.6707 22.9464 42.0343 23.3835 41.9614 23.8936C41.5979 28.1183 39.9251 31.9795 37.2344 35.1846C36.9437 35.4036 36.6523 35.4758 36.4345 35.4758Z" fill="white"/>
<path d="M23.783 42.1045C23.3466 42.1045 22.9102 41.7404 22.9102 41.3039C22.8373 40.7931 23.2009 40.3567 23.7102 40.283C27.2736 39.9189 30.6192 38.6082 33.3827 36.3496C33.7463 36.0584 34.3284 36.1314 34.6919 36.4955C34.9826 36.8597 34.9098 37.4427 34.5462 37.8069C31.492 40.283 27.7829 41.8133 23.928 42.1775C23.8559 42.1045 23.783 42.1045 23.783 42.1045Z" fill="white"/>
<path d="M20.147 42.1055H20.0734C16.1464 41.7413 12.5101 40.2117 9.45587 37.7349C9.09231 37.4437 9.01945 36.8606 9.31015 36.4242C9.60086 35.9864 10.183 35.9864 10.6194 36.2775C13.3829 38.5362 16.7285 39.9198 20.2919 40.2117C20.8012 40.284 21.1648 40.7218 21.0919 41.2319C21.019 41.7413 20.5834 42.1055 20.147 42.1055Z" fill="white"/>
<path d="M7.48989 35.4756C7.19847 35.4756 6.98063 35.4033 6.83492 35.1844C4.07144 31.9793 2.47149 28.0458 2.10793 23.8934C2.03508 23.3833 2.39862 22.9462 2.90789 22.8739C3.41717 22.8002 3.85359 23.1651 3.92572 23.6745C4.29 27.4627 5.74424 31.0327 8.28915 33.946C8.65343 34.3109 8.58057 34.8925 8.21702 35.2574C7.92631 35.4033 7.70774 35.4756 7.48989 35.4756Z" fill="white"/>
<path d="M2.98075 21.126H2.90789C2.39862 21.053 2.03508 20.6159 2.10793 20.1058C2.54435 16.0993 4.07144 12.3841 6.68993 9.25116C6.98063 8.88701 7.56203 8.81475 7.99844 9.10593C8.36273 9.39711 8.43486 9.98019 8.14416 10.4166C5.81709 13.2583 4.36214 16.6094 3.99858 20.2517C3.85359 20.7618 3.41717 21.126 2.98075 21.126Z" fill="white"/>
<path d="M9.16351 7.94082C8.8728 7.57666 8.8728 6.99358 9.30922 6.62943C12.437 4.07961 16.1454 2.55001 20.146 2.18586C20.6546 2.11288 21.091 2.47704 21.1638 2.98715C21.2367 3.49654 20.8731 3.93438 20.3639 4.00663C16.7276 4.37079 13.3819 5.75516 10.5456 8.08677C10.0363 8.37795 9.45493 8.30497 9.16351 7.94082Z" fill="white"/>
<path d="M33.4542 8.01192C30.6179 5.68175 27.2722 4.29739 23.6359 3.93323C23.1267 3.86025 22.7631 3.42313 22.836 2.91302C22.9088 2.40364 23.3452 2.03948 23.8545 2.11173C27.8544 2.47589 31.5635 4.00549 34.6906 6.55602C35.0541 6.84648 35.127 7.42957 34.8363 7.8667C34.472 8.30384 33.8906 8.3768 33.4542 8.01192Z" fill="white"/>
<path d="M40.9444 21.1257C40.5087 21.1257 40.0723 20.7616 40.0723 20.3237C39.7087 16.6814 38.2538 13.3311 35.9267 10.4901C35.636 10.1252 35.636 9.54283 36.0724 9.17868C36.436 8.88677 37.0174 8.88678 37.3809 9.32463C39.9266 12.3838 41.5265 16.1713 41.9629 20.1785C42.0358 20.6879 41.6722 21.1257 41.1629 21.198C41.018 21.1257 41.018 21.1257 40.9444 21.1257Z" fill="white"/>
<path d="M21.9608 1.82157C21.4515 1.82157 21.0151 2.25799 21.0151 2.76882C21.0151 2.84107 21.0151 2.91405 21.0151 2.91405C21.0879 3.35118 21.4515 3.64307 21.8879 3.64307C22.3243 3.64307 22.6879 3.35118 22.7607 2.91405C22.7607 2.84107 22.7607 2.76882 22.7607 2.76882C22.9064 2.25799 22.47 1.82157 21.9608 1.82157ZM21.9608 5.46387C20.6515 5.46387 19.5608 4.51663 19.2701 3.27893C19.2701 3.13226 19.1973 2.91405 19.1973 2.76882C19.1973 1.2385 20.4337 7.41842e-05 21.9608 7.41842e-05C23.4878 7.41842e-05 24.7242 1.2385 24.7242 2.76882C24.7242 2.91405 24.7242 3.13226 24.6514 3.27893C24.3607 4.51663 23.27 5.46387 21.9608 5.46387Z" fill="white"/>
<path d="M21.0879 41.232C21.0879 41.7414 21.5243 42.1055 22.0336 42.1055C22.5429 42.1055 22.9064 41.6684 22.9064 41.232V41.1583C22.9064 40.6489 22.47 40.284 22.0336 40.284C21.5972 40.284 21.0879 40.7219 21.0879 41.232ZM21.9608 44C20.4337 44 19.1973 42.7616 19.1973 41.232C19.1973 41.1583 19.1973 41.1583 19.1973 41.086C19.2701 39.6287 20.4337 38.4632 21.8879 38.4632C23.3429 38.4632 24.5064 39.6287 24.5792 41.086C24.5792 41.1583 24.5792 41.1583 24.5792 41.232C24.7242 42.7616 23.4878 44 21.9608 44Z" fill="white"/>
<path d="M35.5637 7.43086C35.3451 7.43086 35.1273 7.50384 34.9087 7.72205C34.9087 7.72205 34.8366 7.79575 34.8366 7.868C34.4001 8.45108 34.8366 9.32534 35.5637 9.32534C35.7815 9.32534 35.9272 9.25164 36.0729 9.17939C36.1451 9.10641 36.1451 9.10641 36.2179 9.10641C36.5815 8.74226 36.5815 8.15918 36.2179 7.79575C36.0001 7.57682 35.7815 7.43086 35.5637 7.43086ZM33.5995 10.2718C32.6545 9.32533 32.5088 7.86799 33.3087 6.7748C33.3816 6.62957 33.5273 6.48362 33.5995 6.41136C34.1087 5.90126 34.7637 5.60936 35.4908 5.60936C36.2179 5.60936 36.8722 5.90126 37.4543 6.41136C38.545 7.50383 38.545 9.17938 37.4543 10.2718C37.3815 10.3448 37.2365 10.4908 37.0908 10.5638C36.0001 11.365 34.5451 11.2191 33.5995 10.2718Z" fill="white"/>
<path d="M7.92735 35.404C7.85378 35.4763 7.78164 35.4763 7.70878 35.55C7.34522 35.9142 7.34522 36.4965 7.70878 36.8607C7.85377 37.0066 8.07235 37.1518 8.36377 37.1518C8.58162 37.1518 8.79947 37.0796 9.01804 36.8607C9.3816 36.4965 9.3816 35.9142 9.01804 35.55C8.72662 35.2581 8.29019 35.1851 7.92735 35.404ZM8.36377 38.9004C7.63593 38.9004 6.98167 38.6092 6.39955 38.0991C5.0903 36.7884 5.38173 34.6757 6.98168 33.8015C7.9995 33.2184 9.30873 33.3636 10.2544 34.2379C11.1273 35.1122 11.2722 36.3506 10.7637 37.4438C10.618 37.7349 10.4723 37.9539 10.2544 38.1721C9.74515 38.6092 9.09089 38.9004 8.36377 38.9004Z" fill="white"/>
<path d="M41.1638 21.0525C41.1638 21.0525 41.0909 21.0525 41.0188 21.0525C40.5824 21.1255 40.2181 21.4897 40.2181 21.9268C40.2181 22.3639 40.5824 22.8003 41.0188 22.8003C41.0909 22.8003 41.0909 22.8003 41.0909 22.8003C41.6002 22.8003 42.0366 22.3639 42.0366 21.8538C42.0366 21.3444 41.673 21.0525 41.1638 21.0525ZM41.1638 24.6948C41.0909 24.6948 40.9452 24.6948 40.8731 24.6948C39.491 24.5489 38.4731 23.3834 38.4731 21.9998C38.4731 20.6154 39.491 19.4492 40.8731 19.304C41.0188 19.304 41.0909 19.304 41.2366 19.304C42.7637 19.304 44.0001 20.5424 44.0001 22.072C44.0001 23.6024 42.6909 24.6948 41.1638 24.6948Z" fill="white"/>
<path d="M2.76348 21.0525C2.25421 21.0525 1.81779 21.4897 1.81779 21.9998C1.81779 22.5092 2.25421 22.9463 2.76348 22.9463H2.83634C3.27276 22.874 3.6363 22.5092 3.6363 22.072C3.6363 21.6356 3.27276 21.1978 2.83634 21.1978C2.83634 21.0525 2.76348 21.0525 2.76348 21.0525ZM2.76348 24.6948C1.23639 24.6948 0 23.4564 0 21.9268C0 20.3965 1.23639 19.1581 2.76348 19.1581C2.9092 19.1581 2.98204 19.1581 3.12703 19.1581C4.50913 19.304 5.52695 20.4702 5.52695 21.8538C5.52695 23.2382 4.50913 24.4036 3.12703 24.5489C2.98204 24.6948 2.83634 24.6948 2.76348 24.6948Z" fill="white"/>
<path d="M35.5651 35.2583C35.3466 35.2583 35.1287 35.3313 34.9102 35.5502C34.6195 35.8414 34.5466 36.2778 34.7652 36.5697C34.838 36.642 34.838 36.7157 34.9102 36.7887C35.0559 36.9339 35.3466 37.0798 35.5651 37.0798C35.783 37.0798 36.0015 37.0069 36.2194 36.7887C36.583 36.4245 36.583 35.8414 36.2194 35.4765C36.1465 35.4043 36.0744 35.3313 36.0016 35.3313C35.8559 35.3313 35.7101 35.2583 35.5651 35.2583ZM35.5651 38.9006C34.838 38.9006 34.183 38.6094 33.6009 38.0993C33.3831 37.8811 33.2374 37.6622 33.0924 37.371C32.1467 35.5502 33.5288 33.4376 35.4923 33.4376C35.9287 33.4376 36.438 33.5828 36.8015 33.8017C37.0194 33.947 37.2379 34.0929 37.3829 34.2381C38.4743 35.3313 38.4743 37.0069 37.3829 38.0993C36.9472 38.6094 36.2923 38.9006 35.5651 38.9006Z" fill="white"/>
<path d="M8.36427 7.43099C8.1457 7.43099 7.92784 7.50396 7.70928 7.72217C7.34572 8.08705 7.34572 8.67012 7.70928 9.03356C7.70928 9.03356 7.78213 9.10653 7.85427 9.10653C7.99998 9.25176 8.21855 9.25176 8.36427 9.25176C9.09138 9.25176 9.52708 8.45121 9.09139 7.79587C9.09139 7.72217 9.01853 7.72217 9.01853 7.64919C8.87282 7.57694 8.58211 7.43099 8.36427 7.43099ZM8.36427 11.074C7.78214 11.074 7.27287 10.928 6.7636 10.5639C6.61861 10.4909 6.54575 10.3449 6.40004 10.272C5.30936 9.1795 5.30936 7.50396 6.40004 6.41149C6.90931 5.90138 7.56357 5.60949 8.36427 5.60949C9.23637 5.60949 10.0363 6.04733 10.6185 6.77492C11.3456 7.86811 11.2727 9.32545 10.3278 10.272C9.45494 11.1462 8.36427 11.074 8.36427 11.074Z" fill="white"/>
<path d="M21.9628 8.45093C21.4535 8.45093 21.0171 8.01308 21.0171 7.5037V4.51675C21.0171 4.00664 21.4535 3.57022 21.9628 3.57022C22.4721 3.57022 22.9085 4.00664 22.9085 4.51675V7.5037C22.9085 8.08678 22.4721 8.45093 21.9628 8.45093Z" fill="white"/>
<path d="M31.49 12.4576C31.1264 12.0934 31.1264 11.5104 31.49 11.1462L33.5985 9.03353C33.9627 8.67009 34.5441 8.67009 34.9077 9.03353C35.272 9.39768 35.272 9.98076 34.9077 10.3449L32.7985 12.4576C32.4356 12.8218 31.8535 12.8218 31.49 12.4576Z" fill="white"/>
<path d="M9.01681 35.5496C8.65325 35.1848 8.65325 34.6024 9.01681 34.2375L11.126 32.1248C11.4889 31.7607 12.071 31.7607 12.4353 32.1248C12.7981 32.4897 12.7981 33.0721 12.4353 33.437L10.326 35.5496C9.96177 35.9138 9.38037 35.9138 9.01681 35.5496Z" fill="white"/>
<path d="M39.3462 22.8743H36.3641C35.8549 22.8743 35.4185 22.4364 35.4185 21.927C35.4185 21.4169 35.8549 20.9798 36.3641 20.9798H39.3462C39.8547 20.9798 40.2912 21.4169 40.2912 21.927C40.2912 22.5094 39.8547 22.8743 39.3462 22.8743Z" fill="white"/>
<path d="M7.56275 22.8743H4.58071C4.07216 22.8743 3.63574 22.4364 3.63574 21.927C3.63574 21.4169 4.07216 20.9798 4.58071 20.9798H7.56275C8.07202 20.9798 8.50845 21.4169 8.50845 21.927C8.43559 22.5094 8.07202 22.8743 7.56275 22.8743Z" fill="white"/>
<path d="M34.2534 35.8398C34.0349 35.8398 33.817 35.7661 33.5985 35.5487L31.49 33.436C31.1264 33.0711 31.1264 32.4887 31.49 32.1239C31.8535 31.7597 32.4356 31.7597 32.7985 32.1239L34.9077 34.2366C35.272 34.6014 35.272 35.1838 34.9077 35.5487C34.7627 35.6939 34.4713 35.8398 34.2534 35.8398Z" fill="white"/>
<path d="M11.126 12.4576L9.01681 10.3449C8.65325 9.98076 8.65325 9.39768 9.01681 9.03353C9.38037 8.67009 9.96177 8.67009 10.326 9.03353L12.4353 11.1462C12.7981 11.5104 12.7981 12.0934 12.4353 12.4576C12.071 12.8218 11.4889 12.8218 11.126 12.4576Z" fill="white"/>
<path d="M21.9626 16.6086C19.7813 16.6086 17.5992 16.3897 15.49 15.9533C13.5265 15.5884 11.6351 15.0061 9.89016 14.2048C9.45374 13.9859 9.23519 13.4757 9.3809 13.0386C9.59875 12.6022 10.108 12.3833 10.5444 12.5285C12.1444 13.2575 13.89 13.7669 15.7807 14.1318C17.7442 14.496 19.7813 14.7149 21.8898 14.7149C23.999 14.7149 26.0354 14.496 27.9989 14.1318C29.8174 13.7669 31.563 13.1845 33.2351 12.5285C33.6715 12.311 34.2537 12.5285 34.3994 13.0386C34.6172 13.4757 34.3994 14.0581 33.8901 14.2048C32.1444 14.9324 30.2538 15.5154 28.2903 15.9533C26.3261 16.3897 24.1447 16.6086 21.9626 16.6086Z" fill="white"/>
<path d="M32.5096 31.325C29.2369 30.0136 25.6006 29.4305 21.9643 29.4305C19.855 29.4305 17.8187 29.6494 15.8552 30.0136C14.3281 30.3048 12.8003 30.7419 11.4189 31.325C11.2003 32.0533 10.2553 32.2722 9.81893 31.6891C9.74607 31.6162 9.67321 31.4702 9.60036 31.398C9.2368 30.8878 9.45537 30.2318 9.96392 30.0136C11.7096 29.2853 13.5281 28.7022 15.4916 28.338C17.6008 27.9009 19.7829 27.6827 21.9643 27.6827C24.1463 27.6827 26.3277 27.9009 28.4369 28.338C30.4004 28.7022 32.2918 29.2853 33.9646 30.0865C34.4731 30.3048 34.6917 30.9608 34.3281 31.5432C34.2553 31.6162 34.1824 31.7614 34.1096 31.8344C33.6732 32.2722 32.7282 32.0533 32.5096 31.325Z" fill="white"/>
<path d="M22.0347 35.7666C24.1439 35.6944 26.2531 32.9986 27.3438 28.9199C27.9259 26.8802 28.2167 24.4756 28.2167 22.1447C28.2167 19.8139 27.9259 17.41 27.3438 15.3703C26.2531 11.2902 24.1439 8.59511 22.0347 8.52213H21.889C19.7805 8.59511 17.6713 11.2902 16.5799 15.3703C15.9977 17.41 15.7078 19.8139 15.7078 22.1447C15.7078 24.5486 15.9977 26.8802 16.5799 28.9199C17.6713 33.0716 19.7805 35.7666 21.889 35.7666C21.889 35.7666 21.9619 35.7666 22.0347 35.7666ZM21.8161 37.5881C18.762 37.5152 16.1435 34.456 14.7621 29.3563C14.18 27.1714 13.8164 24.6223 13.8164 22.0718C13.8164 19.522 14.1071 17.0451 14.7621 14.7872C16.1435 9.76055 18.762 6.62838 21.8161 6.55613C21.889 6.55613 21.9619 6.55613 22.0347 6.55613C25.0889 6.62838 27.7074 9.68829 29.0888 14.7872C30.3259 19.3037 30.3259 24.8398 29.0888 29.3563C27.7074 34.383 25.0889 37.5152 22.0347 37.5881C22.0347 37.5881 21.889 37.5881 21.8161 37.5881Z" fill="white"/>
<path d="M21.9628 37.5884C21.4535 37.5884 21.0171 37.1513 21.0171 36.6411V7.50289C21.0171 6.99279 21.4535 6.55637 21.9628 6.55637C22.4721 6.55637 22.9085 6.99279 22.9085 7.50289V36.6411C22.9085 37.2242 22.4721 37.5884 21.9628 37.5884Z" fill="white"/>
<path d="M36.5076 23.0205H7.41566C6.90711 23.0205 6.4707 22.5834 6.4707 22.0733C6.4707 21.5632 6.90711 21.1268 7.41566 21.1268H36.5076C37.0161 21.1268 37.4526 21.5632 37.4526 22.0733C37.4526 22.5834 37.0161 23.0205 36.5076 23.0205Z" fill="white"/>
<path d="M25.0182 35.4033C25.6003 35.2574 26.4003 35.0391 26.9095 34.8202C27.9281 34.4561 28.8002 33.946 29.3823 33.5088L29.4551 33.4366C29.4551 33.4366 30.1823 32.9265 30.7637 32.4164C37.2371 26.8073 37.0185 17.1189 30.8365 11.7281C30.7637 11.6544 30.6915 11.5822 30.6915 11.5822C30.4001 11.364 30.0366 10.9991 29.4551 10.6349C27.7095 9.46948 25.8188 8.74116 23.7825 8.44998C20.8733 8.15808 17.9641 8.74118 15.4185 10.1248C15.3456 10.1248 15.2735 10.1985 15.2735 10.1985C13.8185 10.9991 12.8728 11.8004 11.9271 12.8936C9.74578 15.2244 8.43655 18.4296 8.36441 21.9996C8.36441 22.0719 8.36441 22.0719 8.36441 22.1449C8.36441 30.7408 16.2184 37.37 25.0182 35.4033ZM6.5459 22.1449C6.5459 22.0719 6.5459 22.0719 6.5459 21.9996C6.61875 12.8206 14.6913 5.75422 23.6368 6.77371C23.7825 6.77371 23.9275 6.77372 24.146 6.84669C25.6003 7.06562 26.9824 7.42977 28.2188 8.01213C33.5279 10.3437 37.4549 15.7346 37.4549 22.1449C37.4549 29.9395 31.7094 36.4235 24.146 37.443C14.6185 38.7537 6.5459 31.3969 6.5459 22.1449Z" fill="white"/>
</svg>
