<svg width="24" height="25" viewBox="0 0 24 25" fill="none" xmlns="http://www.w3.org/2000/svg">
<path d="M5.90821 12.627V13.067C5.90821 13.347 6.15271 13.587 6.43789 13.587C6.72307 13.587 6.96759 13.347 6.96759 13.067V12.627C7.82354 12.827 8.51594 13.467 8.67907 14.307H8.19007C7.90489 14.307 7.66 14.547 7.66 14.827C7.66 15.107 7.90489 15.347 8.19007 15.347H8.63799C8.43417 16.187 7.78244 16.867 6.9269 17.027V16.587C6.9269 16.307 6.6824 16.067 6.39722 16.067C6.11204 16.067 5.86754 16.307 5.86754 16.587V17.027C5.01159 16.827 4.31877 16.187 4.15604 15.347H4.60395C4.88914 15.347 5.13404 15.107 5.13404 14.827C5.13404 14.547 4.88914 14.307 4.60395 14.307H4.15604C4.35985 13.467 5.05267 12.827 5.90821 12.627ZM3.09668 14.827C3.09668 16.627 4.56367 18.067 6.39722 18.067C8.23076 18.067 9.69776 16.627 9.69776 14.827C9.69776 13.027 8.23076 11.587 6.39722 11.587C4.56367 11.587 3.09668 13.027 3.09668 14.827Z" fill="#212529"/>
<path d="M8.72013 9.06669C9.01256 9.06669 9.2498 9.29949 9.2498 9.58669C9.2498 9.87389 9.01256 10.1067 8.72013 10.1067C8.42769 10.1067 8.19043 9.87389 8.19043 9.58669C8.19043 9.29949 8.42769 9.06669 8.72013 9.06669Z" fill="#212529"/>
<path d="M20.414 5.54667C20.7068 5.54667 20.944 5.77947 20.944 6.06667C20.944 6.35387 20.7068 6.58667 20.414 6.58667C20.1215 6.58667 19.8843 6.35387 19.8843 6.06667C19.8843 5.77947 20.1215 5.54667 20.414 5.54667Z" fill="#212529"/>
<path d="M14.3021 7.06693C14.5945 7.06693 14.8317 7.29973 14.8317 7.58693C14.8317 7.87413 14.5945 8.10693 14.3021 8.10693C14.0092 8.10693 13.772 7.87413 13.772 7.58693C13.772 7.29973 14.0092 7.06693 14.3021 7.06693Z" fill="#212529"/>
<path d="M17.888 10.0669C18.18 10.0669 18.4173 10.2997 18.4173 10.5869C18.4173 10.8741 18.18 11.1069 17.888 11.1069C17.5952 11.1069 17.3579 10.8741 17.3579 10.5869C17.3579 10.2997 17.5952 10.0669 17.888 10.0669Z" fill="#212529"/>
<path d="M14.8319 18.5469C15.1244 18.5469 15.3612 18.7797 15.3612 19.0669C15.3612 19.3541 15.1244 19.5869 14.8319 19.5869C14.5391 19.5869 14.3022 19.3541 14.3022 19.0669C14.3022 18.7797 14.5391 18.5469 14.8319 18.5469Z" fill="#212529"/>
<path d="M7.17089 9.06669C7.46372 9.06669 7.70098 9.29949 7.70098 9.58669C7.70098 9.87389 7.46372 10.1067 7.17089 10.1067C6.87886 10.1067 6.6416 9.87389 6.6416 9.58669C6.6416 9.29949 6.87886 9.06669 7.17089 9.06669Z" fill="#212529"/>
<path d="M5.66396 9.06669C5.95639 9.06669 6.19363 9.29949 6.19363 9.58669C6.19363 9.87389 5.95639 10.1067 5.66396 10.1067C5.37152 10.1067 5.13428 9.87389 5.13428 9.58669C5.13428 9.29949 5.37152 9.06669 5.66396 9.06669Z" fill="#212529"/>
<path d="M4.1152 9.06669C4.40804 9.06669 4.64529 9.29949 4.64529 9.58669C4.64529 9.87389 4.40804 10.1067 4.1152 10.1067C3.82317 10.1067 3.58594 9.87389 3.58594 9.58669C3.58594 9.29949 3.82317 9.06669 4.1152 9.06669Z" fill="#212529"/>
<path d="M8.72013 18.5469C9.01256 18.5469 9.2498 18.7797 9.2498 19.0669C9.2498 19.3541 9.01256 19.5869 8.72013 19.5869C8.42769 19.5869 8.19043 19.3541 8.19043 19.0669C8.19043 18.7797 8.42769 18.5469 8.72013 18.5469Z" fill="#212529"/>
<path d="M7.17089 18.5469C7.46372 18.5469 7.70098 18.7797 7.70098 19.0669C7.70098 19.3541 7.46372 19.5869 7.17089 19.5869C6.87886 19.5869 6.6416 19.3541 6.6416 19.0669C6.6416 18.7797 6.87886 18.5469 7.17089 18.5469Z" fill="#212529"/>
<path d="M5.66396 18.5469C5.95639 18.5469 6.19363 18.7797 6.19363 19.0669C6.19363 19.3541 5.95639 19.5869 5.66396 19.5869C5.37152 19.5869 5.13428 19.3541 5.13428 19.0669C5.13428 18.7797 5.37152 18.5469 5.66396 18.5469Z" fill="#212529"/>
<path d="M4.1152 18.5469C4.40804 18.5469 4.64529 18.7797 4.64529 19.0669C4.64529 19.3541 4.40804 19.5869 4.1152 19.5869C3.82317 19.5869 3.58594 19.3541 3.58594 19.0669C3.58594 18.7797 3.82317 18.5469 4.1152 18.5469Z" fill="#212529"/>
<path d="M1.58936 2.58667H3.62672V3.58667H1.58936V2.58667Z" fill="#212529"/>
<path d="M4.11523 2.58667H6.15301V3.58667H4.11523V2.58667Z" fill="#212529"/>
<path d="M6.68262 2.58667H8.71998V3.58667H6.68262V2.58667Z" fill="#212529"/>
<path d="M9.20898 2.58667H11.2463V3.58667H9.20898V2.58667Z" fill="#212529"/>
<path d="M1.58936 4.06677H3.62672V5.06677H1.58936V4.06677Z" fill="#212529"/>
<path d="M4.11523 4.06677H6.15301V5.06677H4.11523V4.06677Z" fill="#212529"/>
<path d="M6.68262 4.06677H8.71998V5.06677H6.68262V4.06677Z" fill="#212529"/>
<path d="M9.20898 4.06677H11.2463V5.06677H9.20898V4.06677Z" fill="#212529"/>
<path d="M1.58936 5.58667H3.62672V6.58667H1.58936V5.58667Z" fill="#212529"/>
<path d="M4.11523 5.58667H6.15301V6.58667H4.11523V5.58667Z" fill="#212529"/>
<path d="M6.68262 5.58667H8.71998V6.58667H6.68262V5.58667Z" fill="#212529"/>
<path d="M9.20898 5.58667H11.2463V6.58667H9.20898V5.58667Z" fill="#212529"/>
<path d="M1.58936 7.06677H3.62672V8.06677H1.58936V7.06677Z" fill="#212529"/>
<path d="M4.11523 7.06677H6.15301V8.06677H4.11523V7.06677Z" fill="#212529"/>
<path d="M6.68262 7.06677H8.71998V8.06677H6.68262V7.06677Z" fill="#212529"/>
<path d="M9.20898 7.06677H11.2463V8.06677H9.20898V7.06677Z" fill="#212529"/>
<path d="M2.07812 9.06702H3.09681V12.067H2.07812V9.06702Z" fill="#212529"/>
<path d="M9.73828 9.06702H10.7574V12.067H9.73828V9.06702Z" fill="#212529"/>
<path d="M2.07812 18.0669H3.09681V19.5869H2.07812V18.0669Z" fill="#212529"/>
<path d="M9.73828 18.0669H10.7574V19.5869H9.73828V18.0669Z" fill="#212529"/>
<path d="M11.7758 17.827C11.7758 20.707 9.37152 23.067 6.43793 23.067C3.50434 23.067 1.10003 20.707 1.10003 17.827V1.06702H11.8165V17.827H11.7758ZM23.4699 0.0670171C22.2072 0.0670171 1.79286 0.0670171 0.529678 0.0670171C0.244093 0.0670171 0 0.307017 0 0.587017V17.827C0.0406828 21.267 2.8929 24.067 6.39726 24.067C9.90162 24.067 12.7538 21.267 12.7538 17.827V1.06702H22.9403V2.58702H14.7908C14.5056 2.58702 14.2611 2.82702 14.2611 3.10702C14.2611 3.38702 14.5056 3.62702 14.7908 3.62702H22.9403V18.627H17.3578C17.0727 18.627 16.8282 18.867 16.8282 19.147C16.8282 19.427 17.0727 19.667 17.3578 19.667H23.4699C23.7551 19.667 24 19.427 24 19.147V0.587017C24 0.307017 23.7551 0.0670171 23.4699 0.0670171Z" fill="#212529"/>
<path d="M21.433 22.0669C21.1478 22.0669 20.903 21.8269 20.903 21.5469C20.903 21.2669 21.1478 21.0269 21.433 21.0269C21.7182 21.0269 21.9623 21.2669 21.9623 21.5469C21.9623 21.8269 21.7182 22.0669 21.433 22.0669ZM21.433 20.0669C20.5771 20.0669 19.8843 20.7469 19.8843 21.5869C19.8843 22.4269 20.5771 23.1069 21.433 23.1069C22.2886 23.1069 22.981 22.4269 22.981 21.5869C22.981 20.7469 22.2886 20.0669 21.433 20.0669Z" fill="#212529"/>
<path d="M14.5464 22.587C14.4243 22.587 14.3023 22.467 14.3023 22.347C14.3023 22.227 14.4243 22.107 14.5464 22.107C14.6688 22.107 14.7909 22.227 14.7909 22.347C14.832 22.467 14.7095 22.587 14.5464 22.587ZM14.5464 21.067C13.8536 21.067 13.2832 21.627 13.2832 22.307C13.2832 22.987 13.8536 23.547 14.5464 23.547C15.2392 23.547 15.81 22.987 15.81 22.307C15.8502 21.627 15.2392 21.067 14.5464 21.067Z" fill="#212529"/>
</svg>
