<svg width="24" height="25" viewBox="0 0 24 25" fill="none" xmlns="http://www.w3.org/2000/svg">
<path d="M22.4489 19.0551C22.367 21.2554 20.4896 23.0075 18.3672 22.9668C16.2857 22.9668 14.5713 21.4184 14.3264 19.3403C14.2856 19.0958 14.0814 18.8921 13.8365 18.8921H10.7345C10.4896 18.8921 10.2447 19.0958 10.2447 19.3403C10.0002 21.4184 8.2858 22.9668 6.20383 22.9668C3.9185 22.9668 2.12259 21.1332 2.12259 18.8513C2.12259 16.6102 4.00001 14.8174 6.24458 14.8174C7.10198 14.8174 17.9186 14.8174 18.408 14.8174C20.6118 14.8581 22.5304 16.6917 22.4489 19.0551ZM8.77523 13.3097C9.42847 13.3097 14.612 13.3097 15.7143 13.3097C16 13.3097 16.2857 13.5135 16.3264 13.8394H8.16315C8.2039 13.5135 8.48956 13.3097 8.77523 13.3097ZM13.1429 12.2911H11.3874C11.755 11.5984 12.7346 11.5984 13.1429 12.2911ZM18.3261 13.8394H17.3468C17.3061 12.9838 16.5713 12.2911 15.7143 12.2911H14.2037C13.9999 11.5576 13.4693 11.0279 12.7346 10.8242C12.6939 9.6425 11.755 8.70532 10.5715 8.70532H4.08151C3.79584 8.70532 3.55093 8.46084 3.55093 8.17561C3.55093 7.89038 3.79584 7.6459 4.08151 7.6459H17.8774C18.7344 7.6459 19.4284 6.9532 19.4284 6.09751C19.4284 5.24182 18.7344 4.54912 17.8774 4.54912H6.6529C6.36724 4.54912 6.12233 4.7936 6.12233 5.07883C6.12233 5.36406 6.36724 5.60854 6.6529 5.60854H17.8774C18.1631 5.60854 18.408 5.85303 18.408 6.13826C18.408 6.42348 18.1631 6.66797 17.8774 6.66797H4.08151C3.22451 6.66797 2.53052 7.36067 2.53052 8.21635C2.53052 9.07204 3.22451 9.76474 4.08151 9.76474H10.5715C11.1836 9.76474 11.6735 10.2537 11.7142 10.8649C10.9795 11.0686 10.4489 11.5984 10.2447 12.3318H8.73448C7.87748 12.3318 7.14274 13.0245 7.10198 13.8802H6.12233C3.30601 13.8802 0.979531 16.162 0.979531 18.9328C0.938779 21.7444 3.26526 24.067 6.08157 24.067C8.53031 24.067 10.6123 22.3556 11.061 19.9923H13.3059C13.7958 22.3556 15.8773 24.067 18.2857 24.067C21.0201 24.067 23.3059 21.8666 23.3874 19.1773C23.4285 18.3216 23.2244 17.5067 22.8572 16.7732C22.122 14.9396 20.2858 13.8394 18.3261 13.8394Z" fill="#0B0103"/>
<path d="M7.38777 19.4218H6.85718C6.57152 19.4218 6.32661 19.6663 6.32661 19.9516V20.4405C6.32661 20.5628 6.20394 20.685 6.08169 20.685C5.95903 20.685 5.83677 20.5628 5.83677 20.4405V19.9108C5.83677 19.6256 5.59186 19.3811 5.3062 19.3811H4.77561C4.65335 19.3811 4.5307 19.2589 4.5307 19.1366C4.5307 19.0144 4.65335 18.8921 4.77561 18.8921H5.3062C5.59186 18.8921 5.83677 18.6476 5.83677 18.3624V17.8327C5.83677 17.7105 5.95903 17.5882 6.08169 17.5882C6.20394 17.5882 6.32661 17.7105 6.32661 17.8327V18.4032C6.32661 18.6884 6.57152 18.9329 6.85718 18.9329H7.38777C7.51043 18.9329 7.63268 19.0551 7.63268 19.1774C7.67343 19.2996 7.55118 19.4218 7.38777 19.4218ZM7.38777 17.9142C7.38777 17.2215 6.81643 16.651 6.12244 16.651C5.42845 16.651 4.85711 17.2215 4.85711 17.9142C4.16353 17.9142 3.5918 18.4847 3.5918 19.1774C3.5918 19.8701 4.16353 20.4405 4.85711 20.4405C4.85711 21.1332 5.42845 21.7037 6.12244 21.7037C6.81643 21.7037 7.38777 21.1332 7.38777 20.4405C8.08176 20.4405 8.65309 19.8701 8.65309 19.1774C8.69384 18.4847 8.08176 17.9142 7.38777 17.9142Z" fill="#0B0103"/>
<path d="M16.5715 19.4218C16.4488 19.4218 16.3266 19.2996 16.3266 19.1773C16.3266 19.0551 16.4488 18.9329 16.5715 18.9329C16.6938 18.9329 16.8164 19.0551 16.8164 19.1773C16.8572 19.2996 16.7349 19.4218 16.5715 19.4218ZM17.8776 19.1773C17.8776 18.4846 17.3062 17.9142 16.6123 17.9142C15.9183 17.9142 15.3469 18.4846 15.3469 19.1773C15.3469 19.87 15.9183 20.4405 16.6123 20.4405C17.3062 20.4405 17.8776 19.87 17.8776 19.1773Z" fill="#0B0103"/>
<path d="M20.1633 19.4218C20.0406 19.4218 19.9184 19.2996 19.9184 19.1773C19.9184 19.0551 20.0406 18.9329 20.1633 18.9329C20.2859 18.9329 20.4078 19.0551 20.4078 19.1773C20.4078 19.2996 20.2859 19.4218 20.1633 19.4218ZM20.1633 17.9142C19.4693 17.9142 18.8979 18.4846 18.8979 19.1773C18.8979 19.87 19.4693 20.4405 20.1633 20.4405C20.8573 20.4405 21.4286 19.87 21.4286 19.1773C21.4286 18.4846 20.8573 17.9142 20.1633 17.9142Z" fill="#0B0103"/>
<path d="M18.3674 16.8956C18.49 16.8956 18.6123 17.0178 18.6123 17.14C18.6123 17.2623 18.49 17.3845 18.3674 17.3845C18.2447 17.3845 18.1221 17.2623 18.1221 17.14C18.1221 17.0178 18.2447 16.8956 18.3674 16.8956ZM18.3674 18.4032C19.0614 18.4032 19.6327 17.8327 19.6327 17.14C19.6327 16.4473 19.0614 15.8769 18.3674 15.8769C17.6734 15.8769 17.1021 16.4473 17.1021 17.14C17.1021 17.8327 17.6734 18.4032 18.3674 18.4032Z" fill="#0B0103"/>
<path d="M18.3674 21.4593C18.2447 21.4593 18.1221 21.337 18.1221 21.2148C18.1221 21.0926 18.2447 20.9703 18.3674 20.9703C18.49 20.9703 18.6123 21.0926 18.6123 21.2148C18.6123 21.337 18.49 21.4593 18.3674 21.4593ZM18.3674 19.9516C17.6734 19.9516 17.1021 20.5221 17.1021 21.2148C17.1021 21.9075 17.6734 22.478 18.3674 22.478C19.0614 22.478 19.6327 21.9075 19.6327 21.2148C19.6327 20.5221 19.0614 19.9516 18.3674 19.9516Z" fill="#0B0103"/>
<path d="M14.2856 17.3845H10.2039C9.91825 17.3845 9.67334 17.629 9.67334 17.9142C9.67334 18.1994 9.91825 18.4439 10.2039 18.4439H14.2856C14.5712 18.4439 14.8161 18.1994 14.8161 17.9142C14.8161 17.629 14.5712 17.3845 14.2856 17.3845Z" fill="#0B0103"/>
<path d="M11.755 16.8954H12.7754C13.061 16.8954 13.3059 16.651 13.3059 16.3657C13.3059 16.0805 13.061 15.836 12.7754 15.836H11.755C11.4693 15.836 11.2244 16.0805 11.2244 16.3657C11.2244 16.651 11.4693 16.8954 11.755 16.8954Z" fill="#0B0103"/>
<path d="M18.8571 4.2639C19.1427 4.22316 19.3877 4.42689 19.4284 4.71212C19.4692 4.9566 19.6733 5.16034 19.9182 5.16034C20.2447 5.16034 20.4488 4.87511 20.4077 4.58988C20.3262 3.73419 19.5507 3.16373 18.6937 3.24523C18.408 3.28598 18.2043 3.53046 18.2446 3.81569C18.3261 4.10092 18.5714 4.30465 18.8571 4.2639Z" fill="#0B0103"/>
<path d="M18.653 2.75629C19.7549 2.63405 20.7758 3.40824 20.9388 4.54916C20.9795 4.79364 21.1833 4.99738 21.4286 4.99738C21.755 4.99738 21.9592 4.71215 21.9184 4.42692C21.7143 2.75629 20.204 1.57462 18.5304 1.77836C18.2447 1.81911 18.0405 2.06359 18.0817 2.34882C18.122 2.5933 18.3674 2.79704 18.653 2.75629Z" fill="#0B0103"/>
<path d="M18.4899 1.24871C20.4488 1.00423 22.2447 2.38963 22.4489 4.34548C22.4897 4.58997 22.6934 4.7937 22.9387 4.7937C23.2652 4.7937 23.4689 4.50847 23.4286 4.22324C23.1429 1.69693 20.8572 -0.0959439 18.3673 0.230032C18.0816 0.27078 17.8775 0.515262 17.9186 0.800491C17.959 1.08572 18.2043 1.24871 18.4899 1.24871Z" fill="#0B0103"/>
<path d="M1.55139 11.8022C1.83706 11.8022 2.08198 12.0467 2.08198 12.332C2.08198 12.6172 1.83706 12.8617 1.55139 12.8617C1.26532 12.8617 1.02041 12.6172 1.02041 12.332C1.02041 12.0467 1.26532 11.8022 1.55139 11.8022ZM1.55139 13.8396C2.40839 13.8396 3.10197 13.1469 3.10197 12.2912C3.10197 11.4355 2.40839 10.7428 1.55139 10.7428C0.693989 10.7428 0 11.4355 0 12.2912C0 13.1469 0.693989 13.8396 1.55139 13.8396Z" fill="#0B0103"/>
<path d="M4.32661 1.08565C4.44927 1.08565 4.57152 1.20789 4.57152 1.33013C4.57152 1.45237 4.44927 1.57461 4.32661 1.57461C4.20435 1.57461 4.08169 1.49312 4.08169 1.33013C4.08169 1.16714 4.20435 1.08565 4.32661 1.08565ZM4.32661 2.63403C5.0206 2.63403 5.59193 2.06357 5.59193 1.37088C5.59193 0.678175 5.0206 0.0669696 4.32661 0.0669696C3.63262 0.0669696 3.06128 0.637428 3.06128 1.33013C3.06128 2.02283 3.63262 2.63403 4.32661 2.63403Z" fill="#0B0103"/>
<path d="M22.204 9.23517C21.7957 9.23517 21.4285 8.90919 21.4285 8.46098C21.4285 8.01276 21.7549 7.68678 22.204 7.68678C22.6531 7.68678 22.9791 8.01276 22.9791 8.46098C22.9791 8.90919 22.6119 9.23517 22.204 9.23517ZM23.9999 8.46098C23.9999 7.48305 23.1833 6.66811 22.204 6.66811C21.2244 6.66811 20.4077 7.48305 20.4077 8.46098C20.4077 9.4389 21.2244 10.2538 22.204 10.2538C23.1833 10.2538 23.9999 9.4389 23.9999 8.46098Z" fill="#0B0103"/>
<path d="M9.71418 0.556055C10.0075 0.556055 10.2448 0.793203 10.2448 1.08577C10.2448 1.37833 10.0075 1.61548 9.71418 1.61548C9.42125 1.61548 9.18359 1.37833 9.18359 1.08577C9.18359 0.793203 9.42125 0.556055 9.71418 0.556055Z" fill="#0B0103"/>
<path d="M5.10211 4.63064C5.39504 4.63064 5.6327 4.86779 5.6327 5.16035C5.6327 5.45292 5.39504 5.69006 5.10211 5.69006C4.80918 5.69006 4.57153 5.45292 4.57153 5.16035C4.57153 4.86779 4.80918 4.63064 5.10211 4.63064Z" fill="#0B0103"/>
<path d="M5.10211 11.7614C5.39504 11.7614 5.6327 11.9986 5.6327 12.2912C5.6327 12.5837 5.39504 12.8209 5.10211 12.8209C4.80918 12.8209 4.57153 12.5837 4.57153 12.2912C4.57153 11.9986 4.80918 11.7614 5.10211 11.7614Z" fill="#0B0103"/>
<path d="M7.6734 10.2537C7.96633 10.2537 8.20398 10.4909 8.20398 10.7835C8.20398 11.076 7.96633 11.3132 7.6734 11.3132C7.38047 11.3132 7.14282 11.076 7.14282 10.7835C7.14282 10.4909 7.38047 10.2537 7.6734 10.2537Z" fill="#0B0103"/>
<path d="M17.8775 8.70541C18.1708 8.70541 18.4081 8.94256 18.4081 9.23512C18.4081 9.52768 18.1708 9.76483 17.8775 9.76483C17.5842 9.76483 17.3469 9.52768 17.3469 9.23512C17.3469 8.94256 17.5842 8.70541 17.8775 8.70541Z" fill="#0B0103"/>
<path d="M21.9593 12.2912C22.2522 12.2912 22.4899 12.5283 22.4899 12.8209C22.4899 13.1134 22.2522 13.3506 21.9593 13.3506C21.6664 13.3506 21.4287 13.1134 21.4287 12.8209C21.4287 12.5283 21.6664 12.2912 21.9593 12.2912Z" fill="#0B0103"/>
<path d="M15.3061 2.59335C15.5991 2.59335 15.8367 2.8305 15.8367 3.12306C15.8367 3.41562 15.5991 3.65277 15.3061 3.65277C15.0128 3.65277 14.7751 3.41562 14.7751 3.12306C14.7751 2.8305 15.0128 2.59335 15.3061 2.59335Z" fill="#0B0103"/>
<path d="M12.2449 21.4593C12.5379 21.4593 12.7755 21.6964 12.7755 21.989C12.7755 22.2815 12.5379 22.5187 12.2449 22.5187C11.9516 22.5187 11.7144 22.2815 11.7144 21.989C11.7144 21.6964 11.9516 21.4593 12.2449 21.4593Z" fill="#0B0103"/>
<path d="M0.530576 21.9481C0.823909 21.9481 1.06116 22.1852 1.06116 22.4778C1.06116 22.7704 0.823909 23.0075 0.530576 23.0075C0.237648 23.0075 0 22.7704 0 22.4778C0 22.1852 0.237648 21.9481 0.530576 21.9481Z" fill="#0B0103"/>
<path d="M14.2857 15.836C14.5786 15.836 14.8163 16.0732 14.8163 16.3657C14.8163 16.6583 14.5786 16.8954 14.2857 16.8954C13.9928 16.8954 13.7551 16.6583 13.7551 16.3657C13.7551 16.0732 13.9928 15.836 14.2857 15.836Z" fill="#0B0103"/>
<path d="M10.2039 15.836C10.4968 15.836 10.7345 16.0732 10.7345 16.3657C10.7345 16.6583 10.4968 16.8954 10.2039 16.8954C9.91099 16.8954 9.67334 16.6583 9.67334 16.3657C9.67334 16.0732 9.91099 15.836 10.2039 15.836Z" fill="#0B0103"/>
</svg>
