<svg width="24" height="25" viewBox="0 0 24 25" fill="none" xmlns="http://www.w3.org/2000/svg">
<path d="M10.9508 12.6819C10.9508 12.4042 10.7092 12.1662 10.4275 12.1662C10.1456 12.1662 9.94434 12.4042 9.94434 12.6819V19.4257C9.94434 19.7034 10.1859 19.9414 10.4676 19.9414C10.7496 19.9414 10.9913 19.7034 10.9913 19.4257V12.6819H10.9508Z" fill="#0B0103"/>
<path d="M14.4942 4.54964C14.212 4.54964 13.9705 4.78766 13.9705 5.06534V12.0075C13.9705 12.2852 14.212 12.5232 14.4942 12.5232C14.776 12.5232 15.0176 12.2852 15.0176 12.0075V5.02567C14.9774 4.74799 14.7358 4.54964 14.4942 4.54964Z" fill="#0B0103"/>
<path d="M21.5395 5.73962H22.546C22.8282 5.73962 23.0698 5.50161 23.0698 5.22392C23.0698 4.94624 22.8282 4.70822 22.546 4.70822H21.5395C21.2577 4.70822 21.0161 4.94624 21.0161 5.22392C21.0161 5.50161 21.2577 5.73962 21.5395 5.73962Z" fill="#0B0103"/>
<path d="M21.5395 7.20752H22.546C22.8282 7.20752 23.0698 6.9695 23.0698 6.69182C23.0698 6.41413 22.8282 6.17611 22.546 6.17611H21.5395C21.2577 6.17611 21.0161 6.41413 21.0161 6.69182C21.0161 6.9695 21.2577 7.20752 21.5395 7.20752Z" fill="#0B0103"/>
<path d="M21.5395 8.71484H22.546C22.8282 8.71484 23.0698 8.47683 23.0698 8.19914C23.0698 7.92146 22.8282 7.68344 22.546 7.68344H21.5395C21.2577 7.68344 21.0161 7.92146 21.0161 8.19914C21.0161 8.47683 21.2577 8.71484 21.5395 8.71484Z" fill="#0B0103"/>
<path d="M21.5395 10.1827H22.546C22.8282 10.1827 23.0698 9.94472 23.0698 9.66704C23.0698 9.38935 22.8282 9.15133 22.546 9.15133H21.5395C21.2577 9.15133 21.0161 9.38935 21.0161 9.66704C21.0161 9.94472 21.2577 10.1827 21.5395 10.1827Z" fill="#0B0103"/>
<path d="M10.4676 20.5761C10.7568 20.5761 10.9913 20.807 10.9913 21.0918C10.9913 21.3767 10.7568 21.6075 10.4676 21.6075C10.1788 21.6075 9.94434 21.3767 9.94434 21.0918C9.94434 20.807 10.1788 20.5761 10.4676 20.5761Z" fill="#0B0103"/>
<path d="M14.4942 13.1579C14.7832 13.1579 15.0176 13.3888 15.0176 13.6736C15.0176 13.9585 14.7832 14.1893 14.4942 14.1893C14.2049 14.1893 13.9705 13.9585 13.9705 13.6736C13.9705 13.3888 14.2049 13.1579 14.4942 13.1579Z" fill="#0B0103"/>
<path d="M2.89898 18.5926C3.18796 18.5926 3.42242 18.8235 3.42242 19.1083C3.42242 19.3931 3.18796 19.624 2.89898 19.624C2.60979 19.624 2.37549 19.3931 2.37549 19.1083C2.37549 18.8235 2.60979 18.5926 2.89898 18.5926Z" fill="#0B0103"/>
<path d="M14.4942 22.0835C14.7832 22.0835 15.0176 22.3143 15.0176 22.5992C15.0176 22.884 14.7832 23.1149 14.4942 23.1149C14.2049 23.1149 13.9705 22.884 13.9705 22.5992C13.9705 22.3143 14.2049 22.0835 14.4942 22.0835Z" fill="#0B0103"/>
<path d="M1.89198 11.1744C2.18113 11.1744 2.41559 11.4053 2.41559 11.6901C2.41559 11.9749 2.18113 12.2058 1.89198 12.2058C1.60311 12.2058 1.36865 11.9749 1.36865 11.6901C1.36865 11.4053 1.60311 11.1744 1.89198 11.1744Z" fill="#0B0103"/>
<path d="M10.9511 1.25705C11.2402 1.25705 11.4745 1.48792 11.4745 1.77275C11.4745 2.05758 11.2402 2.28845 10.9511 2.28845C10.662 2.28845 10.4277 2.05758 10.4277 1.77275C10.4277 1.48792 10.662 1.25705 10.9511 1.25705Z" fill="#0B0103"/>
<path d="M14.4942 14.6257C14.7832 14.6257 15.0176 14.8566 15.0176 15.1414C15.0176 15.4262 14.7832 15.6571 14.4942 15.6571C14.2049 15.6571 13.9705 15.4262 13.9705 15.1414C13.9705 14.8566 14.2049 14.6257 14.4942 14.6257Z" fill="#0B0103"/>
<path d="M14.4942 16.133C14.7832 16.133 15.0176 16.3639 15.0176 16.6487C15.0176 16.9336 14.7832 17.1644 14.4942 17.1644C14.2049 17.1644 13.9705 16.9336 13.9705 16.6487C13.9705 16.3639 14.2049 16.133 14.4942 16.133Z" fill="#0B0103"/>
<path d="M14.4942 17.6009C14.7832 17.6009 15.0176 17.8318 15.0176 18.1166C15.0176 18.4014 14.7832 18.6323 14.4942 18.6323C14.2049 18.6323 13.9705 18.4014 13.9705 18.1166C13.9705 17.8318 14.2049 17.6009 14.4942 17.6009Z" fill="#0B0103"/>
<path d="M21.5395 11.6901H22.546C22.8282 11.6901 23.0698 11.452 23.0698 11.1744C23.0698 10.8967 22.8282 10.6587 22.546 10.6587H21.5395C21.2577 10.6587 21.0161 10.8967 21.0161 11.1744C21.0161 11.452 21.2577 11.6901 21.5395 11.6901Z" fill="#0B0103"/>
<path d="M20.01 22.0835C18.3591 22.0835 16.99 20.7348 16.99 19.1083V15.9348H19.5265V19.1083C19.5265 19.386 19.7681 19.624 20.0502 19.624C20.332 19.624 20.5736 19.386 20.5736 19.1083V15.9348H23.11V19.1083C23.0293 20.7348 21.6605 22.0835 20.01 22.0835ZM23.0293 13.9513V14.943H16.99V13.9513H23.0293ZM2.89885 9.34966C3.01965 9.58768 3.10016 9.8257 3.22079 9.98437C3.01965 9.86536 2.81814 9.70669 2.61695 9.54801C2.69751 9.46867 2.77802 9.38933 2.89885 9.34966ZM2.89885 3.08189C2.77802 3.00255 2.69751 2.92322 2.57672 2.84388C2.77802 2.6852 2.97937 2.52652 3.18072 2.40751C3.10016 2.64553 2.97937 2.88355 2.89885 3.08189ZM7.93133 3.08189C7.85094 2.84388 7.73015 2.64553 7.60936 2.44718C7.8107 2.56619 8.01201 2.72487 8.21336 2.88355C8.13264 2.96288 8.05229 3.04222 7.93133 3.08189ZM7.93133 9.34966C8.05229 9.429 8.13264 9.50834 8.25359 9.58768C8.05229 9.74636 7.85094 9.90503 7.64963 10.024C7.73015 9.78603 7.85094 9.54801 7.93133 9.34966ZM4.91185 8.59594V10.4207C4.50931 10.1827 4.06638 9.62735 3.78468 8.87363C4.14694 8.71495 4.50931 8.63561 4.91185 8.59594ZM4.91185 6.73148V7.60421C4.42864 7.64388 3.94559 7.76288 3.50266 7.92156C3.4223 7.56454 3.38202 7.16784 3.34175 6.73148H4.91185ZM4.91185 4.82735V5.70008H3.34175C3.38202 5.26371 3.4223 4.86702 3.50266 4.50999C3.94559 4.70834 4.42864 4.78768 4.91185 4.82735ZM4.91185 3.83561C4.50931 3.79594 4.14694 3.7166 3.78468 3.55793C4.06638 2.80421 4.46892 2.24883 4.91185 2.01082V3.83561ZM5.9185 3.83561V2.01082C6.321 2.24883 6.76377 2.80421 7.04579 3.55793C6.68337 3.7166 6.321 3.79594 5.9185 3.83561ZM5.9185 5.73974V4.86702C6.40151 4.82735 6.88472 4.70834 7.32765 4.54966C7.40801 4.90669 7.44829 5.30338 7.48856 5.73974H5.9185ZM7.04579 8.87363C6.76377 9.62735 6.321 10.1827 5.9185 10.4207V8.59594C6.321 8.63561 6.68337 8.71495 7.04579 8.87363ZM5.9185 7.60421V6.73148H7.48856C7.44829 7.16784 7.40801 7.56454 7.32765 7.92156C6.88472 7.72322 6.40151 7.64388 5.9185 7.60421ZM8.93799 8.83396C8.73664 8.63561 8.49522 8.47693 8.25359 8.35793C8.37427 7.84222 8.45494 7.28685 8.49522 6.73148H9.82369C9.7029 7.52487 9.42116 8.23892 8.93799 8.83396ZM9.78342 5.73974H8.45494C8.41466 5.18437 8.33399 4.629 8.21336 4.1133C8.45494 3.95462 8.69637 3.79594 8.89787 3.63726C9.42116 4.19264 9.7029 4.90669 9.78342 5.73974ZM1.8922 3.5976C2.09351 3.79594 2.33509 3.95462 2.57672 4.07363C2.45608 4.58933 2.37537 5.1447 2.33509 5.70008H1.0065C1.12729 4.90669 1.40915 4.19264 1.8922 3.5976ZM1.04689 6.73148H2.37537C2.4158 7.28685 2.49616 7.84222 2.61695 8.35793C2.37537 8.5166 2.13378 8.67528 1.9326 8.83396C1.40915 8.23892 1.12729 7.52487 1.04689 6.73148ZM23.5526 12.9596H20.533V4.27198C20.533 1.93148 18.6007 0.0670166 16.2653 0.0670166C13.9302 0.0670166 11.9576 1.97115 11.9576 4.27198V20.1001C11.9576 21.7265 10.5887 23.0753 8.93799 23.0753C7.28738 23.0753 5.9185 21.7265 5.9185 20.1001V11.5315C7.24698 11.4125 8.41466 10.8174 9.30021 9.9447C9.30021 9.9447 9.34048 9.90503 9.38092 9.86536C11.3536 7.80256 11.3536 4.629 9.38092 2.56619C9.34048 2.52652 9.34048 2.52652 9.30021 2.48685C7.16642 0.344704 3.66373 0.344704 1.52994 2.48685C1.52994 2.48685 1.48967 2.52652 1.44943 2.56619C0.523288 3.51826 0 4.82735 0 6.21578C0 8.99264 2.17406 11.2935 4.91185 11.5315V20.1001C4.91185 22.2819 6.72349 24.067 8.93799 24.067C11.1523 24.067 12.9641 22.2819 12.9641 20.1001V4.27198C12.9641 2.48685 14.4134 1.05875 16.2251 1.05875C18.0368 1.05875 19.4863 2.48685 19.4863 4.27198V12.9596H16.4667C16.1849 12.9596 15.9433 13.1976 15.9433 13.4753V19.148C15.9433 21.3298 17.755 23.115 19.9694 23.115C22.1839 23.115 23.9956 21.3298 23.9956 19.148V13.4753C24.0358 13.1976 23.7942 12.9596 23.5526 12.9596Z" fill="#0B0103"/>
<path d="M2.41589 16.133C2.13386 16.133 1.89228 15.895 1.89228 15.6173C1.89228 15.3396 2.13386 15.1016 2.41589 15.1016C2.69759 15.1016 2.93917 15.3396 2.93917 15.6173C2.93917 15.895 2.65731 16.133 2.41589 16.133ZM2.41589 14.1496C1.5703 14.1496 0.885742 14.8239 0.885742 15.657C0.885742 16.49 1.5703 17.1644 2.41589 17.1644C3.26115 17.1644 3.94567 16.49 3.94567 15.657C3.94567 14.8239 3.22088 14.1496 2.41589 14.1496Z" fill="#0B0103"/>
<path d="M22.2642 1.77283C22.3852 1.77283 22.5058 1.89184 22.5058 2.01085C22.5058 2.12986 22.4254 2.24887 22.2642 2.24887C22.103 2.24887 22.0226 2.12986 22.0226 2.01085C22.0226 1.89184 22.1436 1.77283 22.2642 1.77283ZM22.2642 3.2406C22.9488 3.2406 23.5124 2.68523 23.5124 2.01085C23.5124 1.33647 22.9488 0.781097 22.2642 0.781097C21.5797 0.781097 21.0161 1.33647 21.0161 2.01085C21.0161 2.68523 21.5797 3.2406 22.2642 3.2406Z" fill="#0B0103"/>
</svg>
