<svg width="24" height="25" viewBox="0 0 24 25" fill="none" xmlns="http://www.w3.org/2000/svg">
<path d="M9.75487 2.51184C9.67337 2.22661 9.42846 2.06362 9.14279 2.14511C9.06088 2.14511 8.44879 2.3081 7.83671 2.79707C7.22422 3.28603 6.53064 4.14172 6.44873 5.64936C6.44873 5.93459 6.65289 6.17908 6.97931 6.17908C7.26497 6.17908 7.46914 5.97534 7.46914 5.69011C7.55105 3.57126 9.3058 3.12304 9.38771 3.12304C9.63262 3.04155 9.79562 2.79707 9.75487 2.51184Z" fill="#0B0103"/>
<path d="M17.347 20.9702C17.0613 20.9702 16.8164 20.7257 16.8164 20.4405C16.8164 20.1553 17.0613 19.9515 17.347 19.9515C17.6326 19.9515 17.8775 20.196 17.8775 20.4405C17.8775 20.7257 17.6326 20.9702 17.347 20.9702ZM20.4489 6.34199C20.2855 4.30464 18.5304 2.67475 16.4081 2.67475C15.9997 2.67475 15.5918 2.7155 15.2242 2.83774C14.2042 1.16711 12.3264 0.0669346 10.2448 0.0669346C6.8572 0.0669346 4.20389 2.87849 4.4488 6.13826C1.95931 6.38274 0 8.46084 0 10.9464C0 13.595 2.04082 15.7546 4.65297 15.8361C4.65297 15.8361 4.53071 15.8361 8.6531 15.8361V19.7071L8.00027 19.0551C7.7961 18.8514 7.46928 18.8514 7.26512 19.0551C7.06096 19.2588 7.06096 19.5848 7.26512 19.7885C8.89802 21.4184 8.81651 21.3369 8.89802 21.3777C8.93877 21.3777 8.89802 21.3777 8.93877 21.4184C8.97952 21.4184 8.93877 21.4184 8.97952 21.4184C9.02027 21.4184 9.02027 21.4184 9.02027 21.4184C9.06102 21.4184 9.06103 21.4184 9.06103 21.4184C9.06103 21.4184 9.10218 21.4184 9.14293 21.4184C9.18369 21.4184 9.22444 21.4184 9.22444 21.4184C9.26519 21.4184 9.26519 21.4184 9.26519 21.4184C9.30594 21.4184 9.26519 21.4184 9.30594 21.4184C9.34669 21.4184 9.30594 21.4184 9.34669 21.4184C9.38785 21.4184 9.38785 21.4184 9.38785 21.3777C9.46935 21.3369 9.38785 21.3777 11.0203 19.7885C11.2245 19.5848 11.2245 19.2588 11.0203 19.0551C10.8162 18.8514 10.4898 18.8514 10.2856 19.0551L9.63276 19.7071V15.3471C9.63276 15.0619 9.38785 14.8174 9.14293 14.8174H4.65297C2.61255 14.7359 0.979654 13.0653 0.979654 10.9464C0.979654 8.82757 2.73481 7.07544 4.93864 7.11619C5.26546 7.11619 5.51037 6.83096 5.46962 6.50498C4.97979 3.61193 7.26512 1.04487 10.2041 1.04487C12.0408 1.04487 13.6732 2.06354 14.4899 3.65268C14.6122 3.89717 14.8978 3.97866 15.1427 3.89717C15.5511 3.73418 15.959 3.65268 16.3673 3.65268C17.8775 3.65268 19.1429 4.75286 19.347 6.179C18.6938 6.21975 17.5919 6.46423 16.7349 7.44217C16.5307 7.6459 16.5715 7.97188 16.7756 8.17561C16.9794 8.37935 17.3062 8.3386 17.51 8.13487C18.3262 7.23843 19.4285 7.19768 19.755 7.23843C19.7957 7.23843 19.7957 7.23843 19.8369 7.23843C21.6324 7.60515 22.9796 9.15355 22.9796 10.9872C22.9796 13.1468 21.1837 14.8581 19.061 14.8581C19.0202 14.8581 17.3877 14.8581 17.3877 14.8581C17.1021 14.8581 16.8571 15.1026 16.8571 15.3471V19.0144C16.245 19.2181 15.8367 19.7885 15.8367 20.4405C15.8367 21.2962 16.5307 21.9889 17.347 21.9889C18.204 21.9889 18.898 21.2962 18.898 20.4405C18.898 19.7885 18.4896 19.2181 17.8775 19.0144V15.8768H19.061C21.755 15.8768 24 13.7172 24 10.9872C24 8.82757 22.5305 6.91245 20.4489 6.34199Z" fill="#0B0103"/>
<path d="M11.3472 13.0654C11.1431 13.2691 11.1431 13.5951 11.3472 13.7989C11.551 14.0026 11.8774 14.0026 12.0816 13.7989C12.6529 13.2284 13.551 13.2284 14.1224 13.7989C14.3265 14.0026 14.653 14.0026 14.8571 13.7989C15.0613 13.5951 15.0613 13.2691 14.8571 13.0654C13.8779 12.0875 12.3265 12.0875 11.3472 13.0654Z" fill="#0B0103"/>
<path d="M16.204 12.3726C16.4082 12.1689 16.4082 11.8429 16.204 11.6391C14.49 9.92776 11.6737 9.92776 9.95927 11.6391C9.75511 11.8429 9.75511 12.1689 9.95927 12.3726C10.1634 12.5763 10.4899 12.5763 10.694 12.3726C12.0001 11.0687 14.1636 11.0687 15.51 12.3726C15.6734 12.5763 15.9998 12.5763 16.204 12.3726Z" fill="#0B0103"/>
<path d="M9.30592 11.028C11.3879 8.94988 14.7755 8.94988 16.8571 11.028C17.0613 11.2317 17.3877 11.2317 17.5918 11.028C17.7956 10.8242 17.7956 10.4983 17.5918 10.2945C15.102 7.80896 11.0615 7.80896 8.57158 10.2945C8.36742 10.4983 8.36742 10.8242 8.57158 11.028C8.77534 11.191 9.10216 11.191 9.30592 11.028Z" fill="#0B0103"/>
<path d="M2.57126 20.4406C2.28559 20.4406 2.04067 20.1961 2.04067 19.9516C2.04067 19.6664 2.28559 19.4219 2.57126 19.4219C2.85733 19.4219 3.10184 19.6664 3.10184 19.9516C3.06109 20.2368 2.85733 20.4406 2.57126 20.4406ZM2.57126 18.4032C1.71426 18.4032 1.02026 19.0959 1.02026 19.9516C1.02026 20.8073 1.71426 21.4592 2.57126 21.4592C3.42866 21.4592 4.08149 20.7665 4.08149 19.9516C4.08149 19.0959 3.3875 18.4032 2.57126 18.4032Z" fill="#0B0103"/>
<path d="M22.4491 2.63403C22.7348 2.63403 22.9797 2.87851 22.9797 3.16374C22.9797 3.44897 22.7348 3.69346 22.4491 3.69346C22.1634 3.69346 21.9185 3.44897 21.9185 3.16374C21.9593 2.83777 22.1634 2.63403 22.4491 2.63403ZM22.4491 4.67139C23.3061 4.67139 23.9589 3.97869 23.9589 3.123C23.9589 2.26731 23.2653 1.5746 22.4491 1.5746C21.5917 1.5746 20.8977 2.26731 20.8977 3.123C20.9389 3.97869 21.6324 4.67139 22.4491 4.67139Z" fill="#0B0103"/>
<path d="M22.9795 16.8955H19.9183C19.6326 16.8955 19.3877 17.14 19.3877 17.4252C19.3877 17.7105 19.6326 17.955 19.9183 17.955H22.9795C23.2652 17.955 23.4689 17.7105 23.4689 17.4252C23.4689 17.14 23.2652 16.8955 22.9795 16.8955Z" fill="#0B0103"/>
<path d="M22.9795 18.4032H19.9183C19.6326 18.4032 19.3877 18.6477 19.3877 18.9329C19.3877 19.2182 19.6326 19.4626 19.9183 19.4626H22.9795C23.2652 19.4626 23.4689 19.2182 23.4689 18.9329C23.4689 18.6477 23.2652 18.4032 22.9795 18.4032Z" fill="#0B0103"/>
<path d="M13.2654 15.3472C12.9798 15.3472 12.7349 15.5917 12.7349 15.8769C12.7349 16.1621 12.9798 16.4066 13.2654 16.4066C13.5511 16.4066 13.796 16.1621 13.796 15.8769C13.796 15.5917 13.5511 15.3472 13.2654 15.3472Z" fill="#0B0103"/>
<path d="M13.2654 16.8955C12.9798 16.8955 12.7349 17.14 12.7349 17.4252C12.7349 17.7105 12.9798 17.955 13.2654 17.955C13.5511 17.955 13.796 17.7105 13.796 17.4252C13.796 17.14 13.5511 16.8955 13.2654 16.8955Z" fill="#0B0103"/>
<path d="M13.2654 18.4032C12.9798 18.4032 12.7349 18.6477 12.7349 18.9329C12.7349 19.2182 12.9798 19.4626 13.2654 19.4626C13.5511 19.4626 13.796 19.2182 13.796 18.9329C13.796 18.6477 13.5511 18.4032 13.2654 18.4032Z" fill="#0B0103"/>
<path d="M13.2654 19.9515C12.9798 19.9515 12.7349 20.196 12.7349 20.4405C12.7349 20.7257 12.9798 20.9702 13.2654 20.9702C13.5511 20.9702 13.796 20.7257 13.796 20.4405C13.796 20.1553 13.5511 19.9515 13.2654 19.9515Z" fill="#0B0103"/>
<path d="M13.2654 21.4593C12.9798 21.4593 12.7349 21.7037 12.7349 21.989C12.7349 22.2742 12.9798 22.5187 13.2654 22.5187C13.5511 22.5187 13.796 22.2742 13.796 21.989C13.796 21.7037 13.5511 21.4593 13.2654 21.4593Z" fill="#0B0103"/>
<path d="M13.2654 23.0076C12.9798 23.0076 12.7349 23.2521 12.7349 23.5373C12.7349 23.8225 12.9798 24.067 13.2654 24.067C13.5511 24.067 13.796 23.8225 13.796 23.5373C13.796 23.2113 13.5511 23.0076 13.2654 23.0076Z" fill="#0B0103"/>
</svg>
