<svg width="24" height="24" viewBox="0 0 24 24" fill="none" xmlns="http://www.w3.org/2000/svg">
<path d="M10.5424 3.62429C10.3426 3.82028 10.3426 4.13388 10.5424 4.32987C10.7421 4.52587 11.0615 4.52587 11.2612 4.32987C11.6607 3.93788 12.2994 3.93788 12.6587 4.32987C12.8584 4.52587 13.1782 4.52587 13.3779 4.32987C13.5777 4.13388 13.5777 3.82028 13.3779 3.62429C12.5789 2.84031 11.3011 2.84031 10.5424 3.62429Z" fill="#0B0103"/>
<path d="M14.4161 3.27152C14.6154 3.07553 14.6154 2.76193 14.4161 2.56594C13.0581 1.23317 10.8218 1.23317 9.46426 2.56594C9.26452 2.76193 9.26452 3.07553 9.46426 3.27152C9.66362 3.46752 9.98337 3.46752 10.1831 3.27152C11.1416 2.33074 12.7388 2.33074 13.6968 3.27152C13.8966 3.46752 14.2163 3.46752 14.4161 3.27152Z" fill="#0B0103"/>
<path d="M9.10469 2.21311C10.6624 0.684346 13.1782 0.684346 14.7355 2.21311C14.9353 2.40911 15.2546 2.40911 15.454 2.21311C15.6537 2.01712 15.6537 1.70352 15.454 1.50753C13.4976 -0.413228 10.3427 -0.413228 8.38584 1.50753C8.18649 1.70352 8.18649 2.01712 8.38584 2.21311C8.58559 2.40911 8.90534 2.40911 9.10469 2.21311Z" fill="#0B0103"/>
<path d="M11.9402 22.0873V14.7571C11.9402 14.4827 11.7006 14.2475 11.4211 14.2475H6.46926C6.18978 14.2475 5.95016 14.4827 5.95016 14.7571V22.1265H4.95182V12.3267H18.9282V14.2867H13.4576C13.1781 14.2867 12.9381 14.5219 12.9381 14.7963C12.9381 15.0706 13.1781 15.3058 13.4576 15.3058H18.9282V22.1657H11.9402V22.0873ZM9.46429 22.0873V15.2274H10.9418V22.0873H9.46429ZM6.9485 22.0873V15.2274H8.42607V22.0873H6.9485ZM3.43438 10.6019L11.9402 5.97646L20.4058 10.6019V11.3075C19.647 11.3075 3.87335 11.3075 3.43438 11.3075V10.6019ZM1.9568 15.737C2.11628 15.933 2.4759 16.6386 2.4759 17.9322C2.4759 19.1866 2.15655 19.9313 1.9568 20.1273C1.79732 19.9313 1.47756 19.2257 1.47756 17.9322C1.47756 16.6778 1.79732 15.933 1.9568 15.737ZM21.9232 15.737C22.0831 15.933 22.4427 16.6386 22.4427 17.9322C22.4427 19.1866 22.1229 19.9313 21.9232 20.1273C21.7637 19.9313 21.4045 19.2257 21.4045 17.9322C21.4045 16.6386 21.7637 15.933 21.9232 15.737ZM23.4008 22.0873H22.4024V20.9505C23.88 20.0097 23.7205 14.7179 21.8837 14.7179C20.0465 14.7179 19.9265 20.0097 21.3642 20.9505V22.0873H19.8866V12.2875H20.9252C21.2047 12.2875 21.444 12.0523 21.444 11.8171V10.3276C21.444 10.1316 21.3642 9.97476 21.2047 9.89637L12.1794 4.99648C12.0199 4.91808 11.8601 4.91808 11.7006 4.99648L2.71553 9.89637C2.55605 9.97476 2.4759 10.1316 2.4759 10.3276V11.8171C2.4759 12.0915 2.71552 12.2875 2.995 12.2875H3.99334V22.0873H2.51578V20.9505C3.99336 20.0097 3.83387 14.7179 1.99707 14.7179C0.15987 14.7179 0.0402629 19.9705 1.51744 20.9505V22.0873H0.519101C0.239613 22.0873 0 22.3225 0 22.5969C0 22.8713 0.239613 23.0673 0.519101 23.0673C0.678977 23.0673 22.8019 23.0673 23.4805 23.0673C23.76 23.0673 24 22.8321 24 22.5969C23.9203 22.3225 23.6803 22.0873 23.4008 22.0873Z" fill="#0B0103"/>
<path d="M14.7752 19.6567L16.9317 17.8144V19.6567H14.7752ZM16.0933 17.1872L13.9367 19.0295V17.1872H16.0933ZM17.9301 16.5992C17.8898 16.4032 17.6901 16.2464 17.4907 16.2072C17.4508 16.2072 14.5754 16.2072 13.4575 16.2072C13.178 16.2072 12.938 16.4424 12.938 16.7168C12.938 20.2839 12.938 20.1663 12.938 20.2839C12.938 20.3231 12.938 20.3231 12.938 20.3231C12.938 20.3231 12.938 20.3231 12.938 20.3623C12.938 20.3623 12.938 20.4015 12.9783 20.4015C12.9783 20.4015 12.9782 20.4407 13.0181 20.4407L13.058 20.4799C13.1377 20.5583 13.2175 20.5975 13.2976 20.6367C13.3777 20.6759 13.1377 20.6367 17.4106 20.6367C17.6901 20.6367 17.9301 20.4015 17.9301 20.1271C17.9301 16.4816 17.9301 16.6776 17.9301 16.5992Z" fill="#0B0103"/>
<path d="M2.95512 5.9369C3.23461 5.9369 3.43436 6.17209 3.43436 6.44648C3.43436 6.72088 3.19474 6.95607 2.95512 6.95607C2.67563 6.95607 2.43602 6.72088 2.43602 6.44648C2.47589 6.13289 2.67563 5.9369 2.95512 5.9369ZM2.95512 7.89685C3.79358 7.89685 4.4323 7.23047 4.4323 6.40729C4.4323 5.5841 3.75371 4.91772 2.95512 4.91772C2.15653 4.91772 1.47754 5.5841 1.47754 6.40729C1.47754 7.23047 2.11626 7.89685 2.95512 7.89685Z" fill="#0B0103"/>
<path d="M19.1681 3.97713C19.5672 3.97713 19.9264 4.29072 19.9264 4.72191C19.9264 5.1139 19.6071 5.46669 19.1681 5.46669C18.7686 5.46669 18.4094 5.1531 18.4094 4.72191C18.4488 4.29072 18.7686 3.97713 19.1681 3.97713ZM19.1681 6.40747C20.1262 6.40747 20.9252 5.62349 20.9252 4.68271C20.9252 3.74193 20.1262 2.95795 19.1681 2.95795C18.2096 2.95795 17.4106 3.74193 17.4106 4.68271C17.4106 5.62349 18.2096 6.40747 19.1681 6.40747Z" fill="#0B0103"/>
</svg>
