<svg width="95" height="92" viewBox="0 0 95 92" fill="none" xmlns="http://www.w3.org/2000/svg">
<circle opacity="0.15" cx="30" cy="30" r="30" fill="white"/>
<path d="M79.4722 40.0536H28.6162V60.3866C28.6162 62.9098 28.9162 65.433 29.5191 67.8076C32.8308 80.5724 44.7161 90.072 58.7087 90.072C75.2607 90.072 88.8012 76.7125 88.8012 60.3866V40.0536H79.4722Z" fill="white" fill-opacity="0.2"/>
<path d="M40.053 54.8956H77.6701V64.2466H40.053V54.8956Z" fill="white"/>
<path d="M13.7155 64.0973C15.8213 64.0973 17.4763 65.7299 17.4763 67.807C17.4763 69.8857 15.8213 71.5183 13.7155 71.5183C11.6082 71.5183 9.95312 69.8857 9.95312 67.807C9.95312 65.7299 11.6082 64.0973 13.7155 64.0973Z" fill="white"/>
<path d="M19.2826 40.0529C21.3883 40.0529 23.0449 41.6855 23.0449 43.7627C23.0449 45.8413 21.3883 47.4739 19.2826 47.4739C17.1753 47.4739 15.5217 45.6926 15.5217 43.7627C15.5217 41.6855 17.1753 40.0529 19.2826 40.0529Z" fill="white"/>
<path d="M68.1865 67.807H71.9474V71.5183H68.1865V67.807Z" fill="white"/>
<path d="M62.6179 67.807H66.3802V71.5183H62.6179V67.807Z" fill="white"/>
<path d="M56.9019 67.807H60.6642V71.5183H56.9019V67.807Z" fill="white"/>
<path d="M51.3333 67.807H55.0941V71.5183H51.3333V67.807Z" fill="white"/>
<path d="M45.6128 67.807H49.3736V71.5183H45.6128V67.807Z" fill="white"/>
<path d="M58.8598 92C44.2657 92 31.4744 82.2045 27.8644 68.4018C27.2629 65.8786 26.8108 63.2052 26.8108 60.5348V40.053C26.8108 39.0137 27.7137 38.1231 28.7673 38.1231H38.0962C39.1498 38.1231 40.0512 39.0137 40.0512 40.053C40.0512 41.0924 39.1498 41.9815 38.0962 41.9815H30.5731V60.3861C30.5731 62.7621 30.8731 65.1366 31.4745 67.3625C34.6354 79.6812 45.9208 88.2902 58.8598 88.2902C74.3582 88.2902 87.1479 75.8228 87.1479 60.3861V41.8329H79.6248C78.5711 41.8329 77.6683 40.9422 77.6683 39.9044C77.6683 38.8651 78.5711 37.9744 79.6248 37.9744H89.1044C90.158 37.9744 91.0594 38.8651 91.0594 39.9044V60.3861C90.7595 77.7513 76.4654 92 58.8598 92Z" fill="white"/>
<path d="M71.9481 41.8328C70.896 41.8328 69.9931 40.9421 69.9931 39.9043V34.2646C69.9931 31.2953 68.7887 28.4762 66.6829 26.3975C64.5772 24.3189 61.7178 23.1323 58.7076 23.1323C52.5396 23.1323 47.4237 28.1788 47.4237 34.2646V39.9043C47.4237 40.9421 46.5209 41.8328 45.4672 41.8328C44.4136 41.8328 43.5122 40.9421 43.5122 39.9043V34.2646C43.5122 26.1002 50.2831 19.4211 58.5584 19.4211C62.6192 19.4211 66.3815 20.9065 69.2409 23.7256C72.1003 26.5462 73.6046 30.2574 73.6046 34.2646V39.9043C73.9046 40.9421 73.0017 41.8328 71.9481 41.8328Z" fill="white"/>
<path d="M70.1437 49.2551H28.7673C27.7137 49.2551 26.8108 48.3645 26.8108 47.3252C26.8108 46.2859 27.7137 45.3952 28.7673 45.3952H70.1437C71.1988 45.3952 72.1017 46.2859 72.1017 47.3252C71.9495 48.3645 71.0481 49.2551 70.1437 49.2551Z" fill="white"/>
<path d="M32.527 60.3867H19.2866C18.233 60.3867 17.3315 59.4961 17.3315 58.4567V47.326C17.3315 46.2867 18.233 45.396 19.2866 45.396C20.3387 45.396 21.2431 46.2867 21.2431 47.326V56.677H32.527C33.5806 56.677 34.4836 57.5676 34.4836 58.6054C34.4836 59.6448 33.4299 60.3867 32.527 60.3867Z" fill="white"/>
<path d="M34.3288 69.7371H17.4768C16.4231 69.7371 15.5217 68.8479 15.5217 67.8071C15.5217 66.7678 16.4231 65.8786 17.4768 65.8786H34.4795C35.5332 65.8786 36.4346 66.7678 36.4346 67.8071C36.4346 68.8479 35.3824 69.7371 34.3288 69.7371Z" fill="white"/>
<path d="M19.2815 41.8327C18.2279 41.8327 17.3265 42.7233 17.3265 43.7626C17.3265 44.802 18.2279 45.6926 19.2815 45.6926C20.3337 45.6926 21.238 44.802 21.238 43.7626C21.238 42.7233 20.3337 41.8327 19.2815 41.8327ZM19.2815 49.2551C16.1222 49.2551 13.5642 46.7319 13.5642 43.614C13.5642 40.4975 16.1222 37.9742 19.2815 37.9742C22.4409 37.9742 24.9989 40.4975 24.9989 43.614C24.9989 46.7319 22.4409 49.2551 19.2815 49.2551Z" fill="white"/>
<path d="M13.7173 66.028C12.6637 66.028 11.7608 66.9201 11.7608 67.9579C11.7608 68.9972 12.6637 69.8879 13.7173 69.8879C14.771 69.8879 15.5231 68.85 15.5231 67.8092C15.5231 66.7699 14.6187 66.028 13.7173 66.028ZM13.7173 73.4504C10.558 73.4504 8 70.9272 8 67.8092C8 64.6927 10.558 62.1695 13.7173 62.1695C16.8767 62.1695 19.4346 64.6927 19.4346 67.8092C19.4346 70.9272 16.726 73.4504 13.7173 73.4504Z" fill="white"/>
<path d="M41.8519 62.3181H75.7067V56.6784H41.8519V62.3181ZM77.6632 66.0278H40.0461C38.9925 66.0278 38.0911 65.1387 38.0911 64.0993V54.7484C38.0911 53.7091 38.9925 52.8184 40.0461 52.8184H77.6632C78.7168 52.8184 79.6197 53.7091 79.6197 54.7484V64.0993C79.4675 65.1387 78.5661 66.0278 77.6632 66.0278Z" fill="white"/>
<path d="M92.7086 92H38.0903C37.0367 92 36.1338 91.1108 36.1338 90.0715C36.1338 89.0307 37.0367 88.1416 38.0903 88.1416H92.7086C93.7622 88.1416 94.6652 89.0307 94.6652 90.0715C94.5144 91.1108 93.6115 92 92.7086 92Z" fill="white"/>
</svg>
