<svg width="92" height="92" viewBox="0 0 92 92" fill="none" xmlns="http://www.w3.org/2000/svg">
<circle opacity="0.15" cx="30" cy="30" r="30" fill="white"/>
<path d="M31.84 72.5536C33.6678 74.3813 33.6678 77.3819 31.84 79.2096C31.84 79.2096 31.84 79.2096 31.84 79.3404C30.0136 81.1668 27.0118 81.1668 25.184 79.3404C23.3576 77.5139 23.3576 74.5108 25.184 72.6843C27.0118 70.7259 29.8829 70.7258 31.84 72.5536Z" fill="white" fill-opacity="0.2"/>
<path d="M79.3455 72.1615C81.1719 73.9879 81.1719 76.9897 79.3455 78.8162C77.5177 80.6439 74.5159 80.6439 72.6882 78.8162C72.5587 78.6868 72.5587 78.6868 72.428 78.556C70.8617 76.7283 70.8617 73.8572 72.6882 72.1615C74.3852 70.4645 77.1268 70.3337 79.084 71.9C79.084 72.0294 79.2147 72.1615 79.3455 72.1615Z" fill="white" fill-opacity="0.2"/>
<path d="M78.9535 24.6582C80.7799 26.4846 80.7799 29.4864 78.9535 31.3129C78.8227 31.4436 78.692 31.5744 78.5626 31.7051C76.7348 33.1406 73.9945 33.0099 72.2975 31.3129C70.6004 29.6172 70.471 27.0063 71.9065 25.0491C72.0373 24.9183 72.1667 24.6582 72.2975 24.5274C74.1239 22.8304 77.127 22.8304 78.9535 24.6582Z" fill="white" fill-opacity="0.2"/>
<path d="M31.5811 25.1787C33.2768 27.0051 33.1474 29.8762 31.4504 31.704C29.6227 33.5304 26.7516 33.5304 24.9251 31.8347C24.7944 31.8347 24.7944 31.704 24.7944 31.704C22.9666 29.8762 22.9666 26.8744 24.7944 25.0479C26.6208 23.2202 29.6227 23.2202 31.4504 25.0479L31.5811 25.1787Z" fill="white" fill-opacity="0.2"/>
<path d="M23.2279 52.1933C23.2279 54.8029 21.14 56.8909 18.6598 56.8909H18.5291C15.9195 56.8909 13.8315 54.8029 13.8315 52.1933C13.8315 49.5825 15.9195 47.4946 18.5291 47.4946C18.5291 47.4946 18.5291 47.4946 18.6598 47.4946C21.14 47.4946 23.2279 49.5825 23.2279 52.1933Z" fill="white"/>
<path d="M57.0301 85.3446C57.0301 85.4754 57.0301 85.4754 57.0301 85.6074C57.0301 88.2157 54.9422 90.3049 52.3313 90.3049C49.7217 90.3049 47.6338 88.2157 47.6338 85.6074V85.4754C47.6338 82.8645 49.7217 80.9086 52.3313 80.9086C54.8115 80.9086 56.8994 82.8645 57.0301 85.3446Z" fill="white"/>
<path d="M85.0834 56.3719C82.734 56.1104 80.9062 54.1532 80.9062 51.6744C80.9062 49.325 82.734 47.2371 84.9527 46.9756C85.2129 46.9756 85.3436 46.9756 85.6051 46.9756C88.2147 46.9756 90.3026 49.0635 90.3026 51.6744C90.3026 54.284 88.2147 56.3719 85.6051 56.3719C85.4743 56.5027 85.3436 56.5027 85.0834 56.3719Z" fill="white"/>
<path d="M56.5104 18.3952C56.5104 18.5259 56.5104 18.7874 56.5104 18.9168C56.2489 21.2662 54.2917 23.094 51.8116 23.094C49.3327 23.094 47.3743 21.2662 47.1128 18.9168C47.1128 18.7874 47.1128 18.5259 47.1128 18.3952C47.1128 15.7856 49.202 13.6964 51.8116 13.6964C54.4212 13.6964 56.5104 15.7856 56.5104 18.3952Z" fill="white"/>
<path d="M37.0598 48.5424C37.0598 44.7574 40.0616 41.7556 43.8465 41.7556C44.6296 41.7556 45.4128 41.8864 46.1959 42.1465C47.2392 38.4936 50.632 35.8827 54.5477 35.8827C59.3772 35.8827 63.2916 39.5369 63.2916 44.4959C68.1211 44.4959 72.0368 48.6718 72.0368 53.5014C72.0368 58.3296 68.1211 62.6362 63.2916 62.6362C62.9007 62.6362 60.682 62.6362 60.682 62.6362H59.2465H51.1549H40.9754C40.0616 62.6362 38.3646 62.6362 38.3646 62.6362C34.5809 62.6362 31.5791 59.2435 31.5791 55.5893C31.5791 52.3273 33.9272 49.5857 36.929 48.9333C37.0598 48.6718 37.0598 48.6718 37.0598 48.5424Z" fill="white" fill-opacity="0.2"/>
<path d="M71.904 26.7458C71.5118 26.7458 71.2516 26.6164 70.9902 26.4857C66.6836 23.3531 61.5938 21.2652 56.3733 20.482C55.4595 20.3513 54.8071 19.5682 54.9378 18.6543C55.0686 17.7417 55.8517 17.0893 56.7643 17.2201C62.6371 18.0032 68.1191 20.3513 72.8166 23.8761C73.5997 24.3977 73.7305 25.4411 73.2088 26.0947C72.8166 26.6164 72.2949 26.7458 71.904 26.7458Z" fill="white"/>
<path d="M84.9572 48.6692C84.174 48.6692 83.5216 48.1476 83.3909 47.235C82.6078 42.0145 80.5198 36.9247 77.2566 32.7476C76.7349 32.0952 76.8656 31.0519 77.518 30.3995C78.1704 29.8765 79.215 30.0073 79.8674 30.6597C83.3909 35.3585 85.7403 40.8391 86.6542 46.712C86.7836 47.6259 86.1312 48.409 85.3481 48.5397C85.2174 48.6692 85.0879 48.6692 84.9572 48.6692Z" fill="white"/>
<path d="M78.9523 73.467C78.5614 73.467 78.2999 73.3363 78.0384 73.2056C77.2553 72.6839 77.1259 71.6406 77.6475 70.9882C80.7788 66.6803 82.868 61.5906 83.5204 56.2393C83.6498 55.3255 84.4343 54.6744 85.3468 54.8038C86.2607 54.9346 86.9131 55.7177 86.7824 56.6316C85.9993 62.5044 83.7806 68.1158 80.3878 72.8146C79.9956 73.3363 79.474 73.467 78.9523 73.467Z" fill="white"/>
<path d="M57.0293 86.9106C56.2462 86.9106 55.5938 86.389 55.4631 85.4751C55.3323 84.5625 55.9847 83.7794 56.7679 83.6486C62.1191 82.8642 67.2088 80.6468 71.3847 77.2528C72.0384 76.7312 73.0817 76.8619 73.7341 77.5156C74.2557 78.168 74.125 79.2113 73.4726 79.8637C68.7751 83.5179 63.1637 85.9968 57.2908 86.9106C57.1588 86.9106 57.0293 86.9106 57.0293 86.9106Z" fill="white"/>
<path d="M47.5001 87.0396C47.3694 87.0396 47.3694 87.0396 47.2387 87.0396C41.235 86.2577 35.6236 84.039 30.7954 80.3835C30.0123 79.8619 29.8815 78.8173 30.4032 78.1662C30.9248 77.3817 31.9694 77.251 32.6218 77.7739C37.1899 81.1667 42.4104 83.1251 47.7616 83.907C48.6742 84.039 49.3279 84.8209 49.1971 85.7347C49.0651 86.5179 48.414 87.0396 47.5001 87.0396Z" fill="white"/>
<path d="M25.0566 74.252C24.5336 74.252 24.1427 73.9905 23.7505 73.5983C20.0963 68.77 17.7482 63.1586 16.8343 57.2857C16.7036 56.3719 17.356 55.5887 18.2699 55.458C19.1837 55.3273 19.9669 55.9796 20.0963 56.8935C20.8794 62.2447 22.9674 67.4652 26.3601 71.7718C26.8831 72.4242 26.7523 73.4688 26.0999 74.1212C25.8384 74.1212 25.4475 74.252 25.0566 74.252Z" fill="white"/>
<path d="M18.53 49.0635C18.4006 49.0635 18.4006 49.0635 18.2699 49.0635C17.356 48.9327 16.7036 48.1496 16.8343 47.237C17.6174 41.3629 19.9669 35.6207 23.6198 30.9232C24.1427 30.1401 25.186 30.0093 25.9692 30.6617C26.7523 31.1847 26.8831 32.228 26.2307 33.0111C22.9674 37.3177 20.8794 42.4075 20.0963 47.8894C19.9669 48.5418 19.3132 49.0635 18.53 49.0635Z" fill="white"/>
<path d="M31.5792 26.8748C31.0563 26.8748 30.5346 26.6146 30.2732 26.2224C29.7515 25.4392 29.8822 24.5266 30.5346 23.8742C35.2322 20.3495 40.8448 18.0014 46.7177 17.2182C47.6316 17.0875 48.4147 17.7399 48.5454 18.6525C48.6749 19.5663 48.0225 20.3495 47.1086 20.4802C41.7574 21.2633 36.669 23.3513 32.3624 26.6146C32.3624 26.744 31.9701 26.8748 31.5792 26.8748Z" fill="white"/>
<path d="M51.8068 15.262C50.1098 15.262 48.6743 16.6975 48.6743 18.3945C48.6743 18.5253 48.6743 18.6547 48.6743 18.6547C48.805 20.221 50.1098 21.3963 51.8068 21.3963C53.5038 21.3963 54.6779 20.221 54.9394 18.6547C54.9394 18.5253 54.9394 18.3945 54.9394 18.3945C54.9394 16.6975 53.5038 15.262 51.8068 15.262ZM51.8068 24.7891C48.5448 24.7891 45.8032 22.3102 45.5417 19.0469C45.5417 18.7868 45.5417 18.6547 45.5417 18.3945C45.5417 14.8711 48.4141 12 51.9376 12C55.461 12 58.3321 14.8711 58.3321 18.3945C58.3321 18.6547 58.3321 18.9162 58.3321 19.0469C57.8104 22.3102 55.0701 24.7891 51.8068 24.7891Z" fill="white"/>
<path d="M52.3269 82.4742C50.6299 82.4742 49.3264 83.779 49.1956 85.4747C49.1956 87.173 50.6299 88.6073 52.3269 88.6073C54.0239 88.6073 55.4594 87.173 55.4594 85.4747V85.344C55.3287 83.779 53.8932 82.4742 52.3269 82.4742ZM52.3269 92C48.8034 92 45.9324 89.1289 45.9324 85.6068V85.4747C46.0631 82.082 48.8034 79.211 52.3269 79.211C55.7209 79.211 58.4613 81.8218 58.7214 85.2146C58.7214 85.344 58.7214 85.4747 58.7214 85.6068C58.592 89.1289 55.8516 92 52.3269 92Z" fill="white"/>
<path d="M75.6909 24.917C74.9078 24.917 74.1247 25.1785 73.4723 25.8309C73.3415 25.9603 73.3415 26.0924 73.2121 26.0924C72.2982 27.2664 72.429 29.0929 73.4723 30.1375C73.9952 30.6591 74.7783 31.0514 75.6909 31.0514C76.3446 31.0514 76.997 30.7899 77.6494 30.399C77.7802 30.2682 77.9096 30.2682 77.9096 30.1375C79.085 28.9621 79.085 27.0049 77.9096 25.7001C77.2572 25.3092 76.4741 24.917 75.6909 24.917ZM75.5615 34.4441C73.8645 34.4441 72.2982 33.7917 71.1242 32.6176C68.9055 30.399 68.644 26.7435 70.6012 24.2646C70.732 24.0031 70.9934 23.8737 71.1242 23.6122C72.2982 22.4369 73.8645 21.7845 75.5615 21.7845C77.2572 21.7845 78.8235 22.4369 79.9975 23.6122C82.4777 26.0924 82.4777 30.1375 79.9975 32.6176C79.8681 32.7471 79.6066 33.0085 79.3464 33.1393C78.4325 33.9224 76.997 34.4441 75.5615 34.4441Z" fill="white"/>
<path d="M26.2288 73.7295C25.7071 74.2511 25.3149 75.0342 25.3149 75.9481C25.3149 76.7299 25.5764 77.5144 26.2288 78.1668C26.7504 78.6885 27.5336 79.0807 28.4474 79.0807C29.2306 79.0807 30.0137 78.8179 30.6661 78.1668C31.8402 76.9914 31.8402 75.0342 30.6661 73.8589C30.1445 73.3372 29.3613 72.945 28.4474 72.945C27.6643 72.8156 26.8812 73.0758 26.2288 73.7295ZM28.4474 82.2119C26.7504 82.2119 25.1842 81.5595 24.0101 80.3842C22.8348 79.2101 22.1824 77.6438 22.1824 75.9481C22.1824 74.2511 22.8348 72.6849 24.0101 71.5095C25.1842 70.3354 26.7504 69.683 28.4474 69.683C30.1445 69.683 31.7094 70.3354 32.8848 71.5095C35.3649 73.9896 35.3649 77.904 33.0155 80.3842L32.8848 80.5149C31.7094 81.5595 30.1445 82.2119 28.4474 82.2119Z" fill="white"/>
<path d="M85.6076 48.6688C85.4768 48.6688 85.3461 48.6688 85.2153 48.6688C83.6491 48.9302 82.475 50.235 82.475 51.8013C82.475 53.3676 83.6491 54.6737 85.2153 54.9339C85.3461 54.9339 85.4768 54.9339 85.6076 54.9339C87.3033 54.9339 88.7388 53.4983 88.7388 51.8013C88.7388 50.1056 87.3033 48.6688 85.6076 48.6688ZM85.6076 58.0664C85.3461 58.0664 85.0859 58.0664 84.9552 58.0664C81.6919 57.6742 79.3438 55.0646 79.3438 51.8013C79.3438 48.6688 81.6919 45.9284 84.8244 45.5375C85.0859 45.5375 85.3461 45.5375 85.6076 45.5375C89.131 45.5375 92.0021 48.4086 92.0021 51.932C92.0021 55.4555 89.131 58.0664 85.6076 58.0664Z" fill="white"/>
<path d="M18.3958 49.0628C16.6988 49.0628 15.2633 50.4983 15.2633 52.1953C15.2633 53.8923 16.6988 55.3266 18.3958 55.3266C20.0915 55.3266 21.3963 53.8923 21.3963 52.1953C21.5284 50.4983 20.2223 49.1935 18.3958 49.0628ZM18.3958 58.5898C14.8711 58.5898 12 55.7188 12 52.1953C12 48.6705 14.8711 45.8008 18.3958 45.8008C18.3958 45.8008 18.3958 45.8008 18.5253 45.8008C21.9193 45.8008 24.7903 48.6705 24.7903 52.1953C24.7903 55.588 22.0487 58.4591 18.5253 58.5898C18.5253 58.5898 18.5253 58.5898 18.3958 58.5898Z" fill="white"/>
<path d="M28.0568 25.3095C27.2737 25.3095 26.4906 25.5697 25.8369 26.2221C25.3152 26.7437 24.9243 27.5268 24.9243 28.4407C24.9243 29.2238 25.1845 30.007 25.8369 30.6594L25.9676 30.7901C26.4906 31.3118 27.2737 31.5733 28.0568 31.5733C28.84 31.5733 29.6218 31.3118 30.2742 30.6594C31.4496 29.4853 31.4496 27.6576 30.405 26.3528L30.2742 26.2221C29.7526 25.5697 28.9694 25.3095 28.0568 25.3095ZM28.0568 34.7058C26.4905 34.7058 24.9243 34.1828 23.8797 33.1395C23.7489 33.0088 23.749 33.0088 23.6182 32.878C22.4442 31.704 21.7917 30.1377 21.7917 28.4407C21.7917 26.7437 22.4442 25.1787 23.6182 24.0034C24.7936 22.8293 26.3585 22.1769 28.0568 22.1769C29.7525 22.1769 31.3188 22.8293 32.4929 24.0034C32.6236 24.1341 32.6236 24.1341 32.7543 24.2648C34.973 26.7437 34.8423 30.6594 32.4929 33.0088C31.4495 34.0521 29.7525 34.7058 28.0568 34.7058Z" fill="white"/>
<path d="M75.9533 72.4234C75.1701 72.4234 74.387 72.6848 73.7346 73.3372C72.5606 74.5113 72.5606 76.3377 73.6039 77.5144L73.7346 77.6438C74.2563 78.1668 75.0394 78.5577 75.9533 78.5577C76.7364 78.5577 77.5196 78.2962 78.172 77.6438C78.6936 77.1222 79.0858 76.3378 79.0858 75.4252C79.0858 74.5113 78.8244 73.8589 78.172 73.2065C78.0412 73.0758 78.0412 73.0758 77.9105 72.945C77.3888 72.6848 76.7364 72.4234 75.9533 72.4234ZM75.9533 81.9504C74.2563 81.9504 72.69 81.298 71.5159 80.124C71.3852 79.9932 71.2557 79.8625 71.2557 79.8625C69.0358 77.3823 69.1665 73.5974 71.5159 71.2493C72.69 70.0753 74.2563 69.4229 75.9533 69.4229C77.3888 69.4229 78.8243 69.9445 79.9984 70.8571C80.1304 70.9878 80.2599 71.1186 80.5214 71.2493C81.6954 72.4234 82.3478 73.9896 82.3478 75.6866C82.3478 77.3823 81.6954 78.9486 80.5214 80.124C79.2166 81.298 77.6503 81.9504 75.9533 81.9504Z" fill="white"/>
<path d="M56.5099 49.1924C56.1177 49.1924 55.7268 49.0616 55.4653 48.8002C54.8129 48.2785 54.6822 47.2352 55.2038 46.4521C57.161 44.1027 60.0334 42.7979 63.0352 42.7979C63.9491 42.7979 64.7322 43.5797 64.7322 44.4936C64.7322 45.4074 63.9491 46.1906 63.0352 46.1906C60.946 46.1906 58.9888 47.1044 57.684 48.6694C57.5532 49.0616 57.0316 49.1924 56.5099 49.1924Z" fill="white"/>
<path d="M42.2797 51.9341C41.8888 51.9341 41.4966 51.8034 41.2351 51.5432C40.1918 50.6293 38.7562 50.2371 37.3207 50.3678C36.4068 50.4986 35.6237 49.8462 35.493 48.9323C35.3635 48.0197 36.0146 47.2366 36.9285 47.1058C39.2779 46.8444 41.6273 47.4968 43.323 49.063C43.9767 49.5847 44.1061 50.6293 43.455 51.4125C43.1936 51.6739 42.6719 51.9341 42.2797 51.9341Z" fill="white"/>
<path d="M59.2459 64.2024C58.5935 64.2024 58.0705 63.8115 57.8103 63.2885C57.4181 62.5067 57.6796 61.4621 58.5935 61.0712H58.7229C61.4645 59.8958 63.1615 58.3295 63.6832 56.2416C64.0741 54.8061 63.8139 53.632 63.8139 53.5013C63.5524 52.5874 64.0741 51.6748 64.988 51.5441C65.9019 51.2826 66.8144 51.8043 66.9452 52.7181C66.9452 52.9796 67.4681 54.8061 66.8144 57.1555C66.2928 59.2434 64.597 62.2452 59.8982 64.2024C59.6368 64.2024 59.506 64.2024 59.2459 64.2024Z" fill="white"/>
<path d="M59.2458 60.9404H60.6813C60.6813 60.9404 62.9 60.9404 63.291 60.9404C67.2066 60.9404 70.4699 57.5464 70.4699 53.5013C70.4699 49.5856 67.2066 46.1929 63.291 46.1929C62.3784 46.1929 61.5952 45.4097 61.5952 44.4958C61.5952 40.5802 58.4627 37.5797 54.4163 37.5797C51.285 37.5797 48.4139 39.6676 47.6308 42.6694C47.5001 43.0603 47.2386 43.4526 46.8477 43.7127C46.4555 43.9742 45.9338 43.9742 45.5416 43.8434C45.0199 43.582 44.3675 43.582 43.7151 43.582C40.8441 43.582 38.4947 45.9314 38.4947 48.8025V48.9332C38.4947 49.7163 37.973 50.3687 37.1899 50.4995C34.8405 51.0211 33.1447 53.1104 33.1447 55.5892C33.1447 58.591 35.4929 61.0712 38.3639 61.0712C38.4947 61.0712 40.7133 61.0712 40.9748 61.0712L59.2458 60.9404ZM63.291 64.2024C62.9 64.2024 60.6813 64.2024 60.6813 64.2024H41.1055C40.1917 64.2024 38.6254 64.2024 38.4947 64.2024C33.9266 64.2024 30.0122 60.156 30.0122 55.4585C30.0122 51.935 32.2309 48.8025 35.4929 47.6284C36.0145 43.4526 39.5393 40.1892 43.8459 40.1892C44.2368 40.1892 44.7597 40.1892 45.1507 40.32C46.8477 36.7965 50.5019 34.3164 54.547 34.3164C59.8982 34.3164 64.0741 37.9706 64.8572 42.9296C67.0759 43.3218 69.0331 44.3664 70.7301 45.9314C72.6873 47.8899 73.7319 50.6302 73.7319 53.3705C73.7319 59.2434 68.9036 64.2024 63.291 64.2024Z" fill="white"/>
<path d="M59.3814 72.4241H43.0676C42.1538 72.4241 41.3706 71.6422 41.3706 70.7271C41.3706 69.8132 42.1538 69.0314 43.0676 69.0314H59.3814C60.294 69.0314 61.0771 69.8132 61.0771 70.7271C61.0771 71.6422 60.294 72.4241 59.3814 72.4241Z" fill="white"/>
<path d="M51.2839 72.4241C50.3701 72.4241 49.5869 71.6422 49.5869 70.7271V54.4146C49.5869 53.5007 50.3701 52.7175 51.2839 52.7175C52.1965 52.7175 52.9796 53.5007 52.9796 54.4146V70.7271C52.8502 71.6422 52.0671 72.4241 51.2839 72.4241Z" fill="white"/>
</svg>
