<svg width="28" height="28" viewBox="0 0 28 28" fill="none" xmlns="http://www.w3.org/2000/svg">
<path d="M21.0007 20.9987C23.578 20.9987 25.6673 16.82 25.6673 11.6654C25.6673 6.51071 23.578 2.33203 21.0007 2.33203C18.4233 2.33203 16.334 6.51071 16.334 11.6654C16.334 16.82 18.4233 20.9987 21.0007 20.9987Z" stroke="#24908D" stroke-width="1.5"/>
<path d="M21.0007 2.33203C17.3804 2.33203 9.87662 5.10591 5.56688 6.82804C3.59331 7.61666 2.33398 9.54007 2.33398 11.6654C2.33398 13.7907 3.59331 15.714 5.56688 16.5027C9.87662 18.2248 17.3804 20.9987 21.0007 20.9987" stroke="#24908D" stroke-width="1.5"/>
<path d="M12.8333 25.6667L10.5662 24.4187C8.0978 23.06 6.7043 20.3156 7.05305 17.5" stroke="#24908D" stroke-width="1.5" stroke-linecap="round" stroke-linejoin="round"/>
</svg>
