<svg width="28" height="28" viewBox="0 0 28 28" fill="none" xmlns="http://www.w3.org/2000/svg">
<g clip-path="url(#clip0_10757_5918)">
<path d="M11.375 1.75C10.6788 1.75 10.0111 2.02656 9.51884 2.51884C9.02656 3.01113 8.75 3.67881 8.75 4.375V5.25H2.625C1.92881 5.25 1.26113 5.52656 0.768845 6.01884C0.276562 6.51113 0 7.17881 0 7.875L0 21.875C0 22.5712 0.276562 23.2389 0.768845 23.7312C1.26113 24.2234 1.92881 24.5 2.625 24.5H25.375C26.0712 24.5 26.7389 24.2234 27.2312 23.7312C27.7234 23.2389 28 22.5712 28 21.875V7.875C28 7.17881 27.7234 6.51113 27.2312 6.01884C26.7389 5.52656 26.0712 5.25 25.375 5.25H19.25V4.375C19.25 3.67881 18.9734 3.01113 18.4812 2.51884C17.9889 2.02656 17.3212 1.75 16.625 1.75H11.375ZM11.375 3.5H16.625C16.8571 3.5 17.0796 3.59219 17.2437 3.75628C17.4078 3.92038 17.5 4.14294 17.5 4.375V5.25H10.5V4.375C10.5 4.14294 10.5922 3.92038 10.7563 3.75628C10.9204 3.59219 11.1429 3.5 11.375 3.5ZM14.6755 15.5995L26.25 12.5142V21.875C26.25 22.1071 26.1578 22.3296 25.9937 22.4937C25.8296 22.6578 25.6071 22.75 25.375 22.75H2.625C2.39294 22.75 2.17038 22.6578 2.00628 22.4937C1.84219 22.3296 1.75 22.1071 1.75 21.875V12.5125L13.3245 15.5995C13.7671 15.7174 14.2329 15.7174 14.6755 15.5995ZM2.625 7H25.375C25.6071 7 25.8296 7.09219 25.9937 7.25628C26.1578 7.42038 26.25 7.64294 26.25 7.875V10.703L14.2257 13.909C14.0778 13.9485 13.9222 13.9485 13.7743 13.909L1.75 10.703V7.875C1.75 7.64294 1.84219 7.42038 2.00628 7.25628C2.17038 7.09219 2.39294 7 2.625 7Z" fill="white"/>
</g>
<defs>
<clipPath id="clip0_10757_5918">
<rect width="28" height="28" fill="white"/>
</clipPath>
</defs>
</svg>
