<svg width="40" height="29" viewBox="0 0 40 29" fill="none" xmlns="http://www.w3.org/2000/svg">
<path d="M9.36347 0C4.19589 0 0 4.17221 0 9.35454C0 14.2294 3.75422 18.1821 8.52429 18.6213C7.55261 20.378 5.78592 22.2665 2.78254 24.0671C1.94336 24.5502 1.41335 25.4286 1.41335 26.3508C1.41335 28.2393 3.35672 29.5568 5.12341 28.7663C10.2468 26.4826 18.7711 20.905 18.7711 9.35454C18.7711 4.17221 14.5752 0 9.36347 0Z" fill="url(#paint0_linear_10757_1186)"/>
<path d="M30.5925 0C25.4249 0 21.229 4.17221 21.229 9.35454C21.229 14.2294 24.9832 18.1821 29.7533 18.6213C28.7816 20.378 27.0149 22.2665 24.0115 24.0671C23.1724 24.5502 22.6424 25.4286 22.6424 26.3508C22.6424 28.2393 24.5857 29.5568 26.3524 28.7663C31.4758 26.4826 40.0001 20.905 40.0001 9.35454C40.0001 4.17221 35.8042 0 30.5925 0Z" fill="url(#paint1_linear_10757_1186)"/>
<defs>
<linearGradient id="paint0_linear_10757_1186" x1="0" y1="14.5" x2="18.7711" y2="14.5" gradientUnits="userSpaceOnUse">
<stop stop-color="#3B32F6"/>
<stop offset="1" stop-color="#49A6FF"/>
</linearGradient>
<linearGradient id="paint1_linear_10757_1186" x1="21.229" y1="14.5" x2="40.0001" y2="14.5" gradientUnits="userSpaceOnUse">
<stop stop-color="#3B32F6"/>
<stop offset="1" stop-color="#49A6FF"/>
</linearGradient>
</defs>
</svg>
