<svg width="35" height="36" viewBox="0 0 35 36" fill="none" xmlns="http://www.w3.org/2000/svg">
<path d="M24.8486 30.6921H31.8867V33.0106H24.8486V30.6921Z" fill="#FA6444"/>
<path d="M24.3504 22.2712L7.09937 22.0273H6.47612C6.41435 22.0273 6.41434 22.0273 6.35195 22.0273C3.23813 22.0273 0.68457 19.526 0.68457 16.4746C0.68457 13.851 2.61488 11.5936 5.10606 11.0441C5.10606 10.9836 5.10606 10.9836 5.10606 10.9218C5.10606 7.87101 7.65962 5.3691 10.7734 5.3691C11.4585 5.3691 12.0811 5.49196 12.7037 5.67473C13.5759 2.74554 16.379 0.610369 19.6788 0.610369C23.6648 0.610369 26.9658 3.60009 26.9658 7.56599C30.9512 7.56599 34.2521 10.9218 34.2521 14.8272C34.2521 18.732 30.8894 22.2712 26.9034 22.2712C26.592 22.2712 26.0936 22.2712 25.5333 22.2712H24.3504Z" fill="#FA6444" fill-opacity="0.2"/>
<path d="M24.8486 32.9493H31.8867V35.2678H24.8486V32.9493Z" fill="#FA6444"/>
<path d="M31.8243 28.373V30.6915H24.8486V28.373H28.3368H31.8243Z" fill="#FA6444"/>
<path d="M14.6963 32.9493H21.7331V35.2678H14.6963V32.9493Z" fill="#FA6444"/>
<path d="M14.6963 30.6921H21.7331V33.0106H14.6963V30.6921Z" fill="#FA6444"/>
<path d="M21.7331 28.373V30.6915H14.6963V28.373H18.1838H21.7331Z" fill="#FA6444"/>
<path d="M4.60742 32.9493H11.6442V35.2678H4.60742V32.9493Z" fill="#FA6444"/>
<path d="M4.60742 30.6921H11.6442V33.0106H4.60742V30.6921Z" fill="#FA6444"/>
<path d="M11.5825 28.373V30.6915H4.60742V28.373H8.09434H11.5825Z" fill="#FA6444"/>
<path d="M18.1819 29.1666C17.7458 29.1666 17.3721 28.7999 17.3721 28.3732V22.2709C17.3721 21.8443 17.7458 21.4781 18.1819 21.4781C18.6173 21.4781 18.9917 21.8443 18.9917 22.2709V28.3732C18.9917 28.7999 18.6173 29.1666 18.1819 29.1666Z" fill="#FA6444"/>
<path d="M21.2969 10.9219C21.1104 10.9219 20.9232 10.8614 20.7991 10.7391C20.4878 10.4952 20.4248 10.0068 20.6743 9.64066C22.1685 7.87105 24.4107 6.83372 26.7154 6.83372C27.1509 6.83372 27.5246 7.20048 27.5246 7.62715C27.5246 8.05442 27.1509 8.42056 26.7154 8.42056C24.8462 8.42056 23.0407 9.21399 21.8578 10.678C21.7954 10.8002 21.5465 10.9219 21.2969 10.9219Z" fill="#FA6444"/>
<path d="M9.46565 13.0566C9.27849 13.0566 9.09195 12.9961 8.96718 12.8739C7.97083 12.0199 6.60078 11.6532 5.29311 11.7754C4.85702 11.8365 4.48392 11.5315 4.42092 11.1043C4.35915 10.677 4.66984 10.3108 5.10593 10.2503C6.85031 10.0058 8.59345 10.5553 9.96412 11.6532C10.2754 11.8971 10.3372 12.3855 10.0259 12.7522C9.90173 12.9961 9.71458 13.0566 9.46565 13.0566Z" fill="#FA6444"/>
<path d="M24.3486 23.0653C24.0367 23.0653 23.7878 22.882 23.663 22.6381C23.4765 22.2713 23.663 21.7829 24.0367 21.6613C26.4661 20.6851 27.9603 19.2205 28.4588 17.3292C28.8325 15.9869 28.5212 14.8884 28.5212 14.8884C28.3964 14.4612 28.6453 14.0345 29.0814 13.9734C29.5175 13.8511 29.953 14.095 30.0154 14.5223C30.0154 14.5834 30.4515 16.048 29.953 17.8176C29.5176 19.4644 28.2092 21.6613 24.597 23.1259C24.597 23.1259 24.597 23.1259 24.5352 23.1259C24.5352 23.0036 24.4104 23.0653 24.3486 23.0653Z" fill="#FA6444"/>
<path d="M25.5328 21.5392H26.9028C30.3904 21.5392 33.38 18.4884 33.38 14.9492C33.38 11.4105 30.3904 8.42082 26.9028 8.42082C26.4674 8.42082 26.093 8.05468 26.093 7.62741C26.093 4.1499 23.2282 1.46461 19.6165 1.46461C16.7516 1.46461 14.198 3.29535 13.3889 5.98004C13.3265 6.16342 13.2017 6.34618 13.0151 6.46843C12.828 6.59008 12.579 6.59008 12.3919 6.52895C11.894 6.34618 11.3338 6.22393 10.7111 6.22393C8.0328 6.22393 5.85295 8.3597 5.85295 10.9839V11.0444V11.1055C5.85295 11.4717 5.60401 11.7767 5.2303 11.8378C2.98868 12.3262 1.43146 14.2786 1.43146 16.4749C1.43146 19.099 3.61131 21.2342 6.28965 21.2342H6.41382H7.03583L25.5328 21.5392ZM26.9028 23.0656H25.5328H24.4117L7.16124 22.821H6.41382C2.86391 22.821 -0.000976562 20.0147 -0.000976562 16.5366C-0.000976562 15.072 0.497502 13.6679 1.43146 12.5701C2.24126 11.6544 3.30001 10.9221 4.42051 10.5566C4.66944 7.32238 7.47256 4.69881 10.8353 4.69881C11.3338 4.69881 11.7699 4.75994 12.2677 4.88219C12.828 3.60037 13.7002 2.44141 14.8837 1.58625C16.3155 0.549538 17.9351 1.52588e-05 19.7413 1.52588e-05C21.9205 1.52588e-05 23.9138 0.79344 25.4086 2.19691C26.7781 3.47813 27.5879 5.12549 27.7127 6.95623C29.5812 7.139 31.325 7.93303 32.6326 9.3359C34.1268 10.8616 34.999 12.8751 34.999 14.9492C34.9366 19.2824 31.2619 23.0656 26.9028 23.0656Z" fill="#FA6444"/>
<path d="M21.7336 31.4237C21.2981 31.4237 20.9244 31.0576 20.9244 30.6309V29.1046H15.4442V30.6309C15.4442 31.0576 15.0705 31.4237 14.6344 31.4237C14.1983 31.4237 13.8252 31.0576 13.8252 30.6309V28.3117C13.8252 27.8845 14.1983 27.5183 14.6344 27.5183H21.6718C22.1079 27.5183 22.481 27.8845 22.481 28.3117V30.6309C22.481 31.0576 22.1079 31.4237 21.7336 31.4237Z" fill="#FA6444"/>
<path d="M21.7336 33.7429C21.2981 33.7429 20.9244 33.3768 20.9244 32.9501V31.4244H15.4442V32.9501C15.4442 33.3768 15.0705 33.7429 14.6344 33.7429C14.1983 33.7429 13.8252 33.3768 13.8252 32.9501V30.6316C13.8252 30.2043 14.1983 29.8375 14.6344 29.8375H21.6718C22.1079 29.8375 22.481 30.2043 22.481 30.6316V32.9501C22.481 33.3768 22.1079 33.7429 21.7336 33.7429Z" fill="#FA6444"/>
<path d="M15.5057 34.4743H20.9241V33.6815H15.4439V34.4743H15.5057ZM21.7333 36H14.6965C14.2604 36 13.8867 35.6333 13.8867 35.2066V32.9492C13.8867 32.5219 14.2604 32.1551 14.6965 32.1551H21.7333C22.1694 32.1551 22.5437 32.5219 22.5437 32.9492V35.2677C22.4807 35.6333 22.1076 36 21.7333 36Z" fill="#FA6444"/>
<path d="M28.3359 29.1666C27.8998 29.1666 27.5261 28.7999 27.5261 28.3732V26.0541H8.84262V28.3732C8.84262 28.7999 8.46952 29.1666 8.03343 29.1666C7.59795 29.1666 7.22363 28.7999 7.22363 28.3732V25.3224C7.22363 24.8951 7.59795 24.529 8.03343 24.529H28.2735C28.709 24.529 29.0833 24.8951 29.0833 25.3224V28.3732C29.0833 28.7999 28.772 29.1666 28.3359 29.1666Z" fill="#FA6444"/>
<path d="M11.582 31.4237C11.1459 31.4237 10.7722 31.0576 10.7722 30.6309V29.1046H5.35434V30.6309C5.35434 31.0576 4.98002 31.4237 4.54454 31.4237C4.10845 31.4237 3.73535 31.0576 3.73535 30.6309V28.3117C3.73535 27.8845 4.10845 27.5183 4.54454 27.5183H11.582C12.018 27.5183 12.3911 27.8845 12.3911 28.3117V30.6309C12.3911 31.0576 12.018 31.4237 11.582 31.4237Z" fill="#FA6444"/>
<path d="M11.582 33.7429C11.1459 33.7429 10.7722 33.3768 10.7722 32.9501V31.4244H5.35434V32.9501C5.35434 33.3768 4.98002 33.7429 4.54454 33.7429C4.10845 33.7429 3.73535 33.3768 3.73535 32.9501V30.6316C3.73535 30.2043 4.10845 29.8375 4.54454 29.8375H11.582C12.018 29.8375 12.3911 30.2043 12.3911 30.6316V32.9501C12.3911 33.3768 12.018 33.7429 11.582 33.7429Z" fill="#FA6444"/>
<path d="M5.35507 34.4743H10.8353V33.6815H5.35507V34.4743ZM11.5827 36H4.60765C4.17155 36 3.79785 35.6333 3.79785 35.2066V32.9492C3.79785 32.5219 4.17155 32.1551 4.60765 32.1551H11.5827C12.0188 32.1551 12.3919 32.5219 12.3919 32.9492V35.2677C12.3919 35.6333 12.0188 36 11.5827 36Z" fill="#FA6444"/>
<path d="M31.824 31.4237C31.3879 31.4237 31.0142 31.0576 31.0142 30.6309V29.1046H25.534V30.6309C25.534 31.0576 25.1603 31.4237 24.7242 31.4237C24.2881 31.4237 23.915 31.0576 23.915 30.6309V28.3117C23.915 27.8845 24.2881 27.5183 24.7242 27.5183H31.7616C32.1977 27.5183 32.5708 27.8845 32.5708 28.3117V30.6309C32.6338 31.0576 32.2595 31.4237 31.824 31.4237Z" fill="#FA6444"/>
<path d="M31.824 33.7429C31.3879 33.7429 31.0142 33.3768 31.0142 32.9501V31.4244H25.534V32.9501C25.534 33.3768 25.1603 33.7429 24.7242 33.7429C24.2881 33.7429 23.915 33.3768 23.915 32.9501V30.6316C23.915 30.2043 24.2881 29.8375 24.7242 29.8375H31.7616C32.1977 29.8375 32.5708 30.2043 32.5708 30.6316V32.9501C32.6338 33.3768 32.2595 33.7429 31.824 33.7429Z" fill="#FA6444"/>
<path d="M25.5927 34.4743H31.0736V33.6815H25.5927V34.4743ZM31.821 36H24.8453C24.4098 36 24.0361 35.6333 24.0361 35.2066V32.9492C24.0361 32.5219 24.4098 32.1551 24.8453 32.1551H31.8834C32.3188 32.1551 32.6932 32.5219 32.6932 32.9492V35.2677C32.6308 35.6333 32.2565 36 31.821 36Z" fill="#FA6444"/>
</svg>
