<svg width="36" height="36" viewBox="0 0 36 36" fill="none" xmlns="http://www.w3.org/2000/svg">
<path d="M8.92705 27.2491C9.74954 28.0716 9.74954 29.4218 8.92705 30.2443C8.92705 30.2443 8.92705 30.2443 8.92705 30.3031C8.10515 31.125 6.75434 31.125 5.93186 30.3031C5.10995 29.4812 5.10995 28.1298 5.93186 27.3079C6.75434 26.4266 8.04632 26.4266 8.92705 27.2491Z" fill="#FA6444" fill-opacity="0.2"/>
<path d="M30.3044 27.0726C31.1263 27.8945 31.1263 29.2453 30.3044 30.0672C29.482 30.8897 28.1312 30.8897 27.3087 30.0672C27.2504 30.009 27.2504 30.009 27.1916 29.9501C26.4868 29.1276 26.4868 27.8357 27.3087 27.0726C28.0723 26.3089 29.3061 26.2501 30.1868 26.9549C30.1868 27.0132 30.2456 27.0726 30.3044 27.0726Z" fill="#FA6444" fill-opacity="0.2"/>
<path d="M30.1281 5.69635C30.95 6.51825 30.95 7.86907 30.1281 8.69097C30.0693 8.74981 30.0105 8.80864 29.9522 8.86747C29.1297 9.51346 27.8966 9.45463 27.1329 8.69097C26.3693 7.9279 26.311 6.753 26.957 5.87226C27.0158 5.81343 27.0741 5.69635 27.1329 5.63751C27.9548 4.87386 29.3062 4.87386 30.1281 5.69635Z" fill="#FA6444" fill-opacity="0.2"/>
<path d="M8.81054 5.93036C9.57361 6.75227 9.51538 8.04426 8.75172 8.86674C7.92924 9.68865 6.63725 9.68863 5.81535 8.92556C5.75651 8.92556 5.75651 8.86674 5.75651 8.86674C4.93403 8.04426 4.93403 6.69344 5.75651 5.87153C6.57842 5.04905 7.92924 5.04905 8.75172 5.87153L8.81054 5.93036Z" fill="#FA6444" fill-opacity="0.2"/>
<path d="M5.05159 18.087C5.05159 19.2614 4.11202 20.2009 2.99596 20.2009H2.93713C1.76281 20.2009 0.823242 19.2614 0.823242 18.087C0.823242 16.9121 1.76281 15.9726 2.93713 15.9726C2.93713 15.9726 2.93713 15.9726 2.99596 15.9726C4.11202 15.9726 5.05159 16.9121 5.05159 18.087Z" fill="#FA6444"/>
<path d="M20.2625 33.005C20.2625 33.0639 20.2625 33.0639 20.2625 33.1233C20.2625 34.297 19.323 35.2372 18.1481 35.2372C16.9738 35.2372 16.0342 34.297 16.0342 33.1233V33.0639C16.0342 31.889 16.9738 31.0088 18.1481 31.0088C19.2641 31.0088 20.2037 31.889 20.2625 33.005Z" fill="#FA6444"/>
<path d="M32.8866 19.9674C31.8293 19.8497 31.0068 18.9689 31.0068 17.8535C31.0068 16.7962 31.8293 15.8567 32.8277 15.739C32.9448 15.739 33.0036 15.739 33.1213 15.739C34.2956 15.739 35.2352 16.6786 35.2352 17.8535C35.2352 19.0278 34.2956 19.9674 33.1213 19.9674C33.0625 20.0262 33.0036 20.0262 32.8866 19.9674Z" fill="#FA6444"/>
<path d="M20.0287 2.87784C20.0287 2.93667 20.0287 3.05434 20.0287 3.11259C19.9111 4.16982 19.0303 4.99231 17.9143 4.99231C16.7988 4.99231 15.9175 4.16982 15.7998 3.11259C15.7998 3.05434 15.7998 2.93667 15.7998 2.87784C15.7998 1.70353 16.7399 0.763373 17.9143 0.763373C19.0886 0.763373 20.0287 1.70353 20.0287 2.87784Z" fill="#FA6444"/>
<path d="M11.2759 16.444C11.2759 14.7408 12.6267 13.39 14.3299 13.39C14.6823 13.39 15.0347 13.4488 15.3871 13.5659C15.8566 11.9221 17.3834 10.7472 19.1454 10.7472C21.3187 10.7472 23.0802 12.3916 23.0802 14.6231C25.2535 14.6231 27.0155 16.5023 27.0155 18.6756C27.0155 20.8483 25.2535 22.7863 23.0802 22.7863C22.9043 22.7863 21.9059 22.7863 21.9059 22.7863H21.2599H17.6187H13.0379C12.6267 22.7863 11.863 22.7863 11.863 22.7863C10.1604 22.7863 8.80957 21.2595 8.80957 19.6151C8.80957 18.1472 9.86623 16.9135 11.217 16.6199C11.2759 16.5023 11.2759 16.5023 11.2759 16.444Z" fill="#FA6444" fill-opacity="0.2"/>
<path d="M26.9558 6.63562C26.7793 6.63562 26.6622 6.57737 26.5445 6.51854C24.6066 5.10889 22.3162 4.16932 19.967 3.81691C19.5557 3.75807 19.2622 3.40567 19.321 2.99443C19.3798 2.58377 19.7322 2.29018 20.1429 2.34902C22.7857 2.70143 25.2525 3.75807 27.3664 5.34421C27.7188 5.57896 27.7777 6.04846 27.5429 6.34262C27.3664 6.57737 27.1317 6.63562 26.9558 6.63562Z" fill="#FA6444"/>
<path d="M32.8298 16.5011C32.4774 16.5011 32.1838 16.2664 32.125 15.8557C31.7725 13.5065 30.833 11.2161 29.3645 9.33638C29.1298 9.0428 29.1886 8.57332 29.4822 8.27974C29.7758 8.04441 30.2458 8.10324 30.5394 8.39682C32.125 10.5113 33.1822 12.9776 33.5934 15.6204C33.6517 16.0316 33.3581 16.384 33.0057 16.4428C32.9469 16.5011 32.8886 16.5011 32.8298 16.5011Z" fill="#FA6444"/>
<path d="M30.1276 27.6602C29.9516 27.6602 29.834 27.6013 29.7163 27.5425C29.3639 27.3077 29.3057 26.8383 29.5404 26.5447C30.9495 24.6061 31.8896 22.3157 32.1832 19.9077C32.2414 19.4965 32.5944 19.2035 33.0051 19.2617C33.4163 19.3205 33.7099 19.6729 33.6511 20.0842C33.2987 22.727 32.3003 25.2521 30.7735 27.3666C30.597 27.6013 30.3623 27.6602 30.1276 27.6602Z" fill="#FA6444"/>
<path d="M20.2622 33.7097C19.9098 33.7097 19.6162 33.475 19.5574 33.0637C19.4985 32.6531 19.7921 32.3006 20.1445 32.2418C22.5526 31.8888 24.8429 30.891 26.7221 29.3637C27.0162 29.129 27.4857 29.1878 27.7793 29.4819C28.0141 29.7755 27.9552 30.245 27.6616 30.5386C25.5478 32.183 23.0226 33.2985 20.3798 33.7097C20.3204 33.7097 20.2622 33.7097 20.2622 33.7097Z" fill="#FA6444"/>
<path d="M15.974 33.7678C15.9152 33.7678 15.9152 33.7678 15.8564 33.7678C13.1548 33.416 10.6296 32.4176 8.45692 30.7726C8.10451 30.5379 8.04568 30.0678 8.28043 29.7748C8.51517 29.4218 8.98524 29.363 9.27882 29.5983C11.3345 31.125 13.6837 32.0063 16.0917 32.3582C16.5024 32.4176 16.7965 32.7694 16.7377 33.1807C16.6783 33.5331 16.3853 33.7678 15.974 33.7678Z" fill="#FA6444"/>
<path d="M5.87452 28.0134C5.6392 28.0134 5.46328 27.8958 5.28678 27.7193C3.64239 25.5465 2.58574 23.0214 2.1745 20.3786C2.11567 19.9674 2.40925 19.615 2.8205 19.5562C3.23174 19.4973 3.58415 19.7909 3.6424 20.2021C3.99481 22.6102 4.93438 24.9594 6.4611 26.8974C6.69643 27.1909 6.6376 27.661 6.34402 27.9546C6.22636 27.9546 6.05044 28.0134 5.87452 28.0134Z" fill="#FA6444"/>
<path d="M2.93758 16.6786C2.87933 16.6786 2.87933 16.6786 2.8205 16.6786C2.40925 16.6198 2.11567 16.2674 2.1745 15.8567C2.52691 13.2133 3.58415 10.6294 5.22796 8.51548C5.46329 8.16307 5.93278 8.10423 6.28519 8.39781C6.6376 8.63314 6.69643 9.10263 6.40285 9.45504C4.93438 11.393 3.99481 13.6834 3.6424 16.1503C3.58415 16.4438 3.28999 16.6786 2.93758 16.6786Z" fill="#FA6444"/>
<path d="M8.80966 6.6936C8.57433 6.6936 8.3396 6.57652 8.22193 6.40002C7.98719 6.04761 8.04602 5.63694 8.3396 5.34336C10.4535 3.75722 12.9792 2.70058 15.622 2.34817C16.0332 2.28934 16.3856 2.58292 16.4445 2.99358C16.5027 3.40482 16.2091 3.75723 15.7979 3.81606C13.3899 4.16847 11.1 5.10805 9.16208 6.57652C9.16208 6.63477 8.98558 6.6936 8.80966 6.6936Z" fill="#FA6444"/>
<path d="M17.9121 1.46795C17.1484 1.46795 16.5024 2.11394 16.5024 2.8776C16.5024 2.93643 16.5024 2.99468 16.5024 2.99468C16.5612 3.6995 17.1484 4.2284 17.9121 4.2284C18.6757 4.2284 19.204 3.6995 19.3217 2.99468C19.3217 2.93643 19.3217 2.8776 19.3217 2.8776C19.3217 2.11394 18.6757 1.46795 17.9121 1.46795ZM17.9121 5.75513C16.4442 5.75513 15.2104 4.63965 15.0928 3.17118C15.0928 3.05409 15.0928 2.99468 15.0928 2.8776C15.0928 1.29204 16.3853 4.95911e-05 17.9709 4.95911e-05C19.5564 4.95911e-05 20.8484 1.29204 20.8484 2.8776C20.8484 2.99468 20.8484 3.11234 20.8484 3.17118C20.6137 4.63965 19.3805 5.75513 17.9121 5.75513Z" fill="#FA6444"/>
<path d="M18.1461 31.7134C17.3824 31.7134 16.7959 32.3006 16.737 33.0636C16.737 33.8279 17.3824 34.4733 18.1461 34.4733C18.9097 34.4733 19.5557 33.8279 19.5557 33.0636V33.0048C19.4969 32.3006 18.8509 31.7134 18.1461 31.7134ZM18.1461 36C16.5605 36 15.2686 34.708 15.2686 33.1231V33.0636C15.3274 31.5369 16.5605 30.2449 18.1461 30.2449C19.6734 30.2449 20.9065 31.4198 21.0236 32.9466C21.0236 33.0048 21.0236 33.0636 21.0236 33.1231C20.9654 34.708 19.7322 36 18.1461 36Z" fill="#FA6444"/>
<path d="M28.66 5.81267C28.3075 5.81267 27.9551 5.93034 27.6616 6.22391C27.6027 6.28216 27.6027 6.34158 27.5445 6.34158C27.1332 6.8699 27.1921 7.69181 27.6616 8.16188C27.8969 8.39663 28.2493 8.57313 28.66 8.57313C28.9541 8.57313 29.2477 8.45546 29.5413 8.27955C29.6001 8.22072 29.6584 8.22072 29.6584 8.16188C30.1873 7.63298 30.1873 6.75224 29.6584 6.16508C29.3648 5.98917 29.0124 5.81267 28.66 5.81267ZM28.6017 10.0999C27.838 10.0999 27.1332 9.80627 26.6049 9.27794C25.6065 8.27954 25.4888 6.63457 26.3696 5.51909C26.4284 5.40142 26.5461 5.34318 26.6049 5.22552C27.1332 4.69661 27.838 4.40303 28.6017 4.40303C29.3648 4.40303 30.0696 4.69661 30.5979 5.22552C31.714 6.34158 31.714 8.16188 30.5979 9.27794C30.5397 9.33619 30.422 9.45386 30.3049 9.51269C29.8937 9.8651 29.2477 10.0999 28.6017 10.0999Z" fill="#FA6444"/>
<path d="M6.40194 27.7782C6.1672 28.013 5.9907 28.3654 5.9907 28.7766C5.9907 29.1285 6.10836 29.4815 6.40194 29.775C6.63669 30.0098 6.98909 30.1863 7.40034 30.1863C7.75275 30.1863 8.10517 30.068 8.39874 29.775C8.92707 29.2461 8.92707 28.3654 8.39874 27.8365C8.164 27.6017 7.81158 27.4252 7.40034 27.4252C7.04792 27.367 6.69552 27.4841 6.40194 27.7782ZM7.40034 31.5953C6.63668 31.5953 5.93186 31.3018 5.40353 30.7728C4.87463 30.2445 4.58105 29.5397 4.58105 28.7766C4.58105 28.013 4.87463 27.3082 5.40353 26.7793C5.93186 26.2509 6.63668 25.9573 7.40034 25.9573C8.16399 25.9573 8.86823 26.2509 9.39714 26.7793C10.5132 27.8953 10.5132 29.6568 9.45597 30.7728L9.39714 30.8317C8.86823 31.3018 8.16399 31.5953 7.40034 31.5953Z" fill="#FA6444"/>
<path d="M33.1224 16.501C33.0636 16.501 33.0048 16.501 32.9459 16.501C32.2411 16.6187 31.7128 17.2059 31.7128 17.9107C31.7128 18.6155 32.2411 19.2033 32.9459 19.3203C33.0048 19.3203 33.0636 19.3203 33.1224 19.3203C33.8855 19.3203 34.5315 18.6743 34.5315 17.9107C34.5315 17.1476 33.8855 16.501 33.1224 16.501ZM33.1224 20.73C33.0048 20.73 32.8877 20.73 32.8288 20.73C31.3604 20.5535 30.3037 19.3792 30.3037 17.9107C30.3037 16.501 31.3604 15.2679 32.77 15.092C32.8877 15.092 33.0048 15.092 33.1224 15.092C34.708 15.092 36 16.384 36 17.9695C36 19.5551 34.708 20.73 33.1224 20.73Z" fill="#FA6444"/>
<path d="M2.87714 16.6781C2.11349 16.6781 1.4675 17.3241 1.4675 18.0878C1.4675 18.8514 2.11349 19.4969 2.87714 19.4969C3.64022 19.4969 4.22737 18.8514 4.22737 18.0878C4.28678 17.3241 3.69905 16.737 2.87714 16.6781ZM2.87714 20.9653C1.291 20.9653 -0.000976562 19.6733 -0.000976562 18.0878C-0.000976562 16.5016 1.291 15.2103 2.87714 15.2103C2.87714 15.2103 2.87714 15.2103 2.93539 15.2103C4.4627 15.2103 5.75468 16.5016 5.75468 18.0878C5.75468 19.6145 4.52095 20.9065 2.93539 20.9653C2.93539 20.9653 2.93539 20.9653 2.87714 20.9653Z" fill="#FA6444"/>
<path d="M7.22456 5.9893C6.87214 5.9893 6.51974 6.10638 6.22558 6.39996C5.99083 6.63471 5.81491 6.98711 5.81491 7.39836C5.81491 7.75077 5.932 8.10319 6.22558 8.39676L6.28441 8.4556C6.51974 8.69034 6.87214 8.80801 7.22456 8.80801C7.57697 8.80801 7.9288 8.69034 8.22238 8.39676C8.75129 7.86844 8.75129 7.04595 8.28121 6.45879L8.22238 6.39996C7.98763 6.10638 7.63522 5.9893 7.22456 5.9893ZM7.22456 10.2177C6.51973 10.2177 5.81491 9.98232 5.34483 9.51282C5.286 9.45399 5.28602 9.45399 5.22718 9.39516C4.69886 8.86683 4.40527 8.16201 4.40527 7.39836C4.40527 6.6347 4.69886 5.93046 5.22718 5.40155C5.75609 4.87323 6.46032 4.57966 7.22456 4.57966C7.98763 4.57966 8.69245 4.87323 9.22077 5.40155C9.27961 5.46038 9.27961 5.46039 9.33844 5.51922C10.3368 6.6347 10.278 8.39676 9.22077 9.45399C8.75128 9.92348 7.98763 10.2177 7.22456 10.2177Z" fill="#FA6444"/>
<path d="M28.778 27.1905C28.4256 27.1905 28.0732 27.3081 27.7796 27.6017C27.2513 28.13 27.2513 28.952 27.7208 29.4814L27.7796 29.5397C28.0144 29.775 28.3668 29.9509 28.778 29.9509C29.1304 29.9509 29.4829 29.8333 29.7764 29.5397C30.0112 29.3049 30.1877 28.952 30.1877 28.5413C30.1877 28.1301 30.07 27.8365 29.7764 27.5429C29.7176 27.4841 29.7176 27.4841 29.6588 27.4252C29.424 27.3081 29.1304 27.1905 28.778 27.1905ZM28.778 31.4777C28.0144 31.4777 27.3096 31.1841 26.7812 30.6558C26.7224 30.5969 26.6641 30.5381 26.6641 30.5381C25.6652 29.422 25.724 27.7188 26.7812 26.6622C27.3096 26.1338 28.0144 25.8402 28.778 25.8402C29.424 25.8402 30.07 26.075 30.5983 26.4857C30.6577 26.5445 30.716 26.6033 30.8337 26.6622C31.362 27.1905 31.6556 27.8953 31.6556 28.6589C31.6556 29.422 31.362 30.1268 30.8337 30.6558C30.2465 31.1841 29.5417 31.4777 28.778 31.4777Z" fill="#FA6444"/>
<path d="M20.0284 16.7366C19.8519 16.7366 19.676 16.6777 19.5583 16.5601C19.2648 16.3253 19.2059 15.8558 19.4407 15.5034C20.3214 14.4462 21.614 13.859 22.9648 13.859C23.376 13.859 23.7284 14.2109 23.7284 14.6221C23.7284 15.0333 23.376 15.3858 22.9648 15.3858C22.0246 15.3858 21.1439 15.797 20.5567 16.5012C20.4979 16.6777 20.2632 16.7366 20.0284 16.7366Z" fill="#FA6444"/>
<path d="M13.6249 17.9705C13.449 17.9705 13.2725 17.9116 13.1548 17.7946C12.6853 17.3833 12.0393 17.2068 11.3933 17.2656C10.9821 17.3245 10.6297 17.0309 10.5709 16.6197C10.5126 16.209 10.8056 15.8566 11.2168 15.7978C12.2741 15.6801 13.3313 15.9737 14.0944 16.6785C14.3885 16.9132 14.4468 17.3833 14.1538 17.7357C14.0361 17.8534 13.8014 17.9705 13.6249 17.9705Z" fill="#FA6444"/>
<path d="M21.2596 23.491C20.966 23.491 20.7307 23.3151 20.6136 23.0797C20.4371 22.7279 20.5548 22.2578 20.966 22.0819H21.0243C22.258 21.553 23.0217 20.8482 23.2564 19.9086C23.4323 19.2626 23.3152 18.7343 23.3152 18.6755C23.1976 18.2642 23.4323 17.8536 23.8436 17.7947C24.2548 17.6771 24.6655 17.9118 24.7243 18.3231C24.7243 18.4407 24.9596 19.2626 24.6655 20.3199C24.4307 21.2594 23.6676 22.6102 21.5532 23.491C21.4355 23.491 21.3767 23.491 21.2596 23.491Z" fill="#FA6444"/>
<path d="M21.2596 22.0232H21.9056C21.9056 22.0232 22.904 22.0232 23.0799 22.0232C24.842 22.0232 26.3105 20.4959 26.3105 18.6756C26.3105 16.9135 24.842 15.3868 23.0799 15.3868C22.6693 15.3868 22.3168 15.0344 22.3168 14.6231C22.3168 12.8611 20.9072 11.5109 19.0863 11.5109C17.6773 11.5109 16.3853 12.4504 16.0329 13.8013C15.974 13.9772 15.8564 14.1537 15.6805 14.2707C15.504 14.3884 15.2692 14.3884 15.0927 14.3296C14.858 14.2119 14.5644 14.2119 14.2708 14.2119C12.9788 14.2119 11.9216 15.2691 11.9216 16.5611V16.62C11.9216 16.9724 11.6868 17.2659 11.3344 17.3248C10.2772 17.5595 9.51413 18.4997 9.51413 19.6152C9.51413 20.966 10.5708 22.082 11.8628 22.082C11.9216 22.082 12.92 22.082 13.0377 22.082L21.2596 22.0232ZM23.0799 23.4911C22.904 23.4911 21.9056 23.4911 21.9056 23.4911H13.0965C12.6852 23.4911 11.9804 23.4911 11.9216 23.4911C9.86597 23.4911 8.10449 21.6702 8.10449 19.5563C8.10449 17.9708 9.1029 16.5611 10.5708 16.0328C10.8055 14.1537 12.3917 12.6852 14.3296 12.6852C14.5055 12.6852 14.7409 12.6852 14.9168 12.744C15.6805 11.1585 17.3248 10.0424 19.1452 10.0424C21.5532 10.0424 23.4323 11.6868 23.7847 13.9183C24.7831 14.0948 25.6639 14.5649 26.4275 15.2691C27.3083 16.1505 27.7783 17.3836 27.7783 18.6168C27.7783 21.2595 25.6056 23.4911 23.0799 23.4911Z" fill="#FA6444"/>
<path d="M21.3207 27.1909H13.9795C13.5682 27.1909 13.2158 26.8391 13.2158 26.4273C13.2158 26.016 13.5682 25.6642 13.9795 25.6642H21.3207C21.7313 25.6642 22.0838 26.016 22.0838 26.4273C22.0838 26.8391 21.7313 27.1909 21.3207 27.1909Z" fill="#FA6444"/>
<path d="M17.6767 27.1908C17.2655 27.1908 16.9131 26.839 16.9131 26.4271V19.0865C16.9131 18.6753 17.2655 18.3229 17.6767 18.3229C18.0874 18.3229 18.4398 18.6753 18.4398 19.0865V26.4271C18.3816 26.839 18.0292 27.1908 17.6767 27.1908Z" fill="#FA6444"/>
</svg>
