<svg width="31" height="40" viewBox="0 0 31 40" fill="none" xmlns="http://www.w3.org/2000/svg">
<path d="M28.3831 20.7978C28.3831 20.3107 28.0353 19.9629 27.5482 19.9629H26.992H24.0001H6.60816H3.61625H3.06009C2.57294 19.9629 2.22516 20.3107 2.22516 20.7978C2.22516 20.7978 2.22516 38.3284 2.22516 38.3982C2.29485 38.8157 2.64263 39.0936 3.06009 39.0936H10.9215H19.6171H27.4785C27.8959 39.0936 28.2444 38.8157 28.3134 38.3982C28.3831 38.3284 28.3831 20.7978 28.3831 20.7978Z" fill="white"/>
<path d="M10.9914 36.5222H19.687V39.1655H10.9914V36.5222Z" fill="white"/>
<path d="M28.3863 0.89831H2.29807C1.53284 0.89831 0.906311 1.52484 0.906311 2.28938L2.29807 18.6387C2.29807 19.4039 2.92393 20.0298 3.68916 20.0298H6.68108H24.073H27.0643C27.8302 20.0298 28.456 19.4039 28.456 18.6387L29.8478 2.28938C29.7084 1.45446 29.0819 0.89831 28.3863 0.89831Z" fill="white"/>
<path d="M15.3088 4.30727C17.7432 4.30727 19.6911 6.25519 19.6911 8.69096C19.6911 11.1253 17.7432 13.0043 15.3088 13.0043C12.8737 13.0043 10.9258 11.0557 10.9258 8.62058C10.9258 6.18619 12.8737 4.30727 15.3088 4.30727Z" fill="white"/>
<path d="M24.9049 30.4012H26.6438V32.14H24.9049V30.4012Z" fill="#24908D"/>
<path d="M24.9049 27.8222H26.6438V29.5618H24.9049V27.8222Z" fill="#24908D"/>
<path d="M24.9049 25.1814H26.6438V26.9209H24.9049V25.1814Z" fill="#24908D"/>
<path d="M24.9049 22.61H26.6438V24.3489H24.9049V22.61Z" fill="#24908D"/>
<path d="M22.261 30.4012H23.9998V32.14H22.261V30.4012Z" fill="#24908D"/>
<path d="M22.261 27.8222H23.9998V29.5618H22.261V27.8222Z" fill="#24908D"/>
<path d="M22.261 25.1814H23.9998V26.9209H22.261V25.1814Z" fill="#24908D"/>
<path d="M22.261 22.61H23.9998V24.3489H22.261V22.61Z" fill="#24908D"/>
<path d="M19.6889 30.4012H21.4284V32.14H19.6889V30.4012Z" fill="#24908D"/>
<path d="M19.6889 27.8222H21.4284V29.5618H19.6889V27.8222Z" fill="#24908D"/>
<path d="M19.6889 25.1814H21.4284V26.9209H19.6889V25.1814Z" fill="#24908D"/>
<path d="M19.6889 22.61H21.4284V24.3489H19.6889V22.61Z" fill="#24908D"/>
<path d="M9.25067 30.4012H18.8509V32.14H9.25067V30.4012Z" fill="#24908D"/>
<path d="M17.045 27.8222H18.7845V29.5618H17.045V27.8222Z" fill="#24908D"/>
<path d="M17.045 25.1814H18.7845V26.9209H17.045V25.1814Z" fill="#24908D"/>
<path d="M17.045 22.61H18.7845V24.3489H17.045V22.61Z" fill="#24908D"/>
<path d="M14.4667 27.8222H16.2055V29.5618H14.4667V27.8222Z" fill="#24908D"/>
<path d="M14.4667 25.1814H16.2055V26.9209H14.4667V25.1814Z" fill="#24908D"/>
<path d="M14.4667 22.61H16.2055V24.3489H14.4667V22.61Z" fill="#24908D"/>
<path d="M11.8227 27.8222H13.5623V29.5618H11.8227V27.8222Z" fill="#24908D"/>
<path d="M11.8227 25.1814H13.5623V26.9209H11.8227V25.1814Z" fill="#24908D"/>
<path d="M11.8227 22.61H13.5623V24.3489H11.8227V22.61Z" fill="#24908D"/>
<path d="M9.25067 27.8222H10.9902V29.5618H9.25067V27.8222Z" fill="#24908D"/>
<path d="M9.25067 25.1814H10.9902V26.9209H9.25067V25.1814Z" fill="#24908D"/>
<path d="M9.25067 22.61H10.9902V24.3489H9.25067V22.61Z" fill="#24908D"/>
<path d="M6.60986 30.4012H8.34871V32.14H6.60986V30.4012Z" fill="#24908D"/>
<path d="M6.60986 27.8222H8.34871V29.5618H6.60986V27.8222Z" fill="#24908D"/>
<path d="M6.60986 25.1814H8.34871V26.9209H6.60986V25.1814Z" fill="#24908D"/>
<path d="M6.60986 22.61H8.34871V24.3489H6.60986V22.61Z" fill="#24908D"/>
<path d="M4.03778 30.4012H5.77733V32.14H4.03778V30.4012Z" fill="#24908D"/>
<path d="M4.03778 27.8222H5.77733V29.5618H4.03778V27.8222Z" fill="#24908D"/>
<path d="M4.03778 25.1814H5.77733V26.9209H4.03778V25.1814Z" fill="#24908D"/>
<path d="M4.03778 22.61H5.77733V24.3489H4.03778V22.61Z" fill="#24908D"/>
<path d="M27.5518 40H3.0637C2.22878 40 1.53324 39.3742 1.39386 38.6086C1.39386 38.5391 1.39386 38.4693 1.39386 20.8684C1.39386 19.9645 2.15909 19.1985 3.0637 19.1985H3.61986C4.10702 19.1985 4.52447 19.616 4.52447 20.1032C4.52447 20.5903 4.10702 21.0071 3.61986 21.0071H3.1334C3.1334 26.6425 3.1334 37.0086 3.1334 38.3997H27.4821C27.4821 37.0086 27.4821 26.6425 27.4821 21.0071H26.9956C26.5085 21.0071 26.091 20.5903 26.091 20.1032C26.091 19.616 26.5085 19.1985 26.9956 19.1985H27.5518C28.4564 19.1985 29.2216 19.9645 29.2216 20.8684C29.2216 38.4693 29.2216 38.5391 29.2216 38.6086C29.0823 39.3742 28.3867 40 27.5518 40Z" fill="#24908D"/>
<path d="M1.73886 2.22616L3.13063 18.5058V18.5748C3.13063 18.8529 3.33901 19.0619 3.61709 19.0619H26.9929C27.271 19.0619 27.4793 18.8529 27.4793 18.5748V18.5058L28.8711 2.22616C28.8711 1.94739 28.662 1.73901 28.3839 1.73901H2.2957C2.01693 1.73901 1.80855 1.94739 1.73886 2.22616ZM26.9929 20.8705H3.61709C2.3654 20.8705 1.39109 19.8962 1.39109 18.6445L0 2.29516V2.22616C0 0.973772 0.973618 -0.000535965 2.226 -0.000535965H28.3143C29.5666 -0.000535965 30.5403 0.973772 30.5403 2.22616V2.29516L29.1492 18.6445C29.2189 19.8272 28.1756 20.8705 26.9929 20.8705Z" fill="#24908D"/>
<path d="M24.0056 21.705C23.5191 21.705 23.1017 21.2875 23.1017 20.801V19.0615C23.1017 18.5743 23.5191 18.1569 24.0056 18.1569C24.4927 18.1569 24.9102 18.5743 24.9102 19.0615V20.801C24.9102 21.2875 24.4927 21.705 24.0056 21.705Z" fill="#24908D"/>
<path d="M6.60813 21.705C6.12097 21.705 5.70352 21.2875 5.70352 20.801V19.0615C5.70352 18.5743 6.12097 18.1569 6.60813 18.1569C7.09528 18.1569 7.51206 18.5743 7.51206 19.0615V20.801C7.51206 21.2875 7.09528 21.705 6.60813 21.705Z" fill="#24908D"/>
<path d="M19.6894 40C19.2029 40 18.7855 39.5825 18.7855 39.0952V37.3563H11.828V39.0952C11.828 39.5825 11.4105 40 10.9241 40C10.4369 40 10.0195 39.5825 10.0195 39.0952V36.4518C10.0195 35.9647 10.4369 35.5477 10.9241 35.5477H19.6197C20.1069 35.5477 20.5243 35.9647 20.5243 36.4518V39.0952C20.5243 39.5825 20.1069 40 19.6894 40Z" fill="#24908D"/>
<path d="M24.9083 17.389H2.29847C1.81131 17.389 1.39386 16.9716 1.39386 16.4851C1.39386 15.998 1.81131 15.5805 2.29847 15.5805H24.9083C25.3955 15.5805 25.8129 15.998 25.8129 16.4851C25.7433 16.9716 25.3258 17.389 24.9083 17.389Z" fill="#24908D"/>
<path d="M15.303 5.21502C13.3551 5.21502 11.824 6.7448 11.824 8.69341C11.824 10.6406 13.3551 12.1718 15.303 12.1718C17.251 12.1718 18.7814 10.6406 18.7814 8.69341C18.7814 6.7448 17.251 5.21502 15.303 5.21502ZM15.303 13.9106C12.4505 13.9106 10.0851 11.5453 10.0851 8.69341C10.0851 5.84087 12.4505 3.47548 15.303 3.47548C18.1549 3.47548 20.5203 5.84087 20.5203 8.69341C20.5203 11.5453 18.1549 13.9106 15.303 13.9106Z" fill="#24908D"/>
<path d="M16.5571 10.7792C16.3487 10.7792 16.1396 10.7102 15.9312 10.5011L13.4961 8.06602C13.1484 7.71825 13.1484 7.16141 13.4961 6.81364C13.8439 6.46587 14.4008 6.46587 14.7485 6.81364L17.1836 9.24872C17.5314 9.59649 17.5314 10.1533 17.1836 10.5011C16.9745 10.6398 16.7662 10.7792 16.5571 10.7792Z" fill="#24908D"/>
<path d="M14.0506 10.7792C13.8416 10.7792 13.6332 10.7102 13.4248 10.5011C13.0763 10.1533 13.0763 9.59649 13.4248 9.24872L15.8592 6.81364C16.207 6.46587 16.7638 6.46587 17.1116 6.81364C17.4593 7.16141 17.4593 7.71825 17.1116 8.06602L14.6765 10.5011C14.5371 10.6398 14.3287 10.7792 14.0506 10.7792Z" fill="#24908D"/>
</svg>
