<svg width="36" height="36" viewBox="0 0 36 36" fill="none" xmlns="http://www.w3.org/2000/svg">
<path d="M8.92803 27.2492C9.75052 28.0717 9.75052 29.4219 8.92803 30.2444C8.92803 30.2444 8.92803 30.2444 8.92803 30.3032C8.10613 31.1252 6.75532 31.1252 5.93283 30.3032C5.11093 29.4813 5.11093 28.1299 5.93283 27.308C6.75532 26.4267 8.04729 26.4267 8.92803 27.2492Z" fill="white" fill-opacity="0.2"/>
<path d="M30.3057 27.0726C31.1276 27.8945 31.1276 29.2453 30.3057 30.0672C29.4832 30.8897 28.1324 30.8897 27.3099 30.0672C27.2516 30.009 27.2516 30.009 27.1928 29.9501C26.488 29.1276 26.488 27.8357 27.3099 27.0726C28.0735 26.3089 29.3073 26.2501 30.188 26.9549C30.188 27.0132 30.2468 27.0726 30.3057 27.0726Z" fill="white" fill-opacity="0.2"/>
<path d="M30.1284 5.69635C30.9503 6.51825 30.9503 7.86907 30.1284 8.69097C30.0695 8.74981 30.0107 8.80864 29.9525 8.86747C29.13 9.51346 27.8968 9.45463 27.1332 8.69097C26.3695 7.9279 26.3113 6.753 26.9572 5.87226C27.0161 5.81343 27.0743 5.69635 27.1332 5.63751C27.9551 4.87386 29.3065 4.87386 30.1284 5.69635Z" fill="white" fill-opacity="0.2"/>
<path d="M8.81152 5.93036C9.57459 6.75227 9.51635 8.04426 8.7527 8.86674C7.93021 9.68865 6.63823 9.68863 5.81632 8.92556C5.75749 8.92556 5.75749 8.86674 5.75749 8.86674C4.935 8.04426 4.935 6.69344 5.75749 5.87153C6.57939 5.04905 7.93021 5.04905 8.7527 5.87153L8.81152 5.93036Z" fill="white" fill-opacity="0.2"/>
<path d="M5.05159 18.087C5.05159 19.2614 4.11202 20.2009 2.99596 20.2009H2.93713C1.76281 20.2009 0.823242 19.2614 0.823242 18.087C0.823242 16.9121 1.76281 15.9726 2.93713 15.9726C2.93713 15.9726 2.93713 15.9726 2.99596 15.9726C4.11202 15.9726 5.05159 16.9121 5.05159 18.087Z" fill="#4D32A5"/>
<path d="M20.2625 33.0049C20.2625 33.0638 20.2625 33.0638 20.2625 33.1232C20.2625 34.2969 19.323 35.2371 18.1481 35.2371C16.9738 35.2371 16.0342 34.2969 16.0342 33.1232V33.0638C16.0342 31.8889 16.9738 31.0087 18.1481 31.0087C19.2641 31.0087 20.2037 31.8889 20.2625 33.0049Z" fill="#4D32A5"/>
<path d="M32.8878 19.9674C31.8305 19.8497 31.0081 18.9689 31.0081 17.8535C31.0081 16.7962 31.8305 15.8567 32.8289 15.739C32.946 15.739 33.0049 15.739 33.1225 15.739C34.2968 15.739 35.2364 16.6786 35.2364 17.8535C35.2364 19.0278 34.2968 19.9674 33.1225 19.9674C33.0637 20.0262 33.0049 20.0262 32.8878 19.9674Z" fill="#4D32A5"/>
<path d="M20.0287 2.87772C20.0287 2.93655 20.0287 3.05422 20.0287 3.11247C19.9111 4.1697 19.0303 4.99219 17.9143 4.99219C16.7988 4.99219 15.9175 4.1697 15.7998 3.11247C15.7998 3.05422 15.7998 2.93655 15.7998 2.87772C15.7998 1.7034 16.7399 0.763251 17.9143 0.763251C19.0886 0.763251 20.0287 1.7034 20.0287 2.87772Z" fill="#4D32A5"/>
<path d="M11.2771 16.4439C11.2771 14.7407 12.6279 13.3899 14.3311 13.3899C14.6835 13.3899 15.0359 13.4487 15.3884 13.5658C15.8579 11.922 17.3846 10.7471 19.1466 10.7471C21.3199 10.7471 23.0814 12.3915 23.0814 14.623C25.2547 14.623 27.0167 16.5021 27.0167 18.6754C27.0167 20.8482 25.2547 22.7861 23.0814 22.7861C22.9055 22.7861 21.9071 22.7861 21.9071 22.7861H21.2611H17.6199H13.0391C12.6279 22.7861 11.8643 22.7861 11.8643 22.7861C10.1616 22.7861 8.81079 21.2594 8.81079 19.615C8.81079 18.1471 9.86745 16.9134 11.2183 16.6198C11.2771 16.5021 11.2771 16.5021 11.2771 16.4439Z" fill="white" fill-opacity="0.2"/>
<path d="M26.957 6.6355C26.7805 6.6355 26.6634 6.57725 26.5458 6.51842C24.6078 5.10877 22.3174 4.1692 19.9682 3.81679C19.5569 3.75795 19.2634 3.40555 19.3222 2.99431C19.381 2.58365 19.7334 2.29006 20.1441 2.34889C22.7869 2.70131 25.2538 3.75795 27.3677 5.34409C27.7201 5.57884 27.7789 6.04834 27.5442 6.3425C27.3677 6.57725 27.1329 6.6355 26.957 6.6355Z" fill="#4D32A5"/>
<path d="M32.831 16.501C32.4786 16.501 32.185 16.2662 32.1262 15.8556C31.7738 13.5064 30.8342 11.216 29.3657 9.33626C29.131 9.04268 29.1898 8.57319 29.4834 8.27961C29.777 8.04429 30.247 8.10312 30.5406 8.3967C32.1262 10.5112 33.1834 12.9775 33.5947 15.6202C33.6529 16.0315 33.3593 16.3839 33.0069 16.4427C32.9481 16.501 32.8898 16.501 32.831 16.501Z" fill="#4D32A5"/>
<path d="M30.1278 27.6602C29.9519 27.6602 29.8342 27.6013 29.7166 27.5425C29.3641 27.3077 29.3059 26.8383 29.5406 26.5447C30.9497 24.6061 31.8898 22.3157 32.1834 19.9077C32.2417 19.4965 32.5947 19.2035 33.0053 19.2617C33.4166 19.3205 33.7102 19.6729 33.6513 20.0842C33.2989 22.727 32.3005 25.2521 30.7738 27.3666C30.5973 27.6013 30.3625 27.6602 30.1278 27.6602Z" fill="#4D32A5"/>
<path d="M20.2624 33.7097C19.91 33.7097 19.6164 33.475 19.5576 33.0637C19.4988 32.6531 19.7923 32.3006 20.1448 32.2418C22.5528 31.8888 24.8432 30.891 26.7223 29.3637C27.0165 29.129 27.486 29.1878 27.7796 29.4819C28.0143 29.7755 27.9555 30.245 27.6619 30.5386C25.548 32.183 23.0229 33.2985 20.3801 33.7097C20.3207 33.7097 20.2624 33.7097 20.2624 33.7097Z" fill="#4D32A5"/>
<path d="M15.975 33.7678C15.9162 33.7678 15.9162 33.7678 15.8574 33.7678C13.1557 33.416 10.6306 32.4176 8.4579 30.7726C8.10549 30.5379 8.04666 30.0678 8.2814 29.7748C8.51615 29.4218 8.98622 29.363 9.2798 29.5983C11.3354 31.125 13.6846 32.0063 16.0927 32.3582C16.5033 32.4176 16.7975 32.7694 16.7387 33.1807C16.6793 33.5331 16.3863 33.7678 15.975 33.7678Z" fill="#4D32A5"/>
<path d="M5.8755 28.0134C5.64017 28.0134 5.46425 27.8958 5.28776 27.7193C3.64337 25.5465 2.58672 23.0214 2.17548 20.3786C2.11665 19.9674 2.41023 19.615 2.82147 19.5562C3.23272 19.4973 3.58513 19.7909 3.64337 20.2021C3.99579 22.6102 4.93535 24.9594 6.46208 26.8974C6.69741 27.1909 6.63858 27.661 6.345 27.9546C6.22733 27.9546 6.05142 28.0134 5.8755 28.0134Z" fill="#4D32A5"/>
<path d="M2.93855 16.6787C2.8803 16.6787 2.8803 16.6787 2.82147 16.6787C2.41023 16.6199 2.11665 16.2675 2.17548 15.8568C2.52789 13.2134 3.58513 10.6295 5.22894 8.5156C5.46427 8.16319 5.93375 8.10435 6.28616 8.39793C6.63858 8.63326 6.69741 9.10275 6.40383 9.45516C4.93535 11.3931 3.99579 13.6835 3.64337 16.1504C3.58513 16.444 3.29097 16.6787 2.93855 16.6787Z" fill="#4D32A5"/>
<path d="M8.81064 6.6936C8.57531 6.6936 8.34057 6.57652 8.22291 6.40002C7.98816 6.04761 8.047 5.63694 8.34057 5.34336C10.4545 3.75722 12.9802 2.70058 15.623 2.34817C16.0342 2.28934 16.3866 2.58292 16.4454 2.99358C16.5037 3.40482 16.2101 3.75723 15.7989 3.81606C13.3908 4.16847 11.101 5.10805 9.16305 6.57652C9.16305 6.63477 8.98655 6.6936 8.81064 6.6936Z" fill="#4D32A5"/>
<path d="M17.913 1.46795C17.1494 1.46795 16.5034 2.11394 16.5034 2.8776C16.5034 2.93643 16.5034 2.99468 16.5034 2.99468C16.5622 3.6995 17.1494 4.2284 17.913 4.2284C18.6767 4.2284 19.205 3.6995 19.3227 2.99468C19.3227 2.93643 19.3227 2.8776 19.3227 2.8776C19.3227 2.11394 18.6767 1.46795 17.913 1.46795ZM17.913 5.75513C16.4451 5.75513 15.2114 4.63965 15.0938 3.17118C15.0938 3.05409 15.0938 2.99468 15.0938 2.8776C15.0938 1.29204 16.3863 4.95911e-05 17.9719 4.95911e-05C19.5574 4.95911e-05 20.8494 1.29204 20.8494 2.8776C20.8494 2.99468 20.8494 3.11234 20.8494 3.17118C20.6147 4.63965 19.3815 5.75513 17.913 5.75513Z" fill="#4D32A5"/>
<path d="M18.1471 31.7134C17.3834 31.7134 16.7968 32.3006 16.738 33.0636C16.738 33.8279 17.3834 34.4733 18.1471 34.4733C18.9107 34.4733 19.5567 33.8279 19.5567 33.0636V33.0048C19.4979 32.3006 18.8519 31.7134 18.1471 31.7134ZM18.1471 36C16.5615 36 15.2695 34.708 15.2695 33.1231V33.0636C15.3284 31.5369 16.5615 30.2449 18.1471 30.2449C19.6744 30.2449 20.9075 31.4198 21.0246 32.9466C21.0246 33.0048 21.0246 33.0636 21.0246 33.1231C20.9664 34.708 19.7332 36 18.1471 36Z" fill="#4D32A5"/>
<path d="M28.6612 5.81267C28.3088 5.81267 27.9564 5.93034 27.6628 6.22391C27.6039 6.28216 27.6039 6.34158 27.5457 6.34158C27.1345 6.8699 27.1933 7.69181 27.6628 8.16188C27.8981 8.39663 28.2505 8.57313 28.6612 8.57313C28.9553 8.57313 29.2489 8.45546 29.5425 8.27955C29.6013 8.22072 29.6596 8.22072 29.6596 8.16188C30.1885 7.63298 30.1885 6.75224 29.6596 6.16508C29.366 5.98917 29.0136 5.81267 28.6612 5.81267ZM28.6029 10.0999C27.8393 10.0999 27.1345 9.80627 26.6061 9.27794C25.6077 8.27954 25.4901 6.63457 26.3708 5.51909C26.4296 5.40142 26.5473 5.34318 26.6061 5.22552C27.1345 4.69661 27.8393 4.40303 28.6029 4.40303C29.366 4.40303 30.0708 4.69661 30.5991 5.22552C31.7152 6.34158 31.7152 8.16188 30.5991 9.27794C30.5409 9.33619 30.4232 9.45386 30.3061 9.51269C29.8949 9.8651 29.2489 10.0999 28.6029 10.0999Z" fill="#4D32A5"/>
<path d="M6.40292 27.7784C6.16817 28.0131 5.99167 28.3655 5.99167 28.7767C5.99167 29.1286 6.10934 29.4816 6.40292 29.7752C6.63766 30.0099 6.99007 30.1864 7.40131 30.1864C7.75372 30.1864 8.10614 30.0682 8.39972 29.7752C8.92805 29.2462 8.92805 28.3655 8.39972 27.8366C8.16497 27.6019 7.81256 27.4254 7.40131 27.4254C7.0489 27.3671 6.6965 27.4842 6.40292 27.7784ZM7.40131 31.5955C6.63766 31.5955 5.93284 31.3019 5.40451 30.773C4.8756 30.2446 4.58203 29.5398 4.58203 28.7767C4.58203 28.0131 4.8756 27.3083 5.40451 26.7794C5.93284 26.251 6.63766 25.9575 7.40131 25.9575C8.16497 25.9575 8.86921 26.251 9.39812 26.7794C10.5142 27.8954 10.5142 29.6569 9.45695 30.773L9.39812 30.8318C8.86921 31.3019 8.16497 31.5955 7.40131 31.5955Z" fill="#4D32A5"/>
<path d="M33.1227 16.501C33.0638 16.501 33.005 16.501 32.9462 16.501C32.2413 16.6187 31.713 17.2059 31.713 17.9107C31.713 18.6155 32.2413 19.2033 32.9462 19.3203C33.005 19.3203 33.0638 19.3203 33.1227 19.3203C33.8857 19.3203 34.5317 18.6743 34.5317 17.9107C34.5317 17.1476 33.8857 16.501 33.1227 16.501ZM33.1227 20.73C33.005 20.73 32.8879 20.73 32.8291 20.73C31.3606 20.5535 30.304 19.3792 30.304 17.9107C30.304 16.501 31.3606 15.2679 32.7703 15.092C32.8879 15.092 33.005 15.092 33.1227 15.092C34.7082 15.092 36.0002 16.384 36.0002 17.9695C36.0002 19.5551 34.7082 20.73 33.1227 20.73Z" fill="#4D32A5"/>
<path d="M2.87812 16.6781C2.11447 16.6781 1.46847 17.3241 1.46847 18.0878C1.46847 18.8514 2.11447 19.4969 2.87812 19.4969C3.64119 19.4969 4.22835 18.8514 4.22835 18.0878C4.28776 17.3241 3.70003 16.737 2.87812 16.6781ZM2.87812 20.9653C1.29198 20.9653 0 19.6733 0 18.0878C0 16.5016 1.29198 15.2103 2.87812 15.2103C2.87812 15.2103 2.87812 15.2103 2.93637 15.2103C4.46368 15.2103 5.75565 16.5016 5.75565 18.0878C5.75565 19.6145 4.52193 20.9065 2.93637 20.9653C2.93637 20.9653 2.93637 20.9653 2.87812 20.9653Z" fill="#4D32A5"/>
<path d="M7.22553 5.98918C6.87312 5.98918 6.52072 6.10626 6.22655 6.39984C5.99181 6.63459 5.81589 6.98699 5.81589 7.39823C5.81589 7.75064 5.93298 8.10306 6.22655 8.39664L6.28539 8.45547C6.52072 8.69022 6.87312 8.80789 7.22553 8.80789C7.57794 8.80789 7.92978 8.69022 8.22336 8.39664C8.75226 7.86832 8.75226 7.04583 8.28219 6.45867L8.22336 6.39984C7.98861 6.10626 7.63619 5.98918 7.22553 5.98918ZM7.22553 10.2175C6.52071 10.2175 5.81589 9.98219 5.34581 9.5127C5.28698 9.45387 5.28699 9.45387 5.22816 9.39504C4.69983 8.86671 4.40625 8.16189 4.40625 7.39823C4.40625 6.63458 4.69983 5.93034 5.22816 5.40143C5.75707 4.87311 6.4613 4.57954 7.22553 4.57954C7.9886 4.57954 8.69343 4.87311 9.22175 5.40143C9.28058 5.46026 9.28058 5.46026 9.33942 5.5191C10.3378 6.63458 10.279 8.39664 9.22175 9.45387C8.75226 9.92336 7.9886 10.2175 7.22553 10.2175Z" fill="#4D32A5"/>
<path d="M28.7783 27.1904C28.4259 27.1904 28.0735 27.308 27.7799 27.6016C27.2516 28.1299 27.2516 28.9518 27.721 29.4813L27.7799 29.5396C28.0146 29.7749 28.367 29.9508 28.7783 29.9508C29.1307 29.9508 29.4831 29.8331 29.7767 29.5396C30.0114 29.3048 30.1879 28.9518 30.1879 28.5412C30.1879 28.1299 30.0703 27.8363 29.7767 27.5428C29.7179 27.4839 29.7178 27.4839 29.659 27.4251C29.4243 27.308 29.1307 27.1904 28.7783 27.1904ZM28.7783 31.4775C28.0146 31.4775 27.3098 31.184 26.7815 30.6556C26.7226 30.5968 26.6644 30.538 26.6644 30.538C25.6654 29.4219 25.7242 27.7187 26.7815 26.662C27.3098 26.1337 28.0146 25.8401 28.7783 25.8401C29.4243 25.8401 30.0703 26.0749 30.5986 26.4855C30.658 26.5444 30.7162 26.6032 30.8339 26.662C31.3622 27.1904 31.6558 27.8952 31.6558 28.6588C31.6558 29.4219 31.3622 30.1267 30.8339 30.6556C30.2468 31.184 29.5419 31.4775 28.7783 31.4775Z" fill="#4D32A5"/>
<path d="M20.0296 16.7366C19.8531 16.7366 19.6772 16.6777 19.5596 16.5601C19.266 16.3253 19.2072 15.8558 19.4419 15.5034C20.3226 14.4462 21.6152 13.859 22.966 13.859C23.3773 13.859 23.7297 14.2109 23.7297 14.6221C23.7297 15.0333 23.3773 15.3858 22.966 15.3858C22.0259 15.3858 21.1451 15.797 20.558 16.5012C20.4991 16.6777 20.2644 16.7366 20.0296 16.7366Z" fill="#4D32A5"/>
<path d="M13.6259 17.9705C13.45 17.9705 13.2735 17.9116 13.1558 17.7946C12.6863 17.3833 12.0403 17.2068 11.3943 17.2656C10.9831 17.3245 10.6307 17.0309 10.5718 16.6197C10.5136 16.209 10.8066 15.8566 11.2178 15.7978C12.2751 15.6801 13.3323 15.9737 14.0954 16.6785C14.3895 16.9132 14.4478 17.3833 14.1548 17.7357C14.0371 17.8534 13.8024 17.9705 13.6259 17.9705Z" fill="#4D32A5"/>
<path d="M21.2599 23.491C20.9663 23.491 20.7309 23.3151 20.6139 23.0797C20.4374 22.7279 20.555 22.2578 20.9663 22.0819H21.0245C22.2583 21.553 23.0219 20.8482 23.2566 19.9086C23.4326 19.2626 23.3155 18.7343 23.3155 18.6755C23.1978 18.2642 23.4326 17.8536 23.8438 17.7947C24.2551 17.6771 24.6657 17.9118 24.7246 18.3231C24.7246 18.4407 24.9599 19.2626 24.6657 20.3199C24.431 21.2594 23.6679 22.6102 21.5534 23.491C21.4358 23.491 21.3769 23.491 21.2599 23.491Z" fill="#4D32A5"/>
<path d="M21.2616 22.0231H21.9076C21.9076 22.0231 22.906 22.0231 23.0819 22.0231C24.8439 22.0231 26.3124 20.4958 26.3124 18.6755C26.3124 16.9134 24.8439 15.3867 23.0819 15.3867C22.6712 15.3867 22.3188 15.0343 22.3188 14.623C22.3188 12.861 20.9092 11.5107 19.0883 11.5107C17.6792 11.5107 16.3872 12.4503 16.0348 13.8011C15.976 13.977 15.8583 14.1535 15.6824 14.2706C15.5059 14.3883 15.2712 14.3883 15.0947 14.3294C14.8599 14.2118 14.5663 14.2118 14.2728 14.2118C12.9808 14.2118 11.9236 15.269 11.9236 16.561V16.6198C11.9236 16.9722 11.6888 17.2658 11.3364 17.3247C10.2792 17.5594 9.51609 18.4996 9.51609 19.615C9.51609 20.9659 10.5727 22.0819 11.8647 22.0819C11.9236 22.0819 12.9219 22.0819 13.0396 22.0819L21.2616 22.0231ZM23.0819 23.491C22.906 23.491 21.9076 23.491 21.9076 23.491H13.0984C12.6872 23.491 11.9824 23.491 11.9236 23.491C9.86792 23.491 8.10645 21.6701 8.10645 19.5562C8.10645 17.9707 9.10485 16.561 10.5727 16.0327C10.8075 14.1535 12.3936 12.6851 14.3316 12.6851C14.5075 12.6851 14.7428 12.6851 14.9187 12.7439C15.6824 11.1583 17.3268 10.0423 19.1471 10.0423C21.5551 10.0423 23.4343 11.6867 23.7867 13.9182C24.7851 14.0947 25.6658 14.5648 26.4295 15.269C27.3102 16.1503 27.7803 17.3835 27.7803 18.6166C27.7803 21.2594 25.6076 23.491 23.0819 23.491Z" fill="#4D32A5"/>
<path d="M21.3207 27.1909H13.9795C13.5682 27.1909 13.2158 26.8391 13.2158 26.4273C13.2158 26.016 13.5682 25.6642 13.9795 25.6642H21.3207C21.7313 25.6642 22.0838 26.016 22.0838 26.4273C22.0838 26.8391 21.7313 27.1909 21.3207 27.1909Z" fill="#4D32A5"/>
<path d="M17.678 27.1909C17.2667 27.1909 16.9143 26.8391 16.9143 26.4273V19.0866C16.9143 18.6754 17.2667 18.323 17.678 18.323C18.0886 18.323 18.441 18.6754 18.441 19.0866V26.4273C18.3828 26.8391 18.0304 27.1909 17.678 27.1909Z" fill="#4D32A5"/>
</svg>
