<svg width="32" height="32" viewBox="0 0 32 32" fill="none" xmlns="http://www.w3.org/2000/svg">
<path d="M13.333 13.3337C13.333 14.8065 14.5269 16.0003 15.9997 16.0003C17.4725 16.0003 18.6663 14.8065 18.6663 13.3337C18.6663 11.8609 17.4725 10.667 15.9997 10.667C14.5269 10.667 13.333 11.8609 13.333 13.3337Z" stroke="#0061FF" stroke-width="1.5"/>
<path d="M24.3269 20.0003C25.7907 18.1742 26.6663 15.8562 26.6663 13.3337C26.6663 7.44262 21.8907 2.66699 15.9997 2.66699C10.1086 2.66699 5.33301 7.44262 5.33301 13.3337C5.33301 15.8562 6.20863 18.1742 7.67251 20.0003" stroke="#0061FF" stroke-width="1.5" stroke-linecap="round"/>
<path d="M4 24.6667C4 22.794 4 21.8577 4.40447 21.1852C4.57957 20.894 4.80457 20.644 5.06663 20.4495C5.67197 20 6.51464 20 8.2 20H23.8C25.4853 20 26.328 20 26.9333 20.4495C27.1955 20.644 27.4204 20.894 27.5955 21.1852C28 21.8577 28 22.794 28 24.6667C28 26.5393 28 27.4756 27.5955 28.1481C27.4204 28.4393 27.1955 28.6893 26.9333 28.8839C26.328 29.3333 25.4853 29.3333 23.8 29.3333H8.2C6.51464 29.3333 5.67197 29.3333 5.06663 28.8839C4.80457 28.6893 4.57957 28.4393 4.40447 28.1481C4 27.4756 4 26.5393 4 24.6667Z" stroke="#0061FF" stroke-width="1.5"/>
<path d="M14.667 24H17.3337" stroke="#0061FF" stroke-width="1.5" stroke-linecap="round" stroke-linejoin="round"/>
<path d="M21.1875 8.81374L23.8694 6.13184" stroke="#0061FF" stroke-width="1.5" stroke-linecap="round" stroke-linejoin="round"/>
</svg>
