<svg width="39" height="36" viewBox="0 0 39 36" fill="none" xmlns="http://www.w3.org/2000/svg">
<path d="M7.26148 26.2654C3.80408 26.2654 0.96875 23.1837 0.96875 19.6817C0.96875 16.6695 3.11204 14.0783 5.87878 13.4482C5.87878 13.378 5.87878 13.378 5.87878 13.3079C5.87878 9.80592 8.71343 6.93404 12.1708 6.93404C12.9314 6.93404 13.6235 7.07435 14.3148 7.28485C15.2826 3.92251 18.3943 1.47093 22.0595 1.47093C26.4847 1.47093 30.1499 4.90273 30.1499 9.45577C34.575 9.45577 38.2402 13.3079 38.2402 17.7908C38.2402 22.273 34.6443 26.2654 30.1499 26.2654C29.8042 26.2654 27.7295 26.2654 27.7295 26.2654H7.26148Z" fill="white" fill-opacity="0.2"/>
<path d="M23.4419 26.3351V32.7784C23.4419 34.04 22.4049 35.0903 21.1601 35.0903H11.8942C10.6493 35.0903 9.6123 34.04 9.6123 32.7784V26.3351V23.3937C9.6123 22.1322 10.6493 21.0818 11.8942 21.0818H21.1601C22.4049 21.0818 23.4419 22.1322 23.4419 23.3937V26.3351Z" fill="#4D32A5"/>
<path d="M5.32377 0.980197C6.2922 0.980197 7.05212 1.75063 7.05212 2.73154C7.05212 3.71246 6.2922 4.48218 5.32377 4.48218C4.35534 4.48218 3.59473 3.71246 3.59473 2.73154C3.59473 1.75063 4.35534 0.980197 5.32377 0.980197Z" fill="#4D32A5"/>
<path d="M35.5418 0.909887C36.9931 0.909887 38.17 2.1013 38.17 3.57128C38.17 5.04126 36.9931 6.23267 35.5418 6.23267C34.0905 6.23267 32.9143 5.04126 32.9143 3.57128C32.9143 2.1013 34.0905 0.909887 35.5418 0.909887Z" fill="#4D32A5"/>
<path d="M23.8574 13.3071C23.6503 13.3071 23.4424 13.237 23.3046 13.0973C22.9582 12.8167 22.8896 12.2567 23.166 11.8364C24.8258 9.80515 27.3148 8.61444 29.8737 8.61444C30.3573 8.61444 30.7722 9.03473 30.7722 9.52518C30.7722 10.0156 30.3573 10.4352 29.8737 10.4352C27.799 10.4352 25.7936 11.346 24.4802 13.0272C24.4109 13.1668 24.1338 13.3071 23.8574 13.3071Z" fill="#4D32A5"/>
<path d="M10.7179 15.7595C10.5101 15.7595 10.303 15.6894 10.1651 15.5497C9.05816 14.5688 7.53693 14.1485 6.08497 14.2889C5.60076 14.3583 5.18583 14.0082 5.11724 13.5177C5.04797 13.028 5.39363 12.6077 5.87784 12.5375C7.81333 12.2576 9.7502 12.8876 11.2714 14.1485C11.6171 14.4285 11.6864 14.9891 11.34 15.4094C11.2022 15.6894 10.9943 15.7595 10.7179 15.7595Z" fill="#4D32A5"/>
<path d="M26.3468 27.2463C26.0012 27.2463 25.6555 27.0358 25.5169 26.6857C25.3098 26.2654 25.5862 25.7055 26.0011 25.5652C32.3625 22.9038 31.1176 18.0006 31.049 17.7908C30.9105 17.3004 31.1869 16.8099 31.6711 16.7397C32.1553 16.6001 32.6396 16.8801 32.7081 17.3705C32.7081 17.4407 33.1924 19.1212 32.6396 21.1525C32.1553 23.0441 30.7027 25.5652 26.6925 27.2463C26.554 27.1762 26.4847 27.2463 26.3468 27.2463Z" fill="#4D32A5"/>
<path d="M30.0796 27.2463C29.7339 27.2463 27.7285 27.2463 27.6592 27.2463H23.4412C22.957 27.2463 22.6113 26.826 22.5421 26.4057C22.5421 25.9153 22.957 25.495 23.3719 25.495H27.5906C27.5906 25.495 29.6647 25.495 30.011 25.495C33.8834 25.495 37.2022 21.993 37.2022 17.9304C37.2022 13.8685 33.8834 10.4361 30.011 10.4361C29.5268 10.4361 29.1119 10.0158 29.1119 9.52599C29.1119 5.53357 25.9309 2.4519 21.92 2.4519C18.739 2.4519 15.9043 4.55266 15.0052 7.63503C14.9359 7.84483 14.7974 8.05532 14.5902 8.19496C14.3824 8.33529 14.106 8.33529 13.8989 8.26512C13.3454 8.05532 12.7233 7.91499 12.032 7.91499C9.0581 7.91499 6.63772 10.3666 6.63772 13.3781V13.4483V13.5177C6.63772 13.9387 6.36131 14.2888 5.94637 14.3583C3.4574 14.9189 1.72835 17.16 1.72835 19.6818C1.72835 22.7635 4.21802 25.4248 7.12194 25.4248C7.19121 25.4248 8.78171 25.4248 9.54233 25.495C10.0265 25.495 10.3722 25.9153 10.3722 26.4057C10.3722 26.8962 9.95727 27.2463 9.47306 27.2463C8.64317 27.2463 7.19121 27.1762 7.12194 27.1762C3.24959 27.1762 0 23.7437 0 19.6818C0 18.0006 0.552796 16.3896 1.5905 15.1294C2.48897 14.0784 3.66454 13.2378 4.90937 12.8175C5.18577 9.10571 8.29749 6.0935 12.032 6.0935C12.5848 6.0935 13.069 6.16367 13.6225 6.304C14.2446 4.83332 15.2123 3.50228 16.5264 2.52207C18.1169 1.33066 19.9145 0.700571 21.92 0.700571C24.3404 0.700571 26.5529 1.61131 28.2127 3.22231C29.7339 4.69298 30.6331 6.58396 30.771 8.68542C32.8457 8.89522 34.7818 9.80597 36.2338 11.417C37.8936 13.1676 38.8613 15.4795 38.8613 17.861C38.9999 22.9038 34.9204 27.2463 30.0796 27.2463Z" fill="#4D32A5"/>
<path d="M11.8929 21.9921C11.1323 21.9921 10.441 22.6222 10.441 23.4628V32.8482C10.441 33.6186 11.063 34.3188 11.8929 34.3188H21.1588C21.9194 34.3188 22.6108 33.6887 22.6108 32.8482V23.3933C22.6108 22.6222 21.9887 21.922 21.1588 21.922H11.8929V21.9921ZM21.1588 36H11.8929C10.1646 36 8.71191 34.5988 8.71191 32.778V23.3933C8.71191 21.642 10.0946 20.1706 11.8929 20.1706H21.1588C22.8879 20.1706 24.3398 21.5718 24.3398 23.3933V32.778C24.3398 34.5293 22.8879 36 21.1588 36Z" fill="#4D32A5"/>
<path d="M16.5251 33.3379C16.0409 33.3379 15.626 32.9183 15.626 32.4272V24.5826C15.626 24.0922 16.0409 23.6726 16.5251 23.6726C17.0093 23.6726 17.4243 24.0922 17.4243 24.5826V32.4973C17.4243 32.9183 17.0093 33.3379 16.5251 33.3379Z" fill="#4D32A5"/>
<path d="M19.1525 28.0851C18.9454 28.0851 18.7375 28.0157 18.5304 27.8052L16.525 25.844L14.5195 27.8753C14.1739 28.2255 13.6211 28.2255 13.2754 27.8753C12.929 27.5252 12.929 26.9646 13.2754 26.6145L15.9029 23.9531C16.2486 23.603 16.8014 23.603 17.1477 23.9531L19.7753 26.6145C20.1209 26.9646 20.1209 27.5252 19.7753 27.8753C19.5674 28.0157 19.3603 28.0851 19.1525 28.0851Z" fill="#4D32A5"/>
<path d="M5.32479 1.82079C4.84057 1.82079 4.42562 2.24109 4.42562 2.73155C4.42562 3.222 4.84057 3.64229 5.32479 3.64229C5.80831 3.64229 6.22325 3.222 6.22325 2.73155C6.15466 2.24109 5.73973 1.82079 5.32479 1.82079ZM5.32479 5.32275C3.87283 5.32275 2.69727 4.13275 2.69727 2.66138C2.69727 1.19071 3.87283 -7.62939e-06 5.32479 -7.62939e-06C6.77674 -7.62939e-06 7.95229 1.19071 7.95229 2.66138C7.95229 4.13275 6.70816 5.32275 5.32479 5.32275Z" fill="#4D32A5"/>
<path d="M35.5426 1.81969C34.5742 1.81969 33.8136 2.59011 33.8136 3.57102C33.8136 4.55124 34.5742 5.32165 35.5426 5.32165C36.511 5.32165 37.2716 4.55124 37.2716 3.57102C37.2716 2.59011 36.511 1.81969 35.5426 1.81969ZM35.5426 7.073C33.6064 7.073 32.0852 5.53215 32.0852 3.57102C32.0852 1.60989 33.6064 0.0690556 35.5426 0.0690556C37.4788 0.0690556 39 1.60989 39 3.57102C39 5.53215 37.4788 7.073 35.5426 7.073Z" fill="#4D32A5"/>
</svg>
