<svg width="39" height="36" viewBox="0 0 39 36" fill="none" xmlns="http://www.w3.org/2000/svg">
<path d="M32.1626 12.6241H9.27734V21.774C9.27734 22.9095 9.41235 24.0449 9.68367 25.1134C11.1739 30.8576 16.5223 35.1324 22.819 35.1324C30.2674 35.1324 36.3606 29.1207 36.3606 21.774V12.6241H32.1626Z" fill="white" fill-opacity="0.2"/>
<path d="M32.1613 10.0846V12.6232H28.7759V10.0846C28.7759 8.48216 28.0997 7.01283 27.0157 5.94362C25.9325 4.87574 24.4429 4.20732 22.8177 4.20732C19.568 4.20732 16.8595 6.8121 16.8595 10.0846V12.6232H13.4741V10.0846C13.4741 5.0089 17.6721 0.867867 22.8177 0.867867C25.3905 0.867867 27.6927 1.87017 29.3864 3.53956C31.1466 5.27586 32.1613 7.54677 32.1613 10.0846Z" fill="#447CFC"/>
<path d="M14.4233 19.3031H31.351V23.511H14.4233V19.3031Z" fill="#447CFC"/>
<path d="M2.57197 23.4437C3.51956 23.4437 4.26432 24.1784 4.26432 25.1131C4.26432 26.0485 3.51956 26.7832 2.57197 26.7832C1.62371 26.7832 0.878906 26.0485 0.878906 25.1131C0.878906 24.1784 1.62371 23.4437 2.57197 23.4437Z" fill="#447CFC"/>
<path d="M5.07714 12.6238C6.02473 12.6238 6.77018 13.3585 6.77018 14.2932C6.77018 15.2286 6.02473 15.9633 5.07714 15.9633C4.12888 15.9633 3.38477 15.1617 3.38477 14.2932C3.38477 13.3585 4.12888 12.6238 5.07714 12.6238Z" fill="#447CFC"/>
<path d="M27.0835 25.1131H28.7759V26.7832H27.0835V25.1131Z" fill="#447CFC"/>
<path d="M24.5786 25.1131H26.2716V26.7832H24.5786V25.1131Z" fill="#447CFC"/>
<path d="M22.0054 25.1131H23.6984V26.7832H22.0054V25.1131Z" fill="#447CFC"/>
<path d="M19.5005 25.1131H21.1929V26.7832H19.5005V25.1131Z" fill="#447CFC"/>
<path d="M16.9263 25.1131H18.6186V26.7832H16.9263V25.1131Z" fill="#447CFC"/>
<path d="M22.8859 36C16.3186 36 10.5625 31.592 8.93797 25.3808C8.66733 24.2454 8.46387 23.0423 8.46387 21.8406V12.6239C8.46387 12.1562 8.87016 11.7554 9.34429 11.7554H13.5423C14.0164 11.7554 14.4221 12.1562 14.4221 12.6239C14.4221 13.0916 14.0164 13.4917 13.5423 13.4917H10.1569V21.7737C10.1569 22.8429 10.2919 23.9115 10.5625 24.9131C11.9849 30.4565 17.0634 34.3306 22.8859 34.3306C29.8602 34.3306 35.6156 28.7203 35.6156 21.7737V13.4248H32.2302C31.756 13.4248 31.3497 13.024 31.3497 12.557C31.3497 12.0893 31.756 11.6885 32.2302 11.6885H36.496C36.9701 11.6885 37.3758 12.0893 37.3758 12.557V21.7737C37.2408 29.5881 30.8085 36 22.8859 36Z" fill="#447CFC"/>
<path d="M28.7771 13.4247C28.3037 13.4247 27.8974 13.0239 27.8974 12.5569V10.019C27.8974 8.68282 27.3554 7.41422 26.4078 6.47883C25.4602 5.54344 24.1735 5.00948 22.8189 5.00948C20.0433 5.00948 17.7411 7.2804 17.7411 10.019V12.5569C17.7411 13.0239 17.3349 13.4247 16.8607 13.4247C16.3866 13.4247 15.981 13.0239 15.981 12.5569V10.019C15.981 6.34501 19.0279 3.33943 22.7518 3.33943C24.5791 3.33943 26.2721 4.00785 27.5589 5.27646C28.8456 6.54572 29.5225 8.21579 29.5225 10.019V12.5569C29.6575 13.0239 29.2513 13.4247 28.7771 13.4247Z" fill="#447CFC"/>
<path d="M14.4203 11.7553H31.348V10.0852C31.348 7.88125 30.4676 5.74416 28.8431 4.20792C27.2179 2.60477 25.1185 1.73695 22.8842 1.73695C18.2127 1.73695 14.4203 5.47719 14.4203 10.0852V11.7553ZM32.16 13.4247H13.5406C13.0664 13.4247 12.6602 13.0239 12.6602 12.5569V10.019C12.6602 4.47555 17.1966 -9.04876e-06 22.8164 -9.04876e-06C25.5255 -9.04876e-06 28.0983 1.06919 29.9941 2.93864C31.89 4.80942 32.9726 7.3473 32.9726 10.019V12.5569C33.0411 13.0239 32.6341 13.4247 32.16 13.4247Z" fill="#447CFC"/>
<path d="M27.9637 16.7648H9.34429C8.87016 16.7648 8.46387 16.364 8.46387 15.8963C8.46387 15.4286 8.87016 15.0278 9.34429 15.0278H27.9637C28.4385 15.0278 28.8448 15.4286 28.8448 15.8963C28.7763 16.364 28.3706 16.7648 27.9637 16.7648Z" fill="#447CFC"/>
<path d="M11.0362 21.7739H5.07801C4.60388 21.7739 4.19824 21.3731 4.19824 20.9054V15.8966C4.19824 15.4289 4.60388 15.0281 5.07801 15.0281C5.55147 15.0281 5.95843 15.4289 5.95843 15.8966V20.1045H11.0362C11.5103 20.1045 11.9166 20.5053 11.9166 20.9723C11.9166 21.44 11.4425 21.7739 11.0362 21.7739Z" fill="#447CFC"/>
<path d="M11.8479 25.9817H4.26453C3.7904 25.9817 3.38477 25.5816 3.38477 25.1132C3.38477 24.6455 3.7904 24.2454 4.26453 24.2454H11.9158C12.3899 24.2454 12.7956 24.6455 12.7956 25.1132C12.7956 25.5816 12.3221 25.9817 11.8479 25.9817Z" fill="#447CFC"/>
<path d="M5.07769 13.4247C4.60355 13.4247 4.19792 13.8255 4.19792 14.2932C4.19792 14.7608 4.60355 15.1616 5.07769 15.1616C5.55114 15.1616 5.95811 14.7608 5.95811 14.2932C5.95811 13.8255 5.55114 13.4247 5.07769 13.4247ZM5.07769 16.7648C3.65596 16.7648 2.50488 15.6293 2.50488 14.2262C2.50488 12.8238 3.65596 11.6884 5.07769 11.6884C6.49941 11.6884 7.65049 12.8238 7.65049 14.2262C7.65049 15.6293 6.49941 16.7648 5.07769 16.7648Z" fill="#447CFC"/>
<path d="M2.5728 24.3126C2.09867 24.3126 1.69235 24.714 1.69235 25.1811C1.69235 25.6488 2.09867 26.0496 2.5728 26.0496C3.04693 26.0496 3.38538 25.5825 3.38538 25.1142C3.38538 24.6465 2.97843 24.3126 2.5728 24.3126ZM2.5728 27.6527C1.15108 27.6527 0 26.5173 0 25.1142C0 23.7117 1.15108 22.5763 2.5728 22.5763C3.99452 22.5763 5.14557 23.7117 5.14557 25.1142C5.14557 26.5173 3.9267 27.6527 2.5728 27.6527Z" fill="#447CFC"/>
<path d="M15.2339 22.6432H30.4685V20.1054H15.2339V22.6432ZM31.349 24.3126H14.4213C13.9471 24.3126 13.5415 23.9125 13.5415 23.4448V19.2369C13.5415 18.7692 13.9471 18.3684 14.4213 18.3684H31.349C31.8231 18.3684 32.2294 18.7692 32.2294 19.2369V23.4448C32.1609 23.9125 31.7553 24.3126 31.349 24.3126Z" fill="#447CFC"/>
<path d="M38.1188 36H13.5406C13.0664 36 12.6602 35.5999 12.6602 35.1322C12.6602 34.6638 13.0664 34.2637 13.5406 34.2637H38.1188C38.593 34.2637 38.9993 34.6638 38.9993 35.1322C38.9315 35.5999 38.5251 36 38.1188 36Z" fill="#447CFC"/>
</svg>
