<svg width="39" height="40" viewBox="0 0 39 40" fill="none" xmlns="http://www.w3.org/2000/svg">
<path d="M27.0508 34.1045H34.7127V36.6807H27.0508V34.1045Z" fill="#24908D"/>
<path d="M26.5057 24.7471L7.72558 24.4761H7.04709C6.97984 24.4761 6.97983 24.4761 6.91191 24.4761C3.52209 24.4761 0.742188 21.6968 0.742188 18.3064C0.742188 15.3913 2.8436 12.8831 5.55558 12.2725C5.55558 12.2052 5.55558 12.2052 5.55558 12.1366C5.55558 8.74682 8.33549 5.96691 11.7253 5.96691C12.4711 5.96691 13.1489 6.10342 13.8267 6.3065C14.7762 3.05185 17.8278 0.679438 21.42 0.679438C25.7593 0.679438 29.3529 4.00135 29.3529 8.40791C33.6915 8.40791 37.2851 12.1366 37.2851 16.4759C37.2851 20.8146 33.6243 24.7471 29.285 24.7471C28.946 24.7471 28.4034 24.7471 27.7935 24.7471H26.5057Z" fill="white" fill-opacity="0.5"/>
<path d="M27.0508 36.611H34.7127V39.1871H27.0508V36.611Z" fill="#24908D"/>
<path d="M34.6448 31.5264V34.1025H27.0508V31.5264H30.8481H34.6448Z" fill="#24908D"/>
<path d="M15.9961 36.611H23.6566V39.1871H15.9961V36.611Z" fill="#24908D"/>
<path d="M15.9961 34.1045H23.6566V36.6807H15.9961V34.1045Z" fill="#24908D"/>
<path d="M23.6566 31.5264V34.1025H15.9961V31.5264H19.7927H23.6566Z" fill="#24908D"/>
<path d="M5.013 36.611H12.6735V39.1871H5.013V36.611Z" fill="#24908D"/>
<path d="M5.013 34.1045H12.6735V36.6807H5.013V34.1045Z" fill="#24908D"/>
<path d="M12.6063 31.5264V34.1025H5.013V31.5264H8.80899H12.6063Z" fill="#24908D"/>
<path d="M19.7944 32.4098C19.3196 32.4098 18.9128 32.0023 18.9128 31.5282V24.7479C18.9128 24.2738 19.3196 23.867 19.7944 23.867C20.2684 23.867 20.6759 24.2738 20.6759 24.7479V31.5282C20.6759 32.0023 20.2684 32.4098 19.7944 32.4098Z" fill="#24908D"/>
<path d="M23.189 12.1364C22.9859 12.1364 22.7822 12.0691 22.647 11.9333C22.3081 11.6623 22.2395 11.1196 22.5112 10.7128C24.1378 8.74654 26.5788 7.59396 29.0877 7.59396C29.5618 7.59396 29.9686 8.00147 29.9686 8.47554C29.9686 8.95029 29.5618 9.35712 29.0877 9.35712C27.0529 9.35712 25.0873 10.2387 23.7996 11.8654C23.7317 12.0012 23.4607 12.1364 23.189 12.1364Z" fill="#24908D"/>
<path d="M10.3051 14.5062C10.1013 14.5062 9.89828 14.439 9.76244 14.3031C8.67778 13.3543 7.18629 12.9468 5.76272 13.0826C5.28797 13.1506 4.8818 12.8117 4.81321 12.3369C4.74597 11.8622 5.0842 11.4553 5.55895 11.3881C7.45794 11.1164 9.35559 11.727 10.8478 12.9468C11.1867 13.2178 11.2539 13.7605 10.915 14.168C10.7798 14.439 10.5761 14.5062 10.3051 14.5062Z" fill="#24908D"/>
<path d="M26.5096 25.6304C26.1701 25.6304 25.8991 25.4266 25.7633 25.1557C25.5602 24.7481 25.7632 24.2055 26.1701 24.0703C28.8148 22.9856 30.4415 21.3583 30.9841 19.2569C31.391 17.7654 31.0521 16.5449 31.0521 16.5449C30.9162 16.0702 31.1872 15.5961 31.662 15.5282C32.1367 15.3924 32.6108 15.6634 32.6787 16.1381C32.6787 16.206 33.1535 17.8333 32.6108 19.7996C32.1367 21.6293 30.7125 24.0703 26.78 25.6976C26.78 25.6976 26.78 25.6976 26.7127 25.6976C26.7127 25.5618 26.5769 25.6304 26.5096 25.6304Z" fill="#24908D"/>
<path d="M27.797 23.9365H29.2885C33.0852 23.9365 36.3398 20.5467 36.3398 16.6142C36.3398 12.6824 33.0852 9.36052 29.2885 9.36052C28.8144 9.36052 28.4069 8.9537 28.4069 8.47895C28.4069 4.61506 25.2881 1.6314 21.3563 1.6314C18.2375 1.6314 15.4576 3.66556 14.5767 6.64855C14.5088 6.8523 14.3729 7.05537 14.1698 7.1912C13.9661 7.32637 13.6951 7.32637 13.4913 7.25845C12.9493 7.05537 12.3394 6.91953 11.6616 6.91953C8.74587 6.91953 6.3728 9.29261 6.3728 12.2084V12.2756V12.3435C6.3728 12.7503 6.1018 13.0893 5.69497 13.1572C3.25465 13.6998 1.55941 15.8692 1.55941 18.3095C1.55941 21.2252 3.93247 23.5976 6.84821 23.5976H6.98339H7.66053L27.797 23.9365ZM29.2885 25.6324H27.797H26.5765L7.79706 25.3608H6.98339C3.11883 25.3608 0 22.2426 0 18.3781C0 16.7507 0.542662 15.1907 1.55941 13.9708C2.44099 12.9534 3.59357 12.1398 4.8134 11.7336C5.08439 8.14003 8.13597 5.22496 11.7968 5.22496C12.3395 5.22496 12.8142 5.29288 13.3562 5.42872C13.9661 4.00447 14.9156 2.71673 16.204 1.76656C17.7627 0.614656 19.5259 0.00407484 21.4921 0.00407484C23.8645 0.00407484 26.0345 0.885659 27.6619 2.44507C29.1527 3.86864 30.0343 5.69904 30.1701 7.7332C32.2043 7.93628 34.1026 8.81854 35.5262 10.3773C37.1528 12.0725 38.1023 14.3098 38.1023 16.6142C38.0344 21.429 34.034 25.6324 29.2885 25.6324Z" fill="#24908D"/>
<path d="M23.6614 34.9164C23.1873 34.9164 22.7805 34.5095 22.7805 34.0355V32.3396H16.8145V34.0355C16.8145 34.5095 16.4077 34.9164 15.933 34.9164C15.4582 34.9164 15.0521 34.5095 15.0521 34.0355V31.4586C15.0521 30.9839 15.4582 30.5771 15.933 30.5771H23.5942C24.0689 30.5771 24.4751 30.9839 24.4751 31.4586V34.0355C24.4751 34.5095 24.0689 34.9164 23.6614 34.9164Z" fill="#24908D"/>
<path d="M23.6614 37.4945C23.1873 37.4945 22.7805 37.0877 22.7805 36.6136V34.9184H16.8145V36.6136C16.8145 37.0877 16.4077 37.4945 15.933 37.4945C15.4582 37.4945 15.0521 37.0877 15.0521 36.6136V34.0374C15.0521 33.5627 15.4582 33.1552 15.933 33.1552H23.5942C24.0689 33.1552 24.4751 33.5627 24.4751 34.0374V36.6136C24.4751 37.0877 24.0689 37.4945 23.6614 37.4945Z" fill="#24908D"/>
<path d="M16.8797 38.3057H22.7784V37.4248H16.8124V38.3057H16.8797ZM23.6593 40.001H15.9988C15.524 40.001 15.1172 39.5935 15.1172 39.1194V36.6112C15.1172 36.1364 15.524 35.7289 15.9988 35.7289H23.6593C24.134 35.7289 24.5416 36.1364 24.5416 36.6112V39.1873C24.473 39.5935 24.0668 40.001 23.6593 40.001Z" fill="#24908D"/>
<path d="M30.8482 32.4098C30.3734 32.4098 29.9666 32.0023 29.9666 31.5282V28.9514H9.62705V31.5282C9.62705 32.0023 9.22088 32.4098 8.74613 32.4098C8.27206 32.4098 7.86456 32.0023 7.86456 31.5282V28.1384C7.86456 27.6636 8.27206 27.2568 8.74613 27.2568H30.7803C31.2543 27.2568 31.6618 27.6636 31.6618 28.1384V31.5282C31.6618 32.0023 31.3229 32.4098 30.8482 32.4098Z" fill="#24908D"/>
<path d="M12.6111 34.9164C12.1364 34.9164 11.7296 34.5095 11.7296 34.0355V32.3396H5.83152V34.0355C5.83152 34.5095 5.42402 34.9164 4.94995 34.9164C4.4752 34.9164 4.06903 34.5095 4.06903 34.0355V31.4586C4.06903 30.9839 4.4752 30.5771 4.94995 30.5771H12.6111C13.0859 30.5771 13.4921 30.9839 13.4921 31.4586V34.0355C13.4921 34.5095 13.0859 34.9164 12.6111 34.9164Z" fill="#24908D"/>
<path d="M12.6111 37.4945C12.1364 37.4945 11.7296 37.0877 11.7296 36.6136V34.9184H5.83152V36.6136C5.83152 37.0877 5.42402 37.4945 4.94995 37.4945C4.4752 37.4945 4.06903 37.0877 4.06903 36.6136V34.0374C4.06903 33.5627 4.4752 33.1552 4.94995 33.1552H12.6111C13.0859 33.1552 13.4921 33.5627 13.4921 34.0374V36.6136C13.4921 37.0877 13.0859 37.4945 12.6111 37.4945Z" fill="#24908D"/>
<path d="M5.82934 38.3057H11.7953V37.4248H5.82934V38.3057ZM12.609 40.001H5.01567C4.54092 40.001 4.13409 39.5935 4.13409 39.1194V36.6112C4.13409 36.1364 4.54092 35.7289 5.01567 35.7289H12.609C13.0837 35.7289 13.4899 36.1364 13.4899 36.6112V39.1873C13.4899 39.5935 13.0837 40.001 12.609 40.001Z" fill="#24908D"/>
<path d="M34.6452 34.9164C34.1704 34.9164 33.7636 34.5095 33.7636 34.0355V32.3396H27.7976V34.0355C27.7976 34.5095 27.3908 34.9164 26.916 34.9164C26.4413 34.9164 26.0352 34.5095 26.0352 34.0355V31.4586C26.0352 30.9839 26.4413 30.5771 26.916 30.5771H34.5773C35.052 30.5771 35.4582 30.9839 35.4582 31.4586V34.0355C35.5268 34.5095 35.1193 34.9164 34.6452 34.9164Z" fill="#24908D"/>
<path d="M34.6452 37.4945C34.1704 37.4945 33.7636 37.0877 33.7636 36.6136V34.9184H27.7976V36.6136C27.7976 37.0877 27.3908 37.4945 26.916 37.4945C26.4413 37.4945 26.0352 37.0877 26.0352 36.6136V34.0374C26.0352 33.5627 26.4413 33.1552 26.916 33.1552H34.5773C35.052 33.1552 35.4582 33.5627 35.4582 34.0374V36.6136C35.5268 37.0877 35.1193 37.4945 34.6452 37.4945Z" fill="#24908D"/>
<path d="M27.8599 38.3057H33.8266V37.4248H27.8599V38.3057ZM34.6402 40.001H27.0463C26.5722 40.001 26.1653 39.5935 26.1653 39.1194V36.6112C26.1653 36.1364 26.5722 35.7289 27.0463 35.7289H34.7081C35.1822 35.7289 35.5897 36.1364 35.5897 36.6112V39.1873C35.5218 39.5935 35.1143 40.001 34.6402 40.001Z" fill="#24908D"/>
</svg>
