<svg width="31" height="40" viewBox="0 0 31 40" fill="none" xmlns="http://www.w3.org/2000/svg">
<path d="M10.9921 36.5219H19.6871V39.165H10.9921V36.5219Z" fill="white"/>
<path d="M28.3814 0.904083H2.29498C1.52981 0.904083 0.90332 1.53057 0.90332 2.29506L2.29498 18.6432C2.29498 19.4084 2.9208 20.0342 3.68597 20.0342H6.67767H24.0684H27.0594C27.8252 20.0342 28.451 19.4084 28.451 18.6432L29.8427 2.29506C29.7033 1.46019 29.0768 0.904083 28.3814 0.904083Z" fill="white"/>
<path d="M15.304 4.31143C17.7382 4.31143 19.6859 6.25922 19.6859 8.69481C19.6859 11.129 17.7382 13.0078 15.304 13.0078C12.869 13.0078 10.9213 11.0593 10.9213 8.62443C10.9213 6.19022 12.869 4.31143 15.304 4.31143Z" fill="white"/>
<path d="M24.9039 30.4H26.6427V32.1387H24.9039V30.4Z" fill="#24908D"/>
<path d="M24.9039 27.8259H26.6427V29.5654H24.9039V27.8259Z" fill="#24908D"/>
<path d="M24.9039 25.1829H26.6427V26.9222H24.9039V25.1829Z" fill="#24908D"/>
<path d="M24.9039 22.607H26.6427V24.3457H24.9039V22.607Z" fill="#24908D"/>
<path d="M22.2616 30.4H24.0003V32.1387H22.2616V30.4Z" fill="#24908D"/>
<path d="M22.2616 27.8259H24.0003V29.5654H22.2616V27.8259Z" fill="#24908D"/>
<path d="M22.2616 25.1829H24.0003V26.9222H22.2616V25.1829Z" fill="#24908D"/>
<path d="M22.2616 22.607H24.0003V24.3457H22.2616V22.607Z" fill="#24908D"/>
<path d="M19.6866 30.4H21.4261V32.1387H19.6866V30.4Z" fill="#24908D"/>
<path d="M19.6866 27.8259H21.4261V29.5654H19.6866V27.8259Z" fill="#24908D"/>
<path d="M19.6866 25.1829H21.4261V26.9222H19.6866V25.1829Z" fill="#24908D"/>
<path d="M19.6866 22.607H21.4261V24.3457H19.6866V22.607Z" fill="#24908D"/>
<path d="M9.25208 30.4H18.8516V32.1387H9.25208V30.4Z" fill="#24908D"/>
<path d="M17.0426 27.8259H18.782V29.5654H17.0426V27.8259Z" fill="#24908D"/>
<path d="M17.0426 25.1829H18.782V26.9222H17.0426V25.1829Z" fill="#24908D"/>
<path d="M17.0426 22.607H18.782V24.3457H17.0426V22.607Z" fill="#24908D"/>
<path d="M14.4694 27.8259H16.2081V29.5654H14.4694V27.8259Z" fill="#24908D"/>
<path d="M14.4694 25.1829H16.2081V26.9222H14.4694V25.1829Z" fill="#24908D"/>
<path d="M14.4694 22.607H16.2081V24.3457H14.4694V22.607Z" fill="#24908D"/>
<path d="M11.8253 27.8259H13.5647V29.5654H11.8253V27.8259Z" fill="#24908D"/>
<path d="M11.8253 25.1829H13.5647V26.9222H11.8253V25.1829Z" fill="#24908D"/>
<path d="M11.8253 22.607H13.5647V24.3457H11.8253V22.607Z" fill="#24908D"/>
<path d="M9.25208 27.8259H10.9915V29.5654H9.25208V27.8259Z" fill="#24908D"/>
<path d="M9.25208 25.1829H10.9915V26.9222H9.25208V25.1829Z" fill="#24908D"/>
<path d="M9.25208 22.607H10.9915V24.3457H9.25208V22.607Z" fill="#24908D"/>
<path d="M6.60803 30.4H8.34675V32.1387H6.60803V30.4Z" fill="#24908D"/>
<path d="M6.60803 27.8259H8.34675V29.5654H6.60803V27.8259Z" fill="#24908D"/>
<path d="M6.60803 25.1829H8.34675V26.9222H6.60803V25.1829Z" fill="#24908D"/>
<path d="M6.60803 22.607H8.34675V24.3457H6.60803V22.607Z" fill="#24908D"/>
<path d="M4.03479 30.4H5.77422V32.1387H4.03479V30.4Z" fill="#24908D"/>
<path d="M4.03479 27.8259H5.77422V29.5654H4.03479V27.8259Z" fill="#24908D"/>
<path d="M4.03479 25.1829H5.77422V26.9222H4.03479V25.1829Z" fill="#24908D"/>
<path d="M4.03479 22.607H5.77422V24.3457H4.03479V22.607Z" fill="#24908D"/>
<path d="M27.5468 40H3.06047C2.22561 40 1.53012 39.3742 1.39075 38.6087C1.39075 38.5392 1.39075 38.4694 1.39075 20.8698C1.39075 19.9659 2.15592 19.2 3.06047 19.2H3.61659C4.10371 19.2 4.52113 19.6175 4.52113 20.1046C4.52113 20.5917 4.10371 21.0085 3.61659 21.0085H3.13016C3.13016 26.6434 3.13016 37.0088 3.13016 38.3998H27.4771C27.4771 37.0088 27.4771 26.6434 27.4771 21.0085H26.9907C26.5036 21.0085 26.0861 20.5917 26.0861 20.1046C26.0861 19.6175 26.5036 19.2 26.9907 19.2H27.5468C28.4513 19.2 29.2165 19.9659 29.2165 20.8698C29.2165 38.4694 29.2165 38.5392 29.2165 38.6087C29.0772 39.3742 28.3817 40 27.5468 40Z" fill="#24908D"/>
<path d="M1.73874 2.22616L3.1304 18.5046V18.5736C3.1304 18.8517 3.33877 19.0607 3.61683 19.0607H26.9909C27.269 19.0607 27.4773 18.8517 27.4773 18.5736V18.5046L28.869 2.22616C28.869 1.94741 28.66 1.73904 28.3819 1.73904H2.29553C2.01678 1.73904 1.80842 1.94741 1.73874 2.22616ZM26.9909 20.8691H3.61683C2.36523 20.8691 1.39099 19.8949 1.39099 18.6433L0 2.29515V2.22616C0 0.973862 0.973548 -0.000375748 2.22584 -0.000375748H28.3122C29.5645 -0.000375748 30.5381 0.973862 30.5381 2.22616V2.29515L29.1471 18.6433C29.2168 19.8259 28.1735 20.8691 26.9909 20.8691Z" fill="#24908D"/>
<path d="M24.0004 21.7041C23.514 21.7041 23.0966 21.2867 23.0966 20.8002V19.0608C23.0966 18.5737 23.514 18.1563 24.0004 18.1563C24.4875 18.1563 24.905 18.5737 24.905 19.0608V20.8002C24.905 21.2867 24.4875 21.7041 24.0004 21.7041Z" fill="#24908D"/>
<path d="M6.60925 21.7041C6.12213 21.7041 5.70471 21.2867 5.70471 20.8002V19.0608C5.70471 18.5737 6.12213 18.1563 6.60925 18.1563C7.09637 18.1563 7.51312 18.5737 7.51312 19.0608V20.8002C7.51312 21.2867 7.09637 21.7041 6.60925 21.7041Z" fill="#24908D"/>
<path d="M19.6872 40C19.2007 40 18.7833 39.5825 18.7833 39.0952V37.3565H11.8264V39.0952C11.8264 39.5825 11.4089 40 10.9225 40C10.4354 40 10.0179 39.5825 10.0179 39.0952V36.452C10.0179 35.965 10.4354 35.548 10.9225 35.548H19.6175C20.1046 35.548 20.522 35.965 20.522 36.452V39.0952C20.522 39.5825 20.1046 40 19.6872 40Z" fill="#24908D"/>
<path d="M24.9035 17.391H2.29529C1.80817 17.391 1.39075 16.9736 1.39075 16.4871C1.39075 16 1.80817 15.5826 2.29529 15.5826H24.9035C25.3907 15.5826 25.8081 16 25.8081 16.4871C25.7384 16.9736 25.321 17.391 24.9035 17.391Z" fill="#24908D"/>
<path d="M15.3046 5.21614C13.3568 5.21614 11.8258 6.7458 11.8258 8.69427C11.8258 10.6414 13.3568 12.1724 15.3046 12.1724C17.2524 12.1724 18.7827 10.6414 18.7827 8.69427C18.7827 6.7458 17.2524 5.21614 15.3046 5.21614ZM15.3046 13.9111C12.4522 13.9111 10.087 11.5459 10.087 8.69427C10.087 5.84194 12.4522 3.47672 15.3046 3.47672C18.1562 3.47672 20.5214 5.84194 20.5214 8.69427C20.5214 11.5459 18.1562 13.9111 15.3046 13.9111Z" fill="#24908D"/>
<path d="M16.5555 10.7828C16.3472 10.7828 16.1381 10.7138 15.9297 10.5048L13.4948 8.06988C13.1471 7.72214 13.1471 7.16533 13.4948 6.81758C13.8426 6.46984 14.3994 6.46984 14.7471 6.81758L17.182 9.25249C17.5298 9.60023 17.5298 10.157 17.182 10.5048C16.973 10.6435 16.7646 10.7828 16.5555 10.7828Z" fill="#24908D"/>
<path d="M14.0528 10.7828C13.8437 10.7828 13.6353 10.7138 13.427 10.5048C13.0785 10.157 13.0785 9.60023 13.427 9.25249L15.8612 6.81758C16.2089 6.46984 16.7657 6.46984 17.1135 6.81758C17.4612 7.16533 17.4612 7.72214 17.1135 8.06988L14.6786 10.5048C14.5392 10.6435 14.3308 10.7828 14.0528 10.7828Z" fill="#24908D"/>
</svg>
