<svg width="36" height="36" viewBox="0 0 36 36" fill="none" xmlns="http://www.w3.org/2000/svg">
<path d="M8.92803 27.2491C9.75052 28.0716 9.75052 29.4218 8.92803 30.2443C8.92803 30.2443 8.92803 30.2443 8.92803 30.3031C8.10613 31.125 6.75532 31.125 5.93283 30.3031C5.11093 29.4812 5.11093 28.1298 5.93283 27.3079C6.75532 26.4266 8.04729 26.4266 8.92803 27.2491Z" fill="#4372FB" fill-opacity="0.2"/>
<path d="M30.3059 27.0726C31.1278 27.8945 31.1278 29.2453 30.3059 30.0672C29.4834 30.8897 28.1326 30.8897 27.3101 30.0672C27.2519 30.009 27.2519 30.009 27.193 29.9501C26.4882 29.1276 26.4882 27.8357 27.3101 27.0726C28.0738 26.3089 29.3075 26.2501 30.1883 26.9549C30.1883 27.0132 30.2471 27.0726 30.3059 27.0726Z" fill="#4372FB" fill-opacity="0.2"/>
<path d="M30.1286 5.69622C30.9505 6.51813 30.9505 7.86895 30.1286 8.69085C30.0698 8.74968 30.0109 8.80852 29.9527 8.86735C29.1302 9.51334 27.8971 9.45451 27.1334 8.69085C26.3698 7.92778 26.3115 6.75288 26.9575 5.87214C27.0163 5.81331 27.0746 5.69622 27.1334 5.63739C27.9553 4.87374 29.3067 4.87374 30.1286 5.69622Z" fill="#4372FB" fill-opacity="0.2"/>
<path d="M8.81152 5.93036C9.57459 6.75227 9.51635 8.04426 8.7527 8.86674C7.93021 9.68865 6.63823 9.68863 5.81632 8.92556C5.75749 8.92556 5.75749 8.86674 5.75749 8.86674C4.935 8.04426 4.935 6.69344 5.75749 5.87153C6.57939 5.04905 7.93021 5.04905 8.7527 5.87153L8.81152 5.93036Z" fill="#4372FB" fill-opacity="0.2"/>
<path d="M5.05159 18.087C5.05159 19.2614 4.11202 20.2009 2.99596 20.2009H2.93713C1.76281 20.2009 0.823242 19.2614 0.823242 18.087C0.823242 16.9121 1.76281 15.9726 2.93713 15.9726C2.93713 15.9726 2.93713 15.9726 2.99596 15.9726C4.11202 15.9726 5.05159 16.9121 5.05159 18.087Z" fill="#4378FB"/>
<path d="M20.2625 33.005C20.2625 33.0639 20.2625 33.0639 20.2625 33.1233C20.2625 34.297 19.323 35.2372 18.1481 35.2372C16.9738 35.2372 16.0342 34.297 16.0342 33.1233V33.0639C16.0342 31.889 16.9738 31.0088 18.1481 31.0088C19.2641 31.0088 20.2037 31.889 20.2625 33.005Z" fill="#4378FB"/>
<path d="M32.888 19.9674C31.8308 19.8497 31.0083 18.9689 31.0083 17.8535C31.0083 16.7962 31.8308 15.8567 32.8292 15.739C32.9463 15.739 33.0051 15.739 33.1228 15.739C34.2971 15.739 35.2367 16.6786 35.2367 17.8535C35.2367 19.0278 34.2971 19.9674 33.1228 19.9674C33.0639 20.0262 33.0051 20.0262 32.888 19.9674Z" fill="#4378FB"/>
<path d="M20.0287 2.87784C20.0287 2.93667 20.0287 3.05434 20.0287 3.11259C19.9111 4.16982 19.0303 4.99231 17.9143 4.99231C16.7988 4.99231 15.9175 4.16982 15.7998 3.11259C15.7998 3.05434 15.7998 2.93667 15.7998 2.87784C15.7998 1.70353 16.7399 0.763373 17.9143 0.763373C19.0886 0.763373 20.0287 1.70353 20.0287 2.87784Z" fill="#4378FB"/>
<path d="M11.2768 16.444C11.2768 14.7408 12.6277 13.39 14.3309 13.39C14.6833 13.39 15.0357 13.4488 15.3881 13.5659C15.8576 11.9221 17.3843 10.7472 19.1464 10.7472C21.3197 10.7472 23.0812 12.3916 23.0812 14.6231C25.2545 14.6231 27.0165 16.5023 27.0165 18.6756C27.0165 20.8483 25.2545 22.7863 23.0812 22.7863C22.9052 22.7863 21.9068 22.7863 21.9068 22.7863H21.2609H17.6197H13.0389C12.6277 22.7863 11.864 22.7863 11.864 22.7863C10.1614 22.7863 8.81055 21.2595 8.81055 19.6151C8.81055 18.1472 9.8672 16.9135 11.218 16.6199C11.2768 16.5023 11.2768 16.5023 11.2768 16.444Z" fill="#4372FB" fill-opacity="0.2"/>
<path d="M26.9567 6.63562C26.7802 6.63562 26.6632 6.57737 26.5455 6.51854C24.6075 5.10889 22.3172 4.16932 19.9679 3.81691C19.5567 3.75807 19.2631 3.40567 19.322 2.99443C19.3808 2.58377 19.7332 2.29018 20.1439 2.34902C22.7866 2.70143 25.2535 3.75807 27.3674 5.34421C27.7198 5.57896 27.7787 6.04846 27.5439 6.34262C27.3674 6.57737 27.1327 6.63562 26.9567 6.63562Z" fill="#4378FB"/>
<path d="M32.8313 16.5011C32.4788 16.5011 32.1853 16.2664 32.1264 15.8557C31.774 13.5065 30.8345 11.2161 29.366 9.33638C29.1312 9.0428 29.1901 8.57332 29.4836 8.27974C29.7772 8.04441 30.2473 8.10324 30.5409 8.39682C32.1264 10.5113 33.1837 12.9776 33.5949 15.6204C33.6532 16.0316 33.3596 16.384 33.0072 16.4428C32.9483 16.5011 32.8901 16.5011 32.8313 16.5011Z" fill="#4378FB"/>
<path d="M30.128 27.6602C29.9521 27.6602 29.8345 27.6013 29.7168 27.5425C29.3644 27.3077 29.3061 26.8383 29.5409 26.5447C30.9499 24.6061 31.8901 22.3157 32.1837 19.9077C32.2419 19.4965 32.5949 19.2035 33.0056 19.2617C33.4168 19.3205 33.7104 19.6729 33.6516 20.0842C33.2992 22.727 32.3008 25.2521 30.774 27.3666C30.5975 27.6013 30.3628 27.6602 30.128 27.6602Z" fill="#4378FB"/>
<path d="M20.2622 33.7097C19.9098 33.7097 19.6162 33.475 19.5574 33.0637C19.4985 32.6531 19.7921 32.3006 20.1445 32.2418C22.5526 31.8888 24.8429 30.891 26.7221 29.3637C27.0162 29.129 27.4857 29.1878 27.7793 29.4819C28.0141 29.7755 27.9552 30.245 27.6616 30.5386C25.5478 32.183 23.0226 33.2985 20.3798 33.7097C20.3204 33.7097 20.2622 33.7097 20.2622 33.7097Z" fill="#4378FB"/>
<path d="M15.975 33.7678C15.9162 33.7678 15.9162 33.7678 15.8574 33.7678C13.1557 33.416 10.6306 32.4176 8.4579 30.7726C8.10549 30.5379 8.04666 30.0678 8.2814 29.7748C8.51615 29.4218 8.98622 29.363 9.2798 29.5983C11.3354 31.125 13.6846 32.0063 16.0927 32.3582C16.5033 32.4176 16.7975 32.7694 16.7387 33.1807C16.6793 33.5331 16.3863 33.7678 15.975 33.7678Z" fill="#4378FB"/>
<path d="M5.8755 28.0134C5.64017 28.0134 5.46425 27.8958 5.28776 27.7193C3.64337 25.5465 2.58672 23.0214 2.17548 20.3786C2.11665 19.9674 2.41023 19.615 2.82147 19.5562C3.23272 19.4973 3.58513 19.7909 3.64337 20.2021C3.99579 22.6102 4.93535 24.9594 6.46208 26.8974C6.69741 27.1909 6.63858 27.661 6.345 27.9546C6.22733 27.9546 6.05142 28.0134 5.8755 28.0134Z" fill="#4378FB"/>
<path d="M2.93855 16.6786C2.8803 16.6786 2.8803 16.6786 2.82147 16.6786C2.41023 16.6198 2.11665 16.2674 2.17548 15.8567C2.52789 13.2133 3.58513 10.6294 5.22894 8.51548C5.46427 8.16307 5.93375 8.10423 6.28616 8.39781C6.63858 8.63314 6.69741 9.10263 6.40383 9.45504C4.93535 11.393 3.99579 13.6834 3.64337 16.1503C3.58513 16.4438 3.29097 16.6786 2.93855 16.6786Z" fill="#4378FB"/>
<path d="M8.81064 6.6936C8.57531 6.6936 8.34057 6.57652 8.22291 6.40002C7.98816 6.04761 8.047 5.63694 8.34057 5.34336C10.4545 3.75722 12.9802 2.70058 15.623 2.34817C16.0342 2.28934 16.3866 2.58292 16.4454 2.99358C16.5037 3.40482 16.2101 3.75723 15.7989 3.81606C13.3908 4.16847 11.101 5.10805 9.16305 6.57652C9.16305 6.63477 8.98655 6.6936 8.81064 6.6936Z" fill="#4378FB"/>
<path d="M17.913 1.46795C17.1494 1.46795 16.5034 2.11394 16.5034 2.8776C16.5034 2.93643 16.5034 2.99468 16.5034 2.99468C16.5622 3.6995 17.1494 4.2284 17.913 4.2284C18.6767 4.2284 19.205 3.6995 19.3227 2.99468C19.3227 2.93643 19.3227 2.8776 19.3227 2.8776C19.3227 2.11394 18.6767 1.46795 17.913 1.46795ZM17.913 5.75513C16.4451 5.75513 15.2114 4.63965 15.0938 3.17118C15.0938 3.05409 15.0938 2.99468 15.0938 2.8776C15.0938 1.29204 16.3863 4.96198e-05 17.9719 4.96198e-05C19.5574 4.96198e-05 20.8494 1.29204 20.8494 2.8776C20.8494 2.99468 20.8494 3.11234 20.8494 3.17118C20.6147 4.63965 19.3815 5.75513 17.913 5.75513Z" fill="#4378FB"/>
<path d="M18.1471 31.7134C17.3834 31.7134 16.7968 32.3006 16.738 33.0636C16.738 33.8279 17.3834 34.4733 18.1471 34.4733C18.9107 34.4733 19.5567 33.8279 19.5567 33.0636V33.0048C19.4979 32.3006 18.8519 31.7134 18.1471 31.7134ZM18.1471 36C16.5615 36 15.2695 34.708 15.2695 33.1231V33.0636C15.3284 31.5369 16.5615 30.2449 18.1471 30.2449C19.6744 30.2449 20.9075 31.4198 21.0246 32.9466C21.0246 33.0048 21.0246 33.0636 21.0246 33.1231C20.9664 34.708 19.7332 36 18.1471 36Z" fill="#4378FB"/>
<path d="M28.6614 5.81267C28.309 5.81267 27.9566 5.93034 27.663 6.22391C27.6042 6.28216 27.6042 6.34158 27.5459 6.34158C27.1347 6.8699 27.1935 7.69181 27.663 8.16188C27.8984 8.39663 28.2508 8.57313 28.6614 8.57313C28.9556 8.57313 29.2492 8.45546 29.5427 8.27955C29.6016 8.22072 29.6598 8.22072 29.6598 8.16188C30.1887 7.63298 30.1887 6.75224 29.6598 6.16508C29.3662 5.98917 29.0138 5.81267 28.6614 5.81267ZM28.6032 10.0999C27.8395 10.0999 27.1347 9.80627 26.6064 9.27794C25.608 8.27954 25.4903 6.63457 26.371 5.51909C26.4299 5.40142 26.5475 5.34318 26.6064 5.22552C27.1347 4.69661 27.8395 4.40303 28.6032 4.40303C29.3662 4.40303 30.0711 4.69661 30.5994 5.22552C31.7155 6.34158 31.7155 8.16188 30.5994 9.27794C30.5411 9.33619 30.4235 9.45386 30.3064 9.51269C29.8951 9.8651 29.2492 10.0999 28.6032 10.0999Z" fill="#4378FB"/>
<path d="M6.40292 27.7782C6.16817 28.013 5.99167 28.3654 5.99167 28.7766C5.99167 29.1285 6.10934 29.4815 6.40292 29.775C6.63766 30.0098 6.99007 30.1863 7.40131 30.1863C7.75372 30.1863 8.10614 30.068 8.39972 29.775C8.92805 29.2461 8.92805 28.3654 8.39972 27.8365C8.16497 27.6017 7.81256 27.4252 7.40131 27.4252C7.0489 27.367 6.6965 27.4841 6.40292 27.7782ZM7.40131 31.5953C6.63766 31.5953 5.93284 31.3018 5.40451 30.7728C4.8756 30.2445 4.58203 29.5397 4.58203 28.7766C4.58203 28.013 4.8756 27.3082 5.40451 26.7793C5.93284 26.2509 6.63766 25.9573 7.40131 25.9573C8.16497 25.9573 8.86921 26.2509 9.39811 26.7793C10.5142 27.8953 10.5142 29.6568 9.45695 30.7728L9.39811 30.8317C8.86921 31.3018 8.16497 31.5953 7.40131 31.5953Z" fill="#4378FB"/>
<path d="M33.1229 16.5009C33.0641 16.5009 33.0052 16.5009 32.9464 16.5009C32.2416 16.6186 31.7133 17.2057 31.7133 17.9106C31.7133 18.6154 32.2416 19.2031 32.9464 19.3202C33.0052 19.3202 33.0641 19.3202 33.1229 19.3202C33.886 19.3202 34.532 18.6742 34.532 17.9106C34.532 17.1475 33.886 16.5009 33.1229 16.5009ZM33.1229 20.7299C33.0052 20.7299 32.8882 20.7299 32.8293 20.7299C31.3609 20.5534 30.3042 19.379 30.3042 17.9106C30.3042 16.5009 31.3609 15.2678 32.7705 15.0919C32.8882 15.0919 33.0052 15.0919 33.1229 15.0919C34.7085 15.0919 36.0004 16.3838 36.0004 17.9694C36.0004 19.555 34.7085 20.7299 33.1229 20.7299Z" fill="#4378FB"/>
<path d="M2.87812 16.6781C2.11447 16.6781 1.46847 17.3241 1.46847 18.0878C1.46847 18.8514 2.11447 19.4969 2.87812 19.4969C3.64119 19.4969 4.22835 18.8514 4.22835 18.0878C4.28776 17.3241 3.70003 16.737 2.87812 16.6781ZM2.87812 20.9653C1.29198 20.9653 0 19.6733 0 18.0878C0 16.5016 1.29198 15.2103 2.87812 15.2103C2.87812 15.2103 2.87812 15.2103 2.93637 15.2103C4.46368 15.2103 5.75565 16.5016 5.75565 18.0878C5.75565 19.6145 4.52193 20.9065 2.93637 20.9653C2.93637 20.9653 2.93637 20.9653 2.87812 20.9653Z" fill="#4378FB"/>
<path d="M7.22553 5.9893C6.87312 5.9893 6.52072 6.10638 6.22655 6.39996C5.99181 6.63471 5.81589 6.98711 5.81589 7.39836C5.81589 7.75077 5.93298 8.10319 6.22655 8.39676L6.28539 8.4556C6.52072 8.69034 6.87312 8.80801 7.22553 8.80801C7.57794 8.80801 7.92978 8.69034 8.22336 8.39676C8.75226 7.86844 8.75227 7.04595 8.28219 6.45879L8.22336 6.39996C7.98861 6.10638 7.63619 5.9893 7.22553 5.9893ZM7.22553 10.2177C6.52071 10.2177 5.81589 9.98232 5.34581 9.51282C5.28698 9.45399 5.28699 9.45399 5.22816 9.39516C4.69983 8.86683 4.40625 8.16201 4.40625 7.39836C4.40625 6.6347 4.69983 5.93046 5.22816 5.40155C5.75707 4.87323 6.4613 4.57966 7.22553 4.57966C7.9886 4.57966 8.69343 4.87323 9.22175 5.40155C9.28058 5.46039 9.28058 5.46039 9.33942 5.51922C10.3378 6.6347 10.279 8.39676 9.22175 9.45399C8.75226 9.92348 7.9886 10.2177 7.22553 10.2177Z" fill="#4378FB"/>
<path d="M28.7785 27.1905C28.4261 27.1905 28.0737 27.3081 27.7801 27.6017C27.2518 28.13 27.2518 28.952 27.7213 29.4814L27.7801 29.5397C28.0149 29.775 28.3673 29.9509 28.7785 29.9509C29.1309 29.9509 29.4833 29.8333 29.7769 29.5397C30.0117 29.3049 30.1882 28.952 30.1882 28.5413C30.1882 28.1301 30.0705 27.8365 29.7769 27.5429C29.7181 27.4841 29.7181 27.4841 29.6593 27.4252C29.4245 27.3081 29.1309 27.1905 28.7785 27.1905ZM28.7785 31.4777C28.0149 31.4777 27.31 31.1841 26.7817 30.6558C26.7229 30.5969 26.6646 30.5381 26.6646 30.5381C25.6657 29.422 25.7245 27.7188 26.7817 26.6622C27.31 26.1338 28.0149 25.8402 28.7785 25.8402C29.4245 25.8402 30.0705 26.075 30.5988 26.4857C30.6582 26.5445 30.7165 26.6033 30.8342 26.6622C31.3625 27.1905 31.6561 27.8953 31.6561 28.6589C31.6561 29.422 31.3625 30.1268 30.8342 30.6558C30.247 31.1841 29.5422 31.4777 28.7785 31.4777Z" fill="#4378FB"/>
<path d="M20.0294 16.7366C19.8529 16.7366 19.677 16.6777 19.5593 16.5601C19.2657 16.3253 19.2069 15.8558 19.4417 15.5034C20.3224 14.4462 21.615 13.859 22.9658 13.859C23.377 13.859 23.7294 14.2109 23.7294 14.6221C23.7294 15.0333 23.377 15.3858 22.9658 15.3858C22.0256 15.3858 21.1449 15.797 20.5577 16.5012C20.4989 16.6777 20.2641 16.7366 20.0294 16.7366Z" fill="#4378FB"/>
<path d="M13.6259 17.9705C13.45 17.9705 13.2735 17.9116 13.1558 17.7946C12.6863 17.3833 12.0403 17.2068 11.3943 17.2656C10.9831 17.3245 10.6307 17.0309 10.5718 16.6197C10.5136 16.209 10.8066 15.8566 11.2178 15.7978C12.2751 15.6801 13.3323 15.9737 14.0954 16.6785C14.3895 16.9132 14.4478 17.3833 14.1548 17.7357C14.0371 17.8534 13.8024 17.9705 13.6259 17.9705Z" fill="#4378FB"/>
<path d="M21.2596 23.491C20.966 23.491 20.7307 23.3151 20.6136 23.0797C20.4371 22.7279 20.5548 22.2578 20.966 22.0819H21.0243C22.258 21.553 23.0217 20.8482 23.2564 19.9086C23.4323 19.2626 23.3152 18.7343 23.3152 18.6755C23.1976 18.2642 23.4323 17.8536 23.8436 17.7947C24.2548 17.6771 24.6655 17.9118 24.7243 18.3231C24.7243 18.4407 24.9596 19.2626 24.6655 20.3199C24.4307 21.2594 23.6676 22.6102 21.5532 23.491C21.4355 23.491 21.3767 23.491 21.2596 23.491Z" fill="#4378FB"/>
<path d="M21.2616 22.0232H21.9076C21.9076 22.0232 22.906 22.0232 23.0819 22.0232C24.8439 22.0232 26.3124 20.4959 26.3124 18.6756C26.3124 16.9135 24.8439 15.3868 23.0819 15.3868C22.6712 15.3868 22.3188 15.0344 22.3188 14.6231C22.3188 12.8611 20.9092 11.5109 19.0883 11.5109C17.6792 11.5109 16.3872 12.4504 16.0348 13.8013C15.976 13.9772 15.8583 14.1537 15.6824 14.2707C15.5059 14.3884 15.2712 14.3884 15.0947 14.3296C14.8599 14.2119 14.5663 14.2119 14.2728 14.2119C12.9808 14.2119 11.9236 15.2691 11.9236 16.5611V16.62C11.9236 16.9724 11.6888 17.2659 11.3364 17.3248C10.2792 17.5595 9.51609 18.4997 9.51609 19.6152C9.51609 20.966 10.5727 22.082 11.8647 22.082C11.9236 22.082 12.9219 22.082 13.0396 22.082L21.2616 22.0232ZM23.0819 23.4911C22.906 23.4911 21.9076 23.4911 21.9076 23.4911H13.0984C12.6872 23.4911 11.9824 23.4911 11.9236 23.4911C9.86792 23.4911 8.10645 21.6702 8.10645 19.5563C8.10645 17.9708 9.10485 16.5611 10.5727 16.0328C10.8075 14.1537 12.3936 12.6852 14.3316 12.6852C14.5075 12.6852 14.7428 12.6852 14.9187 12.744C15.6824 11.1585 17.3268 10.0424 19.1471 10.0424C21.5551 10.0424 23.4343 11.6868 23.7867 13.9183C24.7851 14.0948 25.6658 14.5649 26.4295 15.2691C27.3102 16.1505 27.7803 17.3836 27.7803 18.6168C27.7803 21.2595 25.6076 23.4911 23.0819 23.4911Z" fill="#4378FB"/>
<path d="M21.3207 27.1909H13.9795C13.5682 27.1909 13.2158 26.8391 13.2158 26.4273C13.2158 26.016 13.5682 25.6642 13.9795 25.6642H21.3207C21.7313 25.6642 22.0838 26.016 22.0838 26.4273C22.0838 26.8391 21.7313 27.1909 21.3207 27.1909Z" fill="#4378FB"/>
<path d="M17.6777 27.1908C17.2665 27.1908 16.9141 26.839 16.9141 26.4271V19.0865C16.9141 18.6753 17.2665 18.3229 17.6777 18.3229C18.0884 18.3229 18.4408 18.6753 18.4408 19.0865V26.4271C18.3825 26.839 18.0301 27.1908 17.6777 27.1908Z" fill="#4378FB"/>
</svg>
