<svg width="43" height="40" viewBox="0 0 43 40" fill="none" xmlns="http://www.w3.org/2000/svg">
<path d="M35.2521 14.0273H10.1693V24.1938C10.1693 25.4554 10.3172 26.717 10.6146 27.9043C12.2479 34.2867 18.1099 39.0365 25.0112 39.0365C33.1749 39.0365 39.8532 32.3567 39.8532 24.1938V14.0273H35.2521Z" fill="white"/>
<path d="M35.2473 11.2029V14.0234H31.5368V11.2029C31.5368 9.42232 30.7956 7.78973 29.6076 6.60172C28.4204 5.41518 26.7877 4.6725 25.0065 4.6725C21.4447 4.6725 18.4761 7.5667 18.4761 11.2029V14.0234H14.7656V11.2029C14.7656 5.56313 19.3668 0.96199 25.0065 0.96199C27.8263 0.96199 30.3496 2.07566 32.2059 3.93054C34.1351 5.85976 35.2473 8.38299 35.2473 11.2029Z" fill="white"/>
<path d="M15.8073 21.4509H34.3605V26.1263H15.8073V21.4509Z" fill="white"/>
<path d="M2.81921 26.0486C3.8578 26.0486 4.67407 26.8649 4.67407 27.9035C4.67407 28.9428 3.8578 29.7592 2.81921 29.7592C1.77989 29.7592 0.963562 28.9428 0.963562 27.9035C0.963562 26.8649 1.77989 26.0486 2.81921 26.0486Z" fill="white"/>
<path d="M5.56583 14.0239C6.60442 14.0239 7.42145 14.8402 7.42145 15.8788C7.42145 16.9181 6.60442 17.7344 5.56583 17.7344C4.52651 17.7344 3.71094 16.8437 3.71094 15.8788C3.71094 14.8402 4.52651 14.0239 5.56583 14.0239Z" fill="white"/>
<path d="M29.681 27.9035H31.5359V29.7592H29.681V27.9035Z" fill="#24908D"/>
<path d="M26.9401 27.9035H28.7957V29.7592H26.9401V27.9035Z" fill="#24908D"/>
<path d="M24.1146 27.9035H25.9702V29.7592H24.1146V27.9035Z" fill="#24908D"/>
<path d="M21.3737 27.9035H23.2286V29.7592H21.3737V27.9035Z" fill="#24908D"/>
<path d="M18.5547 27.9035H20.4096V29.7592H18.5547V27.9035Z" fill="#24908D"/>
<path d="M25.0843 40C17.8863 40 11.5775 35.1022 9.79697 28.2009C9.50034 26.9393 9.27734 25.6026 9.27734 24.2674V14.0265C9.27734 13.5068 9.72265 13.0615 10.2423 13.0615H14.8434C15.3631 13.0615 15.8077 13.5068 15.8077 14.0265C15.8077 14.5462 15.3631 14.9908 14.8434 14.9908H11.133V24.193C11.133 25.381 11.2809 26.5683 11.5775 27.6812C13.1365 33.8406 18.7026 38.1451 25.0843 38.1451C32.7283 38.1451 39.0364 31.9114 39.0364 24.193V14.9164H35.3259C34.8062 14.9164 34.3609 14.4711 34.3609 13.9522C34.3609 13.4325 34.8062 12.9872 35.3259 12.9872H40.0014C40.521 12.9872 40.9656 13.4325 40.9656 13.9522V24.193C40.8177 32.8756 33.7677 40 25.0843 40Z" fill="#24908D"/>
<path d="M31.538 14.9154C31.019 14.9154 30.5737 14.4701 30.5737 13.9512V11.1313C30.5737 9.64667 29.9797 8.23711 28.9411 7.19779C27.9025 6.15847 26.4922 5.56519 25.0076 5.56519C21.9654 5.56519 19.4422 8.08842 19.4422 11.1313V13.9512C19.4422 14.4701 18.9969 14.9154 18.4773 14.9154C17.9576 14.9154 17.513 14.4701 17.513 13.9512V11.1313C17.513 7.0491 20.8525 3.70957 24.934 3.70957C26.9368 3.70957 28.7924 4.45226 30.2027 5.86182C31.613 7.27212 32.355 9.12774 32.355 11.1313V13.9512C32.5029 14.4701 32.0576 14.9154 31.538 14.9154Z" fill="#24908D"/>
<path d="M15.8029 13.0605H34.3562V11.2049C34.3562 8.75603 33.3912 6.38149 31.6107 4.67456C29.8294 2.89328 27.5285 1.92904 25.0796 1.92904C19.9595 1.92904 15.8029 6.08486 15.8029 11.2049V13.0605ZM35.2461 14.9154H14.8387C14.319 14.9154 13.8737 14.4701 13.8737 13.9512V11.1313C13.8737 4.97193 18.8458 -0.000918388 25.0052 -0.000918388C27.9745 -0.000918388 30.7943 1.18708 32.8723 3.26425C34.9502 5.34289 36.1367 8.16276 36.1367 11.1313V13.9512C36.2118 14.4701 35.7657 14.9154 35.2461 14.9154Z" fill="#24908D"/>
<path d="M30.6497 18.6263H10.2423C9.72265 18.6263 9.27734 18.181 9.27734 17.6614C9.27734 17.1417 9.72265 16.6964 10.2423 16.6964H30.6497C31.1701 16.6964 31.6154 17.1417 31.6154 17.6614C31.5403 18.181 31.0957 18.6263 30.6497 18.6263Z" fill="#24908D"/>
<path d="M12.0974 24.1927H5.56709C5.04743 24.1927 4.60284 23.7474 4.60284 23.2278V17.6624C4.60284 17.1427 5.04743 16.6974 5.56709 16.6974C6.08602 16.6974 6.53206 17.1427 6.53206 17.6624V22.3379H12.0974C12.6171 22.3379 13.0624 22.7832 13.0624 23.3021C13.0624 23.8218 12.5427 24.1927 12.0974 24.1927Z" fill="#24908D"/>
<path d="M12.9868 28.8672H4.67519C4.15553 28.8672 3.71094 28.4226 3.71094 27.9022C3.71094 27.3825 4.15553 26.938 4.67519 26.938H13.0612C13.5808 26.938 14.0254 27.3825 14.0254 27.9022C14.0254 28.4226 13.5065 28.8672 12.9868 28.8672Z" fill="#24908D"/>
<path d="M5.56724 14.9151C5.04758 14.9151 4.60299 15.3604 4.60299 15.8801C4.60299 16.3998 5.04758 16.8451 5.56724 16.8451C6.08616 16.8451 6.53221 16.3998 6.53221 15.8801C6.53221 15.3604 6.08616 14.9151 5.56724 14.9151ZM5.56724 18.6263C4.00899 18.6263 2.74738 17.3647 2.74738 15.8058C2.74738 14.2475 4.00899 12.9859 5.56724 12.9859C7.12549 12.9859 8.3871 14.2475 8.3871 15.8058C8.3871 17.3647 7.12549 18.6263 5.56724 18.6263Z" fill="#24908D"/>
<path d="M2.81986 27.0114C2.3002 27.0114 1.85486 27.4575 1.85486 27.9764C1.85486 28.4961 2.3002 28.9414 2.81986 28.9414C3.33953 28.9414 3.71047 28.4225 3.71047 27.9021C3.71047 27.3824 3.26445 27.0114 2.81986 27.0114ZM2.81986 30.7227C1.26162 30.7227 0 29.461 0 27.9021C0 26.3438 1.26162 25.0822 2.81986 25.0822C4.37811 25.0822 5.63969 26.3438 5.63969 27.9021C5.63969 29.461 4.30377 30.7227 2.81986 30.7227Z" fill="#24908D"/>
<path d="M16.6986 25.1568H33.3963V22.337H16.6986V25.1568ZM34.3612 27.0117H15.808C15.2883 27.0117 14.8438 26.5671 14.8438 26.0475V21.372C14.8438 20.8523 15.2883 20.407 15.808 20.407H34.3612C34.8809 20.407 35.3262 20.8523 35.3262 21.372V26.0475C35.2511 26.5671 34.8065 27.0117 34.3612 27.0117Z" fill="#24908D"/>
<path d="M41.7771 40H14.8387C14.319 40 13.8737 39.5554 13.8737 39.0357C13.8737 38.5154 14.319 38.0708 14.8387 38.0708H41.7771C42.2968 38.0708 42.7422 38.5154 42.7422 39.0357C42.6678 39.5554 42.2225 40 41.7771 40Z" fill="#24908D"/>
</svg>
