<svg width="36" height="36" viewBox="0 0 36 36" fill="none" xmlns="http://www.w3.org/2000/svg">
<path d="M7.91275 7.92721C7.37745 8.4634 6.60371 8.52252 6.00879 8.10575C5.94918 8.04604 5.88958 7.98633 5.82998 7.92721C5.23506 7.33132 5.23506 6.37777 5.82998 5.84041C6.42489 5.24511 7.37745 5.24511 7.91275 5.84041C8.44865 6.37777 8.50767 7.33132 7.91275 7.92721Z" fill="#FA6444"/>
<path d="M3.74568 17.9998C3.74568 18.7742 3.15135 19.3701 2.43721 19.4895C2.3776 19.4895 2.31801 19.4895 2.2584 19.4895C1.42563 19.4895 0.770508 18.8339 0.770508 17.9998C0.770508 17.1651 1.42563 16.5095 2.2584 16.5095C2.31801 16.5095 2.3776 16.5095 2.43721 16.5095C3.15135 16.6283 3.74568 17.2248 3.74568 17.9998Z" fill="#FA6444"/>
<path d="M7.91275 28.5499C8.38904 29.0264 8.44865 29.7417 8.21021 30.2784C8.1506 30.3973 8.03197 30.5173 7.91275 30.6361C7.31784 31.232 6.36587 31.232 5.82998 30.6361C5.23506 30.0402 5.23506 29.0867 5.82998 28.5499C5.94919 28.4305 6.06781 28.3713 6.18703 28.3116C6.72293 28.0131 7.43706 28.0734 7.91275 28.5499Z" fill="#FA6444"/>
<path d="M17.9687 32.2441C18.7425 32.2441 19.397 32.8997 19.4566 33.6741V33.7344C19.4566 34.5685 18.8021 35.2241 17.9687 35.2241C17.1354 35.2241 16.4814 34.5685 16.4814 33.7344V33.6741C16.5411 32.8997 17.195 32.2441 17.9687 32.2441Z" fill="#FA6444"/>
<path d="M28.0255 28.5499C28.5018 28.0734 29.2154 28.0131 29.8109 28.3116C29.9295 28.3713 30.0487 28.4902 30.1673 28.5499C30.7629 29.1458 30.7629 30.0999 30.1673 30.6361C29.5724 31.232 28.6204 31.232 28.0851 30.6361C27.9659 30.5173 27.9063 30.3973 27.7877 30.2784C27.4896 29.7417 27.5492 29.0264 28.0255 28.5499Z" fill="#FA6444"/>
<path d="M33.4999 19.4895C32.7863 19.4304 32.1914 18.7742 32.1914 17.9998C32.1914 17.2248 32.7267 16.6283 33.4999 16.5095C33.5601 16.5095 33.6191 16.5095 33.6787 16.5095C34.5115 16.5095 35.1666 17.1651 35.1666 17.9998C35.1666 18.8339 34.5115 19.4895 33.6787 19.4895C33.6191 19.4895 33.5601 19.4895 33.4999 19.4895Z" fill="#FA6444"/>
<path d="M29.9292 8.04666C29.3343 8.46402 28.5605 8.40432 28.0252 7.86813C27.4893 7.33195 27.4303 6.55634 27.8464 5.96104C27.906 5.90133 27.9656 5.84103 28.0252 5.78192C28.6201 5.18603 29.5721 5.18603 30.108 5.78192C30.7029 6.3784 30.7029 7.33195 30.108 7.86813C30.108 7.98695 29.9888 8.04666 29.9292 8.04666Z" fill="#FA6444"/>
<path d="M17.9687 3.75513C17.2546 3.75513 16.6597 3.21895 16.4814 2.56276C16.4814 2.44393 16.4814 2.38422 16.4814 2.2654C16.4814 1.43068 17.1354 0.775082 17.9687 0.775082C18.8021 0.775082 19.4566 1.43068 19.4566 2.2654C19.4566 2.38422 19.4566 2.44393 19.4566 2.56276C19.2778 3.21895 18.6829 3.75513 17.9687 3.75513Z" fill="#FA6444"/>
<path d="M23.0853 23.8413C22.0737 27.477 20.2288 29.98 18.0274 29.98H17.9678C17.9678 29.1459 17.9678 24.0199 17.9678 23.3046C19.7531 23.3643 21.4788 23.5434 23.0853 23.8413Z" fill="#FA6444" fill-opacity="0.2"/>
<path d="M12.8527 23.8413C13.8637 27.477 15.7086 29.98 17.9101 29.98C15.7682 29.98 13.5072 29.325 11.543 28.0735C11.186 27.8347 10.5911 27.4173 10.175 27.0596C9.93654 26.8811 9.69871 26.6429 9.57949 26.5234C9.16281 26.1067 8.86535 25.7484 8.56789 25.3914C8.50828 25.3317 8.44926 25.2122 8.38965 25.1525C9.75772 24.6164 11.2456 24.199 12.8527 23.8413Z" fill="#FA6444" fill-opacity="0.2"/>
<path d="M17.9678 18.1193V23.3641C16.1831 23.3641 14.4574 23.5432 12.8509 23.9009C12.3746 22.1723 12.1367 20.2055 12.1367 18.1193H17.9678Z" fill="#FA6444" fill-opacity="0.2"/>
<path d="M23.86 18.1191H29.8706C29.8706 20.8013 28.9776 23.2451 27.5493 25.2119C26.1813 24.616 24.6934 24.1987 23.1465 23.841C23.5626 22.1722 23.86 20.2054 23.86 18.1191Z" fill="#FA6444" fill-opacity="0.2"/>
<path d="M27.5477 10.9671C26.1796 11.5636 24.6918 11.9804 23.1449 12.3386C22.1333 8.70238 20.2883 6.25853 18.0869 6.19941C18.1459 6.19941 18.801 6.19941 19.0985 6.25853C21.1217 6.43765 23.1449 7.15294 24.87 8.40443C25.8226 9.06062 26.7746 9.95388 27.5477 10.9671Z" fill="#FA6444" fill-opacity="0.2"/>
<path d="M23.8585 18.1196H17.9678V12.8748C19.7531 12.8748 21.4788 12.6957 23.0853 12.3386C23.561 14.0666 23.8585 16.034 23.8585 18.1196Z" fill="#FA6444" fill-opacity="0.2"/>
<path d="M6.06738 18.0005C6.06738 15.3775 6.96035 12.9337 8.38862 11.0266C9.75669 11.6231 11.2446 12.0404 12.7921 12.3975C12.3158 14.126 12.0779 16.0928 12.0779 18.1785H6.06738C6.06738 18.0596 6.06738 18.0596 6.06738 18.0005Z" fill="#FA6444" fill-opacity="0.2"/>
<path d="M12.8516 12.3376C13.8626 8.70135 15.7075 6.19838 17.9089 6.19838H17.9685V12.8738C16.1838 12.8738 14.4581 12.6947 12.8516 12.3376Z" fill="#FA6444" fill-opacity="0.2"/>
<path d="M18.0283 30.0388C20.2297 29.9785 22.1343 27.5353 23.0863 23.8996C24.6332 24.1976 26.1211 24.6746 27.4891 25.2705C27.4891 25.2705 27.3705 25.3899 27.3109 25.5087C24.9306 28.4291 21.4798 30.0388 18.0283 30.0388Z" fill="#FA6444" fill-opacity="0.2"/>
<path d="M17.9089 30.0388C15.7075 29.9785 13.803 27.5353 12.8516 23.8996C14.4581 23.542 16.1838 23.3628 17.9685 23.3628C17.9685 24.0781 17.9685 29.2041 17.9685 30.0388H17.9089Z" fill="#FA6444" fill-opacity="0.2"/>
<path d="M17.9678 18.1193H23.8585C23.8585 20.2055 23.6206 22.1723 23.1449 23.9009C21.5379 23.5432 19.8127 23.3641 18.0274 23.3641L17.9678 18.1193Z" fill="#FA6444" fill-opacity="0.2"/>
<path d="M12.0779 18.1183C12.0779 20.2045 12.3158 22.1713 12.7921 23.8998C11.2446 24.1978 9.75669 24.6749 8.38862 25.2708C6.90074 23.3034 6.06738 20.8004 6.06738 18.1774H12.0779V18.1183Z" fill="#FA6444" fill-opacity="0.2"/>
<path d="M29.8706 18.1196H23.86C23.86 16.034 23.6222 14.0666 23.1465 12.3386C24.6934 12.0407 26.1813 11.5636 27.5493 10.9672C29.0372 13.054 29.8706 15.4972 29.8706 18.1196Z" fill="#FA6444" fill-opacity="0.2"/>
<path d="M17.9688 12.8748V18.1196H12.0781C12.0781 16.034 12.316 14.0666 12.7923 12.3386C14.4584 12.6957 16.1841 12.8748 17.9688 12.8748Z" fill="#FA6444" fill-opacity="0.2"/>
<path d="M18.0274 6.19838C20.2288 6.25749 22.0737 8.76106 23.0853 12.3376C21.4788 12.6947 19.7531 12.8738 17.9678 12.8738V6.19838H18.0274Z" fill="#FA6444" fill-opacity="0.2"/>
<path d="M11.0674 8.40419C13.09 6.97358 15.5298 6.19917 17.8504 6.19917C15.649 6.25828 13.7451 8.70214 12.7931 12.3384C11.2456 12.0404 9.75772 11.5634 8.38965 10.9669C9.1628 10.0133 10.0558 9.1195 11.0674 8.40419Z" fill="#FA6444" fill-opacity="0.2"/>
<path d="M17.9681 33.0195C17.5514 33.0195 17.1943 32.6613 17.1943 32.2445V29.9792C17.1943 29.5624 17.5514 29.2048 17.9681 29.2048C18.3848 29.2048 18.7418 29.5624 18.7418 29.9792V32.2445C18.7418 32.6613 18.3848 33.0195 17.9681 33.0195Z" fill="#FA6444"/>
<path d="M29.8085 29.0256C29.6297 29.0256 29.4515 28.9665 29.3323 28.8471C29.0348 28.5486 28.9752 28.1318 29.2727 27.7741C31.2958 25.3906 32.5459 22.4696 32.8433 19.3702C32.9023 18.9534 33.2594 18.6549 33.6761 18.7152C34.0928 18.7743 34.3902 19.1319 34.3306 19.5493C34.0332 23.0058 32.6645 26.165 30.4631 28.7874C30.2252 28.9665 29.9868 29.0256 29.8085 29.0256Z" fill="#FA6444"/>
<path d="M19.4571 34.4491C19.1 34.4491 18.743 34.1511 18.743 33.7941C18.6833 33.3761 18.9808 33.0191 19.3975 32.9588C22.313 32.6608 25.0504 31.5885 27.3114 29.7405C27.6089 29.5022 28.0851 29.5619 28.3826 29.8599C28.6204 30.1578 28.5608 30.6349 28.2634 30.9328C25.7645 32.9588 22.7297 34.2108 19.5757 34.5088C19.5167 34.4491 19.4571 34.4491 19.4571 34.4491Z" fill="#FA6444"/>
<path d="M16.4829 34.45H16.4227C13.2097 34.152 10.2345 32.9005 7.73564 30.874C7.43819 30.6358 7.37857 30.1587 7.61642 29.8016C7.85427 29.4434 8.33055 29.4434 8.68762 29.6816C10.9486 31.5296 13.686 32.6617 16.6015 32.9005C17.0182 32.9596 17.3156 33.3179 17.256 33.7352C17.1964 34.152 16.84 34.45 16.4829 34.45Z" fill="#FA6444"/>
<path d="M6.12685 29.0254C5.88841 29.0254 5.71019 28.9663 5.59097 28.7872C3.32994 26.1648 2.02089 22.9465 1.72343 19.5491C1.66382 19.1317 1.96127 18.774 2.37794 18.7149C2.79462 18.6546 3.15169 18.9532 3.21071 19.3699C3.50876 22.4694 4.69859 25.3903 6.78079 27.7739C7.07884 28.0724 7.01923 28.5483 6.72177 28.8469C6.48392 28.9663 6.30509 29.0254 6.12685 29.0254Z" fill="#FA6444"/>
<path d="M2.43755 17.2849H2.37794C1.96127 17.2252 1.66382 16.8675 1.72343 16.4502C2.0805 13.1722 3.32994 10.1324 5.47234 7.56915C5.71018 7.27121 6.18587 7.21209 6.54294 7.45033C6.84099 7.68857 6.90001 8.16563 6.66216 8.52269C4.7582 10.8477 3.56778 13.5896 3.27032 16.5696C3.15169 16.987 2.79462 17.2849 2.43755 17.2849Z" fill="#FA6444"/>
<path d="M7.49679 6.49707C7.25894 6.19913 7.25895 5.72207 7.61601 5.42412C10.1751 3.33791 13.2093 2.08642 16.4825 1.78847C16.8986 1.72877 17.2556 2.02672 17.3152 2.44408C17.3748 2.86085 17.0774 3.21908 16.6607 3.2782C13.6856 3.57614 10.9482 4.70881 8.6276 6.61649C8.21092 6.85473 7.73523 6.79502 7.49679 6.49707Z" fill="#FA6444"/>
<path d="M27.3701 6.55514C25.0494 4.64864 22.3121 3.51597 19.3369 3.21803C18.9203 3.15832 18.6228 2.80068 18.6824 2.38332C18.742 1.96655 19.0991 1.66859 19.5158 1.72771C22.7884 2.02566 25.8232 3.27715 28.3817 5.36395C28.6791 5.6016 28.7387 6.07867 28.5009 6.43633C28.2028 6.79398 27.7271 6.85367 27.3701 6.55514Z" fill="#FA6444"/>
<path d="M33.4987 17.2846C33.1422 17.2846 32.7851 16.9867 32.7851 16.6284C32.4877 13.6484 31.2972 10.9072 29.3933 8.58271C29.1554 8.28417 29.1554 7.8077 29.5125 7.50976C29.8099 7.27093 30.2857 7.27093 30.5831 7.62917C32.6659 10.1322 33.9749 13.231 34.332 16.5096C34.3916 16.9264 34.0942 17.2846 33.6775 17.3438C33.5589 17.2846 33.5589 17.2846 33.4987 17.2846Z" fill="#FA6444"/>
<path d="M17.9671 1.4904C17.5504 1.4904 17.1933 1.84747 17.1933 2.26542C17.1933 2.32454 17.1933 2.38424 17.1933 2.38424C17.2529 2.7419 17.5504 2.98072 17.9075 2.98072C18.2645 2.98072 18.562 2.7419 18.6216 2.38424C18.6216 2.32454 18.6216 2.26542 18.6216 2.26542C18.7408 1.84747 18.3838 1.4904 17.9671 1.4904ZM17.9671 4.47046C16.8959 4.47046 16.0035 3.69545 15.7657 2.68278C15.7657 2.56278 15.7061 2.38424 15.7061 2.26542C15.7061 1.01334 16.7176 8.2016e-05 17.9671 8.2016e-05C19.2165 8.2016e-05 20.2281 1.01334 20.2281 2.26542C20.2281 2.38424 20.2281 2.56278 20.1685 2.68278C19.9307 3.69545 19.0383 4.47046 17.9671 4.47046Z" fill="#FA6444"/>
<path d="M17.2529 33.7353C17.2529 34.152 17.61 34.45 18.0267 34.45C18.4434 34.45 18.7408 34.0923 18.7408 33.7353V33.675C18.7408 33.2582 18.3838 32.9597 18.0267 32.9597C17.6696 32.9597 17.2529 33.3179 17.2529 33.7353ZM17.9671 36C16.7176 36 15.7061 34.9867 15.7061 33.7353C15.7061 33.675 15.7061 33.675 15.7061 33.6159C15.7657 32.4235 16.7176 31.4699 17.9075 31.4699C19.0979 31.4699 20.0499 32.4235 20.1095 33.6159C20.1095 33.675 20.1095 33.675 20.1095 33.7353C20.2281 34.9867 19.2165 36 17.9671 36Z" fill="#FA6444"/>
<path d="M29.0959 6.07989C28.9171 6.07989 28.7388 6.1396 28.56 6.31813C28.56 6.31813 28.501 6.37843 28.501 6.43754C28.1439 6.91461 28.501 7.62991 29.0959 7.62991C29.2742 7.62991 29.3934 7.56961 29.5126 7.5105C29.5716 7.45079 29.5716 7.45079 29.6312 7.45079C29.9287 7.15284 29.9287 6.67578 29.6312 6.37843C29.453 6.1993 29.2742 6.07989 29.0959 6.07989ZM27.4888 8.40433C26.7157 7.6299 26.5964 6.43753 27.251 5.54311C27.3106 5.42428 27.4298 5.30487 27.4888 5.24575C27.9055 4.82839 28.4414 4.58957 29.0363 4.58957C29.6312 4.58957 30.1665 4.82839 30.6428 5.24575C31.5352 6.13959 31.5352 7.51049 30.6428 8.40433C30.5832 8.46403 30.4646 8.58345 30.3453 8.64316C29.453 9.29876 28.2626 9.17934 27.4888 8.40433Z" fill="#FA6444"/>
<path d="M6.48504 28.967C6.42484 29.0261 6.36582 29.0261 6.30621 29.0864C6.00875 29.3844 6.00875 29.8608 6.30621 30.1588C6.42484 30.2782 6.60367 30.397 6.84211 30.397C7.02035 30.397 7.19859 30.3379 7.37742 30.1588C7.67488 29.8608 7.67488 29.3844 7.37742 29.0864C7.13898 28.8476 6.78191 28.7879 6.48504 28.967ZM6.84211 31.8276C6.24661 31.8276 5.7113 31.5894 5.23502 31.172C4.16382 30.0997 4.40226 28.3711 5.71131 27.6558C6.54407 27.1787 7.61526 27.2976 8.389 28.0129C9.10314 28.7282 9.22177 29.7414 8.80568 30.6358C8.68647 30.8741 8.56724 31.0532 8.389 31.2317C7.97233 31.5894 7.43703 31.8276 6.84211 31.8276Z" fill="#FA6444"/>
<path d="M33.678 17.2248C33.678 17.2248 33.6184 17.2248 33.5594 17.2248C33.2023 17.2845 32.9043 17.5824 32.9043 17.9401C32.9043 18.2977 33.2023 18.6548 33.5594 18.6548C33.6184 18.6548 33.6184 18.6548 33.6184 18.6548C34.0351 18.6548 34.3921 18.2977 34.3921 17.8804C34.3921 17.4636 34.0947 17.2248 33.678 17.2248ZM33.678 20.2048C33.6184 20.2048 33.4992 20.2048 33.4401 20.2048C32.3093 20.0854 31.4766 19.1319 31.4766 17.9998C31.4766 16.8671 32.3093 15.913 33.4401 15.7942C33.5594 15.7942 33.6184 15.7942 33.7376 15.7942C34.987 15.7942 35.9986 16.8074 35.9986 18.0589C35.9986 19.311 34.9274 20.2048 33.678 20.2048Z" fill="#FA6444"/>
<path d="M2.26006 17.2248C1.84338 17.2248 1.48631 17.5824 1.48631 17.9998C1.48631 18.4166 1.84338 18.7742 2.26006 18.7742H2.31967C2.67673 18.7151 2.97418 18.4166 2.97418 18.0589C2.97418 17.7018 2.67673 17.3436 2.31967 17.3436C2.31967 17.2248 2.26006 17.2248 2.26006 17.2248ZM2.26006 20.2048C1.01062 20.2048 -0.000976562 19.1916 -0.000976562 17.9401C-0.000976562 16.688 1.01062 15.6747 2.26006 15.6747C2.37928 15.6747 2.43887 15.6747 2.5575 15.6747C3.68831 15.7942 4.52108 16.7483 4.52108 17.8804C4.52108 19.013 3.68831 19.9666 2.5575 20.0854C2.43887 20.2048 2.31967 20.2048 2.26006 20.2048Z" fill="#FA6444"/>
<path d="M29.0977 28.8478C28.9189 28.8478 28.7407 28.9075 28.5618 29.0867C28.324 29.3249 28.2644 29.682 28.4432 29.9208C28.5028 29.9799 28.5028 30.0402 28.5618 30.0999C28.6811 30.2187 28.9189 30.3381 29.0977 30.3381C29.276 30.3381 29.4548 30.2784 29.633 30.0999C29.9305 29.802 29.9305 29.3249 29.633 29.0264C29.5734 28.9672 29.5144 28.9075 29.4548 28.9075C29.3356 28.9075 29.2164 28.8478 29.0977 28.8478ZM29.0977 31.8279C28.5028 31.8279 27.9669 31.5896 27.4906 31.1723C27.3124 30.9937 27.1932 30.8146 27.0746 30.5764C26.3008 29.0867 27.4316 27.3581 29.0381 27.3581C29.3952 27.3581 29.8119 27.4769 30.1093 27.656C30.2876 27.7749 30.4664 27.8943 30.585 28.0131C31.478 28.9075 31.478 30.2784 30.585 31.1723C30.2285 31.5896 29.6926 31.8279 29.0977 31.8279Z" fill="#FA6444"/>
<path d="M6.84278 6.07994C6.66395 6.07994 6.48571 6.13965 6.30688 6.31818C6.00942 6.61672 6.00942 7.09378 6.30688 7.39114C6.30688 7.39114 6.36649 7.45084 6.42551 7.45084C6.54473 7.56967 6.72356 7.56967 6.84278 7.56967C7.43769 7.56967 7.79418 6.91467 7.4377 6.37848C7.4377 6.31818 7.37809 6.31818 7.37809 6.25847C7.25887 6.19936 7.02102 6.07994 6.84278 6.07994ZM6.84278 9.06058C6.36649 9.06058 5.94982 8.94116 5.53314 8.64321C5.41452 8.58351 5.3549 8.46409 5.23569 8.40438C4.34331 7.51054 4.34331 6.13964 5.23569 5.24581C5.65236 4.82845 6.18767 4.58962 6.84278 4.58962C7.55632 4.58962 8.21085 4.94786 8.68713 5.54316C9.28205 6.43759 9.22244 7.62996 8.44928 8.40438C7.73515 9.11969 6.84278 9.06058 6.84278 9.06058Z" fill="#FA6444"/>
<path d="M17.9681 6.91431C17.5514 6.91431 17.1943 6.55607 17.1943 6.1393V3.69543C17.1943 3.27807 17.5514 2.921 17.9681 2.921C18.3848 2.921 18.7418 3.27807 18.7418 3.69543V6.1393C18.7418 6.61637 18.3848 6.91431 17.9681 6.91431Z" fill="#FA6444"/>
<path d="M25.7631 10.1926C25.4657 9.89461 25.4657 9.41755 25.7631 9.1196L27.4883 7.39104C27.7863 7.09369 28.262 7.09369 28.5595 7.39104C28.8575 7.68899 28.8575 8.16605 28.5595 8.464L26.8337 10.1926C26.5369 10.4905 26.0606 10.4905 25.7631 10.1926Z" fill="#FA6444"/>
<path d="M7.37641 29.0861C7.07896 28.7876 7.07896 28.3111 7.37641 28.0126L9.10214 26.284C9.399 25.9861 9.87528 25.9861 10.1733 26.284C10.4702 26.5825 10.4702 27.059 10.1733 27.3576L8.44761 29.0861C8.14956 29.3841 7.67387 29.3841 7.37641 29.0861Z" fill="#FA6444"/>
<path d="M32.1911 18.7153H29.7513C29.3346 18.7153 28.9775 18.3571 28.9775 17.9403C28.9775 17.523 29.3346 17.1653 29.7513 17.1653H32.1911C32.6072 17.1653 32.9643 17.523 32.9643 17.9403C32.9643 18.4168 32.6072 18.7153 32.1911 18.7153Z" fill="#FA6444"/>
<path d="M6.18664 18.7153H3.74679C3.33071 18.7153 2.97363 18.3571 2.97363 17.9403C2.97363 17.523 3.33071 17.1653 3.74679 17.1653H6.18664C6.60332 17.1653 6.96039 17.523 6.96039 17.9403C6.90078 18.4168 6.60332 18.7153 6.18664 18.7153Z" fill="#FA6444"/>
<path d="M28.0242 29.3235C27.8453 29.3235 27.6671 29.2632 27.4883 29.0852L25.7631 27.3567C25.4657 27.0582 25.4657 26.5817 25.7631 26.2831C26.0606 25.9852 26.5369 25.9852 26.8337 26.2831L28.5595 28.0117C28.8575 28.3102 28.8575 28.7867 28.5595 29.0852C28.4408 29.2041 28.2024 29.3235 28.0242 29.3235Z" fill="#FA6444"/>
<path d="M9.10214 10.1926L7.37641 8.464C7.07896 8.16605 7.07896 7.68899 7.37641 7.39104C7.67387 7.09369 8.14956 7.09369 8.44761 7.39104L10.1733 9.1196C10.4702 9.41755 10.4702 9.89461 10.1733 10.1926C9.87528 10.4905 9.399 10.4905 9.10214 10.1926Z" fill="#FA6444"/>
<path d="M17.9686 13.5889C16.1839 13.5889 14.3986 13.4097 12.6728 13.0527C11.0663 12.7541 9.51883 12.2777 8.09115 11.6221C7.73408 11.4429 7.55526 11.0256 7.67448 10.6679C7.85272 10.3109 8.26939 10.1317 8.62646 10.2506C9.93551 10.847 11.3638 11.2638 12.9107 11.5624C14.5172 11.8603 16.1839 12.0394 17.909 12.0394C19.6347 12.0394 21.3009 11.8603 22.9074 11.5624C24.3952 11.2638 25.8235 10.7873 27.1916 10.2506C27.5486 10.0726 28.0249 10.2506 28.1441 10.6679C28.3224 11.0256 28.1441 11.5021 27.7275 11.6221C26.2992 12.2174 24.7523 12.6944 23.1458 13.0527C21.5387 13.4097 19.754 13.5889 17.9686 13.5889Z" fill="#FA6444"/>
<path d="M26.5976 25.6296C23.9199 24.5566 20.9448 24.0796 17.9696 24.0796C16.2439 24.0796 14.5778 24.2587 12.9713 24.5566C11.7218 24.7949 10.4718 25.1525 9.34157 25.6296C9.16274 26.2255 8.38958 26.4046 8.03251 25.9275C7.9729 25.8678 7.91329 25.7484 7.85368 25.6893C7.55622 25.2719 7.73506 24.7352 8.15114 24.5566C9.57941 23.9607 11.0673 23.4837 12.6738 23.1857C14.3995 22.8281 16.1849 22.6495 17.9696 22.6495C19.7549 22.6495 21.5397 22.8281 23.2654 23.1857C24.8719 23.4837 26.4194 23.9607 27.788 24.6163C28.2041 24.7949 28.383 25.3316 28.0855 25.8081C28.0259 25.8678 27.9663 25.9867 27.9067 26.0464C27.5496 26.4046 26.7765 26.2255 26.5976 25.6296Z" fill="#FA6444"/>
<path d="M18.0278 29.2636C19.7535 29.2045 21.4792 26.9988 22.3716 23.6617C22.8479 21.9929 23.0857 20.0255 23.0857 18.1184C23.0857 16.2113 22.8479 14.2445 22.3716 12.5757C21.4792 9.23737 19.7535 7.03233 18.0278 6.97262H17.9086C16.1834 7.03233 14.4577 9.23737 13.5647 12.5757C13.0884 14.2445 12.8512 16.2113 12.8512 18.1184C12.8512 20.0852 13.0884 21.9929 13.5647 23.6617C14.4577 27.0586 16.1834 29.2636 17.9086 29.2636C17.9086 29.2636 17.9682 29.2636 18.0278 29.2636ZM17.8489 30.7539C15.3501 30.6942 13.2077 28.1912 12.0774 24.0188C11.6012 22.2311 11.3037 20.1455 11.3037 18.0587C11.3037 15.9725 11.5416 13.946 12.0774 12.0986C13.2077 7.98587 15.3501 5.42319 17.8489 5.36407C17.9086 5.36407 17.9682 5.36407 18.0278 5.36407C20.5267 5.42319 22.6691 7.92676 23.7993 12.0986C24.8115 15.7939 24.8115 20.3234 23.7993 24.0188C22.6691 28.1315 20.5267 30.6942 18.0278 30.7539C18.0278 30.7539 17.9086 30.7539 17.8489 30.7539Z" fill="#FA6444"/>
<path d="M17.9681 30.7542C17.5514 30.7542 17.1943 30.3965 17.1943 29.9791V6.13875C17.1943 5.72139 17.5514 5.36432 17.9681 5.36432C18.3848 5.36432 18.7418 5.72139 18.7418 6.13875V29.9791C18.7418 30.4562 18.3848 30.7542 17.9681 30.7542Z" fill="#FA6444"/>
<path d="M29.8686 18.835H6.06611C5.65003 18.835 5.29297 18.4773 5.29297 18.0599C5.29297 17.6426 5.65003 17.2855 6.06611 17.2855H29.8686C30.2847 17.2855 30.6418 17.6426 30.6418 18.0599C30.6418 18.4773 30.2847 18.835 29.8686 18.835Z" fill="#FA6444"/>
<path d="M20.4682 28.9663C20.9445 28.8469 21.599 28.6683 22.0156 28.4892C22.849 28.1913 23.5625 27.7739 24.0388 27.4163L24.0984 27.3572C24.0984 27.3572 24.6934 26.9398 25.169 26.5224C30.4654 21.9332 30.2866 14.0063 25.2287 9.59569C25.169 9.53539 25.11 9.47627 25.11 9.47627C24.8716 9.29774 24.5741 8.9992 24.0984 8.70125C22.6702 7.74771 21.1233 7.15181 19.4572 6.91358C17.0769 6.67475 14.6967 7.15182 12.6139 8.2839C12.5543 8.2839 12.4952 8.34418 12.4952 8.34418C11.3048 8.99919 10.5311 9.65479 9.75732 10.5492C7.97258 12.4563 6.90139 15.0787 6.84237 17.9996C6.84237 18.0588 6.84237 18.0588 6.84237 18.1185C6.84237 25.1515 13.2684 30.5754 20.4682 28.9663ZM5.35449 18.1185C5.35449 18.0588 5.35449 18.0588 5.35449 17.9996C5.4141 10.4895 12.0189 4.70795 19.3379 5.54208C19.4572 5.54208 19.5758 5.54208 19.7546 5.60179C20.9444 5.78091 22.0753 6.07885 23.0868 6.55533C27.4307 8.46301 30.6437 12.8737 30.6437 18.1185C30.6437 24.4959 25.9428 29.801 19.7546 30.6351C11.9593 31.7075 5.35449 25.6883 5.35449 18.1185Z" fill="#FA6444"/>
</svg>
