<svg width="41" height="40" viewBox="0 0 41 40" fill="none" xmlns="http://www.w3.org/2000/svg">
<path d="M8.8042 8.80751C8.20844 9.40327 7.34731 9.46896 6.68521 9.00588C6.61887 8.93954 6.55254 8.8732 6.4862 8.80751C5.8241 8.14541 5.8241 7.08591 6.4862 6.48884C7.1483 5.8274 8.20844 5.8274 8.8042 6.48884C9.40062 7.08591 9.4663 8.14541 8.8042 8.80751Z" fill="white"/>
<path d="M4.17055 19.9984C4.17055 20.8589 3.5091 21.521 2.71431 21.6537C2.64797 21.6537 2.58164 21.6537 2.5153 21.6537C1.58849 21.6537 0.859375 20.9252 0.859375 19.9984C0.859375 19.071 1.58849 18.3425 2.5153 18.3425C2.58164 18.3425 2.64797 18.3425 2.71431 18.3425C3.5091 18.4746 4.17055 19.1373 4.17055 19.9984Z" fill="white"/>
<path d="M8.8042 31.7231C9.33428 32.2525 9.40062 33.0473 9.13525 33.6437C9.06891 33.7758 8.93688 33.9091 8.8042 34.0411C8.1421 34.7032 7.08262 34.7032 6.4862 34.0411C5.8241 33.379 5.8241 32.3195 6.4862 31.7231C6.61888 31.5904 6.7509 31.5248 6.88358 31.4584C7.48 31.1267 8.27478 31.1937 8.8042 31.7231Z" fill="white"/>
<path d="M19.9951 35.8294C20.8562 35.8294 21.5847 36.5579 21.651 37.4184V37.4854C21.651 38.4122 20.9226 39.1406 19.9951 39.1406C19.0676 39.1406 18.3398 38.4122 18.3398 37.4854V37.4184C18.4062 36.5579 19.134 35.8294 19.9951 35.8294Z" fill="white"/>
<path d="M31.1902 31.7231C31.7202 31.1937 32.5144 31.1267 33.1771 31.4584C33.3092 31.5248 33.4418 31.6568 33.5739 31.7231C34.2366 32.3852 34.2366 33.4454 33.5739 34.0411C32.9118 34.7032 31.8523 34.7032 31.2565 34.0411C31.1238 33.9091 31.0575 33.7758 30.9255 33.6437C30.5937 33.0473 30.6601 32.2525 31.1902 31.7231Z" fill="white"/>
<path d="M37.283 21.6537C36.4889 21.588 35.8268 20.8589 35.8268 19.9984C35.8268 19.1373 36.4225 18.4746 37.283 18.3425C37.35 18.3425 37.4157 18.3425 37.482 18.3425C38.4088 18.3425 39.1379 19.071 39.1379 19.9984C39.1379 20.9252 38.4088 21.6537 37.482 21.6537C37.4157 21.6537 37.35 21.6537 37.283 21.6537Z" fill="white"/>
<path d="M33.3121 8.94042C32.65 9.40416 31.7888 9.33782 31.1931 8.74206C30.5967 8.1463 30.531 7.28451 30.9941 6.62307C31.0604 6.55673 31.1267 6.48972 31.1931 6.42404C31.8552 5.76194 32.9147 5.76194 33.5111 6.42404C34.1732 7.0868 34.1732 8.1463 33.5111 8.74206C33.5111 8.87408 33.3784 8.94042 33.3121 8.94042Z" fill="white"/>
<path d="M19.9951 4.17322C19.2003 4.17322 18.5382 3.57746 18.3398 2.84836C18.3398 2.71634 18.3398 2.64999 18.3398 2.51797C18.3398 1.5905 19.0676 0.862057 19.9951 0.862057C20.9226 0.862057 21.651 1.5905 21.651 2.51797C21.651 2.64999 21.651 2.71634 21.651 2.84836C21.452 3.57746 20.7899 4.17322 19.9951 4.17322Z" fill="white"/>
<path d="M25.6955 26.4931C24.5697 30.5327 22.5164 33.3138 20.0663 33.3138H20C20 32.387 20 26.6915 20 25.8967C21.987 25.9631 23.9076 26.1621 25.6955 26.4931Z" fill="white"/>
<path d="M14.303 26.4931C15.4282 30.5327 17.4815 33.3138 19.9315 33.3138C17.5478 33.3138 15.0315 32.5861 12.8455 31.1955C12.4481 30.9301 11.786 30.4664 11.3229 30.069C11.0575 29.8706 10.7928 29.6059 10.6602 29.4732C10.1964 29.0102 9.86536 28.6121 9.53431 28.2154C9.46797 28.149 9.40228 28.0164 9.33594 27.95C10.8585 27.3543 12.5144 26.8905 14.303 26.4931Z" fill="white"/>
<path d="M19.9988 20.1321V25.9596C18.0125 25.9596 16.0919 26.1586 14.3039 26.556C13.7739 24.6354 13.5092 22.4501 13.5092 20.1321H19.9988Z" fill="white"/>
<path d="M26.5559 20.1334H33.2452C33.2452 23.1135 32.2514 25.829 30.6618 28.0143C29.1392 27.3522 27.4833 26.8885 25.7617 26.4911C26.2248 24.6368 26.5559 22.4514 26.5559 20.1334Z" fill="white"/>
<path d="M30.6595 12.1871C29.1369 12.8498 27.481 13.3129 25.7594 13.7109C24.6336 9.67067 22.5803 6.95528 20.1302 6.88959C20.1959 6.88959 20.925 6.88959 21.2561 6.95528C23.5077 7.1543 25.7594 7.94907 27.6794 9.33962C28.7395 10.0687 29.799 11.0612 30.6595 12.1871Z" fill="white"/>
<path d="M26.556 20.1302H20V14.3027C21.987 14.3027 23.9076 14.1037 25.6955 13.7069C26.2249 15.6269 26.556 17.8129 26.556 20.1302Z" fill="white"/>
<path d="M6.75134 19.9976C6.75134 17.0832 7.74516 14.3678 9.33473 12.2488C10.8573 12.9115 12.5132 13.3753 14.2355 13.772C13.7054 15.6926 13.4407 17.878 13.4407 20.1953H6.75134C6.75134 20.0633 6.75134 20.0633 6.75134 19.9976Z" fill="white"/>
<path d="M14.3033 13.7076C15.4285 9.66731 17.4818 6.88623 19.9319 6.88623H19.9982V14.3033C18.0119 14.3033 16.0913 14.1043 14.3033 13.7076Z" fill="white"/>
<path d="M20.0651 33.3789C22.5151 33.3119 24.6347 30.5972 25.6942 26.5576C27.4158 26.8886 29.0718 27.4187 30.5943 28.0808C30.5943 28.0808 30.4623 28.2135 30.396 28.3455C27.7469 31.5903 23.9063 33.3789 20.0651 33.3789Z" fill="white"/>
<path d="M19.9319 33.3789C17.4818 33.3119 15.3622 30.5972 14.3033 26.5576C16.0913 26.1602 18.0119 25.9611 19.9982 25.9611C19.9982 26.7559 19.9982 32.4514 19.9982 33.3789H19.9319Z" fill="white"/>
<path d="M20 20.1321H26.556C26.556 22.4501 26.2913 24.6354 25.7619 26.556C23.9733 26.1586 22.0533 25.9596 20.0663 25.9596L20 20.1321Z" fill="white"/>
<path d="M13.4407 20.1323C13.4407 22.4503 13.7054 24.6356 14.2355 26.5562C12.5132 26.8873 10.8573 27.4174 9.33473 28.0795C7.67882 25.8935 6.75134 23.1124 6.75134 20.198H13.4407V20.1323Z" fill="white"/>
<path d="M33.2452 20.1302H26.5559C26.5559 17.8129 26.2911 15.6269 25.7617 13.7069C27.4833 13.3759 29.1392 12.8458 30.6618 12.1831C32.3177 14.5017 33.2452 17.2165 33.2452 20.1302Z" fill="white"/>
<path d="M20 14.3027V20.1302H13.444C13.444 17.8129 13.7087 15.6269 14.2388 13.7069C16.093 14.1037 18.0137 14.3027 20 14.3027Z" fill="white"/>
<path d="M20.0663 6.88623C22.5164 6.95192 24.5697 9.73365 25.6955 13.7076C23.9076 14.1043 21.987 14.3033 20 14.3033V6.88623H20.0663Z" fill="white"/>
<path d="M12.3161 9.33962C14.5671 7.75005 17.2825 6.88959 19.8652 6.88959C17.4152 6.95528 15.2962 9.67067 14.2367 13.7109C12.5144 13.3799 10.8585 12.8498 9.33594 12.1871C10.1964 11.1276 11.1902 10.1344 12.3161 9.33962Z" fill="white"/>
<path d="M20.0018 36.6862C19.538 36.6862 19.1406 36.2881 19.1406 35.825V33.308C19.1406 32.8449 19.538 32.4475 20.0018 32.4475C20.4655 32.4475 20.8629 32.8449 20.8629 33.308V35.825C20.8629 36.2881 20.4655 36.6862 20.0018 36.6862Z" fill="#24908D"/>
<path d="M33.1773 32.2526C32.9783 32.2526 32.7799 32.1869 32.6472 32.0542C32.3162 31.7225 32.2498 31.2594 32.5809 30.862C34.8325 28.2136 36.2237 24.9681 36.5548 21.5243C36.6205 21.0612 37.0179 20.7295 37.4816 20.7965C37.9453 20.8622 38.2764 21.2596 38.2101 21.7233C37.879 25.5639 36.3558 29.0741 33.9057 31.9879C33.641 32.1869 33.3756 32.2526 33.1773 32.2526Z" fill="#24908D"/>
<path d="M21.6562 38.28C21.2588 38.28 20.8614 37.9489 20.8614 37.5522C20.795 37.0878 21.1261 36.6911 21.5898 36.6241C24.8346 36.293 27.8811 35.1015 30.3975 33.0482C30.7285 32.7835 31.2586 32.8498 31.5897 33.1809C31.8544 33.5119 31.788 34.042 31.457 34.373C28.6759 36.6241 25.2984 38.0153 21.7882 38.3463C21.7225 38.28 21.6562 38.28 21.6562 38.28Z" fill="#24908D"/>
<path d="M18.3449 38.2748H18.2779C14.702 37.9437 11.3909 36.5532 8.60979 34.3015C8.27874 34.0368 8.2124 33.5067 8.47711 33.11C8.74182 32.712 9.27188 32.7119 9.66928 32.9767C12.1857 35.03 15.2321 36.2878 18.4769 36.5532C18.9407 36.6189 19.2717 37.0169 19.2054 37.4806C19.139 37.9437 18.7423 38.2748 18.3449 38.2748Z" fill="#24908D"/>
<path d="M6.82326 32.2526C6.55789 32.2526 6.35953 32.1869 6.22685 31.9879C3.71047 29.0741 2.25358 25.4982 1.92253 21.7233C1.85619 21.2596 2.18723 20.8622 2.65096 20.7965C3.1147 20.7295 3.5121 21.0612 3.57778 21.5243C3.90949 24.9681 5.23369 28.2136 7.55105 30.862C7.88276 31.1937 7.81641 31.7225 7.48536 32.0542C7.22065 32.1869 7.02162 32.2526 6.82326 32.2526Z" fill="#24908D"/>
<path d="M2.71731 19.2057H2.65096C2.18723 19.1393 1.85619 18.7419 1.92253 18.2782C2.31992 14.636 3.71047 11.2585 6.09482 8.4104C6.35953 8.07935 6.88894 8.01366 7.28634 8.27837C7.61804 8.54308 7.68373 9.07315 7.41902 9.46988C5.30003 12.0533 3.97517 15.0997 3.64412 18.4109C3.5121 18.8746 3.1147 19.2057 2.71731 19.2057Z" fill="#24908D"/>
<path d="M8.34205 7.21711C8.07734 6.88606 8.07734 6.35599 8.47473 6.02494C11.3228 3.70693 14.6997 2.31638 18.3425 1.98533C18.8056 1.91899 19.203 2.25005 19.2693 2.71378C19.3357 3.17686 19.0046 3.5749 18.5409 3.64058C15.2297 3.97164 12.1833 5.23015 9.60056 7.3498C9.13683 7.61451 8.60741 7.54816 8.34205 7.21711Z" fill="#24908D"/>
<path d="M30.465 7.28109C27.8823 5.16275 24.8358 3.90424 21.5246 3.57319C21.0609 3.50685 20.7298 3.10946 20.7962 2.64573C20.8625 2.18265 21.2599 1.85159 21.7237 1.91728C25.3659 2.24833 28.7434 3.63888 31.5908 5.95755C31.9219 6.2216 31.9882 6.75168 31.7235 7.14907C31.3918 7.54647 30.8624 7.61279 30.465 7.28109Z" fill="#24908D"/>
<path d="M37.2861 19.2052C36.8893 19.2052 36.492 18.8741 36.492 18.4761C36.1609 15.1649 34.836 12.1191 32.7171 9.53639C32.4523 9.20468 32.4523 8.67527 32.8497 8.34422C33.1808 8.07885 33.7102 8.07885 34.0413 8.4769C36.3593 11.258 37.8162 14.7012 38.2135 18.3441C38.2799 18.8071 37.9488 19.2052 37.4851 19.2709C37.3531 19.2052 37.3531 19.2052 37.2861 19.2052Z" fill="#24908D"/>
<path d="M19.9969 1.65623C19.5331 1.65623 19.1357 2.05297 19.1357 2.51736C19.1357 2.58305 19.1357 2.64939 19.1357 2.64939C19.2021 3.04678 19.5331 3.31214 19.9305 3.31214C20.3279 3.31214 20.659 3.04678 20.7253 2.64939C20.7253 2.58305 20.7253 2.51736 20.7253 2.51736C20.858 2.05297 20.4606 1.65623 19.9969 1.65623ZM19.9969 4.96741C18.8047 4.96741 17.8115 4.10628 17.5468 2.9811C17.5468 2.84776 17.4805 2.64939 17.4805 2.51736C17.4805 1.12616 18.6063 0.000321865 19.9969 0.000321865C21.3874 0.000321865 22.5132 1.12616 22.5132 2.51736C22.5132 2.64939 22.5132 2.84776 22.4469 2.9811C22.1822 4.10628 21.189 4.96741 19.9969 4.96741Z" fill="#24908D"/>
<path d="M19.2021 37.4836C19.2021 37.9467 19.5995 38.2777 20.0632 38.2777C20.5269 38.2777 20.858 37.8804 20.858 37.4836V37.4166C20.858 36.9536 20.4606 36.6218 20.0632 36.6218C19.6658 36.6218 19.2021 37.0199 19.2021 37.4836ZM19.9969 40C18.6063 40 17.4805 38.8742 17.4805 37.4836C17.4805 37.4166 17.4805 37.4166 17.4805 37.3509C17.5468 36.0261 18.6063 34.9666 19.9305 34.9666C21.2554 34.9666 22.3149 36.0261 22.3812 37.3509C22.3812 37.4166 22.3812 37.4166 22.3812 37.4836C22.5132 38.8742 21.3874 40 19.9969 40Z" fill="#24908D"/>
<path d="M32.3829 6.75733C32.1839 6.75733 31.9855 6.82367 31.7865 7.02204C31.7865 7.02204 31.7208 7.08904 31.7208 7.15472C31.3234 7.6848 31.7208 8.47958 32.3829 8.47958C32.5813 8.47958 32.7139 8.41258 32.8466 8.34689C32.9123 8.28055 32.9123 8.28055 32.9786 8.28055C33.3097 7.9495 33.3097 7.41943 32.9786 7.08904C32.7803 6.89001 32.5813 6.75733 32.3829 6.75733ZM30.5943 9.34004C29.7338 8.47957 29.6011 7.15472 30.3296 6.16091C30.3959 6.02888 30.5286 5.89619 30.5943 5.83051C31.058 5.36678 31.6544 5.10142 32.3165 5.10142C32.9786 5.10142 33.5744 5.36678 34.1045 5.83051C35.0976 6.82366 35.0976 8.34689 34.1045 9.34004C34.0381 9.40638 33.9061 9.53907 33.7734 9.60541C32.7803 10.3339 31.4554 10.2012 30.5943 9.34004Z" fill="#24908D"/>
<path d="M7.21996 32.1861C7.15296 32.2518 7.08728 32.2518 7.02094 32.3188C6.68989 32.6499 6.68989 33.1793 7.02094 33.5103C7.15296 33.643 7.35199 33.775 7.61736 33.775C7.81573 33.775 8.0141 33.7094 8.21312 33.5103C8.54417 33.1793 8.54417 32.6499 8.21312 32.3188C7.94776 32.0535 7.55036 31.9871 7.21996 32.1861ZM7.61736 35.3646C6.9546 35.3646 6.35884 35.0999 5.82877 34.6362C4.63659 33.4447 4.90196 31.524 6.35885 30.7292C7.28566 30.1992 8.47783 30.3312 9.33895 31.126C10.1337 31.9208 10.2658 33.0466 9.80269 34.0404C9.67001 34.3051 9.53732 34.5041 9.33895 34.7025C8.87522 35.0999 8.27946 35.3646 7.61736 35.3646Z" fill="#24908D"/>
<path d="M37.4826 19.1367C37.4826 19.1367 37.4163 19.1367 37.3506 19.1367C36.9532 19.2031 36.6215 19.5341 36.6215 19.9315C36.6215 20.3289 36.9532 20.7256 37.3506 20.7256C37.4163 20.7256 37.4163 20.7256 37.4163 20.7256C37.88 20.7256 38.2774 20.3289 38.2774 19.8651C38.2774 19.4021 37.9464 19.1367 37.4826 19.1367ZM37.4826 22.4479C37.4163 22.4479 37.2836 22.4479 37.2179 22.4479C35.9594 22.3152 35.0326 21.2557 35.0326 19.9978C35.0326 18.7393 35.9594 17.6792 37.2179 17.5471C37.3506 17.5471 37.4163 17.5471 37.549 17.5471C38.9395 17.5471 40.0654 18.673 40.0654 20.0635C40.0654 21.4547 38.8732 22.4479 37.4826 22.4479Z" fill="#24908D"/>
<path d="M2.51638 19.1367C2.05265 19.1367 1.65525 19.5341 1.65525 19.9978C1.65525 20.4609 2.05265 20.8583 2.51638 20.8583H2.58273C2.98012 20.7926 3.31116 20.4609 3.31116 20.0635C3.31116 19.6668 2.98012 19.2687 2.58273 19.2687C2.58273 19.1367 2.51638 19.1367 2.51638 19.1367ZM2.51638 22.4479C1.12584 22.4479 0 21.322 0 19.9315C0 18.5403 1.12584 17.4144 2.51638 17.4144C2.64907 17.4144 2.7154 17.4144 2.84742 17.4144C4.10594 17.5471 5.03275 18.6073 5.03275 19.8651C5.03275 21.1237 4.10594 22.1832 2.84742 22.3152C2.7154 22.4479 2.58273 22.4479 2.51638 22.4479Z" fill="#24908D"/>
<path d="M32.386 32.0534C32.187 32.0534 31.9886 32.1198 31.7896 32.3188C31.5249 32.5835 31.4585 32.9803 31.6576 33.2456C31.7239 33.3113 31.7239 33.3783 31.7896 33.4446C31.9223 33.5767 32.187 33.7094 32.386 33.7094C32.5844 33.7094 32.7834 33.643 32.9818 33.4446C33.3128 33.1136 33.3128 32.5835 32.9818 32.2518C32.9154 32.1861 32.8497 32.1198 32.7834 32.1198C32.6507 32.1198 32.518 32.0534 32.386 32.0534ZM32.386 35.3646C31.7239 35.3646 31.1275 35.0999 30.5974 34.6362C30.399 34.4378 30.2664 34.2388 30.1343 33.9741C29.2732 32.3188 30.5317 30.3982 32.3197 30.3982C32.7171 30.3982 33.1808 30.5302 33.5118 30.7292C33.7102 30.8613 33.9092 30.994 34.0413 31.126C35.0351 32.1198 35.0351 33.643 34.0413 34.6362C33.6445 35.0999 33.0481 35.3646 32.386 35.3646Z" fill="#24908D"/>
<path d="M7.61805 6.75852C7.41903 6.75852 7.22065 6.82486 7.02163 7.02323C6.69058 7.35493 6.69058 7.885 7.02163 8.2154C7.02163 8.2154 7.08797 8.28174 7.15366 8.28174C7.28634 8.41377 7.48537 8.41377 7.61805 8.41377C8.28015 8.41377 8.6769 7.68599 8.28016 7.09023C8.28016 7.02323 8.21382 7.02323 8.21382 6.95689C8.08113 6.8912 7.81642 6.75852 7.61805 6.75852ZM7.61805 10.0703C7.08798 10.0703 6.62425 9.93765 6.16051 9.6066C6.02849 9.54025 5.96214 9.40757 5.82946 9.34123C4.83631 8.34807 4.83631 6.82485 5.82946 5.8317C6.29319 5.36796 6.88895 5.10261 7.61805 5.10261C8.41218 5.10261 9.14062 5.50065 9.6707 6.16209C10.3328 7.1559 10.2665 8.48076 9.40599 9.34123C8.6112 10.136 7.61805 10.0703 7.61805 10.0703Z" fill="#24908D"/>
<path d="M20.0018 7.68225C19.538 7.68225 19.1406 7.28421 19.1406 6.82113V4.10572C19.1406 3.64199 19.538 3.24525 20.0018 3.24525C20.4655 3.24525 20.8629 3.64199 20.8629 4.10572V6.82113C20.8629 7.35121 20.4655 7.68225 20.0018 7.68225Z" fill="#24908D"/>
<path d="M28.6727 11.3273C28.3417 10.9962 28.3417 10.4662 28.6727 10.1351L30.5927 8.21448C30.9244 7.88409 31.4538 7.88409 31.7849 8.21448C32.1166 8.54553 32.1166 9.0756 31.7849 9.40665L29.8642 11.3273C29.5338 11.6583 29.0038 11.6583 28.6727 11.3273Z" fill="#24908D"/>
<path d="M8.21057 32.3168C7.87952 31.9851 7.87952 31.4557 8.21057 31.1239L10.1312 29.2033C10.4616 28.8723 10.9917 28.8723 11.3234 29.2033C11.6538 29.535 11.6538 30.0644 11.3234 30.3962L9.40274 32.3168C9.07103 32.6478 8.54162 32.6478 8.21057 32.3168Z" fill="#24908D"/>
<path d="M35.8291 20.7943H33.1137C32.6499 20.7943 32.2526 20.3963 32.2526 19.9332C32.2526 19.4694 32.6499 19.0721 33.1137 19.0721H35.8291C36.2922 19.0721 36.6896 19.4694 36.6896 19.9332C36.6896 20.4626 36.2922 20.7943 35.8291 20.7943Z" fill="#24908D"/>
<path d="M6.88312 20.7943H4.16773C3.70465 20.7943 3.30725 20.3963 3.30725 19.9332C3.30725 19.4694 3.70465 19.0721 4.16773 19.0721H6.88312C7.34686 19.0721 7.74426 19.4694 7.74426 19.9332C7.67791 20.4626 7.34686 20.7943 6.88312 20.7943Z" fill="#24908D"/>
<path d="M31.1891 32.5846C30.9901 32.5846 30.7917 32.5176 30.5927 32.3199L28.6727 30.3993C28.3417 30.0676 28.3417 29.5381 28.6727 29.2064C29.0038 28.8754 29.5338 28.8754 29.8642 29.2064L31.7849 31.1271C32.1166 31.4588 32.1166 31.9882 31.7849 32.3199C31.6528 32.4519 31.3875 32.5846 31.1891 32.5846Z" fill="#24908D"/>
<path d="M10.1312 11.3273L8.21057 9.40665C7.87952 9.0756 7.87952 8.54553 8.21057 8.21448C8.54162 7.88409 9.07103 7.88409 9.40274 8.21448L11.3234 10.1351C11.6538 10.4662 11.6538 10.9962 11.3234 11.3273C10.9917 11.6583 10.4616 11.6583 10.1312 11.3273Z" fill="#24908D"/>
<path d="M20.0002 15.0977C18.0139 15.0977 16.027 14.8986 14.1063 14.5019C12.3184 14.1702 10.5961 13.6408 9.00723 12.9123C8.60984 12.7133 8.41082 12.2496 8.54351 11.8522C8.74187 11.4554 9.2056 11.2564 9.60299 11.3884C11.0599 12.0512 12.6495 12.5143 14.3711 12.846C16.159 13.177 18.0139 13.376 19.9339 13.376C21.8545 13.376 23.7088 13.177 25.4967 12.846C27.1526 12.5143 28.7422 11.9848 30.2648 11.3884C30.6622 11.1907 31.1922 11.3884 31.3249 11.8522C31.5233 12.2496 31.3249 12.779 30.8612 12.9123C29.2716 13.5738 27.55 14.1038 25.7621 14.5019C23.9735 14.8986 21.9872 15.0977 20.0002 15.0977Z" fill="#24908D"/>
<path d="M29.5993 28.4797C26.6192 27.2875 23.3081 26.7575 19.9969 26.7575C18.0763 26.7575 16.222 26.9565 14.4341 27.2876C13.0435 27.5523 11.6523 27.9497 10.3944 28.4797C10.1954 29.1418 9.33494 29.3409 8.93755 28.8108C8.8712 28.7444 8.80486 28.6118 8.73852 28.5461C8.40747 28.0823 8.60649 27.4859 9.06957 27.2876C10.6591 26.6255 12.3151 26.0954 14.103 25.7643C16.0236 25.3669 18.0106 25.1686 19.9969 25.1686C21.9838 25.1686 23.9702 25.3669 25.8908 25.7643C27.6787 26.0954 29.401 26.6254 30.9242 27.3539C31.3873 27.5522 31.5863 28.1487 31.2552 28.6781C31.1889 28.7444 31.1226 28.8765 31.0562 28.9428C30.6588 29.3409 29.7984 29.1418 29.5993 28.4797Z" fill="#24908D"/>
<path d="M20.068 32.5173C21.9887 32.4516 23.9093 30.0009 24.9024 26.293C25.4325 24.4387 25.6972 22.2528 25.6972 20.1338C25.6972 18.0148 25.4325 15.8295 24.9024 13.9752C23.9093 10.266 21.9887 7.81591 20.068 7.74957H19.9354C18.0154 7.81591 16.0948 10.266 15.101 13.9752C14.5709 15.8295 14.3068 18.0148 14.3068 20.1338C14.3068 22.3191 14.5709 24.4387 15.101 26.293C16.0948 30.0673 18.0154 32.5173 19.9354 32.5173C19.9354 32.5173 20.0017 32.5173 20.068 32.5173ZM19.869 34.1732C17.0879 34.1069 14.7036 31.3258 13.4457 26.6898C12.9156 24.7035 12.5846 22.3861 12.5846 20.0674C12.5846 17.7494 12.8493 15.4977 13.4457 13.4451C14.7036 8.87541 17.0879 6.02798 19.869 5.96229C19.9354 5.96229 20.0017 5.96229 20.068 5.96229C22.8491 6.02798 25.2335 8.80972 26.4914 13.4451C27.6179 17.551 27.6179 22.5838 26.4914 26.6898C25.2335 31.2594 22.8491 34.1069 20.068 34.1732C20.068 34.1732 19.9354 34.1732 19.869 34.1732Z" fill="#24908D"/>
<path d="M20.0018 34.1732C19.538 34.1732 19.1406 33.7758 19.1406 33.3121V6.82277C19.1406 6.35904 19.538 5.96229 20.0018 5.96229C20.4655 5.96229 20.8629 6.35904 20.8629 6.82277V33.3121C20.8629 33.8422 20.4655 34.1732 20.0018 34.1732Z" fill="#24908D"/>
<path d="M33.2431 20.9244H6.75243C6.28935 20.9244 5.89197 20.527 5.89197 20.0633C5.89197 19.5996 6.28935 19.2028 6.75243 19.2028H33.2431C33.7062 19.2028 34.1036 19.5996 34.1036 20.0633C34.1036 20.527 33.7062 20.9244 33.2431 20.9244Z" fill="#24908D"/>
<path d="M22.7776 32.1875C23.3077 32.0548 24.0361 31.8564 24.4998 31.6574C25.4273 31.3264 26.2214 30.8626 26.7515 30.4652L26.8178 30.3996C26.8178 30.3996 27.4799 29.9358 28.0094 29.4721C33.9039 24.373 33.7049 15.5653 28.0757 10.6646C28.0094 10.5976 27.9437 10.5319 27.9437 10.5319C27.6783 10.3335 27.3472 10.0018 26.8178 9.67077C25.2283 8.61127 23.5067 7.94917 21.6524 7.68446C19.0033 7.4191 16.3543 7.94918 14.0363 9.20705C13.9699 9.20705 13.9042 9.27403 13.9042 9.27403C12.5794 10.0018 11.7182 10.7303 10.8571 11.7241C8.8708 13.8431 7.67862 16.7568 7.61294 20.0023C7.61294 20.068 7.61294 20.068 7.61294 20.1343C7.61294 27.9489 14.7647 33.9754 22.7776 32.1875ZM5.95703 20.1343C5.95703 20.068 5.95703 20.068 5.95703 20.0023C6.02337 11.6577 13.3741 5.23377 21.5197 6.16058C21.6524 6.16058 21.7844 6.16058 21.9834 6.22692C23.3076 6.42595 24.5662 6.75699 25.692 7.28641C30.5264 9.40606 34.1023 14.3068 34.1023 20.1343C34.1023 27.2204 28.8705 33.115 21.9834 34.0418C13.3078 35.2333 5.95703 28.5453 5.95703 20.1343Z" fill="#24908D"/>
</svg>
