<svg width="39" height="36" viewBox="0 0 39 36" fill="none" xmlns="http://www.w3.org/2000/svg">
<path d="M7.26148 26.2654C3.80408 26.2654 0.96875 23.1837 0.96875 19.6817C0.96875 16.6695 3.11204 14.0783 5.87878 13.4482C5.87878 13.3781 5.87878 13.378 5.87878 13.3079C5.87878 9.80592 8.71343 6.93404 12.1708 6.93404C12.9314 6.93404 13.6235 7.07435 14.3148 7.28484C15.2826 3.92251 18.3943 1.47093 22.0595 1.47093C26.4847 1.47093 30.1499 4.90273 30.1499 9.45577C34.575 9.45577 38.2402 13.3079 38.2402 17.7908C38.2402 22.273 34.6443 26.2654 30.1499 26.2654C29.8042 26.2654 27.7295 26.2654 27.7295 26.2654H7.26148Z" fill="#3E50F8" fill-opacity="0.2"/>
<path d="M23.4419 26.335V32.7783C23.4419 34.0398 22.4049 35.0902 21.1601 35.0902H11.8942C10.6493 35.0902 9.6123 34.0398 9.6123 32.7783V26.335V23.3936C9.6123 22.132 10.6493 21.0816 11.8942 21.0816H21.1601C22.4049 21.0816 23.4419 22.132 23.4419 23.3936V26.335Z" fill="#3E4BF8"/>
<path d="M5.32377 0.980198C6.2922 0.980198 7.05212 1.75063 7.05212 2.73154C7.05212 3.71246 6.2922 4.48218 5.32377 4.48218C4.35534 4.48218 3.59473 3.71246 3.59473 2.73154C3.59473 1.75063 4.35534 0.980198 5.32377 0.980198Z" fill="#3E4BF8"/>
<path d="M35.5421 0.909765C36.9933 0.909765 38.1703 2.10118 38.1703 3.57115C38.1703 5.04113 36.9933 6.23254 35.5421 6.23254C34.0908 6.23254 32.9146 5.04113 32.9146 3.57115C32.9146 2.10118 34.0908 0.909765 35.5421 0.909765Z" fill="#3E4BF8"/>
<path d="M23.8571 13.307C23.65 13.307 23.4422 13.2368 23.3043 13.0972C22.958 12.8165 22.8894 12.2566 23.1658 11.8363C24.8256 9.80503 27.3145 8.61432 29.8735 8.61432C30.357 8.61432 30.772 9.03461 30.772 9.52506C30.772 10.0155 30.357 10.4351 29.8735 10.4351C27.7988 10.4351 25.7933 11.3459 24.4799 13.027C24.4106 13.1667 24.1335 13.307 23.8571 13.307Z" fill="#3E4BF8"/>
<path d="M10.7179 15.7595C10.5101 15.7595 10.303 15.6894 10.1651 15.5497C9.05816 14.5688 7.53693 14.1485 6.08497 14.2889C5.60076 14.3583 5.18583 14.0082 5.11724 13.5177C5.04797 13.028 5.39363 12.6077 5.87784 12.5375C7.81333 12.2576 9.7502 12.8876 11.2714 14.1485C11.6171 14.4285 11.6864 14.9891 11.34 15.4094C11.2022 15.6894 10.9943 15.7595 10.7179 15.7595Z" fill="#3E4BF8"/>
<path d="M26.3466 27.2463C26.0009 27.2463 25.6552 27.0358 25.5167 26.6857C25.3096 26.2654 25.586 25.7055 26.0009 25.5652C32.3622 22.9038 31.1174 18.0006 31.0488 17.7908C30.9103 17.3004 31.1867 16.8099 31.6709 16.7397C32.1551 16.6001 32.6393 16.8801 32.7079 17.3705C32.7079 17.4407 33.1921 19.1212 32.6393 21.1525C32.1551 23.0441 30.7025 25.5652 26.6923 27.2463C26.5537 27.1762 26.4844 27.2463 26.3466 27.2463Z" fill="#3E4BF8"/>
<path d="M30.0796 27.2463C29.7339 27.2463 27.7285 27.2463 27.6592 27.2463H23.4412C22.957 27.2463 22.6113 26.826 22.5421 26.4057C22.5421 25.9153 22.957 25.495 23.3719 25.495H27.5906C27.5906 25.495 29.6647 25.495 30.011 25.495C33.8834 25.495 37.2022 21.993 37.2022 17.9304C37.2022 13.8685 33.8834 10.4361 30.011 10.4361C29.5268 10.4361 29.1119 10.0158 29.1119 9.52599C29.1119 5.53357 25.9309 2.4519 21.92 2.4519C18.739 2.4519 15.9043 4.55266 15.0052 7.63503C14.9359 7.84483 14.7974 8.05532 14.5902 8.19496C14.3824 8.33529 14.106 8.33529 13.8989 8.26512C13.3454 8.05532 12.7233 7.91499 12.032 7.91499C9.0581 7.91499 6.63772 10.3666 6.63772 13.3781V13.4483V13.5177C6.63772 13.9387 6.36131 14.2888 5.94637 14.3583C3.4574 14.9189 1.72835 17.16 1.72835 19.6818C1.72835 22.7635 4.21802 25.4248 7.12194 25.4248C7.19121 25.4248 8.78171 25.4248 9.54233 25.495C10.0265 25.495 10.3722 25.9153 10.3722 26.4057C10.3722 26.8962 9.95727 27.2463 9.47306 27.2463C8.64317 27.2463 7.19121 27.1762 7.12194 27.1762C3.24959 27.1762 0 23.7437 0 19.6818C0 18.0006 0.552796 16.3896 1.5905 15.1294C2.48897 14.0784 3.66454 13.2378 4.90937 12.8175C5.18577 9.10571 8.29749 6.0935 12.032 6.0935C12.5848 6.0935 13.069 6.16367 13.6225 6.30399C14.2446 4.83332 15.2123 3.50228 16.5264 2.52207C18.1169 1.33066 19.9145 0.700572 21.92 0.700572C24.3404 0.700572 26.5529 1.61131 28.2127 3.22231C29.7339 4.69298 30.6331 6.58396 30.771 8.68542C32.8457 8.89522 34.7818 9.80597 36.2338 11.417C37.8936 13.1676 38.8613 15.4795 38.8613 17.861C38.9999 22.9038 34.9204 27.2463 30.0796 27.2463Z" fill="#3E4BF8"/>
<path d="M11.8929 21.9921C11.1323 21.9921 10.441 22.6222 10.441 23.4628V32.8481C10.441 33.6186 11.063 34.3188 11.8929 34.3188H21.1588C21.9194 34.3188 22.6108 33.6887 22.6108 32.8481V23.3933C22.6108 22.6222 21.9887 21.922 21.1588 21.922H11.8929V21.9921ZM21.1588 36H11.8929C10.1646 36 8.71191 34.5988 8.71191 32.778V23.3933C8.71191 21.642 10.0946 20.1706 11.8929 20.1706H21.1588C22.8879 20.1706 24.3398 21.5718 24.3398 23.3933V32.778C24.3398 34.5293 22.8879 36 21.1588 36Z" fill="#3E4BF8"/>
<path d="M16.5251 33.3379C16.0409 33.3379 15.626 32.9183 15.626 32.4272V24.5826C15.626 24.0922 16.0409 23.6726 16.5251 23.6726C17.0093 23.6726 17.4243 24.0922 17.4243 24.5826V32.4973C17.4243 32.9183 17.0093 33.3379 16.5251 33.3379Z" fill="url(#paint0_linear_10757_1433)"/>
<path d="M19.1525 28.085C18.9454 28.085 18.7375 28.0156 18.5304 27.8051L16.525 25.8439L14.5195 27.8752C14.1739 28.2253 13.6211 28.2253 13.2754 27.8752C12.929 27.5251 12.929 26.9645 13.2754 26.6143L15.9029 23.953C16.2486 23.6028 16.8014 23.6028 17.1477 23.953L19.7753 26.6143C20.1209 26.9645 20.1209 27.5251 19.7753 27.8752C19.5674 28.0156 19.3603 28.085 19.1525 28.085Z" fill="url(#paint1_linear_10757_1433)"/>
<path d="M5.32479 1.82079C4.84057 1.82079 4.42562 2.24109 4.42562 2.73155C4.42562 3.222 4.84057 3.64229 5.32479 3.64229C5.80831 3.64229 6.22325 3.222 6.22325 2.73155C6.15466 2.24109 5.73973 1.82079 5.32479 1.82079ZM5.32479 5.32275C3.87283 5.32275 2.69727 4.13275 2.69727 2.66138C2.69727 1.19071 3.87283 -7.80121e-06 5.32479 -7.80121e-06C6.77674 -7.80121e-06 7.95229 1.19071 7.95229 2.66138C7.95229 4.13275 6.70816 5.32275 5.32479 5.32275Z" fill="#3E4BF8"/>
<path d="M35.5428 1.81981C34.5744 1.81981 33.8138 2.59023 33.8138 3.57114C33.8138 4.55136 34.5744 5.32177 35.5428 5.32177C36.5113 5.32177 37.2719 4.55136 37.2719 3.57114C37.2719 2.59023 36.5113 1.81981 35.5428 1.81981ZM35.5428 7.07312C33.6067 7.07312 32.0854 5.53227 32.0854 3.57114C32.0854 1.61001 33.6067 0.0691774 35.5428 0.0691774C37.479 0.0691774 39.0003 1.61001 39.0003 3.57114C39.0003 5.53227 37.479 7.07312 35.5428 7.07312Z" fill="#3E4BF8"/>
<defs>
<linearGradient id="paint0_linear_10757_1433" x1="15.626" y1="28.5052" x2="17.4243" y2="28.5052" gradientUnits="userSpaceOnUse">
<stop stop-color="#3B32F6"/>
<stop offset="1" stop-color="#49A6FF"/>
</linearGradient>
<linearGradient id="paint1_linear_10757_1433" x1="13.0156" y1="25.9141" x2="20.0345" y2="25.9141" gradientUnits="userSpaceOnUse">
<stop stop-color="#3B32F6"/>
<stop offset="1" stop-color="#49A6FF"/>
</linearGradient>
</defs>
</svg>
