<svg width="35" height="36" viewBox="0 0 35 36" fill="none" xmlns="http://www.w3.org/2000/svg">
<path d="M24.8496 30.6921H31.8877V33.0106H24.8496V30.6921Z" fill="#3D40F7"/>
<path d="M24.3514 22.2712L7.10034 22.0273H6.4771C6.41533 22.0273 6.41531 22.0273 6.35292 22.0273C3.23911 22.0273 0.685547 19.526 0.685547 16.4746C0.685547 13.851 2.61586 11.5936 5.10703 11.0441C5.10703 10.9836 5.10703 10.9836 5.10703 10.9218C5.10703 7.87101 7.6606 5.3691 10.7744 5.3691C11.4594 5.3691 12.0821 5.49196 12.7047 5.67473C13.5769 2.74554 16.38 0.610369 19.6798 0.610369C23.6658 0.610369 26.9667 3.60009 26.9667 7.56599C30.9521 7.56599 34.2531 10.9218 34.2531 14.8272C34.2531 18.732 30.8903 22.2712 26.9043 22.2712C26.593 22.2712 26.0946 22.2712 25.5343 22.2712H24.3514Z" fill="#3D41F7" fill-opacity="0.2"/>
<path d="M24.8496 32.9493H31.8877V35.2678H24.8496V32.9493Z" fill="#3D40F7"/>
<path d="M31.8253 28.373V30.6915H24.8496V28.373H28.3377H31.8253Z" fill="#3D40F7"/>
<path d="M14.6973 32.9493H21.7341V35.2678H14.6973V32.9493Z" fill="#3D40F7"/>
<path d="M14.6973 30.6921H21.7341V33.0106H14.6973V30.6921Z" fill="#3D40F7"/>
<path d="M21.7341 28.373V30.6915H14.6973V28.373H18.1848H21.7341Z" fill="#3D40F7"/>
<path d="M4.6084 32.9493H11.6452V35.2678H4.6084V32.9493Z" fill="#3D40F7"/>
<path d="M4.6084 30.6921H11.6452V33.0106H4.6084V30.6921Z" fill="#3D40F7"/>
<path d="M11.5834 28.373V30.6915H4.6084V28.373H8.09531H11.5834Z" fill="#3D40F7"/>
<path d="M18.1828 29.1666C17.7467 29.1666 17.373 28.7999 17.373 28.3732V22.2709C17.373 21.8443 17.7467 21.4781 18.1828 21.4781C18.6183 21.4781 18.9926 21.8443 18.9926 22.2709V28.3732C18.9926 28.7999 18.6183 29.1666 18.1828 29.1666Z" fill="#3D40F7"/>
<path d="M21.2979 10.9219C21.1114 10.9219 20.9242 10.8614 20.8001 10.7391C20.4887 10.4952 20.4257 10.0068 20.6753 9.64066C22.1695 7.87105 24.4117 6.83372 26.7164 6.83372C27.1518 6.83372 27.5255 7.20048 27.5255 7.62715C27.5255 8.05442 27.1518 8.42056 26.7164 8.42056C24.8472 8.42056 23.0417 9.21399 21.8588 10.678C21.7964 10.8002 21.5475 10.9219 21.2979 10.9219Z" fill="#3D40F7"/>
<path d="M9.46663 13.0566C9.27946 13.0566 9.09293 12.9961 8.96815 12.8739C7.97181 12.0199 6.60176 11.6532 5.29409 11.7754C4.85799 11.8365 4.4849 11.5315 4.42189 11.1043C4.36012 10.677 4.67082 10.3108 5.10691 10.2503C6.85129 10.0058 8.59443 10.5553 9.9651 11.6532C10.2764 11.8971 10.3382 12.3855 10.0269 12.7522C9.90271 12.9961 9.71556 13.0566 9.46663 13.0566Z" fill="#3D40F7"/>
<path d="M24.3496 23.0653C24.0377 23.0653 23.7888 22.882 23.664 22.6381C23.4774 22.2713 23.664 21.7829 24.0377 21.6613C26.4671 20.6851 27.9613 19.2205 28.4598 17.3292C28.8335 15.9869 28.5222 14.8884 28.5222 14.8884C28.3974 14.4612 28.6463 14.0345 29.0824 13.9734C29.5185 13.8511 29.954 14.095 30.0164 14.5223C30.0164 14.5834 30.4525 16.048 29.954 17.8176C29.5185 19.4644 28.2102 21.6613 24.5979 23.1259C24.5979 23.1259 24.5979 23.1259 24.5362 23.1259C24.5362 23.0036 24.4114 23.0653 24.3496 23.0653Z" fill="#3D40F7"/>
<path d="M25.5338 21.5392H26.9038C30.3913 21.5392 33.381 18.4884 33.381 14.9492C33.381 11.4105 30.3913 8.42082 26.9038 8.42082C26.4683 8.42082 26.094 8.05468 26.094 7.62741C26.094 4.1499 23.2291 1.46461 19.6175 1.46461C16.7526 1.46461 14.199 3.29536 13.3898 5.98004C13.3274 6.16342 13.2027 6.34618 13.0161 6.46843C12.8289 6.59008 12.58 6.59008 12.3929 6.52895C11.895 6.34618 11.3347 6.22393 10.7121 6.22393C8.03377 6.22393 5.85392 8.3597 5.85392 10.9839V11.0444V11.1055C5.85392 11.4717 5.60499 11.7767 5.23128 11.8378C2.98965 12.3262 1.43244 14.2786 1.43244 16.4749C1.43244 19.099 3.61229 21.2342 6.29062 21.2342H6.4148H7.03681L25.5338 21.5392ZM26.9038 23.0656H25.5338H24.4126L7.16222 22.821H6.4148C2.86489 22.821 0 20.0147 0 16.5366C0 15.072 0.498479 13.6679 1.43244 12.5701C2.24224 11.6544 3.30098 10.9221 4.42149 10.5566C4.67042 7.32238 7.47354 4.69881 10.8363 4.69881C11.3348 4.69881 11.7709 4.75994 12.2687 4.88219C12.829 3.60037 13.7011 2.44141 14.8846 1.58625C16.3165 0.549538 17.9361 1.48978e-05 19.7422 1.48978e-05C21.9215 1.48978e-05 23.9148 0.793441 25.4096 2.19691C26.779 3.47813 27.5889 5.12549 27.7136 6.95623C29.5822 7.139 31.3259 7.93303 32.6336 9.3359C34.1278 10.8616 35 12.8751 35 14.9492C34.9376 19.2824 31.2629 23.0656 26.9038 23.0656Z" fill="#3D40F7"/>
<path d="M21.7345 31.4237C21.2991 31.4237 20.9254 31.0576 20.9254 30.6309V29.1046H15.4452V30.6309C15.4452 31.0576 15.0715 31.4237 14.6354 31.4237C14.1993 31.4237 13.8262 31.0576 13.8262 30.6309V28.3117C13.8262 27.8845 14.1993 27.5183 14.6354 27.5183H21.6728C22.1089 27.5183 22.482 27.8845 22.482 28.3117V30.6309C22.482 31.0576 22.1089 31.4237 21.7345 31.4237Z" fill="#3D40F7"/>
<path d="M21.7345 33.7429C21.2991 33.7429 20.9254 33.3768 20.9254 32.9501V31.4244H15.4452V32.9501C15.4452 33.3768 15.0715 33.7429 14.6354 33.7429C14.1993 33.7429 13.8262 33.3768 13.8262 32.9501V30.6316C13.8262 30.2043 14.1993 29.8375 14.6354 29.8375H21.6728C22.1089 29.8375 22.482 30.2043 22.482 30.6316V32.9501C22.482 33.3768 22.1089 33.7429 21.7345 33.7429Z" fill="#3D40F7"/>
<path d="M15.5067 34.4743H20.9251V33.6815H15.4449V34.4743H15.5067ZM21.7343 36H14.6975C14.2614 36 13.8877 35.6333 13.8877 35.2066V32.9492C13.8877 32.5219 14.2614 32.1551 14.6975 32.1551H21.7343C22.1704 32.1551 22.5447 32.5219 22.5447 32.9492V35.2677C22.4817 35.6333 22.1086 36 21.7343 36Z" fill="#3D40F7"/>
<path d="M28.3369 29.1666C27.9008 29.1666 27.5271 28.7999 27.5271 28.3732V26.0541H8.84359V28.3732C8.84359 28.7999 8.4705 29.1666 8.0344 29.1666C7.59893 29.1666 7.22461 28.7999 7.22461 28.3732V25.3224C7.22461 24.8951 7.59893 24.529 8.0344 24.529H28.2745C28.71 24.529 29.0843 24.8951 29.0843 25.3224V28.3732C29.0843 28.7999 28.773 29.1666 28.3369 29.1666Z" fill="#3D40F7"/>
<path d="M11.5829 31.4237C11.1468 31.4237 10.7731 31.0576 10.7731 30.6309V29.1046H5.35531V30.6309C5.35531 31.0576 4.981 31.4237 4.54552 31.4237C4.10942 31.4237 3.73633 31.0576 3.73633 30.6309V28.3117C3.73633 27.8845 4.10942 27.5183 4.54552 27.5183H11.5829C12.019 27.5183 12.3921 27.8845 12.3921 28.3117V30.6309C12.3921 31.0576 12.019 31.4237 11.5829 31.4237Z" fill="#3D40F7"/>
<path d="M11.5829 33.7429C11.1468 33.7429 10.7731 33.3768 10.7731 32.9501V31.4244H5.35531V32.9501C5.35531 33.3768 4.981 33.7429 4.54552 33.7429C4.10942 33.7429 3.73633 33.3768 3.73633 32.9501V30.6316C3.73633 30.2043 4.10942 29.8375 4.54552 29.8375H11.5829C12.019 29.8375 12.3921 30.2043 12.3921 30.6316V32.9501C12.3921 33.3768 12.019 33.7429 11.5829 33.7429Z" fill="#3D40F7"/>
<path d="M5.35604 34.4743H10.8363V33.6815H5.35604V34.4743ZM11.5837 36H4.60862C4.17253 36 3.79883 35.6333 3.79883 35.2066V32.9492C3.79883 32.5219 4.17253 32.1551 4.60862 32.1551H11.5837C12.0198 32.1551 12.3929 32.5219 12.3929 32.9492V35.2677C12.3929 35.6333 12.0198 36 11.5837 36Z" fill="#3D40F7"/>
<path d="M31.825 31.4237C31.3889 31.4237 31.0152 31.0576 31.0152 30.6309V29.1046H25.535V30.6309C25.535 31.0576 25.1613 31.4237 24.7252 31.4237C24.2891 31.4237 23.916 31.0576 23.916 30.6309V28.3117C23.916 27.8845 24.2891 27.5183 24.7252 27.5183H31.7626C32.1987 27.5183 32.5718 27.8845 32.5718 28.3117V30.6309C32.6348 31.0576 32.2605 31.4237 31.825 31.4237Z" fill="#3D40F7"/>
<path d="M31.825 33.7429C31.3889 33.7429 31.0152 33.3768 31.0152 32.9501V31.4244H25.535V32.9501C25.535 33.3768 25.1613 33.7429 24.7252 33.7429C24.2891 33.7429 23.916 33.3768 23.916 32.9501V30.6316C23.916 30.2043 24.2891 29.8375 24.7252 29.8375H31.7626C32.1987 29.8375 32.5718 30.2043 32.5718 30.6316V32.9501C32.6348 33.3768 32.2605 33.7429 31.825 33.7429Z" fill="#3D40F7"/>
<path d="M25.5937 34.4743H31.0746V33.6815H25.5937V34.4743ZM31.822 36H24.8463C24.4108 36 24.0371 35.6333 24.0371 35.2066V32.9492C24.0371 32.5219 24.4108 32.1551 24.8463 32.1551H31.8843C32.3198 32.1551 32.6941 32.5219 32.6941 32.9492V35.2677C32.6318 35.6333 32.2574 36 31.822 36Z" fill="#3D40F7"/>
</svg>
