<svg width="39" height="36" viewBox="0 0 39 36" fill="none" xmlns="http://www.w3.org/2000/svg">
<path d="M32.1626 12.624H9.27734V21.7739C9.27734 22.9093 9.41235 24.0448 9.68367 25.1133C11.1739 30.8575 16.5223 35.1323 22.819 35.1323C30.2674 35.1323 36.3606 29.1205 36.3606 21.7739V12.624H32.1626Z" fill="white" fill-opacity="0.2"/>
<path d="M32.1611 10.0845V12.623H28.7757V10.0845C28.7757 8.48204 28.0994 7.01271 27.0155 5.9435C25.9322 4.87562 24.4427 4.2072 22.8175 4.2072C19.5677 4.2072 16.8593 6.81198 16.8593 10.0845V12.623H13.4739V10.0845C13.4739 5.00877 17.6719 0.867744 22.8175 0.867744C25.3903 0.867744 27.6924 1.87005 29.3861 3.53944C31.1463 5.27574 32.1611 7.54665 32.1611 10.0845Z" fill="#4D32A5"/>
<path d="M14.4231 19.3031H31.3508V23.511H14.4231V19.3031Z" fill="#4D32A5"/>
<path d="M2.57197 23.4437C3.51956 23.4437 4.26432 24.1784 4.26432 25.1131C4.26432 26.0485 3.51956 26.7832 2.57197 26.7832C1.62371 26.7832 0.878906 26.0485 0.878906 25.1131C0.878906 24.1784 1.62371 23.4437 2.57197 23.4437Z" fill="#4D32A5"/>
<path d="M5.07714 12.6239C6.02473 12.6239 6.77018 13.3586 6.77018 14.2933C6.77018 15.2287 6.02473 15.9634 5.07714 15.9634C4.12888 15.9634 3.38477 15.1618 3.38477 14.2933C3.38477 13.3586 4.12888 12.6239 5.07714 12.6239Z" fill="#4D32A5"/>
<path d="M27.0835 25.1131H28.7759V26.7832H27.0835V25.1131Z" fill="#4D32A5"/>
<path d="M24.5786 25.1131H26.2716V26.7832H24.5786V25.1131Z" fill="#4D32A5"/>
<path d="M22.0054 25.1131H23.6984V26.7832H22.0054V25.1131Z" fill="#4D32A5"/>
<path d="M19.5002 25.1131H21.1926V26.7832H19.5002V25.1131Z" fill="#4D32A5"/>
<path d="M16.926 25.1131H18.6184V26.7832H16.926V25.1131Z" fill="#4D32A5"/>
<path d="M22.8859 36C16.3186 36 10.5625 31.592 8.93797 25.3808C8.66733 24.2454 8.46387 23.0423 8.46387 21.8406V12.6239C8.46387 12.1562 8.87016 11.7554 9.34429 11.7554H13.5423C14.0164 11.7554 14.4221 12.1562 14.4221 12.6239C14.4221 13.0916 14.0164 13.4917 13.5423 13.4917H10.1569V21.7737C10.1569 22.8429 10.2919 23.9115 10.5625 24.9131C11.9849 30.4565 17.0634 34.3306 22.8859 34.3306C29.8602 34.3306 35.6156 28.7203 35.6156 21.7737V13.4248H32.2302C31.756 13.4248 31.3497 13.024 31.3497 12.557C31.3497 12.0893 31.756 11.6885 32.2302 11.6885H36.496C36.9701 11.6885 37.3758 12.0893 37.3758 12.557V21.7737C37.2408 29.5881 30.8085 36 22.8859 36Z" fill="#4D32A5"/>
<path d="M28.7769 13.4248C28.3034 13.4248 27.8971 13.024 27.8971 12.557V10.0191C27.8971 8.68294 27.3551 7.41434 26.4075 6.47895C25.46 5.54356 24.1732 5.00961 22.8187 5.00961C20.043 5.00961 17.7409 7.28052 17.7409 10.0191V12.557C17.7409 13.024 17.3346 13.4248 16.8605 13.4248C16.3863 13.4248 15.9807 13.024 15.9807 12.557V10.0191C15.9807 6.34513 19.0276 3.33955 22.7515 3.33955C24.5789 3.33955 26.2719 4.00797 27.5586 5.27658C28.8454 6.54585 29.5223 8.21591 29.5223 10.0191V12.557C29.6573 13.024 29.251 13.4248 28.7769 13.4248Z" fill="#4D32A5"/>
<path d="M14.4203 11.7554H31.348V10.0854C31.348 7.88137 30.4676 5.74428 28.8431 4.20804C27.2179 2.6049 25.1185 1.73707 22.8842 1.73707C18.2127 1.73707 14.4203 5.47731 14.4203 10.0854V11.7554ZM32.16 13.4248H13.5406C13.0664 13.4248 12.6602 13.024 12.6602 12.557V10.0191C12.6602 4.47567 17.1966 0.000113487 22.8164 0.000113487C25.5255 0.000113487 28.0983 1.06931 29.9941 2.93876C31.89 4.80954 32.9726 7.34743 32.9726 10.0191V12.557C33.0411 13.024 32.6341 13.4248 32.16 13.4248Z" fill="#4D32A5"/>
<path d="M27.9637 16.7646H9.34429C8.87016 16.7646 8.46387 16.3639 8.46387 15.8962C8.46387 15.4285 8.87016 15.0277 9.34429 15.0277H27.9637C28.4385 15.0277 28.8448 15.4285 28.8448 15.8962C28.7763 16.3639 28.3706 16.7646 27.9637 16.7646Z" fill="#4D32A5"/>
<path d="M11.0362 21.7739H5.07801C4.60388 21.7739 4.19824 21.3731 4.19824 20.9054V15.8966C4.19824 15.4289 4.60388 15.0281 5.07801 15.0281C5.55147 15.0281 5.95843 15.4289 5.95843 15.8966V20.1045H11.0362C11.5103 20.1045 11.9166 20.5053 11.9166 20.9723C11.9166 21.44 11.4425 21.7739 11.0362 21.7739Z" fill="#4D32A5"/>
<path d="M11.8479 25.9817H4.26453C3.7904 25.9817 3.38477 25.5816 3.38477 25.1132C3.38477 24.6455 3.7904 24.2454 4.26453 24.2454H11.9158C12.3899 24.2454 12.7956 24.6455 12.7956 25.1132C12.7956 25.5816 12.3221 25.9817 11.8479 25.9817Z" fill="#4D32A5"/>
<path d="M5.07769 13.4245C4.60355 13.4245 4.19792 13.8253 4.19792 14.293C4.19792 14.7607 4.60355 15.1615 5.07769 15.1615C5.55114 15.1615 5.95811 14.7607 5.95811 14.293C5.95811 13.8253 5.55114 13.4245 5.07769 13.4245ZM5.07769 16.7646C3.65596 16.7646 2.50488 15.6292 2.50488 14.2261C2.50488 12.8237 3.65596 11.6882 5.07769 11.6882C6.49941 11.6882 7.65049 12.8237 7.65049 14.2261C7.65049 15.6292 6.49941 16.7646 5.07769 16.7646Z" fill="#4D32A5"/>
<path d="M2.5728 24.3125C2.09867 24.3125 1.69235 24.7139 1.69235 25.181C1.69235 25.6487 2.09867 26.0494 2.5728 26.0494C3.04693 26.0494 3.38538 25.5824 3.38538 25.114C3.38538 24.6464 2.97843 24.3125 2.5728 24.3125ZM2.5728 27.6526C1.15108 27.6526 0 26.5171 0 25.114C0 23.7116 1.15108 22.5762 2.5728 22.5762C3.99452 22.5762 5.14557 23.7116 5.14557 25.114C5.14557 26.5171 3.9267 27.6526 2.5728 27.6526Z" fill="#4D32A5"/>
<path d="M15.2336 22.6431H30.4683V20.1052H15.2336V22.6431ZM31.3487 24.3125H14.421C13.9469 24.3125 13.5413 23.9124 13.5413 23.4447V19.2367C13.5413 18.769 13.9469 18.3683 14.421 18.3683H31.3487C31.8228 18.3683 32.2291 18.769 32.2291 19.2367V23.4447C32.1606 23.9124 31.755 24.3125 31.3487 24.3125Z" fill="#4D32A5"/>
<path d="M38.1188 36H13.5406C13.0664 36 12.6602 35.5999 12.6602 35.1322C12.6602 34.6638 13.0664 34.2637 13.5406 34.2637H38.1188C38.593 34.2637 38.9993 34.6638 38.9993 35.1322C38.9315 35.5999 38.5251 36 38.1188 36Z" fill="#4D32A5"/>
</svg>
