<svg width="36" height="36" viewBox="0 0 36 36" fill="none" xmlns="http://www.w3.org/2000/svg">
<path d="M7.91373 7.92721C7.37843 8.4634 6.60468 8.52252 6.00977 8.10575C5.95016 8.04604 5.89056 7.98633 5.83095 7.92721C5.23604 7.33132 5.23604 6.37777 5.83095 5.84041C6.42587 5.24511 7.37843 5.24511 7.91373 5.84041C8.44963 6.37777 8.50865 7.33132 7.91373 7.92721Z" fill="#4588FD"/>
<path d="M3.74666 17.9998C3.74666 18.7742 3.15232 19.3701 2.43819 19.4895C2.37858 19.4895 2.31898 19.4895 2.25937 19.4895C1.42661 19.4895 0.771484 18.8339 0.771484 17.9998C0.771484 17.1651 1.42661 16.5095 2.25937 16.5095C2.31898 16.5095 2.37858 16.5095 2.43819 16.5095C3.15232 16.6283 3.74666 17.2248 3.74666 17.9998Z" fill="#4588FD"/>
<path d="M7.91373 28.5499C8.39002 29.0264 8.44963 29.7417 8.21119 30.2784C8.15158 30.3973 8.03295 30.5173 7.91373 30.6361C7.31882 31.232 6.36685 31.232 5.83095 30.6361C5.23604 30.0402 5.23604 29.0867 5.83095 28.5499C5.95017 28.4305 6.06879 28.3713 6.18801 28.3116C6.7239 28.0131 7.43804 28.0734 7.91373 28.5499Z" fill="#4588FD"/>
<path d="M17.9692 32.2441C18.743 32.2441 19.3975 32.8997 19.4571 33.6741V33.7344C19.4571 34.5685 18.8026 35.2241 17.9692 35.2241C17.1359 35.2241 16.4819 34.5685 16.4819 33.7344V33.6741C16.5415 32.8997 17.1955 32.2441 17.9692 32.2441Z" fill="#4588FD"/>
<path d="M28.0265 28.55C28.5028 28.0735 29.2163 28.0132 29.8118 28.3118C29.9305 28.3715 30.0497 28.4903 30.1683 28.55C30.7638 29.1459 30.7638 30.1 30.1683 30.6362C29.5734 31.2321 28.6214 31.2321 28.0861 30.6362C27.9669 30.5174 27.9073 30.3974 27.7887 30.2786C27.4906 29.7418 27.5502 29.0265 28.0265 28.55Z" fill="#4588FD"/>
<path d="M33.5008 19.4896C32.7873 19.4305 32.1924 18.7743 32.1924 17.9999C32.1924 17.2249 32.7277 16.6284 33.5008 16.5096C33.561 16.5096 33.6201 16.5096 33.6797 16.5096C34.5124 16.5096 35.1675 17.1652 35.1675 17.9999C35.1675 18.834 34.5124 19.4896 33.6797 19.4896C33.6201 19.4896 33.561 19.4896 33.5008 19.4896Z" fill="#4588FD"/>
<path d="M29.9302 8.04654C29.3352 8.4639 28.5615 8.40419 28.0262 7.86801C27.4903 7.33182 27.4313 6.55622 27.8474 5.96092C27.907 5.90121 27.9666 5.84091 28.0262 5.78179C28.6211 5.1859 29.5731 5.1859 30.109 5.78179C30.7039 6.37828 30.7039 7.33182 30.109 7.86801C30.109 7.98683 29.9898 8.04654 29.9302 8.04654Z" fill="#4588FD"/>
<path d="M17.9692 3.75513C17.2551 3.75513 16.6602 3.21895 16.4819 2.56276C16.4819 2.44393 16.4819 2.38422 16.4819 2.2654C16.4819 1.43068 17.1359 0.775082 17.9692 0.775082C18.8026 0.775082 19.4571 1.43068 19.4571 2.2654C19.4571 2.38422 19.4571 2.44393 19.4571 2.56276C19.2783 3.21895 18.6834 3.75513 17.9692 3.75513Z" fill="#4588FD"/>
<path d="M23.0863 23.8412C22.0747 27.4769 20.2298 29.9799 18.0284 29.9799H17.9688C17.9688 29.1457 17.9688 24.0197 17.9688 23.3044C19.7541 23.3641 21.4798 23.5433 23.0863 23.8412Z" fill="white" fill-opacity="0.09"/>
<path d="M12.8537 23.8412C13.8647 27.4769 15.7096 29.9799 17.911 29.9799C15.7692 29.9799 13.5082 29.3249 11.544 28.0734C11.187 27.8345 10.592 27.4172 10.176 27.0595C9.93752 26.881 9.69968 26.6427 9.58046 26.5233C9.16379 26.1065 8.86632 25.7483 8.56886 25.3912C8.50925 25.3315 8.45023 25.2121 8.39062 25.1524C9.75869 24.6162 11.2466 24.1989 12.8537 23.8412Z" fill="white" fill-opacity="0.09"/>
<path d="M17.9688 18.1192V23.364C16.1841 23.364 14.4583 23.5431 12.8518 23.9008C12.3755 22.1722 12.1377 20.2054 12.1377 18.1192H17.9688Z" fill="white" fill-opacity="0.09"/>
<path d="M23.861 18.1191H29.8715C29.8715 20.8013 28.9786 23.2451 27.5503 25.2119C26.1822 24.616 24.6944 24.1987 23.1475 23.841C23.5635 22.1722 23.861 20.2054 23.861 18.1191Z" fill="white" fill-opacity="0.09"/>
<path d="M27.5487 10.967C26.1806 11.5635 24.6927 11.9803 23.1458 12.3385C22.1343 8.70226 20.2893 6.2584 18.0879 6.19929C18.1469 6.19929 18.802 6.19929 19.0995 6.2584C21.1227 6.43753 23.1458 7.15282 24.871 8.40431C25.8235 9.0605 26.7755 9.95375 27.5487 10.967Z" fill="white" fill-opacity="0.09"/>
<path d="M23.8595 18.1196H17.9688V12.8748C19.7541 12.8748 21.4798 12.6957 23.0863 12.3386C23.562 14.0666 23.8595 16.034 23.8595 18.1196Z" fill="white" fill-opacity="0.09"/>
<path d="M6.06836 18.0005C6.06836 15.3775 6.96133 12.9337 8.38959 11.0266C9.75766 11.6231 11.2455 12.0404 12.793 12.3975C12.3167 14.126 12.0789 16.0928 12.0789 18.1785H6.06836C6.06836 18.0596 6.06836 18.0596 6.06836 18.0005Z" fill="white" fill-opacity="0.09"/>
<path d="M12.8525 12.3375C13.8635 8.70123 15.7085 6.19826 17.9099 6.19826H17.9695V12.8737C16.1848 12.8737 14.459 12.6945 12.8525 12.3375Z" fill="white" fill-opacity="0.09"/>
<path d="M18.0293 30.0387C20.2307 29.9784 22.1353 27.5351 23.0872 23.8995C24.6341 24.1974 26.122 24.6745 27.4901 25.2704C27.4901 25.2704 27.3715 25.3898 27.3119 25.5086C24.9316 28.429 21.4807 30.0387 18.0293 30.0387Z" fill="white" fill-opacity="0.09"/>
<path d="M17.9099 30.0387C15.7085 29.9784 13.8039 27.5351 12.8525 23.8995C14.459 23.5418 16.1848 23.3627 17.9695 23.3627C17.9695 24.078 17.9695 29.204 17.9695 30.0387H17.9099Z" fill="white" fill-opacity="0.09"/>
<path d="M17.9688 18.1192H23.8595C23.8595 20.2054 23.6216 22.1722 23.1459 23.9008C21.5388 23.5431 19.8137 23.364 18.0284 23.364L17.9688 18.1192Z" fill="white" fill-opacity="0.09"/>
<path d="M12.0789 18.1183C12.0789 20.2045 12.3167 22.1713 12.793 23.8998C11.2455 24.1978 9.75766 24.6749 8.38959 25.2708C6.90172 23.3034 6.06836 20.8004 6.06836 18.1774H12.0789V18.1183Z" fill="white" fill-opacity="0.09"/>
<path d="M29.8715 18.1196H23.861C23.861 16.034 23.6232 14.0666 23.1475 12.3386C24.6944 12.0407 26.1822 11.5636 27.5503 10.9672C29.0382 13.054 29.8715 15.4972 29.8715 18.1196Z" fill="white" fill-opacity="0.09"/>
<path d="M17.9698 12.8748V18.1196H12.0791C12.0791 16.034 12.317 14.0666 12.7932 12.3386C14.4594 12.6957 16.1851 12.8748 17.9698 12.8748Z" fill="white" fill-opacity="0.09"/>
<path d="M18.0284 6.19826C20.2298 6.25737 22.0747 8.76094 23.0863 12.3375C21.4798 12.6945 19.7541 12.8737 17.9688 12.8737V6.19826H18.0284Z" fill="white" fill-opacity="0.09"/>
<path d="M11.0683 8.40431C13.0909 6.9737 15.5308 6.19929 17.8514 6.19929C15.65 6.2584 13.746 8.70226 12.7941 12.3385C11.2466 12.0406 9.75869 11.5635 8.39062 10.967C9.16378 10.0135 10.0567 9.11962 11.0683 8.40431Z" fill="white" fill-opacity="0.09"/>
<path d="M17.9691 33.0194C17.5524 33.0194 17.1953 32.6612 17.1953 32.2444V29.9791C17.1953 29.5623 17.5524 29.2046 17.9691 29.2046C18.3857 29.2046 18.7428 29.5623 18.7428 29.9791V32.2444C18.7428 32.6612 18.3857 33.0194 17.9691 33.0194Z" fill="#4588FD"/>
<path d="M29.8095 29.0255C29.6307 29.0255 29.4525 28.9664 29.3332 28.847C29.0358 28.5484 28.9762 28.1317 29.2736 27.774C31.2968 25.3905 32.5468 22.4695 32.8443 19.3701C32.9033 18.9533 33.2604 18.6548 33.6771 18.7151C34.0937 18.7742 34.3912 19.1318 34.3316 19.5492C34.0341 23.0057 32.6655 26.1649 30.4641 28.7873C30.2262 28.9664 29.9878 29.0255 29.8095 29.0255Z" fill="#4588FD"/>
<path d="M19.4581 34.4491C19.101 34.4491 18.7439 34.1511 18.7439 33.7941C18.6843 33.3761 18.9818 33.0191 19.3985 32.9588C22.314 32.6608 25.0513 31.5885 27.3124 29.7405C27.6098 29.5022 28.0861 29.5619 28.3836 29.8599C28.6214 30.1578 28.5618 30.6349 28.2643 30.9328C25.7655 32.9588 22.7307 34.2108 19.5767 34.5088C19.5177 34.4491 19.4581 34.4491 19.4581 34.4491Z" fill="#4588FD"/>
<path d="M16.4839 34.45H16.4237C13.2107 34.152 10.2355 32.9005 7.73662 30.874C7.43916 30.6358 7.37955 30.1587 7.6174 29.8016C7.85525 29.4434 8.33153 29.4434 8.68859 29.6816C10.9496 31.5296 13.6869 32.6617 16.6025 32.9005C17.0192 32.9596 17.3166 33.3179 17.257 33.7352C17.1974 34.152 16.8409 34.45 16.4839 34.45Z" fill="#4588FD"/>
<path d="M6.12783 29.0255C5.88939 29.0255 5.71116 28.9664 5.59194 28.7873C3.33091 26.1649 2.02186 22.9466 1.72441 19.5492C1.6648 19.1318 1.96224 18.7742 2.37892 18.7151C2.7956 18.6548 3.15267 18.9533 3.21169 19.3701C3.50974 22.4695 4.69957 25.3905 6.78177 27.774C7.07981 28.0726 7.0202 28.5484 6.72275 28.847C6.4849 28.9664 6.30607 29.0255 6.12783 29.0255Z" fill="#4588FD"/>
<path d="M2.43853 17.2849H2.37892C1.96224 17.2252 1.6648 16.8675 1.72441 16.4502C2.08147 13.1722 3.33091 10.1324 5.47331 7.56915C5.71116 7.27121 6.18685 7.21209 6.54392 7.45033C6.84196 7.68857 6.90099 8.16563 6.66314 8.52269C4.75917 10.8477 3.56876 13.5895 3.2713 16.5696C3.15267 16.987 2.7956 17.2849 2.43853 17.2849Z" fill="#4588FD"/>
<path d="M7.49777 6.49707C7.25992 6.19913 7.25992 5.72207 7.61699 5.42412C10.1761 3.33791 13.2102 2.08642 16.4835 1.78847C16.8995 1.72877 17.2566 2.02672 17.3162 2.44408C17.3758 2.86085 17.0784 3.21908 16.6617 3.2782C13.6865 3.57614 10.9492 4.70881 8.62857 6.61649C8.2119 6.85473 7.73621 6.79502 7.49777 6.49707Z" fill="#4588FD"/>
<path d="M27.371 6.55502C25.0504 4.64852 22.3131 3.51585 19.3379 3.21791C18.9212 3.1582 18.6238 2.80055 18.6834 2.38319C18.743 1.96642 19.1001 1.66847 19.5167 1.72759C22.7894 2.02553 25.8241 3.27703 28.3826 5.36383C28.6801 5.60148 28.7397 6.07855 28.5018 6.43621C28.2038 6.79386 27.7281 6.85355 27.371 6.55502Z" fill="#4588FD"/>
<path d="M33.4996 17.2846C33.1432 17.2846 32.7861 16.9867 32.7861 16.6284C32.4886 13.6484 31.2982 10.9072 29.3943 8.58271C29.1564 8.28417 29.1564 7.8077 29.5135 7.50976C29.8109 7.27093 30.2866 7.27093 30.5841 7.62917C32.6669 10.1322 33.9759 13.231 34.333 16.5096C34.3926 16.9264 34.0951 17.2846 33.6785 17.3438C33.5598 17.2846 33.5598 17.2846 33.4996 17.2846Z" fill="#4588FD"/>
<path d="M17.9676 1.49028C17.5509 1.49028 17.1938 1.84735 17.1938 2.2653C17.1938 2.32441 17.1938 2.38412 17.1938 2.38412C17.2534 2.74178 17.5509 2.9806 17.908 2.9806C18.265 2.9806 18.5625 2.74178 18.6221 2.38412C18.6221 2.32442 18.6221 2.2653 18.6221 2.2653C18.7413 1.84735 18.3843 1.49028 17.9676 1.49028ZM17.9676 4.47034C16.8964 4.47034 16.004 3.69532 15.7662 2.68266C15.7662 2.56266 15.7065 2.38412 15.7065 2.2653C15.7065 1.01322 16.7181 -4.01271e-05 17.9676 -4.01271e-05C19.217 -4.01271e-05 20.2286 1.01322 20.2286 2.2653C20.2286 2.38412 20.2286 2.56266 20.169 2.68266C19.9312 3.69532 19.0388 4.47034 17.9676 4.47034Z" fill="#4588FD"/>
<path d="M17.2534 33.7353C17.2534 34.152 17.6105 34.45 18.0272 34.45C18.4439 34.45 18.7413 34.0923 18.7413 33.7353V33.675C18.7413 33.2582 18.3843 32.9597 18.0272 32.9597C17.6701 32.9597 17.2534 33.3179 17.2534 33.7353ZM17.9676 36C16.7181 36 15.7065 34.9867 15.7065 33.7353C15.7065 33.675 15.7065 33.675 15.7065 33.6159C15.7662 32.4235 16.7181 31.4699 17.908 31.4699C19.0984 31.4699 20.0504 32.4235 20.11 33.6159C20.11 33.675 20.11 33.675 20.11 33.7353C20.2286 34.9867 19.217 36 17.9676 36Z" fill="#4588FD"/>
<path d="M29.0969 6.08001C28.9181 6.08001 28.7398 6.13972 28.561 6.31825C28.561 6.31825 28.502 6.37855 28.502 6.43766C28.1449 6.91473 28.502 7.63003 29.0969 7.63003C29.2751 7.63003 29.3943 7.56973 29.5136 7.51062C29.5726 7.45091 29.5726 7.45091 29.6322 7.45091C29.9296 7.15296 29.9296 6.6759 29.6322 6.37855C29.4539 6.19943 29.2751 6.08001 29.0969 6.08001ZM27.4898 8.40445C26.7166 7.63003 26.5974 6.43766 27.2519 5.54323C27.3116 5.4244 27.4308 5.30499 27.4898 5.24587C27.9065 4.82851 28.4424 4.58969 29.0373 4.58969C29.6322 4.58969 30.1675 4.82851 30.6438 5.24587C31.5362 6.13971 31.5362 7.51061 30.6438 8.40445C30.5842 8.46416 30.4655 8.58357 30.3463 8.64328C29.454 9.29888 28.2635 9.17946 27.4898 8.40445Z" fill="#4588FD"/>
<path d="M6.48602 28.9671C6.42582 29.0262 6.3668 29.0262 6.30719 29.0865C6.00973 29.3845 6.00973 29.8609 6.30719 30.1589C6.42582 30.2783 6.60465 30.3971 6.84309 30.3971C7.02133 30.3971 7.19957 30.338 7.3784 30.1589C7.67585 29.8609 7.67585 29.3845 7.3784 29.0865C7.13996 28.8477 6.78288 28.788 6.48602 28.9671ZM6.84309 31.8278C6.24758 31.8278 5.71228 31.5895 5.23599 31.1722C4.16479 30.0998 4.40323 28.3712 5.71228 27.6559C6.54504 27.1789 7.61624 27.2977 8.38998 28.013C9.10411 28.7283 9.22275 29.7415 8.80666 30.636C8.68744 30.8742 8.56822 31.0533 8.38998 31.2319C7.9733 31.5895 7.438 31.8278 6.84309 31.8278Z" fill="#4588FD"/>
<path d="M33.679 17.2248C33.679 17.2248 33.6194 17.2248 33.5603 17.2248C33.2033 17.2845 32.9052 17.5824 32.9052 17.9401C32.9052 18.2977 33.2033 18.6548 33.5603 18.6548C33.6194 18.6548 33.6194 18.6548 33.6194 18.6548C34.036 18.6548 34.3931 18.2977 34.3931 17.8804C34.3931 17.4636 34.0956 17.2248 33.679 17.2248ZM33.679 20.2048C33.6194 20.2048 33.5001 20.2048 33.4411 20.2048C32.3103 20.0854 31.4775 19.1319 31.4775 17.9998C31.4775 16.8671 32.3103 15.913 33.4411 15.7942C33.5603 15.7942 33.6194 15.7942 33.7386 15.7942C34.988 15.7942 35.9996 16.8074 35.9996 18.0589C35.9996 19.311 34.9284 20.2048 33.679 20.2048Z" fill="#4588FD"/>
<path d="M2.26103 17.2248C1.84436 17.2248 1.48728 17.5824 1.48728 17.9998C1.48728 18.4166 1.84436 18.7742 2.26103 18.7742H2.32064C2.67771 18.7151 2.97516 18.4166 2.97516 18.0589C2.97516 17.7018 2.67771 17.3436 2.32064 17.3436C2.32064 17.2248 2.26103 17.2248 2.26103 17.2248ZM2.26103 20.2048C1.01159 20.2048 0 19.1916 0 17.9401C0 16.688 1.01159 15.6747 2.26103 15.6747C2.38025 15.6747 2.43985 15.6747 2.55848 15.6747C3.68929 15.7942 4.52205 16.7483 4.52205 17.8804C4.52205 19.013 3.68929 19.9666 2.55848 20.0854C2.43985 20.2048 2.32064 20.2048 2.26103 20.2048Z" fill="#4588FD"/>
<path d="M29.0987 28.8477C28.9199 28.8477 28.7416 28.9074 28.5628 29.0865C28.325 29.3248 28.2654 29.6818 28.4442 29.9207C28.5038 29.9798 28.5038 30.0401 28.5628 30.0998C28.682 30.2186 28.9199 30.338 29.0987 30.338C29.2769 30.338 29.4558 30.2783 29.634 30.0998C29.9315 29.8018 29.9315 29.3248 29.634 29.0262C29.5744 28.9671 29.5154 28.9074 29.4558 28.9074C29.3366 28.9074 29.2173 28.8477 29.0987 28.8477ZM29.0987 31.8278C28.5038 31.8278 27.9679 31.5895 27.4916 31.1722C27.3134 30.9936 27.1942 30.8145 27.0755 30.5763C26.3018 29.0865 27.4326 27.358 29.0391 27.358C29.3962 27.358 29.8128 27.4768 30.1103 27.6559C30.2885 27.7747 30.4674 27.8942 30.586 28.013C31.479 28.9074 31.479 30.2783 30.586 31.1722C30.2295 31.5895 29.6936 31.8278 29.0987 31.8278Z" fill="#4588FD"/>
<path d="M6.84376 6.07994C6.66493 6.07994 6.48669 6.13965 6.30786 6.31818C6.0104 6.61672 6.0104 7.09378 6.30786 7.39114C6.30786 7.39114 6.36747 7.45084 6.42649 7.45084C6.54571 7.56967 6.72454 7.56967 6.84376 7.56967C7.43867 7.56967 7.79515 6.91467 7.43868 6.37848C7.43868 6.31818 7.37907 6.31818 7.37907 6.25847C7.25985 6.19936 7.022 6.07994 6.84376 6.07994ZM6.84376 9.06058C6.36747 9.06058 5.9508 8.94116 5.53412 8.64321C5.41549 8.58351 5.35588 8.46409 5.23666 8.40438C4.34429 7.51054 4.34429 6.13964 5.23666 5.24581C5.65334 4.82845 6.18864 4.58962 6.84376 4.58962C7.5573 4.58962 8.21182 4.94786 8.68811 5.54316C9.28302 6.43759 9.22341 7.62996 8.45026 8.40438C7.73613 9.11969 6.84376 9.06058 6.84376 9.06058Z" fill="#4588FD"/>
<path d="M17.9691 6.91418C17.5524 6.91418 17.1953 6.55595 17.1953 6.13918V3.69531C17.1953 3.27795 17.5524 2.92088 17.9691 2.92088C18.3857 2.92088 18.7428 3.27795 18.7428 3.69531V6.13918C18.7428 6.61625 18.3857 6.91418 17.9691 6.91418Z" fill="#4588FD"/>
<path d="M25.7641 10.1926C25.4667 9.89461 25.4667 9.41755 25.7641 9.1196L27.4892 7.39104C27.7873 7.09369 28.263 7.09369 28.5604 7.39104C28.8585 7.68899 28.8585 8.16605 28.5604 8.464L26.8347 10.1926C26.5378 10.4905 26.0616 10.4905 25.7641 10.1926Z" fill="#4588FD"/>
<path d="M7.37739 29.0861C7.07993 28.7876 7.07993 28.3111 7.37739 28.0126L9.10311 26.284C9.39998 25.9861 9.87626 25.9861 10.1743 26.284C10.4712 26.5825 10.4712 27.059 10.1743 27.3576L8.44858 29.0861C8.15054 29.3841 7.67485 29.3841 7.37739 29.0861Z" fill="#4588FD"/>
<path d="M32.1921 18.7155H29.7523C29.3356 18.7155 28.9785 18.3572 28.9785 17.9404C28.9785 17.5231 29.3356 17.1654 29.7523 17.1654H32.1921C32.6082 17.1654 32.9653 17.5231 32.9653 17.9404C32.9653 18.4169 32.6082 18.7155 32.1921 18.7155Z" fill="#4588FD"/>
<path d="M6.18762 18.7153H3.74777C3.33168 18.7153 2.97461 18.3571 2.97461 17.9403C2.97461 17.523 3.33168 17.1653 3.74777 17.1653H6.18762C6.60429 17.1653 6.96137 17.523 6.96137 17.9403C6.90176 18.4168 6.60429 18.7153 6.18762 18.7153Z" fill="#4588FD"/>
<path d="M28.0251 29.3235C27.8463 29.3235 27.6681 29.2632 27.4892 29.0852L25.7641 27.3567C25.4667 27.0582 25.4667 26.5817 25.7641 26.2831C26.0616 25.9852 26.5378 25.9852 26.8347 26.2831L28.5604 28.0117C28.8585 28.3102 28.8585 28.7867 28.5604 29.0852C28.4418 29.2041 28.2034 29.3235 28.0251 29.3235Z" fill="#4588FD"/>
<path d="M9.10311 10.1926L7.37739 8.464C7.07993 8.16605 7.07993 7.68899 7.37739 7.39104C7.67485 7.09369 8.15054 7.09369 8.44858 7.39104L10.1743 9.1196C10.4712 9.41755 10.4712 9.89461 10.1743 10.1926C9.87626 10.4905 9.39998 10.4905 9.10311 10.1926Z" fill="#4588FD"/>
<path d="M17.9696 13.5889C16.1849 13.5889 14.3995 13.4097 12.6738 13.0527C11.0673 12.7541 9.5198 12.2777 8.09213 11.6221C7.73506 11.4429 7.55624 11.0256 7.67546 10.6679C7.8537 10.3109 8.27037 10.1317 8.62743 10.2506C9.93648 10.847 11.3648 11.2638 12.9117 11.5624C14.5182 11.8603 16.1849 12.0394 17.91 12.0394C19.6357 12.0394 21.3018 11.8603 22.9083 11.5624C24.3962 11.2638 25.8245 10.7873 27.1926 10.2506C27.5496 10.0726 28.0259 10.2506 28.1451 10.6679C28.3234 11.0256 28.1451 11.5021 27.7284 11.6221C26.3002 12.2174 24.7533 12.6944 23.1468 13.0527C21.5397 13.4097 19.7549 13.5889 17.9696 13.5889Z" fill="#4588FD"/>
<path d="M26.5986 25.6296C23.9209 24.5566 20.9457 24.0796 17.9706 24.0796C16.2449 24.0796 14.5787 24.2587 12.9722 24.5566C11.7228 24.7949 10.4728 25.1525 9.34255 25.6296C9.16372 26.2255 8.39056 26.4046 8.03349 25.9275C7.97388 25.8678 7.91427 25.7484 7.85466 25.6893C7.5572 25.2719 7.73603 24.7352 8.15212 24.5566C9.58039 23.9607 11.0683 23.4837 12.6748 23.1857C14.4005 22.8281 16.1858 22.6495 17.9706 22.6495C19.7559 22.6495 21.5407 22.8281 23.2664 23.1857C24.8729 23.4837 26.4204 23.9607 27.789 24.6163C28.2051 24.7949 28.3839 25.3316 28.0865 25.8081C28.0269 25.8678 27.9673 25.9867 27.9077 26.0464C27.5506 26.4046 26.7774 26.2255 26.5986 25.6296Z" fill="#4588FD"/>
<path d="M18.0288 29.2637C19.7545 29.2046 21.4802 26.999 22.3726 23.6619C22.8489 21.993 23.0867 20.0256 23.0867 18.1185C23.0867 16.2114 22.8489 14.2446 22.3726 12.5758C21.4802 9.23749 19.7545 7.03245 18.0288 6.97275H17.9095C16.1844 7.03245 14.4587 9.23749 13.5657 12.5758C13.0894 14.2446 12.8522 16.2114 12.8522 18.1185C12.8522 20.0853 13.0894 21.993 13.5657 23.6619C14.4587 27.0587 16.1844 29.2637 17.9095 29.2637C17.9095 29.2637 17.9691 29.2637 18.0288 29.2637ZM17.8499 30.754C15.351 30.6943 13.2086 28.1913 12.0784 24.0189C11.6021 22.2312 11.3047 20.1456 11.3047 18.0588C11.3047 15.9726 11.5425 13.9461 12.0784 12.0987C13.2086 7.986 15.351 5.42331 17.8499 5.3642C17.9095 5.3642 17.9691 5.3642 18.0288 5.3642C20.5276 5.42331 22.67 7.92688 23.8003 12.0987C24.8124 15.7941 24.8124 20.3236 23.8003 24.0189C22.67 28.1316 20.5276 30.6943 18.0288 30.754C18.0288 30.754 17.9095 30.754 17.8499 30.754Z" fill="#4588FD"/>
<path d="M17.9691 30.754C17.5524 30.754 17.1953 30.3964 17.1953 29.979V6.13862C17.1953 5.72126 17.5524 5.3642 17.9691 5.3642C18.3857 5.3642 18.7428 5.72126 18.7428 6.13862V29.979C18.7428 30.4561 18.3857 30.754 17.9691 30.754Z" fill="#4588FD"/>
<path d="M29.8696 18.835H6.06709C5.651 18.835 5.29395 18.4773 5.29395 18.0599C5.29395 17.6426 5.651 17.2855 6.06709 17.2855H29.8696C30.2857 17.2855 30.6427 17.6426 30.6427 18.0599C30.6427 18.4773 30.2857 18.835 29.8696 18.835Z" fill="#4588FD"/>
<path d="M20.4691 28.9663C20.9454 28.8469 21.5999 28.6683 22.0166 28.4892C22.85 28.1913 23.5635 27.7739 24.0398 27.4163L24.0994 27.3572C24.0994 27.3572 24.6943 26.9398 25.17 26.5224C30.4664 21.9332 30.2876 14.0063 25.2296 9.59569C25.17 9.53539 25.111 9.47627 25.111 9.47627C24.8726 9.29774 24.5751 8.9992 24.0994 8.70125C22.6711 7.74771 21.1242 7.15181 19.4581 6.91358C17.0779 6.67475 14.6976 7.15182 12.6148 8.2839C12.5552 8.2839 12.4962 8.34419 12.4962 8.34419C11.3058 8.99919 10.532 9.6548 9.7583 10.5492C7.97356 12.4563 6.90236 15.0787 6.84334 17.9996C6.84334 18.0588 6.84334 18.0588 6.84334 18.1185C6.84334 25.1515 13.2694 30.5754 20.4691 28.9663ZM5.35547 18.1185C5.35547 18.0588 5.35547 18.0588 5.35547 17.9996C5.41508 10.4895 12.0199 4.70795 19.3389 5.54208C19.4581 5.54208 19.5768 5.54208 19.7556 5.60179C20.9454 5.78091 22.0762 6.07885 23.0878 6.55533C27.4316 8.46301 30.6447 12.8737 30.6447 18.1185C30.6447 24.4959 25.9438 29.801 19.7556 30.6351C11.9603 31.7075 5.35547 25.6883 5.35547 18.1185Z" fill="#4588FD"/>
</svg>
