<svg width="39" height="36" viewBox="0 0 39 36" fill="none" xmlns="http://www.w3.org/2000/svg">
<path d="M7.26051 26.2654C3.8031 26.2654 0.967773 23.1837 0.967773 19.6817C0.967773 16.6695 3.11106 14.0783 5.87781 13.4482C5.87781 13.378 5.87781 13.378 5.87781 13.3079C5.87781 9.80592 8.71245 6.93404 12.1699 6.93404C12.9305 6.93404 13.6225 7.07435 14.3138 7.28485C15.2816 3.92251 18.3933 1.47093 22.0585 1.47093C26.4837 1.47093 30.1489 4.90273 30.1489 9.45577C34.574 9.45577 38.2393 13.3079 38.2393 17.7908C38.2393 22.273 34.6433 26.2654 30.1489 26.2654C29.8032 26.2654 27.7285 26.2654 27.7285 26.2654H7.26051Z" fill="#FA6444" fill-opacity="0.2"/>
<path d="M23.4419 26.335V32.7783C23.4419 34.0398 22.4049 35.0902 21.1601 35.0902H11.8942C10.6493 35.0902 9.6123 34.0398 9.6123 32.7783V26.335V23.3936C9.6123 22.132 10.6493 21.0816 11.8942 21.0816H21.1601C22.4049 21.0816 23.4419 22.132 23.4419 23.3936V26.335Z" fill="#FA6444"/>
<path d="M5.32377 0.980197C6.2922 0.980197 7.05212 1.75063 7.05212 2.73154C7.05212 3.71246 6.2922 4.48218 5.32377 4.48218C4.35534 4.48218 3.59473 3.71246 3.59473 2.73154C3.59473 1.75063 4.35534 0.980197 5.32377 0.980197Z" fill="#FA6444"/>
<path d="M35.5406 0.909765C36.9919 0.909765 38.1688 2.10118 38.1688 3.57115C38.1688 5.04113 36.9919 6.23254 35.5406 6.23254C34.0893 6.23254 32.9131 5.04113 32.9131 3.57115C32.9131 2.10118 34.0893 0.909765 35.5406 0.909765Z" fill="#FA6444"/>
<path d="M23.8571 13.307C23.65 13.307 23.4422 13.2368 23.3043 13.0972C22.958 12.8165 22.8894 12.2566 23.1658 11.8363C24.8256 9.80503 27.3145 8.61432 29.8735 8.61432C30.357 8.61432 30.772 9.03461 30.772 9.52506C30.772 10.0155 30.357 10.4351 29.8735 10.4351C27.7988 10.4351 25.7933 11.3459 24.4799 13.027C24.4106 13.1667 24.1335 13.307 23.8571 13.307Z" fill="#FA6444"/>
<path d="M10.716 15.7595C10.5082 15.7595 10.301 15.6894 10.1632 15.5497C9.05621 14.5688 7.53498 14.1485 6.08302 14.2889C5.59881 14.3583 5.18387 14.0082 5.11529 13.5177C5.04602 13.028 5.39168 12.6077 5.87589 12.5375C7.81138 12.2576 9.74825 12.8876 11.2695 14.1485C11.6151 14.4285 11.6844 14.9891 11.3381 15.4094C11.2002 15.6894 10.9924 15.7595 10.716 15.7595Z" fill="#FA6444"/>
<path d="M26.3466 27.2463C26.0009 27.2463 25.6552 27.0358 25.5167 26.6857C25.3096 26.2654 25.586 25.7055 26.0009 25.5652C32.3622 22.9038 31.1174 18.0006 31.0488 17.7908C30.9103 17.3004 31.1867 16.8099 31.6709 16.7397C32.1551 16.6001 32.6393 16.8801 32.7079 17.3705C32.7079 17.4407 33.1921 19.1212 32.6393 21.1525C32.1551 23.0441 30.7025 25.5652 26.6923 27.2463C26.5537 27.1762 26.4844 27.2463 26.3466 27.2463Z" fill="#FA6444"/>
<path d="M30.0786 27.2463C29.733 27.2463 27.7275 27.2463 27.6582 27.2463H23.4402C22.956 27.2463 22.6103 26.826 22.5411 26.4057C22.5411 25.9153 22.956 25.495 23.371 25.495H27.5897C27.5897 25.495 29.6637 25.495 30.01 25.495C33.8824 25.495 37.2013 21.993 37.2013 17.9304C37.2013 13.8685 33.8824 10.4361 30.01 10.4361C29.5258 10.4361 29.1109 10.0158 29.1109 9.52599C29.1109 5.53357 25.9299 2.4519 21.919 2.4519C18.738 2.4519 15.9033 4.55266 15.0042 7.63503C14.9349 7.84483 14.7964 8.05532 14.5892 8.19496C14.3814 8.33529 14.105 8.33529 13.8979 8.26512C13.3444 8.05532 12.7223 7.91499 12.031 7.91499C9.05712 7.91499 6.63674 10.3666 6.63674 13.3781V13.4483V13.5177C6.63674 13.9387 6.36034 14.2888 5.94539 14.3583C3.45642 14.9189 1.72738 17.16 1.72738 19.6818C1.72738 22.7635 4.21705 25.4248 7.12096 25.4248C7.19023 25.4248 8.78074 25.4248 9.54135 25.495C10.0256 25.495 10.3712 25.9153 10.3712 26.4057C10.3712 26.8962 9.9563 27.2463 9.47208 27.2463C8.64219 27.2463 7.19023 27.1762 7.12096 27.1762C3.24862 27.1762 -0.000976562 23.7437 -0.000976562 19.6818C-0.000976562 18.0006 0.55182 16.3896 1.58952 15.1294C2.48799 14.0784 3.66356 13.2378 4.90839 12.8175C5.18479 9.10571 8.29651 6.0935 12.031 6.0935C12.5838 6.0935 13.068 6.16367 13.6215 6.304C14.2436 4.83332 15.2113 3.50228 16.5254 2.52207C18.1159 1.33066 19.9136 0.700571 21.919 0.700571C24.3394 0.700571 26.552 1.61131 28.2117 3.22231C29.733 4.69298 30.6321 6.58396 30.77 8.68542C32.8447 8.89522 34.7809 9.80597 36.2328 11.417C37.8926 13.1676 38.8603 15.4795 38.8603 17.861C38.9989 22.9038 34.9194 27.2463 30.0786 27.2463Z" fill="#FA6444"/>
<path d="M11.8929 21.9921C11.1323 21.9921 10.441 22.6222 10.441 23.4628V32.8482C10.441 33.6186 11.063 34.3188 11.8929 34.3188H21.1588C21.9194 34.3188 22.6108 33.6887 22.6108 32.8482V23.3933C22.6108 22.6222 21.9887 21.922 21.1588 21.922H11.8929V21.9921ZM21.1588 36H11.8929C10.1646 36 8.71191 34.5988 8.71191 32.778V23.3933C8.71191 21.642 10.0946 20.1706 11.8929 20.1706H21.1588C22.8879 20.1706 24.3398 21.5718 24.3398 23.3933V32.778C24.3398 34.5293 22.8879 36 21.1588 36Z" fill="#FA6444"/>
<path d="M16.5232 33.3379C16.039 33.3379 15.624 32.9183 15.624 32.4272V24.5826C15.624 24.0922 16.039 23.6726 16.5232 23.6726C17.0074 23.6726 17.4223 24.0922 17.4223 24.5826V32.4973C17.4223 32.9183 17.0074 33.3379 16.5232 33.3379Z" fill="white"/>
<path d="M19.1515 28.085C18.9444 28.085 18.7366 28.0156 18.5294 27.8051L16.524 25.8439L14.5186 27.8752C14.1729 28.2253 13.6201 28.2253 13.2744 27.8752C12.9281 27.5251 12.9281 26.9645 13.2744 26.6143L15.9019 23.953C16.2476 23.6028 16.8004 23.6028 17.1468 23.953L19.7743 26.6143C20.1199 26.9645 20.1199 27.5251 19.7743 27.8752C19.5665 28.0156 19.3593 28.085 19.1515 28.085Z" fill="white"/>
<path d="M5.32381 1.82079C4.83959 1.82079 4.42464 2.24109 4.42464 2.73155C4.42464 3.222 4.83959 3.64229 5.32381 3.64229C5.80734 3.64229 6.22227 3.222 6.22227 2.73155C6.15369 2.24109 5.73875 1.82079 5.32381 1.82079ZM5.32381 5.32275C3.87185 5.32275 2.69629 4.13275 2.69629 2.66138C2.69629 1.19071 3.87185 -7.62939e-06 5.32381 -7.62939e-06C6.77577 -7.62939e-06 7.95131 1.19071 7.95131 2.66138C7.95131 4.13275 6.70718 5.32275 5.32381 5.32275Z" fill="#FA6444"/>
<path d="M35.5424 1.81969C34.5739 1.81969 33.8133 2.59011 33.8133 3.57102C33.8133 4.55124 34.5739 5.32165 35.5424 5.32165C36.5108 5.32165 37.2714 4.55124 37.2714 3.57102C37.2714 2.59011 36.5108 1.81969 35.5424 1.81969ZM35.5424 7.073C33.6062 7.073 32.085 5.53215 32.085 3.57102C32.085 1.60989 33.6062 0.0690556 35.5424 0.0690556C37.4785 0.0690556 38.9998 1.60989 38.9998 3.57102C38.9998 5.53215 37.4785 7.073 35.5424 7.073Z" fill="#FA6444"/>
</svg>
