<svg width="35" height="36" viewBox="0 0 35 36" fill="none" xmlns="http://www.w3.org/2000/svg">
<path d="M24.8496 30.6922H31.8877V33.0107H24.8496V30.6922Z" fill="white"/>
<path d="M24.3514 22.2712L7.10034 22.0273H6.4771C6.41533 22.0273 6.41531 22.0273 6.35292 22.0273C3.23911 22.0273 0.685547 19.526 0.685547 16.4746C0.685547 13.851 2.61586 11.5936 5.10703 11.0441C5.10703 10.9836 5.10703 10.9836 5.10703 10.9218C5.10703 7.87101 7.6606 5.3691 10.7744 5.3691C11.4594 5.3691 12.0821 5.49196 12.7047 5.67473C13.5769 2.74554 16.38 0.610369 19.6798 0.610369C23.6658 0.610369 26.9667 3.60009 26.9667 7.56599C30.9521 7.56599 34.2531 10.9218 34.2531 14.8272C34.2531 18.732 30.8903 22.2712 26.9043 22.2712C26.593 22.2712 26.0946 22.2712 25.5343 22.2712H24.3514Z" fill="#FF8A44" fill-opacity="0.2"/>
<path d="M24.8496 32.9493H31.8877V35.2678H24.8496V32.9493Z" fill="white"/>
<path d="M31.8253 28.3729V30.6914H24.8496V28.3729H28.3377H31.8253Z" fill="white"/>
<path d="M14.6973 32.9493H21.7341V35.2678H14.6973V32.9493Z" fill="white"/>
<path d="M14.6973 30.6922H21.7341V33.0107H14.6973V30.6922Z" fill="white"/>
<path d="M21.7341 28.3729V30.6914H14.6973V28.3729H18.1848H21.7341Z" fill="white"/>
<path d="M4.6084 32.9493H11.6452V35.2678H4.6084V32.9493Z" fill="white"/>
<path d="M4.6084 30.6922H11.6452V33.0107H4.6084V30.6922Z" fill="white"/>
<path d="M11.5834 28.3729V30.6914H4.6084V28.3729H8.09531H11.5834Z" fill="white"/>
<path d="M18.1828 29.1665C17.7467 29.1665 17.373 28.7997 17.373 28.3731V22.2708C17.373 21.8441 17.7467 21.478 18.1828 21.478C18.6183 21.478 18.9926 21.8441 18.9926 22.2708V28.3731C18.9926 28.7997 18.6183 29.1665 18.1828 29.1665Z" fill="#FA6444"/>
<path d="M21.2979 10.9219C21.1114 10.9219 20.9242 10.8614 20.8001 10.7391C20.4887 10.4952 20.4257 10.0068 20.6753 9.64066C22.1695 7.87105 24.4117 6.83372 26.7164 6.83372C27.1518 6.83372 27.5255 7.20048 27.5255 7.62715C27.5255 8.05442 27.1518 8.42056 26.7164 8.42056C24.8472 8.42056 23.0417 9.21399 21.8588 10.678C21.7964 10.8002 21.5475 10.9219 21.2979 10.9219Z" fill="#FA6444"/>
<path d="M9.46663 13.0566C9.27946 13.0566 9.09293 12.9961 8.96815 12.8739C7.97181 12.0199 6.60176 11.6532 5.29409 11.7754C4.85799 11.8365 4.4849 11.5315 4.42189 11.1043C4.36012 10.677 4.67082 10.3108 5.10691 10.2503C6.85129 10.0058 8.59443 10.5553 9.9651 11.6532C10.2764 11.8971 10.3382 12.3855 10.0269 12.7522C9.90271 12.9961 9.71556 13.0566 9.46663 13.0566Z" fill="#FA6444"/>
<path d="M24.3496 23.0655C24.0377 23.0655 23.7888 22.8821 23.664 22.6382C23.4774 22.2714 23.664 21.783 24.0377 21.6614C26.4671 20.6852 27.9613 19.2206 28.4598 17.3293C28.8335 15.987 28.5222 14.8886 28.5222 14.8886C28.3974 14.4613 28.6463 14.0346 29.0824 13.9735C29.5185 13.8512 29.954 14.0951 30.0164 14.5224C30.0164 14.5835 30.4525 16.0481 29.954 17.8177C29.5185 19.4645 28.2102 21.6614 24.5979 23.126C24.5979 23.126 24.5979 23.126 24.5362 23.126C24.5362 23.0037 24.4114 23.0655 24.3496 23.0655Z" fill="#FA6444"/>
<path d="M25.5338 21.5391H26.9038C30.3913 21.5391 33.381 18.4883 33.381 14.949C33.381 11.4104 30.3913 8.4207 26.9038 8.4207C26.4683 8.4207 26.094 8.05456 26.094 7.62728C26.094 4.14978 23.2291 1.46448 19.6175 1.46448C16.7526 1.46448 14.199 3.29523 13.3898 5.97992C13.3274 6.1633 13.2027 6.34606 13.0161 6.46831C12.8289 6.58995 12.58 6.58995 12.3929 6.52883C11.895 6.34606 11.3348 6.2238 10.7121 6.2238C8.03377 6.2238 5.85392 8.35958 5.85392 10.9837V11.0443V11.1054C5.85392 11.4715 5.60499 11.7766 5.23128 11.8377C2.98965 12.3261 1.43244 14.2785 1.43244 16.4748C1.43244 19.0989 3.61229 21.2341 6.29062 21.2341H6.4148H7.03681L25.5338 21.5391ZM26.9038 23.0654H25.5338H24.4126L7.16222 22.8209H6.4148C2.86489 22.8209 0 20.0146 0 16.5365C0 15.0719 0.498479 13.6678 1.43244 12.57C2.24224 11.6543 3.30098 10.922 4.42149 10.5565C4.67042 7.32226 7.47354 4.69869 10.8363 4.69869C11.3348 4.69869 11.7709 4.75982 12.2687 4.88207C12.829 3.60025 13.7011 2.44128 14.8846 1.58613C16.3165 0.549416 17.9361 -0.000106812 19.7422 -0.000106812C21.9215 -0.000106812 23.9148 0.793318 25.4096 2.19679C26.779 3.478 27.5889 5.12536 27.7136 6.95611C29.5822 7.13888 31.3259 7.93291 32.6336 9.33577C34.1278 10.8615 35 12.875 35 14.949C34.9376 19.2823 31.2629 23.0654 26.9038 23.0654Z" fill="#FA6444"/>
<path d="M21.7345 31.4238C21.2991 31.4238 20.9254 31.0577 20.9254 30.631V29.1047H15.4452V30.631C15.4452 31.0577 15.0715 31.4238 14.6354 31.4238C14.1993 31.4238 13.8262 31.0577 13.8262 30.631V28.3119C13.8262 27.8846 14.1993 27.5184 14.6354 27.5184H21.6728C22.1089 27.5184 22.482 27.8846 22.482 28.3119V30.631C22.482 31.0577 22.1089 31.4238 21.7345 31.4238Z" fill="#FA6444"/>
<path d="M21.7345 33.7429C21.2991 33.7429 20.9254 33.3768 20.9254 32.9501V31.4244H15.4452V32.9501C15.4452 33.3768 15.0715 33.7429 14.6354 33.7429C14.1993 33.7429 13.8262 33.3768 13.8262 32.9501V30.6316C13.8262 30.2043 14.1993 29.8375 14.6354 29.8375H21.6728C22.1089 29.8375 22.482 30.2043 22.482 30.6316V32.9501C22.482 33.3768 22.1089 33.7429 21.7345 33.7429Z" fill="#FA6444"/>
<path d="M15.5067 34.4743H20.9251V33.6815H15.4449V34.4743H15.5067ZM21.7343 36H14.6975C14.2614 36 13.8877 35.6333 13.8877 35.2066V32.9492C13.8877 32.5219 14.2614 32.1551 14.6975 32.1551H21.7343C22.1704 32.1551 22.5447 32.5219 22.5447 32.9492V35.2677C22.4817 35.6333 22.1086 36 21.7343 36Z" fill="#FA6444"/>
<path d="M28.3369 29.1665C27.9008 29.1665 27.5271 28.7997 27.5271 28.3731V26.0539H8.84359V28.3731C8.84359 28.7997 8.4705 29.1665 8.0344 29.1665C7.59893 29.1665 7.22461 28.7997 7.22461 28.3731V25.3222C7.22461 24.895 7.59893 24.5288 8.0344 24.5288H28.2745C28.71 24.5288 29.0843 24.895 29.0843 25.3222V28.3731C29.0843 28.7997 28.773 29.1665 28.3369 29.1665Z" fill="#FA6444"/>
<path d="M11.5829 31.4238C11.1468 31.4238 10.7731 31.0577 10.7731 30.631V29.1047H5.35531V30.631C5.35531 31.0577 4.981 31.4238 4.54552 31.4238C4.10942 31.4238 3.73633 31.0577 3.73633 30.631V28.3119C3.73633 27.8846 4.10942 27.5184 4.54552 27.5184H11.5829C12.019 27.5184 12.3921 27.8846 12.3921 28.3119V30.631C12.3921 31.0577 12.019 31.4238 11.5829 31.4238Z" fill="#FA6444"/>
<path d="M11.5829 33.7429C11.1468 33.7429 10.7731 33.3768 10.7731 32.9501V31.4244H5.35531V32.9501C5.35531 33.3768 4.981 33.7429 4.54552 33.7429C4.10942 33.7429 3.73633 33.3768 3.73633 32.9501V30.6316C3.73633 30.2043 4.10942 29.8375 4.54552 29.8375H11.5829C12.019 29.8375 12.3921 30.2043 12.3921 30.6316V32.9501C12.3921 33.3768 12.019 33.7429 11.5829 33.7429Z" fill="#FA6444"/>
<path d="M5.35604 34.4743H10.8363V33.6815H5.35604V34.4743ZM11.5837 36H4.60862C4.17253 36 3.79883 35.6333 3.79883 35.2066V32.9492C3.79883 32.5219 4.17253 32.1551 4.60862 32.1551H11.5837C12.0198 32.1551 12.3929 32.5219 12.3929 32.9492V35.2677C12.3929 35.6333 12.0198 36 11.5837 36Z" fill="#FA6444"/>
<path d="M31.825 31.4238C31.3889 31.4238 31.0152 31.0577 31.0152 30.631V29.1047H25.535V30.631C25.535 31.0577 25.1613 31.4238 24.7252 31.4238C24.2891 31.4238 23.916 31.0577 23.916 30.631V28.3119C23.916 27.8846 24.2891 27.5184 24.7252 27.5184H31.7626C32.1987 27.5184 32.5718 27.8846 32.5718 28.3119V30.631C32.6348 31.0577 32.2605 31.4238 31.825 31.4238Z" fill="#FA6444"/>
<path d="M31.825 33.7429C31.3889 33.7429 31.0152 33.3768 31.0152 32.9501V31.4244H25.535V32.9501C25.535 33.3768 25.1613 33.7429 24.7252 33.7429C24.2891 33.7429 23.916 33.3768 23.916 32.9501V30.6316C23.916 30.2043 24.2891 29.8375 24.7252 29.8375H31.7626C32.1987 29.8375 32.5718 30.2043 32.5718 30.6316V32.9501C32.6348 33.3768 32.2605 33.7429 31.825 33.7429Z" fill="#FA6444"/>
<path d="M25.5937 34.4743H31.0746V33.6815H25.5937V34.4743ZM31.822 36H24.8463C24.4108 36 24.0371 35.6333 24.0371 35.2066V32.9492C24.0371 32.5219 24.4108 32.1551 24.8463 32.1551H31.8843C32.3198 32.1551 32.6941 32.5219 32.6941 32.9492V35.2677C32.6318 35.6333 32.2574 36 31.822 36Z" fill="#FA6444"/>
</svg>
