<svg width="20" height="20" viewBox="0 0 20 20" fill="none" xmlns="http://www.w3.org/2000/svg">
<g clip-path="url(#clip0_10757_5676)">
<path d="M12.7615 2.98323C12.7862 3.24957 12.7327 3.47409 12.527 3.59736C12.3748 3.68981 12.2247 3.61277 12.0848 3.50711C11.984 3.43227 11.8832 3.35743 11.7762 3.2914C10.7992 2.68608 9.81802 2.03013 8.84301 1.42481C8.37403 1.13425 8.40282 1.14746 8.81216 0.815085C9.37165 0.357243 9.80979 0.436485 10.431 0.808482C11.0399 1.17388 11.4944 1.44902 12.0416 1.80121C12.4982 2.04774 12.7368 2.32729 12.7615 2.98323ZM17.0626 9.06285C16.859 9.21914 16.6492 9.28077 16.4476 9.1509C16.2974 9.05405 16.2851 8.87575 16.2995 8.69526C16.3098 8.56319 16.3201 8.43332 16.3201 8.30125C16.3242 7.09281 16.3674 5.85575 16.3736 4.65172C16.3756 4.07281 16.3797 4.10583 16.8528 4.31934C17.5028 4.6121 17.6571 5.05673 17.6633 5.81834C17.6715 6.56453 17.6756 7.12363 17.6592 7.80599C17.69 8.35408 17.5831 8.71287 17.0626 9.06285ZM14.2775 16.0824C14.0512 15.9701 13.897 15.8072 13.9011 15.5563C13.9052 15.3692 14.043 15.2679 14.1952 15.1931C14.3063 15.1381 14.4174 15.0808 14.5243 15.017C15.5055 14.4183 16.5299 13.8438 17.509 13.2495C17.98 12.9633 17.9554 12.9831 18.0171 13.5268C18.1035 14.2752 17.8196 14.6384 17.2066 15.0258C16.606 15.4044 16.1535 15.6862 15.594 16.0119C15.1641 16.3113 14.8185 16.3905 14.2775 16.0824ZM7.20156 16.9915C7.17893 16.7251 7.23447 16.5006 7.44017 16.3795C7.59444 16.2893 7.74254 16.3663 7.88241 16.472C7.9832 16.549 8.08399 16.6217 8.1889 16.6899C9.16184 17.3018 10.1389 17.9666 11.1077 18.5807C11.5747 18.8757 11.5459 18.8624 11.1345 19.1904C10.5709 19.6439 10.1348 19.5624 9.51564 19.1838C8.90884 18.814 8.45631 18.5367 7.91327 18.1779C7.45868 17.9291 7.22213 17.6474 7.20156 16.9915ZM2.94159 10.8766C3.14523 10.7225 3.35504 10.6631 3.55662 10.793C3.70678 10.8898 3.71706 11.0681 3.70061 11.2486C3.68826 11.3807 3.67798 11.5105 3.67798 11.6426C3.66564 12.8511 3.61421 14.0881 3.59982 15.2922C3.59364 15.8711 3.58953 15.838 3.11849 15.6223C2.47054 15.3252 2.32038 14.8783 2.31833 14.1167C2.31627 13.3705 2.31627 12.8114 2.33478 12.1291C2.3101 11.5832 2.42118 11.2222 2.94159 10.8766ZM5.77814 3.88131C6.00441 3.99357 6.15662 4.15866 6.15045 4.41179C6.14634 4.59889 6.00646 4.69794 5.85219 4.77278C5.74111 4.82781 5.63004 4.88284 5.52308 4.94667C4.53779 5.53659 3.50931 6.10449 2.52608 6.69C2.05298 6.97175 2.07972 6.95194 2.02007 6.40825C1.93985 5.65985 2.22576 5.29666 2.8408 4.91586C3.44554 4.54166 3.89807 4.26431 4.46168 3.94294C4.89159 3.64578 5.23922 3.56874 5.77814 3.88131ZM14.7383 1.44242C13.9155 1.44242 13.247 2.1578 13.247 3.03826C13.247 3.63698 13.5576 4.16086 14.0142 4.4338C14.006 5.84255 14.0019 7.24909 14.008 8.65784C14.0101 9.04304 13.862 9.21914 13.572 9.46567C13.4033 9.61094 13.2675 9.73861 13.1606 9.86188C13.0639 9.97194 12.9179 10.0182 12.78 9.98294L11.8194 9.74521C11.9408 10.1943 11.8359 10.6851 11.5459 11.0351L12.78 11.3411C12.8253 11.3521 12.8685 11.3521 12.9117 11.3455C12.9693 11.3697 13.0495 11.3367 13.1482 11.2772C13.4506 11.0901 14.4421 10.498 14.6395 10.3681C15.0777 10.082 15.2731 9.82005 15.2607 9.26096C15.2299 7.68712 15.2237 6.10889 15.2669 4.53506C15.8305 4.30613 16.2296 3.72283 16.2296 3.04266C16.2316 2.1578 15.5611 1.44242 14.7383 1.44242ZM15.271 3.91653C15.1188 4.02218 14.9357 4.08602 14.7383 4.08602C14.4524 4.08602 14.1973 3.95615 14.0183 3.74704C13.8579 3.55994 13.7612 3.31121 13.7612 3.04046C13.7612 2.46156 14.1993 1.99491 14.7383 1.99491C15.2793 1.99491 15.7153 2.46376 15.7153 3.04046C15.7174 3.40586 15.5405 3.72943 15.271 3.91653ZM11.0933 10.6235L10.9267 10.8128L10.8876 10.859L10.6799 11.0945C10.5133 11.286 10.2623 11.3675 10.0258 11.308L9.78305 11.2486L9.74191 11.2376L9.42925 11.1606C9.18858 11.1011 8.99729 10.9074 8.92735 10.6543L8.86153 10.4166L8.84918 10.3681L8.75662 10.0314C8.6908 9.78263 8.74839 9.51409 8.91295 9.32479L9.07957 9.13549L9.11865 9.09147L9.32846 8.85154C9.45805 8.70186 9.64112 8.62042 9.8283 8.62042C9.87972 8.62042 9.93115 8.62482 9.98052 8.63803L10.2212 8.69746L10.2664 8.70847L10.575 8.78551C10.8156 8.84494 11.009 9.03864 11.0769 9.29177L11.1427 9.5339L11.155 9.58233L11.2476 9.91911C11.3175 10.1656 11.2579 10.4364 11.0933 10.6235Z" fill="#325D28"/>
<path d="M18.0089 9.41699C17.2087 9.41699 16.5525 10.095 16.5176 10.9446C15.3698 11.6402 14.2241 12.3379 13.0824 13.0467C12.7718 13.2404 12.5559 13.1898 12.2123 13.0423C11.9964 12.9499 11.8154 12.886 11.6549 12.8486C11.5089 12.8156 11.3937 12.7011 11.3525 12.5493L11.081 11.5609C10.8403 11.8207 10.5133 11.9615 10.178 11.9615C10.0834 11.9615 9.98465 11.9505 9.89209 11.9263L10.25 13.2338C10.2726 13.3153 10.322 13.3813 10.3837 13.4231C10.4125 13.4671 10.466 13.5068 10.5359 13.5508C10.8383 13.7401 11.8112 14.363 12.0149 14.4819C12.4654 14.746 12.7739 14.7966 13.2223 14.5083C14.4647 13.7049 15.7236 12.9257 17.003 12.1905C17.2684 12.4502 17.6222 12.6087 18.0089 12.6087C18.8317 12.6087 19.5002 11.8933 19.5002 11.0128C19.5002 10.1324 18.8317 9.41699 18.0089 9.41699ZM18.0089 12.0606C17.8196 12.0606 17.6427 12.0034 17.4926 11.9021C17.2149 11.7172 17.0298 11.3892 17.0298 11.0128C17.0298 10.8588 17.0606 10.7113 17.1182 10.5792C17.2725 10.2182 17.6139 9.96508 18.0089 9.96508C18.5498 9.96508 18.9859 10.4339 18.9859 11.0106C18.988 11.5917 18.5498 12.0606 18.0089 12.0606Z" fill="#325D28"/>
<path d="M13.2554 16.274C12.9694 16.274 12.702 16.3598 12.4737 16.5117C11.3424 15.7941 10.2069 15.0809 9.06737 14.3766C8.75677 14.1851 8.69095 13.9584 8.63747 13.5643C8.60456 13.3222 8.56548 13.1241 8.51817 12.959C8.47497 12.8093 8.50788 12.6465 8.60662 12.532L9.27307 11.7726C8.84728 11.6581 8.50377 11.317 8.37006 10.8701L7.50614 11.8584C7.45677 11.9135 7.42798 11.9817 7.42386 12.0521V12.0543C7.40124 12.1028 7.39506 12.1732 7.39506 12.2591C7.39301 12.6333 7.37038 13.8483 7.37655 14.097C7.38889 14.6473 7.49997 14.9599 7.95661 15.2306C9.24839 16.001 10.5299 16.7935 11.7846 17.6321C11.7743 17.7113 11.7682 17.7906 11.7682 17.872C11.7682 18.7525 12.4387 19.4679 13.2595 19.4679C14.0823 19.4679 14.7508 18.7525 14.7508 17.872C14.7508 16.9916 14.0781 16.274 13.2554 16.274ZM13.2554 18.9154C12.7391 18.9154 12.3153 18.4862 12.2804 17.9425C12.2783 17.9183 12.2783 17.894 12.2783 17.8698C12.2783 17.379 12.593 16.9673 13.0188 16.8551C13.0949 16.8353 13.1731 16.8243 13.2554 16.8243C13.7963 16.8243 14.2324 17.2931 14.2324 17.8698C14.2345 18.4487 13.7963 18.9154 13.2554 18.9154Z" fill="#325D28"/>
<path d="M8.46254 8.91115L7.2263 8.60299C7.15019 8.58538 7.07409 8.59638 7.01032 8.6316C6.97124 8.64261 6.92393 8.66682 6.8725 8.69764C6.56807 8.88253 5.5725 9.46584 5.37298 9.59571C4.93484 9.87966 4.73738 10.1394 4.74355 10.6985C4.76412 12.3053 4.75795 13.9144 4.70035 15.5213C4.19022 15.7744 3.83643 16.3291 3.83643 16.9696C3.83643 17.8501 4.50494 18.5655 5.32772 18.5655C6.15051 18.5655 6.81902 17.8501 6.81902 16.9696C6.81902 16.3291 6.46317 15.7744 5.95304 15.5213C5.97155 14.1169 5.98595 12.7126 5.98801 11.3082C5.99007 10.923 6.14022 10.7491 6.43026 10.5048C6.60921 10.3551 6.7532 10.2208 6.86222 10.091C6.9589 9.98092 7.10494 9.93469 7.24276 9.96771L8.17867 10.1988C8.06554 9.74979 8.17045 9.25893 8.46254 8.91115ZM6.3089 16.9674C6.3089 17.5463 5.87076 18.013 5.33184 18.013C4.79086 18.013 4.35478 17.5441 4.35478 16.9674C4.35478 16.6416 4.49465 16.3489 4.71269 16.1574C4.88136 16.0099 5.09734 15.9197 5.33184 15.9197C5.56633 15.9197 5.78231 16.0077 5.95098 16.1552C6.16902 16.3489 6.3089 16.6416 6.3089 16.9674Z" fill="#325D28"/>
<path d="M9.75428 6.71245C9.72754 6.61339 9.65966 6.53635 9.57943 6.49673H9.57738C9.55475 6.47912 9.53007 6.46151 9.50127 6.4439C9.20095 6.2524 8.23212 5.62067 8.02848 5.4996C7.57801 5.23326 7.27152 5.17823 6.82105 5.46439C5.50253 6.30083 4.16551 7.11306 2.80586 7.87246C2.57136 7.70737 2.29161 7.61272 1.9913 7.61272C1.16851 7.61272 0.5 8.3281 0.5 9.20857C0.5 10.089 1.16851 10.8044 1.9913 10.8044C2.81408 10.8044 3.4826 10.089 3.4826 9.20857C3.4826 9.14253 3.47848 9.0787 3.47231 9.01487C4.6345 8.3237 5.79257 7.63033 6.94858 6.92596C7.26124 6.73446 7.47722 6.78729 7.81867 6.93697C8.0326 7.02941 8.21155 7.09325 8.36994 7.13287C8.51187 7.16809 8.62089 7.28255 8.66203 7.43003L8.92121 8.38313C9.23181 8.05076 9.68023 7.91208 10.1101 8.01554L9.75428 6.71245ZM1.99336 10.2563C1.45237 10.2563 1.0163 9.78748 1.0163 9.21077C1.0163 8.63407 1.45443 8.16522 1.99336 8.16522C2.10237 8.16522 2.20934 8.18503 2.30807 8.22025C2.69478 8.36112 2.97247 8.75073 2.97247 9.21077C2.97247 9.24819 2.97041 9.28341 2.9663 9.32083C2.91487 9.84691 2.49731 10.2563 1.99336 10.2563Z" fill="#325D28"/>
<path d="M12.6114 5.88262C12.597 5.33233 12.4818 5.02197 12.0231 4.75343C10.6778 3.96761 9.34081 3.15318 8.03669 2.29032C8.03875 2.26391 8.03875 2.23749 8.03875 2.21108C8.03875 1.33061 7.36818 0.615234 6.54745 0.615234C5.72467 0.615234 5.05615 1.33061 5.05615 2.21108C5.05615 3.09155 5.72467 3.80692 6.54745 3.80692C6.88685 3.80692 7.19951 3.68586 7.4484 3.48115C8.6003 4.19873 9.75426 4.91411 10.9144 5.61848C11.227 5.80778 11.2949 6.0345 11.3525 6.42631C11.3875 6.66404 11.4245 6.85554 11.4718 7.02063C11.515 7.16811 11.48 7.32659 11.3793 7.43885L10.7354 8.17404C11.1612 8.2885 11.5047 8.63188 11.6364 9.07872L12.5024 8.09039C12.5497 8.03536 12.5764 7.97373 12.5846 7.9055V7.90329C12.599 7.85487 12.6052 7.79324 12.6052 7.7206C12.6031 7.3464 12.6175 6.13136 12.6114 5.88262ZM6.94239 3.16639C6.82103 3.22362 6.68732 3.25663 6.54539 3.25663C6.00441 3.25663 5.56834 2.78779 5.56834 2.21108C5.56834 1.63217 6.00647 1.16553 6.54539 1.16553C7.02055 1.16553 7.41755 1.52872 7.50394 2.00857C7.51628 2.07461 7.52245 2.14284 7.52245 2.21108C7.52245 2.6359 7.28384 3.0035 6.94239 3.16639Z" fill="#325D28"/>
</g>
<defs>
<clipPath id="clip0_10757_5676">
<rect width="20" height="20" fill="white"/>
</clipPath>
</defs>
</svg>
